<?xml version="1.0" encoding="utf-8"?>
<!-- Generator: Adobe Illustrator 18.1.1, SVG Export Plug-In . SVG Version: 6.00 Build 0)  -->
<!DOCTYPE svg PUBLIC "-//W3C//DTD SVG 1.1//EN" "http://www.w3.org/Graphics/SVG/1.1/DTD/svg11.dtd">
<svg version="1.1" xmlns="http://www.w3.org/2000/svg" xmlns:xlink="http://www.w3.org/1999/xlink" x="0px" y="0px"
	 viewBox="0 0 174 174" enable-background="new 0 0 174 174" xml:space="preserve">
<g id="Alma">
	<g>
		<circle fill="#DFED8E" cx="85.8" cy="96.2" r="68.3"/>
		<g>
			<polygon fill="#A37D57" points="49,85.1 44.5,79 37,79 33,87.4 33,98 35.3,107.4 42.9,110.2 49,108.6 			"/>
			<polygon fill="#846142" points="41.1,88 39.7,87.9 36.5,90.2 37.6,94.1 40,99.3 			"/>
		</g>
		<g>
			<polygon fill="#EFBB5E" points="40.9,104.2 37,109.2 37,125 42.2,127 47.2,120.4 49,123.9 43.8,130.5 35,127.7 35,108 39.1,102 
							"/>
			<polygon fill="#BC8B44" points="49,123.9 47.1,120.4 42,127 43.6,130.5 			"/>
			<polygon fill="#D6A350" points="36.6,125 42,127 43.6,130.5 34.6,127.7 			"/>
		</g>
		<g>
			<path fill="#A37D57" d="M60.1,138c0,0,7.3,10.3,4.4,20.8c-2.8,10.5,32.2,7.1,32.2,7.1s13.8-6.2,15-10.4
				c1.2-4.2,1.2-25.6-4.3-31.8L60.1,138z"/>
			<path fill="#846142" d="M96.7,166c0,0,13.8-6.2,15-10.4c1.2-4.2,1.2-25.6-4.3-31.8L60.1,138"/>
		</g>
		<g>
			<path fill="#352C21" d="M135.3,84.5c-3.1,0-6.5-0.7-9.2,0.8c-0.6,0.3-1.2,0.8-1.8,1s-1.5,0.2-2-0.3c-0.4-0.4-0.5-0.9-0.5-1.5
				c-0.2-1.4-0.4-2.9-0.6-4.3c-0.5-3.3-0.9-6.6-0.6-9.8c0.2-2.2,0.7-4.3,1.1-6.4c0.6-3.5,0.7-7,0.8-10.5c0.1-2,0.1-4-0.3-5.9
				c-0.3-1.6-1-3-1.5-4.5c-0.6-1.8-0.9-3.7-1-5.6c10.6,9.4,17.3,23,18.2,37.1c0.2,2.8,0.1,5.6-0.6,8.3c-0.1,0.4-0.3,0.9-0.6,1.1
				C136.4,84.5,135.8,84.5,135.3,84.5z"/>
			<path fill="#352C21" d="M123.8,105.4c0.7-2.2,1.8-4.3,3.4-6c1.6-1.7,3.8-2.8,6.1-2.9c0.6,0,1.2,0.1,1.5,0.6
				c0.3,0.5-0.1,1.2-0.4,1.7c-1,1.3-2.2,2.5-3,3.9c-0.9,1.4-1.4,3.1-1,4.7c0.4,1.6,1.7,2.7,2.8,3.8c4.4,4.5,7.7,10.1,8.8,16.3
				c1.1,6.2-0.1,12.9-3.8,17.9c-3.4,4.7-8.7,7.7-14.2,9.9c-5.4,2.2-11.1,3.6-16.5,5.8c-3,1.2-6.1,3.1-6.8,6.2
				c-0.5-5.2,1.6-10.4,4.7-14.6s7.2-7.6,11.2-10.9c-4.9,1.3-9.3,4.5-11.9,8.8c0-2.8,1.6-5.5,3.7-7.3c2.1-1.9,4.8-3,7.4-4.1
				c-2.2,0.5-4.8,0.8-6.4-0.8c-1.2-1.2-1.3-3.3-0.5-4.7s2.4-2.5,4.1-2.9c-1.6,0.2-2.4,2.7-1.1,3.7c0.5,0.4,1.2,0.6,1.9,0.5
				c2.1,0,3.9-1.3,5.6-2.6c2-1.6,3.9-3.4,4.6-5.9c0.8-2.8-0.3-5.8-0.9-8.7C122.2,113.7,122.5,109.4,123.8,105.4z"/>
		</g>
		<polygon fill="#A37D57" points="43.6,80.9 43.3,82 41,92.9 38,108.2 40,121.4 50.2,134.3 69,142.1 76,148 86,148 92.5,141 
			107.5,137.2 122.2,129.5 130.3,114.3 127.2,93.7 124,77.3 123.2,64.7 108.3,53 74,53 52.8,58.2 		"/>
		<g>
			<polygon fill="#E09461" points="85.9,108.2 67.7,108.2 72.3,94 82.3,94 			"/>
			<polygon fill="#D17B3B" points="82.2,94 85.7,108.2 78.5,107.3 79.5,94 			"/>
			<polygon fill="#D17B3B" points="72.2,93.9 67.5,108.2 72.2,107.3 73.3,93.9 			"/>
			<polygon fill="#AF7A4A" points="67.5,108.2 72.2,107.3 78.5,107.3 85.7,108.2 			"/>
		</g>
		<g>
			<ellipse fill="#8C9B54" cx="98.3" cy="84.4" rx="6.1" ry="6.3"/>
			<path fill="#A6B53A" d="M104.5,84.4c0,3.5-2.7,6.3-6.1,6.3s-6.1-2.8-6.1-6.3c0-1,2.2,0.9,5.5,0.9S104.5,83.2,104.5,84.4z"/>
			<path fill="#F4EEEA" d="M102.4,80c0.9,1.2,0.8,2.5-0.4,2.8c-1.2,0.3-2.9-0.4-3.9-1.7c-0.9-1.2-0.8-2.5,0.4-2.8
				C99.7,78,101.4,78.8,102.4,80z"/>
		</g>
		<g>
			<ellipse fill="#8C9B54" cx="58.3" cy="85.4" rx="6.1" ry="6.3"/>
			<path fill="#A6B53A" d="M64.5,85.4c0,3.5-2.7,6.3-6.1,6.3c-3.4,0-6.1-2.8-6.1-6.3c0-1,2.2,0.9,5.5,0.9
				C61.2,86.3,64.5,84.2,64.5,85.4z"/>
			<path fill="#F4EEEA" d="M62.4,81c0.9,1.2,0.8,2.5-0.4,2.8c-1.2,0.3-2.9-0.4-3.9-1.7c-0.9-1.2-0.8-2.5,0.4-2.8
				C59.7,79,61.4,79.8,62.4,81z"/>
		</g>
		<g>
			<path fill="#3F3629" d="M64.1,72.6c2.7-2.8,4.1-6.7,7.2-8.9c2.6-1.8,6-2.1,9-3c7.2-2,13.3-7.3,16.8-13.9c1.7-3.1,2.8-6.7,2-10.1
				c-0.9-3.9-4.3-6.8-7.9-8.7c-6.5-3.5-14.1-4.5-21.3-3.3c-7.2,1.3-13.9,4.9-19.2,9.9c-5.6,5.4-9.5,12.3-15,17.7
				c-0.9,0.9-1.9,1.8-3.2,2.1c-1.3,0.3-2.8-0.3-3.2-1.5c-0.4-1.2,1.2-2.7,2.2-2c-1.8-0.8-3.9,0.6-4.7,2.4c-0.7,1.5-0.9,3.3,0,4.7
				s2.8,2.1,4.2,1.3c-4.1,0.8-6.5,5.3-7,9.5s0.2,8.5-0.6,12.6c-0.3,1.7-1,3.3-2.1,4.6c-1.2,1.2-3,1.9-4.6,1.5
				c-1.6-0.5-2.8-2.3-2.3-3.9c-0.6,3.3,2.4,6.2,5.6,7.4c7.7,2.9,16.5-0.4,23.3-5.1c7.4-5.2,13.5-12.2,17.6-20.3
				c0.1,1.8,0.9,3.5,0.8,5.3s-2,3.7-3.5,2.8C59.6,75.3,62.5,74.2,64.1,72.6z"/>
			<path fill="#493F30" d="M78.5,55.3c0.3,2.5,1.4,4.9,1.2,7.4c-0.3,3.4-3.3,6.4-6.7,6.6c-0.6,0-1.2,0-1.7-0.4s-0.6-1.2-0.1-1.6
				c-1.6,0.6-1.5,3.2-0.2,4.2c1.3,1.1,3.3,0.9,4.9,0.4c3.6-1.1,6.6-3.9,7.9-7.4c-0.5,4.1-2.6,8.1-5.8,10.8c-0.6,0.5-1.2,1-2,1
				c-0.8,0-1.6-0.5-1.5-1.3c0.3,1.7,2.5,2.2,4.3,2.1c4.3-0.4,8.2-2.5,11.9-4.8c3.4-2.2,6.9-5,8.4-8.8c0.6,3,1,6.5-1.2,8.5
				c-0.9,0.8-2.3,1.2-3.2,0.6c0.9,2.1,3.8,2.4,6,2c4.9-0.9,9.4-4,12-8.3c-0.3,2.6-0.8,5.2-1.4,7.8c-0.3,1.2-0.7,2.5-1.7,3.2
				c-1,0.7-2.8,0.2-2.9-1.1c-0.2,1.6,0.7,3.2,2,4.2c1.3,1,3,1.4,4.6,1.5c4.5,0.4,9.4-1.2,12.1-4.8c1.4-1.8,2.1-4,2.6-6.3
				c2.2-9.8,0.1-20.2-4.3-29.3c-1.1-2.2-2.3-4.5-4.2-6.1c-1.7-1.5-3.8-2.4-5.9-3c-3-0.9-6.2-1.2-9.4-0.8c-4.6,0.6-8.9,2.7-12.8,5.1
				c-3.4,2.1-6.7,4.4-9.1,7.4C79.6,47.4,78,51.3,78.5,55.3z"/>
		</g>
		<g>
			<path fill="#FCC2B4" d="M103.7,110.9c0.3,0.3,0.5,0.7,0.5,1.1c0.3,1.9-0.9,3.7-2.1,5.1c-8,9.3-21.5,13.4-33.3,10.3
				c-1.3-0.3-2.5-0.8-3.5-1.6s-1.6-2.2-1.2-3.5c13,0.4,26-3.5,36.7-10.9C101.7,110.8,102.9,110.2,103.7,110.9z"/>
			<path fill="#DD988A" d="M81.1,120.4c0,0-5.3,3.9-5.9,8.1c0,0,11,0.6,19.3-4.9s8.8-7.9,9.5-9.4c0.2-0.5,0.9-5.3-2.9-2.8
				S84,120.3,81.1,120.4z"/>
			<path opacity="0.37" fill="#7C7C7C" d="M97.1,113.6c-2.6,1.3-5.2,2.6-7.9,3.7c-2.1,0.9-4.3,1.7-6.3,2.8c-1.3,0.6-2.5,1.4-3.9,1.8
				c-0.8,0.2-1.6,0.3-2.4,0.4c-1.9,0.3-3.7,0.5-5.6,0.8c1.8,1.1,4.1,0.8,6.2,0.5c0.8-0.1,1.6-0.2,2.4-0.3c1.3-0.2,2.6-0.3,3.9-0.9
				c1.4-0.6,2.6-1.6,3.9-2.6c2.2-1.7,4.5-3.1,7-4.2C95.4,115.1,96.6,114.6,97.1,113.6z"/>
			<path fill="#FFFFFF" d="M84.4,120.3c0-0.3-0.1-0.5-0.4-0.6c-0.2-0.1-0.5,0-0.7,0.1c-4.3,1.4-8.7,2.3-13.2,2.5
				c-0.1,0.5,0.2,0.9,0.7,1.1c0.4,0.2,0.9,0.3,1.3,0.3c0.7,0.1,1.5,0.1,2.3,0c0.7,0,1.4-0.1,1.9-0.5c0.5-0.4,0.8-1.2,0.5-1.7
				c-0.1,0.6,0.5,1.2,1.1,1.4c0.6,0.2,1.2,0.1,1.9,0c0.5-0.1,1.1-0.2,1.6-0.2c0.7-0.1,1.4-0.2,2.1-0.6
				C83.9,121.7,84.4,121,84.4,120.3z"/>
		</g>
		<g>
			<ellipse opacity="0.24" fill="#D17A6B" cx="102" cy="99.6" rx="11" ry="7.6"/>
		</g>
		<g>
			<polygon fill="#A37D57" points="125,83.1 129.5,77 137,77 141,85.4 141,96 138.7,105.4 131.1,108.2 125,106.6 			"/>
			<polygon fill="#846142" points="128.2,90.1 130.3,84 135.3,84.5 136.8,92.6 132.5,101.1 130.1,96.4 132.5,92.6 131.8,90 			"/>
		</g>
		<g>
			<polygon fill="#EFBB5E" points="132.9,105.2 137,110.2 137,126 131.7,128 126.5,121.4 124.6,124.9 130.1,131.5 139,128.7 
				139,109 134.8,103 			"/>
			<polygon fill="#BC8B44" points="124.6,124.9 126.5,121.4 131.7,128 130.1,131.5 			"/>
			<polygon fill="#D6A350" points="137,126 131.7,128 130.1,131.5 139,128.7 			"/>
		</g>
		<g>
			<ellipse opacity="0.24" fill="#D17A6B" cx="57" cy="100.6" rx="11" ry="7.6"/>
		</g>
	</g>
</g>
<g id="Capn_Cutout">
</g>
</svg>
