<?xml version="1.0" encoding="utf-8"?>
<!-- Generator: Adobe Illustrator 18.1.1, SVG Export Plug-In . SVG Version: 6.00 Build 0)  -->
<!DOCTYPE svg PUBLIC "-//W3C//DTD SVG 1.1//EN" "http://www.w3.org/Graphics/SVG/1.1/DTD/svg11.dtd">
<svg version="1.1" xmlns="http://www.w3.org/2000/svg" xmlns:xlink="http://www.w3.org/1999/xlink" x="0px" y="0px"
	 viewBox="0 0 174 174" enable-background="new 0 0 174 174" xml:space="preserve">
<g id="Alma">
</g>
<g id="Capn_Cutout">
	<g>
		<circle fill="#F76A8C" cx="85.8" cy="96.2" r="68.3"/>
		<path fill="#CCA992" d="M62,136c0,0,5.3,17.5,2.7,23.8c-2.6,6.3,32.6,11.5,42,1.5c0,0,1.1-19-2-29.7L62,136z"/>
		<path fill="#B7907B" d="M62,136l2.6,8.8l42.1,16.5c0,0,0.7-26.9-2-30.7C102,126.7,62,136,62,136z"/>
		<g>
			<path fill="#49301F" d="M55.5,70.1c0.5-3.7,0.3-7.8-2.2-10.5c-1-1.1-2.4-1.9-3.7-2.4c-1.7-0.7-3.6-1-5.4-0.6
				c-3.5,0.8-5.7,4.4-6.4,7.9c-1.7,8.5,3,17.7,0.1,25.8c-0.3,0.9-0.7,1.8-1.4,2.5c-1.8,2-5.5,2-7.3-0.1c1.5,2.7,4.9,4.1,7.9,3.4
				c-1.5,7.1,1.1,14.8,6.5,19.6c-0.7-1.3-1-2.8-0.8-4.2c1.2,1.2,2.6,2.3,4.2,3c-0.8-3.1-0.3-6.4,0.4-9.6c0.7-3.1,1.8-6.2,2.2-9.4
				c0.3-2.7,0.2-5.4,0.8-8c0.5-2.2,1.6-4.3,2.4-6.4C54.1,77.5,55,73.8,55.5,70.1z"/>
			<path fill="#49301F" d="M112.6,112.4c1.3-13.8,5.3-27.3,4.7-41.1c-0.2-3.6-0.5-7.8,2.1-10.4c0.6-0.6,1.3-1.1,1.8-1.7
				c0.5-0.7,0.7-1.7,0.3-2.3c2.4,4.4,2.8,9.5,2.7,14.5s-0.8,10-0.4,14.9c0.1,1.6,0.4,3.2,1.1,4.6s2,2.6,3.6,2.9
				c1.6,0.3,3.4-0.4,4-1.9c-0.1,1.6-0.9,3.1-2.2,4.1c-0.8,0.5-1.7,0.9-2.3,1.6c-1.3,1.6-0.5,3.9-0.1,5.9c1,4.9-1.2,10.2-5,13.6
				c-1.1,1-2.4,1.9-3.4,3c-1,1.1-1.8,2.6-1.7,4.1c0.1,1.5,1.5,2.9,3,2.8c-3.2,0.4-6.1-2.1-7.4-5
				C112.2,118.9,112.3,115.6,112.6,112.4z"/>
		</g>
		<g>
			<polygon fill="#CCA992" points="46.9,73 43.2,101.7 53.9,132.5 75.7,145 92.9,145 112,130.1 121.6,101.6 116.6,68.2 108.8,51 
				57.6,51 			"/>
		</g>
		<g>
			<polygon fill="#CCA992" points="117.3,82.4 120.8,76 125.3,76 128,84.5 128,99.3 126.2,107.6 121.5,108.2 117.7,104.6 			"/>
			<polygon fill="#CCA992" points="50.7,81.4 47.3,75 42.7,75 40,83.6 40,98.4 41.8,106.6 46.6,107.2 50.4,103.6 			"/>
		</g>
		<g>
			<g>
				<path fill="#665A53" d="M48.3,63.6c0,0,10.8-14.9,30.4-15.2s37.5,14.3,37.5,14.3s24.9-11.9,31.1-22.4s-9.7-12.1-9.7-12.1
					S113.2,5.7,79.1,6.2C45,6.6,35.7,36.7,35.7,36.7s-21.5-1-9.4,16.1L48.3,63.6z"/>
				<path fill="#514641" d="M103.8,47c0,0,20.4-12.5,29.6-9.2s7.9,9.2,7.9,9.2s-18.8,13.4-21.9,13.9C116.2,61.4,103.8,47,103.8,47z"
					/>
				<path fill="#514641" d="M44,61.9l-17.3-8.8c0,0-1.9-6.7,2.5-8.6s10.8,0,10.8,0s14.3,5.9,15.5,8.3C56.6,55.2,44,61.9,44,61.9z"/>
			</g>
			<g>
				<path fill="#DDD6D3" d="M75.5,14.5c3.2-0.4,6.6,0.1,9.4,1.8c2.7,1.8,4.6,4.9,4.5,8.2s-2.6,6.4-5.8,6.9c0.5,0.9,1.1,1.8,1.3,2.8
					s-0.2,2.2-1.1,2.7c-1.5,0.9-3.3-0.5-4.4-1.8c0.2,1.6-1.1,3.2-2.6,3.4c-1.6,0.2-3.2-1-3.5-2.5c-0.6,1.6-2.1,2.8-3.8,3.1
					c-0.4,0.1-0.7,0.1-1.1-0.1c-0.6-0.3-0.8-1-0.9-1.6c-0.2-1.4,0.1-2.8,0.8-4c0.1-0.3,0.3-0.5,0.3-0.9c0-0.5-0.5-0.9-1-1.2
					c-3.2-2.4-3.8-7.3-1.9-10.8S71.5,15,75.5,14.5z"/>
				<path fill="#DDD6D3" d="M96.3,13.1c0.8,0.1,1.3,0.9,1.2,1.7c0,0.8-0.5,1.4-1,2c1.4-0.3,2.9,0.1,4,1.1c0.2,0.2,0.5,0.5,0.5,0.9
					c0.1,0.6-0.3,1.3-0.9,1.5c-0.6,0.3-1.3,0.2-1.9,0.1c-0.5-0.1-1-0.3-1.5-0.2c-0.7,0-1.4,0.4-2,0.8c-0.9,0.6-1.9,1.2-2.8,1.7
					c-0.4-1.5-1-2.9-1.7-4.2c0.9-0.7,1.9-1.4,2.8-2.1c0.2-0.1,0.4-0.3,0.5-0.5c0.2-0.4,0-1,0.1-1.5c0.2-0.7,1.1-1,1.8-1.2
					C95.6,13.1,96,13.1,96.3,13.1z"/>
				<path fill="#DDD6D3" d="M92.4,35.5c-0.2,0.6-0.5,1.2-0.9,1.6c-0.4,0.4-1.1,0.7-1.7,0.5s-1-0.9-0.8-1.4c0.2-0.5,0.8-0.9,0.7-1.4
					c0-0.2-0.2-0.3-0.3-0.4c-0.7-0.7-1.4-1.4-2.1-2.2c1-0.5,1.9-1.1,2.6-1.9c1.3,0.9,2.6,2,3.7,3.2c0.6-0.4,1.4-0.6,2-0.3
					c0.6,0.3,1,1.2,0.6,1.8c-0.3,0.5-1,0.6-1.6,0.7C93.9,35.7,93.1,35.8,92.4,35.5z"/>
				<path fill="#DDD6D3" d="M63,21.9c0.3-0.9,0.8-1.7,1.5-2.4c-1-0.7-2-1.3-3.2-1.7c0.4-0.7,0.3-1.6-0.4-2.1
					c-0.6-0.5-1.6-0.3-2.1,0.3c-0.5,0.6-0.3,1.6,0.3,2.1c-0.5,0-1.1,0-1.6,0.2c-0.5,0.2-0.9,0.7-0.9,1.2c0,0.7,0.7,1.3,1.5,1.3
					c0.7,0,1.4-0.3,2.1-0.7C61.1,20.8,62.1,21.4,63,21.9z"/>
				<path fill="#DDD6D3" d="M63.5,31.3c0.1,0,0.2,0.1,0.2,0.2c0.5,0.9,0.9,2.1,1.8,2.4c-0.4,1.3-2.5,1.5-2.8,2.9
					c-0.1,0.4,0,0.8-0.1,1.2c-0.1,1-1.4,1.7-2.3,1.3s-1.2-1.9-0.4-2.6c-0.6,0-1.2,0-1.8-0.2c-0.6-0.2-1-0.8-0.9-1.4
					c0.1-0.6,0.7-1,1.2-1.1s1.2,0.1,1.8,0.2c0.1,0,0.2,0.1,0.3,0c0.2,0,0.3-0.2,0.4-0.3c0.7-0.8,1.4-1.5,2.1-2.3
					C63.2,31.4,63.3,31.2,63.5,31.3z"/>
				<ellipse fill="#665A53" cx="71.6" cy="23.9" rx="1.7" ry="3.6"/>
				<ellipse fill="#665A53" cx="80.1" cy="23.6" rx="1.7" ry="3.6"/>
			</g>
		</g>
		
			<ellipse transform="matrix(0.9831 -0.1832 0.1832 0.9831 -15.201 19.7923)" opacity="0.4" fill="#E59B8F" cx="99.5" cy="92.2" rx="10.2" ry="6.1"/>
		
			<ellipse transform="matrix(-0.9976 -6.931456e-02 6.931456e-02 -0.9976 110.4289 192.212)" opacity="0.4" fill="#E59B8F" cx="58.5" cy="94.2" rx="10.2" ry="6.1"/>
		<g>
			<path fill="#514641" d="M110.7,55.2c-12.5,5.4-25.7,9-38.8,12.5L44.9,71l2.8,11.2l7.1,6.8H66l6.1-7.9L74.1,68
				c12.5-3.4,25.1-6.8,37-12C111.7,55.7,111.2,55,110.7,55.2z"/>
			<polygon fill="#352C29" points="54.9,89 56.7,85 64.7,85 66,89 			"/>
			<polygon fill="#443935" points="64.7,85 66,88.6 72.1,80.4 			"/>
			<polygon fill="#443935" points="56.7,85 54.9,88.6 47.7,81.5 			"/>
		</g>
		<path fill="#563A28" d="M83.9,54.1c-0.7,1-2,1.2-2.5,2.3c-0.2,0.5-0.2,1.2-0.3,1.8c-0.3,2.8-2.6,4.9-4.9,6.1
			c-3.7,2-7.8,2.8-11.8,3.5s-8.1,1.3-11.9,3c-3.8,1.7-7.4,4.5-9.3,8.6c-1.2,2.4-1.6,5.6-0.2,7.9c-1.8-1-2.7-3.6-2.5-5.8
			c0.2-2.3,1.2-4.4,2.2-6.4c-3.5,2.9-5.3,8.3-4.6,13.2c0.6,3.7,2.5,6.9,4.3,9.9c-4.6-1.4-7.8-6.7-8.3-12.1
			c-0.5-5.4,1.2-10.9,3.7-15.5c4.9-9.1,12.8-15.8,21.3-20.4c5.6-3.1,11.5-5.4,17.7-5.7c2.2-0.1,4.6,0.1,6.1,2c1,1.3,1.4,3.2,1.5,4.9
			C84.4,52.3,84.4,53.4,83.9,54.1z"/>
		<g>
			<polygon fill="#B7907B" points="43.8,84.4 41,84.5 41,91.2 42.5,100 44.6,100 44.5,91 			"/>
			<polygon fill="#B7907B" points="118.2,90 121.6,83 123.7,83 125.9,92.6 124.5,102 118.8,102 			"/>
		</g>
		<g>
			<path fill="#937264" d="M103,80.9c-0.1,0-0.1,0-0.2,0c-3.9-1.3-8-2.1-12.1-2.4c-0.8,0-0.9-0.5-0.9-0.7c0-0.3,0.2-0.5,0.3-0.6
				c3.3-3.8,8.2-6.2,13.2-6.2c0,0,0,0,0,0c0.3,0,0.5,0.1,0.5,0.4c0,0.3-0.2,0.5-0.5,0.5c-4.6,0.2-9.2,2.3-12.3,5.7
				c4.1,0.2,8.2,1,12.1,2.4c0.3,0.1,0.4,0.4,0.3,0.6C103.4,80.8,103.2,80.9,103,80.9z"/>
		</g>
		<path fill="#60412C" d="M77.6,56.3c-1.1,3.4-0.6,7.2,1.2,10.2c1.4,2.3,3.6,4.1,5.4,6.3c1.8,2.1,3.1,4.9,2.5,7.5
			c1.8-3.4,0.6-7.6-0.7-11.3s-2.8-7.6-1.7-11.3c0,1.4,1.1,2.5,2.3,3.2c2.1,1.3,4.4,2.1,6.7,3s4.5,2.1,6.2,3.9c1.7,1.8,2.7,4.4,2,6.8
			c0.9-1.9,0.9-4.2,0.4-6.2c-0.5-2.1-1.5-4-2.5-5.8c5.2,3.8,8.7,10,9.1,16.4c0,0.4,0.1,1,0.5,1.1c0.2,0.1,0.4,0,0.6-0.1
			c0.7-0.2,1.3-0.4,2-0.6c0,0.7,0.1,1.4,0.1,2.1c1-0.2,2-0.3,3.1-0.5c0.1,0.9-0.1,1.7-0.5,2.5c1.7-0.2,3.1-1.4,3.9-2.8
			c0.8-1.4,1.2-3.1,1.4-4.8c0.3-2.9,0.2-5.8-0.3-8.6c1.3,2.7,4.1,4.8,7.1,4.9s6.1-1.8,7-4.7c-1.1,0.7-2.3,1.4-3.6,1.5
			c-1.6,0.1-3.1-0.6-4.3-1.7c-3.3-2.8-4.5-7.3-6.5-11.2c-4.8-8.9-14.8-14-24.8-15.2c-4.3-0.5-8.8-0.3-12.5,1.9
			c-3.7,2.2-6,7-4.5,10.9"/>
		<path fill="#60412C" d="M82.1,138.7c-0.4,0-0.7,0.1-1.1,0.2c-1.8,0.6-4-0.4-4.9-2.1c-0.2-0.4-0.3-0.8-0.7-1
			c-0.3-0.2-0.7-0.1-1.1-0.1c-1.1,0.2-2.4,0.6-2.5,1.7c-2.4,0.9-4.1,3.3-4.1,5.8c0.4-0.3,0.8-0.7,1.2-1c0.5,2,1.4,4,2.6,5.7
			c0.3-0.5,0.6-0.9,1-1.4c1.4,2.2,3.2,4.1,5.3,5.7c-0.1-0.7,0.1-1.4,0.5-2c0.9,0.9,1.9,1.8,3.1,2s2.7-0.7,2.5-2c1,0.7,2,1.4,3.1,2
			c0.5-0.7,0.9-1.5,1.4-2.2c1,0.8,2.6,1.4,3.3,0.4c0.2-0.3,0.2-0.7,0.4-1.1c0.5-0.9,1.8-0.8,2.7-1.2c1.5-0.7,1.8-2.9,1.2-4.5
			s-1.7-2.9-2.4-4.5c0.6,0.8,2.2,0.3,2.2-0.7c0-0.5-0.3-1-0.6-1.4c-0.8-1-1.7-1.9-2.8-2.6c-0.5,1-2,1.3-2.9,0.5
			c-1.3,1.5-2.7,2.8-4.2,4c-0.5,0.4-1.2,0.8-1.8,0.6C83.1,139.3,82.7,138.8,82.1,138.7z"/>
		<g>
			<polygon fill="#D68467" points="85.3,108 71.5,108 75,78.6 82.6,78.6 			"/>
			<polygon fill="#B2664F" points="82.6,79 85.3,108.1 79.8,106.4 80.6,79 			"/>
			<polygon fill="#B2664F" points="75,78.6 71.5,108 75,106.1 75.9,78.6 			"/>
			<polygon fill="#964C3B" points="71.5,107.8 75,103.7 79.8,103.7 85.3,107.7 			"/>
		</g>
		<g>
			<path fill="#C17B70" d="M71,116c-1.5,4.4-0.6,9.5,2.4,13c0.9,1.1,2,2,3.4,2.5c1.6,0.5,3.3,0.3,5,0c1.7-0.4,3.5-0.9,4.8-2.1
				c1.7-1.6,2.2-4.2,2.3-6.6c0.2-3.5-0.5-7.4-3.3-9.4c-0.9-0.7-2-1.1-3.1-1.4c-2.3-0.8-4.9-1.7-7.3-0.8
				C73.1,111.9,71.7,113.9,71,116z"/>
			<path opacity="0.37" fill="#7C7C7C" d="M74,116.8c0.8,0,1.5,0.3,2.2,0.4c0.6,0,1.1-0.1,1.7-0.1c1.7-0.2,3.4,0,5,0
				c1.6,0,3.2-0.3,4.8-0.5c0-0.6-0.4-1.1-0.9-1.4c-0.5-0.3-1.1-0.4-1.7-0.5c-2.4-0.4-4.8-0.6-7.2-0.4c-2.4,0.2-4.8,0.9-6.8,2.2
				c-0.3,0.2-0.6,0.7-0.4,0.9C71.8,117.6,72.9,116.8,74,116.8z"/>
			<path fill="#EFBB5E" d="M73.7,114.9c0.3-1,0.3-2.1,0.1-3.1c-1.6,1.3-2.7,3.1-3,5c0.7,0,1.4-0.1,2-0.3c0.1-0.1,0.3-0.1,0.4-0.2
				c0.1-0.1,0.2-0.3,0.3-0.5C73.5,115.5,73.6,115.2,73.7,114.9z"/>
			<path fill="#FFFFFF" d="M73.8,115.9c0.2,0.2,0.4,0.2,0.6,0.2c0.7,0.1,1.4,0.2,2.1,0.1c0.7-0.1,1.4-0.5,1.7-1.1
				c-0.1,0.3,0.2,0.6,0.5,0.8c0.3,0.1,0.6,0.1,0.9,0.1c2.6-0.2,5.3-0.3,7.9-0.5c-0.4-1-1.3-1.9-2.2-2.4c-1-0.6-2-0.9-3.1-1.3
				c-1.5-0.5-2.9-1-4.5-1c-1.4,0-2.7,0.3-3.9,1c-0.1,1.1-0.1,2.2-0.2,3.2C73.6,115.3,73.6,115.7,73.8,115.9z"/>
		</g>
	</g>
</g>
</svg>
