<?xml version="1.0" encoding="utf-8"?>
<!-- Generator: Adobe Illustrator 18.1.1, SVG Export Plug-In . SVG Version: 6.00 Build 0)  -->
<!DOCTYPE svg PUBLIC "-//W3C//DTD SVG 1.1//EN" "http://www.w3.org/Graphics/SVG/1.1/DTD/svg11.dtd">
<svg version="1.1" id="Layer_1" xmlns="http://www.w3.org/2000/svg" xmlns:xlink="http://www.w3.org/1999/xlink" x="0px" y="0px"
	 viewBox="0 0 500 500" enable-background="new 0 0 500 500" xml:space="preserve">
<g>
	<linearGradient id="SVGID_1_" gradientUnits="userSpaceOnUse" x1="250" y1="499.3899" x2="250" y2="2.049277e-05">
		<stop  offset="0" style="stop-color:#1E0055;stop-opacity:0.8"/>
		<stop  offset="1" style="stop-color:#02003F"/>
	</linearGradient>
	<rect x="0" y="0" fill="url(#SVGID_1_)" width="500" height="499.4"/>
	<text transform="matrix(1 0 0 1 28.0002 443.5502)" fill="#E6EEEF" font-family="'EdwardianScriptITC'" font-size="72">Happy New Year!</text>
	<circle opacity="0.5" fill="#FFFFFF" cx="245.7" cy="330.9" r="4.3"/>
	<circle opacity="0.5" fill="#FFFFFF" cx="181.2" cy="255" r="2.2"/>
	<g>
		<circle opacity="0.5" fill="#FFFFFF" cx="28" cy="34.9" r="4.3"/>
		<circle opacity="0.5" fill="#FFFFFF" cx="91.3" cy="78.9" r="4.3"/>
		<circle opacity="0.5" fill="#FFFFFF" cx="136.7" cy="52.9" r="4.3"/>
		<circle opacity="0.5" fill="#FFFFFF" cx="174.7" cy="159.5" r="4.3"/>
		<circle opacity="0.5" fill="#FFFFFF" cx="45.3" cy="240.9" r="4.3"/>
		<circle opacity="0.5" fill="#FFFFFF" cx="254.3" cy="302.9" r="4.3"/>
		<circle opacity="0.5" fill="#FFFFFF" cx="342" cy="268.9" r="4.3"/>
		<circle opacity="0.5" fill="#FFFFFF" cx="292.7" cy="198.9" r="4.3"/>
		<circle opacity="0.5" fill="#FFFFFF" cx="450.7" cy="179.5" r="4.3"/>
		<circle opacity="0.5" fill="#FFFFFF" cx="422" cy="138.2" r="4.3"/>
		<circle opacity="0.5" fill="#FFFFFF" cx="313.3" cy="70.2" r="4.3"/>
		<circle opacity="0.5" fill="#FFFFFF" cx="495.7" cy="34.9" r="4.3"/>
		<circle opacity="0.5" fill="#FFFFFF" cx="466.7" cy="50.2" r="2.2"/>
		<circle opacity="0.5" fill="#FFFFFF" cx="468.8" cy="18.9" r="2.2"/>
		<circle opacity="0.5" fill="#FFFFFF" cx="405.3" cy="109.5" r="2.2"/>
		<circle opacity="0.5" fill="#FFFFFF" cx="342" cy="83.2" r="2.2"/>
		<circle opacity="0.5" fill="#FFFFFF" cx="319.8" cy="52.9" r="2.2"/>
		<circle opacity="0.5" fill="#FFFFFF" cx="277.8" cy="113.9" r="2.2"/>
		<circle opacity="0.5" fill="#FFFFFF" cx="337.7" cy="142.5" r="2.2"/>
		<circle opacity="0.5" fill="#FFFFFF" cx="322" cy="153" r="2.2"/>
		<circle opacity="0.5" fill="#FFFFFF" cx="245.7" cy="2.2" r="2.2"/>
		<circle opacity="0.5" fill="#FFFFFF" cx="209.5" cy="63.7" r="2.2"/>
		<circle opacity="0.5" fill="#FFFFFF" cx="196" cy="144.7" r="2.2"/>
		<circle opacity="0.5" fill="#FFFFFF" cx="211.7" cy="203.2" r="2.2"/>
		<circle opacity="0.5" fill="#FFFFFF" cx="170.3" cy="238.7" r="2.2"/>
		<circle opacity="0.5" fill="#FFFFFF" cx="74" cy="309.4" r="2.2"/>
		<circle opacity="0.5" fill="#FFFFFF" cx="41" cy="278.4" r="2.2"/>
		<circle opacity="0.5" fill="#FFFFFF" cx="76.2" cy="245.2" r="2.2"/>
		<circle opacity="0.5" fill="#FFFFFF" cx="10" cy="227.5" r="2.2"/>
		<circle opacity="0.5" fill="#FFFFFF" cx="112" cy="203.2" r="2.2"/>
		<circle opacity="0.5" fill="#FFFFFF" cx="132.3" cy="273.2" r="2.2"/>
		<circle opacity="0.5" fill="#FFFFFF" cx="426.3" cy="286.9" r="2.2"/>
		<circle opacity="0.5" fill="#FFFFFF" cx="398" cy="247.4" r="2.2"/>
		<circle opacity="0.5" fill="#FFFFFF" cx="417.7" cy="225.4" r="2.2"/>
		<circle opacity="0.5" fill="#FFFFFF" cx="337.7" cy="223.2" r="2.2"/>
		<circle opacity="0.5" fill="#FFFFFF" cx="273.5" cy="243" r="2.2"/>
		<circle opacity="0.5" fill="#FFFFFF" cx="114.2" cy="138.2" r="2.2"/>
		<circle opacity="0.5" fill="#FFFFFF" cx="59.3" cy="183.9" r="2.2"/>
		<circle opacity="0.5" fill="#FFFFFF" cx="14.3" cy="130.2" r="2.2"/>
		<circle opacity="0.5" fill="#FFFFFF" cx="59.3" cy="153" r="2.2"/>
		<circle opacity="0.5" fill="#FFFFFF" cx="38.8" cy="85.4" r="2.2"/>
	</g>
	<g>
		<ellipse opacity="0.5" fill="#FFFFFF" cx="247.8" cy="87.5" rx="51.6" ry="7.9"/>
		<path fill="#EFCD89" d="M247.8,147c-25.4,0-46-2.9-46-6.4V331h0.2c2.2,32.3,21.8,57.5,45.8,57.5c23.9,0,43.6-25.3,45.8-57.5h0.2
			V140.5C293.8,144.1,273.2,147,247.8,147z"/>
		<g>
			<circle fill="#DD9D1D" cx="220" cy="171.6" r="4.1"/>
			<circle fill="#DD9D1D" cx="235.4" cy="209.5" r="7.5"/>
			<circle fill="#DD9D1D" cx="245.9" cy="181.5" r="2"/>
			<circle fill="#DD9D1D" cx="259.4" cy="196.7" r="2.2"/>
			<circle fill="#DD9D1D" cx="252.9" cy="242.5" r="1.7"/>
			<circle fill="#DD9D1D" cx="224.9" cy="267.5" r="3"/>
			<circle fill="#DD9D1D" cx="268.1" cy="296.4" r="3.5"/>
		</g>
		<path opacity="0.5" fill="#FFFFFF" d="M247.8,99.5c-28.5,0-51.6-3.5-51.6-7.9v235h0.2c2.1,34.8,19.3,63.1,41.5,69.6V500h19.7
			V396.1c22.2-6.5,39.4-34.7,41.5-69.6h0.2v-235C299.4,95.9,276.3,99.5,247.8,99.5z"/>
	</g>
</g>
</svg>
