<?xml version="1.0" encoding="utf-8"?>
<!-- Generator: Adobe Illustrator 18.1.1, SVG Export Plug-In . SVG Version: 6.00 Build 0)  -->
<!DOCTYPE svg PUBLIC "-//W3C//DTD SVG 1.1//EN" "http://www.w3.org/Graphics/SVG/1.1/DTD/svg11.dtd">
<svg version="1.1" id="Layer_1" xmlns="http://www.w3.org/2000/svg" xmlns:xlink="http://www.w3.org/1999/xlink" x="0px" y="0px"
	 viewBox="0 0 500 500" enable-background="new 0 0 500 500" xml:space="preserve">
<path fill="#9ED8C0" d="M350.1,19c9.6-11.3,25.8-18.5,39.7-13.2c13.2,5.1,20.4,19.5,23.5,33.3c3.1,13.8,3.5,28.4,9.1,41.4
	c2.4,5.7,5.9,11.2,5.9,17.4c0,3.8-1.5,7.5-2.3,11.3c-3,14.4,3.4,28.8,6.3,43.2c3.4,16.8,1.9,34.5-4.3,50.4c-0.9,2.4-2,4.9-1.8,7.5
	c0.2,2.6,1.5,4.9,2.9,7c9,14.1,20.5,26.5,33.9,36.5c17.9,13.4,39.4,22.8,53.1,40.5c12.9,16.6,17,38.3,18.9,59.2
	c4.7,53.6-3.4,108.2-23.5,158.1c-2.2,5.6-4.8,11.3-9.5,15c-6.1,4.9-14.5,5.4-22.3,5.6c-60.5,1.5-121.2-3.2-180.8-13.9
	c-2.6-0.5-5.4-1-7.4-2.8c-2.1-1.8-3.1-4.6-3.8-7.3c-4-16.5-0.9-36.4-13-48.2c-7.2-7.1-17.9-9-27.5-12.1c-24-7.7-44.1-24.1-64.2-39.3
	c-11-8.4-22.4-16.6-35.3-21.8c-17.6-7.2-38.1-8.9-52.2-21.7c-14.9-13.4-18.3-36.9-10.7-55.5c7.5-18.6,24.3-32.4,43-39.6
	c18.7-7.3,39.2-8.6,59.2-7.9c-21-19.9-33.8-48.2-34.9-77.1c-0.2-4.5-0.1-9.2-2-13.2c-1.4-3-3.7-5.4-6-7.9
	c-17.6-19.1-31.3-41.9-39.8-66.5c-3-8.8-5.5-18.1-4.1-27.3s7.4-18.2,16.3-20.7c23.4-6.5,42.7,32.4,65.4,23.9
	c5.4-2,9.4-6.4,13.7-10.2C229,33.6,278.6,36.3,323.1,35c4.6-0.1,9.4-0.4,13.6-2.4C342.4,29.7,346,23.9,350.1,19z"/>
<g>
	<path fill="#7C7C7C" d="M530.9,364.5c-0.2-9.8-0.6-19.8-4.2-28.9c-3.5-9-9.9-16.6-16.5-23.6c-32.4-34.2-74.1-58.5-105.2-93.9
		c-2.8-3.2-5.7-6.9-5.7-11.2c0-3.6,2.1-6.9,3.9-10c12-20.7,15.8-46.1,10.3-69.4c-1.6-6.6-3.9-12.9-6.8-19c2.8-3.1,5.8-6.6,5.4-10.7
		c-0.3-4.1-6.4-7.2-8.7-3.8c0.4-21.4-3.3-42.8-10.8-62.8c-3.2-8.4-9.4-18-18.3-16.7c-5.7,0.8-9.7,5.8-12.9,10.6
		c-7,10.1-13.4,20.5-19.4,31.2c-16.2-4.6-33.4-6.6-50.2-8c-27.4-2.2-44.5,1.9-69.3,14.3c-14,7-30.7,20.7-39.7,34.5
		C165.7,89.6,149.7,80,135,68.8c-1.9-1.5-4-3.1-6.4-3.1c-4-0.1-6.9,3.8-8.3,7.6c-4.8,12.7-1.4,27.3,5.7,38.8
		c7.1,11.5,17.5,20.6,27.7,29.4c-4.2,0.9-5.1,7.2-2.4,10.6c2.3,2.8,5.9,4,9.5,4.7c-2.7,25.5,3.5,52,17.5,73.5
		c15.9,24.5,41.7,42.3,70.3,48.6c3.7,0.8,7.7,1.5,10.7,4c2.9,2.4,4.4,6.1,5.7,9.6c2.5,6.8,4.9,13.7,7.1,20.6
		c-2.4,18.7-9.3,36.9-20.1,52.3c-2.3,3.3-5.4,6.7-9.4,6.6c-1.8-0.1-3.4-0.9-5-1.7c-18.5-9.5-35.2-22.7-48.6-38.6
		c7.4-3.6,14.3-9.1,17.6-16.6c3.3-7.6,2-17.4-4.4-22.6c-3.9-3.1-9.1-4.2-14.1-4.4c-3.1-0.1-6.4,0.1-9.1,1.8c-2.7,1.7-4.4,5.2-3.2,8
		c1.4,3.3,5.8,4.4,7.5,7.7c2.1,4.1-1.9,9.3-6.4,9.7c-4.6,0.4-8.8-2.6-11.7-6.1c-2-2.4-3.5-6-1.8-8.6c2.2-3.4,7.8-2.3,10.9-5
		c2.7-2.2,2.6-6.6,0.6-9.4c-2-2.8-5.4-4.3-8.8-4.9c-7.8-1.5-16.4,0.9-22,6.6c-5.6,5.7-7.7,14.7-4.8,22.1c-7.9-1.6-16-1.9-24-0.9
		c-5.7,0.7-12.4,3.5-12.8,9.2c-0.3,5.8,6.5,9.3,12.3,9.5c5.8,0.2,11.8-1.5,17.2,0.5c-7.6,1-14.9,4.1-20.9,8.8
		c-3.2,2.5-6.3,6.6-4.8,10.4c1.6,3.9,7,4.4,11.3,3.9c7.3-1,14.4-3.1,21-6.3c-4.2,2.5-8,5.7-11.2,9.4c-1.1,1.3-2.2,2.7-2.4,4.4
		c-0.6,4.8,6.1,7.4,10.7,5.9s8.4-5.1,13.1-6.2c9.7-2.2,18,6.5,24.5,14.1c20.6,24,46.3,44.6,76.4,54.5c5.7,1.9,11.9,3.3,17.5,1.2
		c2.7-1,5.1-2.9,7.4-4.7c6.6-5.2,13.3-10.4,19.9-15.6c4.9,29.1,8.6,58.5,12.3,87.7c0.7,5.2,1.5,10.8,4.7,14.9
		c4.2,5.4,11.4,7.1,18.1,8.4c49,9.5,99.3,12.7,149.2,9.3c11.8-0.8,25.1-2.7,32.2-12.2c3.7-4.8,5.1-10.9,6.4-16.7
		C527.2,455.3,531.7,409.8,530.9,364.5z"/>
	<path fill="#CEAABC" d="M397.8,107.1c2.1-0.4,2.6-3.1,2.6-5.2c-0.2-17.2-5.3-33.9-10.3-50.3c-3-9.7-6-19.5-11.1-28.3
		c-12.3,23.8-15.8,52-9.7,78.1c1.2-2.3,2.3-4.7,3.5-7c0.5,2.6,1.6,5.1,3.4,7.2c0-1.3,1.7-2,3-1.7s2.4,1.2,3.7,1.5
		c1,0.3,2.1,0.1,3.2,0.1C390.5,101.4,395,103.5,397.8,107.1z"/>
	<path fill="#CEAABC" d="M134.5,120.7c-8.8-10.3-14-23.5-14.8-37c9.7,24.7,31.3,43.6,55.8,53.8c-4.3,0.9-7.3,5.7-6.2,10
		c-1.7-0.2-3.5,1.4-3.3,3.1c-7-6.5-14-12.9-21-19.4C141.3,127.9,137.7,124.5,134.5,120.7z"/>
	<path fill="#666666" d="M380.4,263.1c0.9-0.3,2.1-0.8,2-1.7c0-0.4-0.3-0.8-0.6-1.1c-0.9-1.1-1.7-2.2-2.6-3.4
		c2.2-0.4,4.4-0.9,6.2-2.1c1.8-1.2,3.2-3.4,2.8-5.6c-0.1-0.5-0.3-1-0.2-1.5c0.2-0.9,1.1-1.4,1.9-1.8c7.1-3.8,9.7-14.1,5.2-20.8
		c-13.6,16.8-28.7,32.4-45.1,46.5c2.8,2.1,5.8,3.9,9.1,5.1c0.4-2.3,0.6-4.7,0.4-7.1c3.6,0.8,7.3,1.1,10.9,0.9
		c0.1-1.9,0.1-3.7,0.2-5.6C374.1,264.5,377.3,263.9,380.4,263.1z"/>
	<path fill="#666666" d="M297.4,357.2c1.5-1.1,3-2.2,4.5-3.3c-1,7.9,0,16,3,23.4c2.1-1.1,4.2-2.2,6.3-3.2c-4,11.7-4,24.7,0.1,36.4
		c2.4-2.3,4.8-4.6,7.2-6.9c2.7,33.7,16.1,66.4,37.7,92.5c1.9,2.3,4,4.7,6.7,6c2.1,1.1,4.5,1.5,6.9,1.9c25.5,3.9,51.7,3.9,77.2,0
		c7.3-1.1,14.7-2.6,21.9-1.3c-1.5-31.7-10.6-62.9-26.3-90.4c2.7,0.4,5.5,0.9,8.2,1.3c-2.3-11.4-9.6-21.7-19.6-27.5
		c3.1,0.2,6.3-0.3,9.3-1.4c0-7-5.5-12.7-10.8-17.3c-10.2-9-21.2-17.1-32.8-24.2c3.4-0.4,6.9-0.9,10.3-1.3
		c-14.3-19.2-35.1-33.5-58.2-39.8c0.5-0.6,0.9-1.2,1.4-1.8c-13-5.7-28.9-4-40.4,4.3c-11.5,8.3-18.3,22.8-17.1,36.9
		c1.8-1.4,3.6-2.7,5.4-4.1C296.6,343.6,296.3,350.5,297.4,357.2z"/>
</g>
<g>
	<path fill="#494949" d="M272.3,224.7c0.8-1,1.3-2.3,1.4-3.5c5.1,2.2,9.8,5.1,13.9,8.8c1.4,1.3,3,2.7,4.9,2.8
		c2.6,0.1,4.6-2.2,5.6-4.6c1-2.4,1.4-5,3-7.1s4.9-3.1,6.7-1.2c0.6-4,6.3-6.4,5.5-10.3c-0.6-2.9-4.3-3.8-7.2-3.9
		c-13.9-0.5-28,3.1-40,10.1c-1.2,0.7-2.5,1.8-2.1,3.1c0.2,0.6,0.7,1,1.2,1.4C267.3,222,269.7,223.5,272.3,224.7z"/>
	<g>
		<path fill="#494949" d="M289.6,261.9c-0.7,0-1.3-0.5-1.5-1.2c-1.5-7.5-0.2-15.6,3.6-22.2l0.9-1.6l21.3,17.7
			c0.6,0.5,0.7,1.5,0.2,2.1c-0.5,0.6-1.5,0.7-2.1,0.2l-18.5-15.3c-2.8,5.7-3.6,12.4-2.4,18.6c0.2,0.8-0.4,1.6-1.2,1.8
			C289.8,261.9,289.7,261.9,289.6,261.9z"/>
	</g>
	<g>
		<path fill="#494949" d="M343.3,122.6C343.3,122.6,343.3,122.6,343.3,122.6c-7.7-0.3-15.6-0.6-23.2-2.7c-6-1.6-14.4-5.1-20-12.5
			c-0.5-0.7-0.4-1.6,0.3-2.1c0.7-0.5,1.6-0.4,2.1,0.3c5,6.7,12.7,9.9,18.3,11.4c7.3,2,15,2.3,22.5,2.6c0.8,0,1.5,0.7,1.4,1.6
			C344.8,121.9,344.1,122.6,343.3,122.6z"/>
	</g>
	<g>
		<path fill="#494949" d="M196.1,156c-0.6,0-1.1-0.3-1.4-0.9c-0.3-0.8,0.1-1.6,0.8-2c13.5-5.6,24.4-17.1,29.2-30.9c0,0,0-0.1,0-0.1
			c-0.4-0.2-0.7-0.5-0.8-0.9c-0.2-0.8,0.2-1.6,1-1.9c0.8-0.2,1.5,0,2.1,0.5c0.8,0.9,0.9,2.3,0.5,3.4c-5.1,14.6-16.6,26.8-30.9,32.7
			C196.5,156,196.3,156,196.1,156z"/>
	</g>
	<g>
		<path fill="#52B27E" d="M254.9,172.5c-4-4.1-7.9-8.2-11.9-12.3c-4.4-4.5-9.1-9.2-15.1-11.2c-8.6-2.7-18.3,1.1-24.2,7.9
			s-8.3,16-8.5,25c-1.6,0.3-3.4,0.7-4.5,1.9c-1.2,1.2-1.3,3.5,0.1,4.3c0.9,0.6,2.1,0.3,3.2,0.4c3.3,0.1,5.8,2.6,8.3,4.7
			c7.9,6.7,18.5,10.4,28.7,8.7c10.2-1.7,19.5-9.5,21.6-19.6C253.3,179,253.3,175.5,254.9,172.5z"/>
		<ellipse fill="#4E8268" cx="232.9" cy="168" rx="10.6" ry="12"/>
		
			<ellipse transform="matrix(0.9464 -0.3231 0.3231 0.9464 -46.0932 78.8581)" opacity="0.4" fill="#FFFFFF" cx="214.5" cy="178.3" rx="10.3" ry="4.5"/>
	</g>
</g>
<g>
	<path fill="#52B27E" d="M301.9,161.8c2-5.3,4-10.7,5.9-16c2.2-5.9,4.6-12.1,9.3-16.3c6.8-5.9,17.2-6.4,25.4-2.5
		c8.1,3.9,14.1,11.3,17.9,19.5c1.6-0.4,3.4-0.7,4.9-0.1c1.5,0.6,2.6,2.6,1.7,4c-0.6,0.9-1.8,1.2-2.8,1.6c-2.9,1.4-4.3,4.7-5.7,7.6
		c-4.5,9.3-12.8,17-22.8,19.5s-21.6-0.9-27.7-9.3C305.9,167.2,304.5,164,301.9,161.8z"/>
	<ellipse fill="#4E8268" cx="323.9" cy="148.2" rx="10.6" ry="12"/>
	
		<ellipse transform="matrix(0.9464 -0.3231 0.3231 0.9464 -28.4391 119.0673)" opacity="0.4" fill="#FFFFFF" cx="344.4" cy="145.2" rx="10.3" ry="4.5"/>
</g>
<rect x="214.2" y="272" fill="none" width="272" height="214"/>
<text transform="matrix(1 0 0 1 402.2821 305.3929)"><tspan x="0" y="0" fill="#D6EADF" font-family="'CooperBlack'" font-size="50">I’m </tspan><tspan x="-113.6" y="60" fill="#D6EADF" font-family="'CooperBlack'" font-size="50">purried </tspan><tspan x="-170.6" y="120" fill="#D6EADF" font-family="'CooperBlack'" font-size="50">about you</tspan></text>
</svg>
