<?xml version="1.0" encoding="utf-8"?>
<!-- Generator: Adobe Illustrator 18.1.1, SVG Export Plug-In . SVG Version: 6.00 Build 0)  -->
<!DOCTYPE svg PUBLIC "-//W3C//DTD SVG 1.1//EN" "http://www.w3.org/Graphics/SVG/1.1/DTD/svg11.dtd">
<svg version="1.1" id="Layer_1" xmlns="http://www.w3.org/2000/svg" xmlns:xlink="http://www.w3.org/1999/xlink" x="0px" y="0px"
	 viewBox="0 0 63 42.3" enable-background="new 0 0 63 42.3" xml:space="preserve">
<g>
	<rect x="0.5" y="0.6" fill="#E8E3D2" width="61.9" height="41.1"/>
	<path fill="#CCB385" d="M62.9,42.2H0V0.1h62.9V42.2z M1,41.2h60.9V1.1H1V41.2z"/>
</g>
<g>
	<path fill="#CCB385" d="M31.5,23.7L3.1,3.4C2.9,3.2,2.9,2.9,3,2.7c0.2-0.2,0.5-0.3,0.7-0.1l27.8,19.9L59.2,2.6
		c0.2-0.2,0.5-0.1,0.7,0.1C60,2.9,60,3.2,59.8,3.4L31.5,23.7z"/>
</g>
<g>
	<path fill="#CCB385" d="M60.1,39.8c-0.1,0-0.3,0-0.4-0.1L38.5,18.4c-0.2-0.2-0.2-0.5,0-0.7s0.5-0.2,0.7,0L60.4,39
		c0.2,0.2,0.2,0.5,0,0.7C60.3,39.8,60.2,39.8,60.1,39.8z"/>
</g>
<g>
	<path fill="#CCB385" d="M2.6,40.1c-0.1,0-0.3,0-0.4-0.1c-0.2-0.2-0.2-0.5,0-0.7l21.5-21.5c0.2-0.2,0.5-0.2,0.7,0
		c0.2,0.2,0.2,0.5,0,0.7L3,39.9C2.9,40,2.7,40.1,2.6,40.1z"/>
</g>
<g>
	<path fill="#F76A8C" d="M41.5,20.4c0-0.2,0-0.4,0-0.6c0-0.2,0-0.4-0.1-0.6c0-0.2-0.1-0.4-0.1-0.6c-0.1-0.2-0.1-0.4-0.2-0.5
		c-0.1-0.2-0.2-0.3-0.2-0.5c-0.1-0.2-0.2-0.3-0.3-0.5c-0.1-0.2-0.2-0.3-0.3-0.4c-0.1-0.1-0.2-0.3-0.4-0.4c-0.1-0.1-0.3-0.3-0.4-0.4
		c-0.1-0.1-0.3-0.2-0.4-0.3c-0.2-0.1-0.3-0.2-0.5-0.3c-0.2-0.1-0.3-0.2-0.5-0.2c-0.2-0.1-0.3-0.1-0.5-0.2c-0.2-0.1-0.4-0.1-0.6-0.1
		c-0.2,0-0.4-0.1-0.6-0.1c-0.2,0-0.4,0-0.6,0c-0.1,0-0.2,0-0.3,0c-0.1,0-0.2,0-0.3,0c-0.1,0-0.2,0-0.3,0c-0.1,0-0.2,0-0.3,0.1
		s-0.2,0-0.3,0.1c-0.1,0-0.2,0.1-0.3,0.1S33.7,15,33.6,15c-0.1,0-0.2,0.1-0.3,0.1s-0.2,0.1-0.3,0.1s-0.2,0.1-0.3,0.1
		s-0.2,0.1-0.2,0.1c-0.1,0.1-0.2,0.1-0.2,0.2c-0.1,0.1-0.2,0.1-0.2,0.2C32.1,15.9,32,16,31.9,16c-0.1,0.1-0.1,0.1-0.2,0.2
		c-0.1,0.1-0.1,0.1-0.2,0.2c-0.1-0.1-0.1-0.1-0.2-0.2c-0.1-0.1-0.1-0.1-0.2-0.2c-0.1-0.1-0.1-0.1-0.2-0.2c-0.1-0.1-0.2-0.1-0.2-0.2
		c-0.1-0.1-0.2-0.1-0.2-0.2c-0.1-0.1-0.2-0.1-0.2-0.1c-0.1,0-0.2-0.1-0.3-0.1s-0.2-0.1-0.3-0.1c-0.1,0-0.2-0.1-0.3-0.1
		c-0.1,0-0.2-0.1-0.3-0.1s-0.2-0.1-0.3-0.1c-0.1,0-0.2,0-0.3-0.1s-0.2,0-0.3-0.1c-0.1,0-0.2,0-0.3,0c-0.1,0-0.2,0-0.3,0
		c-0.1,0-0.2,0-0.3,0c-0.2,0-0.4,0-0.6,0c-0.2,0-0.4,0-0.6,0.1s-0.4,0.1-0.6,0.1c-0.2,0.1-0.4,0.1-0.5,0.2c-0.2,0.1-0.3,0.2-0.5,0.2
		c-0.2,0.1-0.3,0.2-0.5,0.3c-0.2,0.1-0.3,0.2-0.4,0.3c-0.1,0.1-0.3,0.2-0.4,0.4s-0.3,0.3-0.4,0.4c-0.1,0.1-0.2,0.3-0.3,0.4
		c-0.1,0.2-0.2,0.3-0.3,0.5S22.1,18,22,18.1c-0.1,0.2-0.1,0.3-0.2,0.5c-0.1,0.2-0.1,0.4-0.1,0.6c0,0.2-0.1,0.4-0.1,0.6
		c0,0.2,0,0.4,0,0.6c0,0.1,0,0.2,0,0.3c0,0.1,0,0.2,0,0.3s0,0.2,0,0.3c0,0.1,0,0.2,0.1,0.3s0,0.2,0.1,0.3c0,0.1,0.1,0.2,0.1,0.3
		c0,0.1,0.1,0.2,0.1,0.3c0,0.1,0.1,0.2,0.1,0.3s0.1,0.2,0.1,0.3c0,0.1,0.1,0.2,0.1,0.3s0.1,0.2,0.2,0.3c0.1,0.1,0.1,0.2,0.2,0.2
		c0.1,0.1,0.1,0.2,0.2,0.2s0.1,0.2,0.2,0.2s0.1,0.1,0.2,0.2c0.1,0.1,0.1,0.1,0.2,0.2l0,0l0,0l0,0l0,0l0,0l0,0l0,0l0,0l0,0l0,0l0,0
		l0,0l0,0l0,0l0,0l0,0l0.5,0.5l0.5,0.5l0.5,0.5l0.5,0.5l0.5,0.5l0.5,0.5l0.5,0.5l0.5,0.5l0.5,0.5l0.5,0.5l0.5,0.5l0.5,0.5l0.5,0.5
		l0.5,0.5l0.5,0.5l0.5,0.5l0.5-0.5l0.5-0.5l0.5-0.5l0.5-0.5l0.5-0.5l0.5-0.5l0.5-0.5l0.5-0.5l0.5-0.5l0.5-0.5l0.5-0.5l0.5-0.5
		l0.5-0.5l0.5-0.5l0.5-0.5l0.5-0.5c0.1-0.1,0.1-0.1,0.2-0.2c0.1-0.1,0.1-0.1,0.2-0.2s0.1-0.1,0.2-0.2s0.1-0.2,0.2-0.2
		s0.1-0.2,0.2-0.2c0.1-0.1,0.1-0.2,0.2-0.3s0.1-0.2,0.1-0.3c0-0.1,0.1-0.2,0.1-0.3c0-0.1,0.1-0.2,0.1-0.3c0-0.1,0.1-0.2,0.1-0.3
		c0-0.1,0.1-0.2,0.1-0.3s0.1-0.2,0.1-0.3c0-0.1,0-0.2,0.1-0.3s0-0.2,0-0.3c0-0.1,0-0.2,0-0.3S41.5,20.5,41.5,20.4z"/>
</g>
</svg>
