<?xml version="1.0" encoding="utf-8"?>
<!-- Generator: Adobe Illustrator 18.1.1, SVG Export Plug-In . SVG Version: 6.00 Build 0)  -->
<!DOCTYPE svg PUBLIC "-//W3C//DTD SVG 1.1//EN" "http://www.w3.org/Graphics/SVG/1.1/DTD/svg11.dtd">
<svg version="1.1" id="Layer_1" xmlns="http://www.w3.org/2000/svg" xmlns:xlink="http://www.w3.org/1999/xlink" x="0px" y="0px"
	 viewBox="0 0 55.6 17.2" enable-background="new 0 0 55.6 17.2" xml:space="preserve">
<g>
	<g>
		<path fill="#F76A8C" d="M5.6,12.6c0.2-0.2,0.3-0.4,0.4-0.7c0.1-0.2,0.2-0.3,0.4-0.4c0.2-0.1,0.4-0.1,0.5,0.1c0,0.1,0,0.3-0.1,0.5
			c-0.2,0.5-0.5,0.9-1,1.2c0,0.8-0.2,1.5-0.6,2.1c-0.3,0.4-0.7,0.7-1.1,0.9c-0.9,0.5-1.7,0.7-2.2,0.4c-0.3-0.2-0.6-0.3-0.7-0.6
			c-0.2-0.4-0.2-0.8,0.1-1.2c0.3-0.3,0.6-0.6,0.9-0.8c0.2-0.1,0.6-0.3,1.2-0.5C3.2,13.4,3,13,2.8,12.5c-0.3-0.5-0.4-0.9-0.4-1.2
			c-0.2,0.3-0.6,1-0.9,1.9c-0.4,1.3-0.6,1.9-0.6,2c-0.1,0.3-0.3,0.4-0.5,0.4c-0.2,0-0.3-0.1-0.2-0.4c0.2-0.7,0.6-2,1.2-3.7
			c0.3-0.7,0.7-1.3,1.1-1.9c0.5-0.6,0.9-0.9,1.4-1.1c0.8-0.4,1.3-0.3,1.5,0.2C5.4,9,5.3,9.2,5.2,9.4C5.1,9.6,4.9,9.8,4.7,9.9
			c-0.1,0-0.1,0-0.2,0.1c-0.4,0.1-0.6,0.2-0.7,0.4c-0.1,0.2-0.1,0.3,0,0.4c0.1,0.1,0.2,0.3,0.5,0.6c0,0,0.3,0.2,0.7,0.6
			C5.3,12.1,5.5,12.3,5.6,12.6z M3.4,14.4c-0.7,0.3-1.1,0.5-1.2,0.6c-0.1,0.2-0.1,0.3-0.1,0.4c0.1,0.2,0.2,0.2,0.5,0.2
			c0.1,0,0.2,0,0.2-0.1C3.2,15.4,3.4,15,3.4,14.4z"/>
		<path fill="#F76A8C" d="M12,6.2c0.1-0.4,0.2-0.7,0.2-0.7c0.1-0.4,0.3-0.6,0.5-0.8c0.2-0.1,0.5,0,1,0.2c0.4,0.2,0.6,0.4,0.7,0.7
			c0,0.2,0,0.5-0.2,1C14,7.2,13.7,8,13.4,9.1c-0.1,0.4-0.2,0.7-0.1,1c0,0.2,0.1,0.2,0.2,0.3c0.1,0,0.3-0.2,0.6-0.6
			c0.3-0.4,0.5-0.7,0.7-0.9C15,8.7,15,8.6,15.1,8.6c0.1,0,0.2,0,0.3,0.1c0.1,0.1,0.2,0.1,0.2,0.2c0,0.1,0,0.2-0.1,0.4
			c-0.1,0.2-0.2,0.3-0.4,0.5c-0.2,0.3-0.5,0.7-1,1.3c-0.5,0.6-0.8,1-1,1.2c-0.3,0.3-0.6,0.5-1,0.6c-0.3,0.1-0.5,0.1-0.8,0
			c-0.3-0.1-0.4-0.2-0.5-0.5c0-0.1-0.1-0.3-0.1-0.5c-0.5,0.6-0.8,1.1-1.1,1.5c-0.3,0.3-0.7,0.6-1,0.7c-0.4,0.2-0.7,0.2-1.1,0.1
			c-0.3-0.1-0.6-0.3-0.7-0.6c-0.1-0.3-0.2-0.7-0.1-1.1c-0.2,0.1-0.4,0.2-0.5,0.2c-0.1,0-0.2-0.1-0.3-0.4c0-0.1,0-0.2,0.2-0.4
			c0.1-0.2,0.3-0.4,0.4-0.7c0.2-0.3,0.5-0.8,0.8-1.6c0.2-0.5,0.4-1,0.6-1.3c0.4-0.6,0.9-1,1.5-1.4c0.3-0.2,0.6-0.3,1-0.5
			C11,6.2,11.5,6.1,12,6.2z M9.7,11.7c0.2-0.1,0.5-0.4,0.8-0.9c0.2-0.4,0.4-0.8,0.6-1.2c0.3-0.8,0.4-1.4,0.3-1.8
			c-0.1-0.2-0.2-0.3-0.5-0.2c-0.3,0.1-0.8,0.8-1.3,2c-0.4,1-0.5,1.6-0.4,1.9C9.4,11.7,9.5,11.7,9.7,11.7z"/>
		<path fill="#F76A8C" d="M20.4,8.8C20.2,8.6,20,8.2,20,7.8c0-0.6,0.2-1.4,0.7-2.2c0.5-1,1.2-1.5,1.8-1.5C22.8,4,23,4,23.2,4.2
			c0.2,0.2,0.3,0.4,0.3,0.7c0,0.9-0.5,1.9-1.4,3.2c0,0.1,0.2,0.1,0.4,0.1c0.1,0,0.4-0.2,0.7-0.7c0.2-0.2,0.3-0.3,0.5-0.4
			c0.2,0,0.4,0.1,0.4,0.3c0,0.1-0.1,0.2-0.3,0.5c-0.3,0.4-0.6,0.7-0.7,0.8c-0.4,0.3-0.9,0.5-1.4,0.6c-0.2,0-0.4,0-0.6,0
			c-1.3,1.2-2.3,1.9-3.3,2.1c-0.5,0.1-0.9,0-1.2-0.2c-0.3-0.2-0.6-0.5-0.7-0.9c-0.1-0.3,0-0.6,0.1-0.9c0.2-0.6,0.5-1.4,0.9-2.3
			c-1,1.5-1.6,2.3-1.7,2.4c-0.2,0.1-0.4,0-0.4-0.2c0-0.2,0-0.4,0.3-0.7c0.6-0.9,1.4-2.1,2.4-3.4c0.4-0.4,0.9-0.7,1.4-0.8
			c0.4-0.1,0.8,0,1,0.2C20,4.7,20,4.8,20.1,5c0,0.1-0.1,0.5-0.3,0.9c-0.3,0.8-0.8,1.9-1.4,3.4c0,0.1,0,0.2,0,0.3
			c0.1,0.3,0.2,0.4,0.5,0.3C19.4,9.8,19.8,9.5,20.4,8.8z"/>
		<path fill="#F76A8C" d="M23.4,8c-0.3-0.1-0.3-0.3-0.2-0.5c0.2-0.2,0.6-0.8,1.3-1.6c0.4-0.5,0.7-1,1.1-1.4c0.4-0.5,0.8-0.8,1-0.9
			c0.3-0.1,0.5-0.1,0.6-0.1c0.1,0,0.2,0.1,0.4,0.2c0.5,0.5,0.8,0.9,0.8,1.1c0,0.3-0.3,0.8-0.7,1.7C27.2,7.3,27,7.8,27,8.1
			c0,0.1,0.1,0.2,0.2,0.2c0.1,0,0.4-0.2,0.9-0.6c0.6-0.5,0.9-0.7,1.2-0.7c0.2,0,0.4,0.1,0.4,0.3c0,0.1-0.1,0.2-0.2,0.4
			c-0.3,0.4-1,0.9-1.9,1.6c-1,0.7-1.8,1.1-2.3,1.2c-0.3,0-0.6-0.1-0.8-0.3C24.1,9.9,24,9.8,24,9.6c0-0.4,0-0.8,0.2-1.2
			c0.1-0.2,0.4-1,1.1-2.2c-0.5,0.5-1,1.1-1.5,1.7C23.7,7.9,23.6,8,23.4,8z M30.8,0.3C31,0.4,31.1,0.7,31.1,1c0,0.5-0.3,0.9-0.7,1.2
			c-0.4,0.3-0.9,0.5-1.5,0.5c-0.4,0-0.7-0.1-0.9-0.2c-0.3-0.1-0.4-0.4-0.4-0.7c0-0.4,0.2-0.8,0.6-1.2C28.6,0.2,29.1,0,29.7,0
			C30.1,0,30.5,0.1,30.8,0.3z"/>
		<path fill="#F76A8C" d="M28.6,8c-0.1,0-0.2,0-0.2-0.1c0-0.1,0.1-0.2,0.2-0.3c0.6-0.6,1.5-1.4,2.4-2.3c1-1,1.6-1.5,1.9-1.4
			c0.2,0.1,0.4,0.2,0.6,0.4c0.2,0.2,0.3,0.4,0.4,0.6c0.1,0.4,0,0.7-0.1,1c-0.1,0.2-0.3,0.5-0.8,0.9c0.4-0.3,0.9-0.5,1.2-0.8
			c0.9-0.5,1.6-0.8,2.1-1c0.3-0.1,0.6-0.2,0.9-0.3c0.3-0.1,0.6-0.1,0.8-0.1c0.3,0.1,0.6,0.3,0.9,0.7c0,0.1,0,0.1,0,0.2
			c0,0.2-0.4,0.7-1.1,1.5c-1,1.1-1.5,1.7-1.5,1.9c0,0.1,0,0.2,0.1,0.2c0.3,0,0.8-0.1,1.5-0.4c0,0,0.2-0.1,0.4-0.3
			c0.2-0.1,0.3-0.2,0.4-0.2c0.2,0,0.2,0.1,0.2,0.3c0,0.2-0.2,0.4-0.5,0.6c-0.3,0.2-0.9,0.5-1.6,0.9c-0.8,0.4-1.4,0.7-1.7,0.7
			c-0.3,0.1-0.6,0.1-0.9,0c-0.6-0.1-1-0.3-1-0.8c0-0.4,0.6-1.5,1.9-3.1c0.1-0.1,0.1-0.1,0.1-0.2c0,0,0-0.1-0.1-0.1
			c-0.2,0-0.4,0-0.7,0.2c-0.3,0.2-0.7,0.5-1.4,1.1c-0.8,0.6-1.3,1.1-1.6,1.4c-0.3,0.3-0.6,0.6-1,0.8c-0.4,0.2-0.8,0.3-1.1,0.3
			c-0.4,0-0.6-0.2-0.6-0.5c0-0.2,0.1-0.4,0.3-0.6c0.3-0.4,0.4-0.6,0.5-0.6c0.2-0.4,0.7-1.2,1.6-2.5C29.6,7.3,28.8,8,28.6,8z"/>
		<path fill="#F76A8C" d="M39.2,12.1c0.3-0.1,0.8-0.1,1.4-0.2c0.2-0.2,0.2-0.3,0.3-0.3c-0.6,0.1-1.1,0.1-1.6,0
			c-0.6-0.1-1.1-0.4-1.2-0.8c-0.1-0.2-0.1-0.4,0-0.8c0.1-0.6,0.4-1,0.7-1.2c-0.2,0.1-0.4,0.1-0.6,0.1c-0.2-0.1-0.2-0.2-0.2-0.3
			c0-0.1,0.1-0.1,0.1-0.2c0.3-0.2,0.8-0.6,1.6-1c1-0.6,1.7-0.9,1.9-1c1.1-0.4,2-0.6,2.7-0.4c1.4,0.4,2,0.8,1.9,1.1
			c0.8-0.8,1.4-1.1,1.7-1c0.2,0.1,0.4,0.3,0.6,0.7c0.1,0.2,0.1,0.3,0.2,0.5c0.1,0.2,0.1,0.4,0,0.5c-0.9,0.7-2.4,1.9-4.4,3.7
			c0.4-0.1,0.8-0.2,1-0.3c1-0.4,1.5-0.5,1.6-0.6c0.4-0.1,0.7-0.2,0.8-0.1c0.2,0.1,0.3,0.2,0.2,0.4c-0.1,0.2-0.3,0.3-0.6,0.4
			c-1.1,0.4-2.4,0.7-3.9,0.9c-2.1,2.1-3.7,3.2-4.9,3.2c-0.4,0-0.8,0-1.2-0.1c-0.6-0.1-1-0.3-1.3-0.7c-0.3-0.3-0.4-0.7-0.2-1.2
			c0.1-0.5,0.6-0.9,1.3-1.1C37.8,12.4,38.5,12.2,39.2,12.1z M38.7,14.1c0.4-0.4,0.8-0.9,1.3-1.4c-1,0.1-1.7,0.4-2.1,0.9
			c-0.2,0.2-0.3,0.4-0.4,0.6c0,0.2,0,0.4,0.2,0.4C37.9,14.7,38.3,14.5,38.7,14.1z M42.7,8.2c-1,0.7-1.5,1.2-1.5,1.4
			c0,0.1,0,0.2,0.2,0.3c0.1,0.1,0.2,0.1,0.3,0.1c0.5,0.1,1.1-0.2,1.9-0.8c0.8-0.7,1.3-1.1,1.4-1.4c0-0.1,0-0.2-0.1-0.3
			c0,0-0.1-0.1-0.2-0.1C44.2,7.3,43.6,7.5,42.7,8.2z"/>
		<path fill="#F76A8C" d="M48.3,11.9c0.4,0.2,0.6,0.4,0.7,0.7c0.1,0.3,0.1,0.5,0,0.7c-0.1,0.3-0.4,0.5-0.8,0.7
			c-0.5,0.2-0.9,0.3-1.4,0.1c-0.7-0.3-0.9-0.7-0.7-1.3c0.1-0.3,0.3-0.5,0.7-0.7C47.3,11.7,47.8,11.6,48.3,11.9z"/>
		<path fill="#F76A8C" d="M51.7,13.4c0.4,0.2,0.6,0.4,0.7,0.7c0.1,0.3,0.1,0.5-0.1,0.7c-0.1,0.2-0.4,0.5-0.8,0.6
			c-0.5,0.2-1,0.2-1.4,0c-0.7-0.3-0.9-0.8-0.6-1.3c0.1-0.3,0.4-0.5,0.7-0.7C50.6,13.1,51.1,13.1,51.7,13.4z"/>
		<path fill="#F76A8C" d="M54.9,15.1c0.4,0.2,0.6,0.5,0.6,0.8c0.1,0.3,0,0.5-0.1,0.7c-0.1,0.2-0.4,0.4-0.9,0.6
			c-0.5,0.2-1,0.1-1.4-0.1c-0.7-0.4-0.8-0.8-0.5-1.4c0.1-0.3,0.4-0.5,0.8-0.6C53.9,14.8,54.4,14.8,54.9,15.1z"/>
	</g>
</g>
</svg>
