<?xml version="1.0" encoding="utf-8"?>
<!-- Generator: Adobe Illustrator 18.1.1, SVG Export Plug-In . SVG Version: 6.00 Build 0)  -->
<!DOCTYPE svg PUBLIC "-//W3C//DTD SVG 1.1//EN" "http://www.w3.org/Graphics/SVG/1.1/DTD/svg11.dtd">
<svg version="1.1" id="Layer_1" xmlns="http://www.w3.org/2000/svg" xmlns:xlink="http://www.w3.org/1999/xlink" x="0px" y="0px"
	 viewBox="0 0 960 640" enable-background="new 0 0 960 640" xml:space="preserve">
<g>
	<linearGradient id="SVGID_1_" gradientUnits="userSpaceOnUse" x1="484.5584" y1="560.6793" x2="484.5584" y2="61.2895">
		<stop  offset="0" style="stop-color:#1E0055;stop-opacity:0.8"/>
		<stop  offset="1" style="stop-color:#02003F"/>
	</linearGradient>
	<rect x="234.6" y="61.3" fill="url(#SVGID_1_)" width="500" height="499.4"/>
	<text transform="matrix(1 0 0 1 262.5586 504.8397)" fill="#E6EEEF" font-family="'EdwardianScriptITC'" font-size="72">Happy New Year!</text>
	<circle opacity="0.5" fill="#FFFFFF" cx="480.2" cy="392.2" r="4.3"/>
	<circle opacity="0.5" fill="#FFFFFF" cx="415.7" cy="316.3" r="2.2"/>
	<g>
		<circle opacity="0.5" fill="#FFFFFF" cx="262.6" cy="96.2" r="4.3"/>
		<circle opacity="0.5" fill="#FFFFFF" cx="325.9" cy="140.2" r="4.3"/>
		<circle opacity="0.5" fill="#FFFFFF" cx="371.2" cy="114.2" r="4.3"/>
		<circle opacity="0.5" fill="#FFFFFF" cx="409.2" cy="220.8" r="4.3"/>
		<circle opacity="0.5" fill="#FFFFFF" cx="279.9" cy="302.2" r="4.3"/>
		<circle opacity="0.5" fill="#FFFFFF" cx="488.9" cy="364.2" r="4.3"/>
		<circle opacity="0.5" fill="#FFFFFF" cx="576.6" cy="330.2" r="4.3"/>
		<circle opacity="0.5" fill="#FFFFFF" cx="527.2" cy="260.2" r="4.3"/>
		<circle opacity="0.5" fill="#FFFFFF" cx="685.2" cy="240.8" r="4.3"/>
		<circle opacity="0.5" fill="#FFFFFF" cx="656.6" cy="199.5" r="4.3"/>
		<circle opacity="0.5" fill="#FFFFFF" cx="547.9" cy="131.5" r="4.3"/>
		<circle opacity="0.5" fill="#FFFFFF" cx="730.2" cy="96.2" r="4.3"/>
		<circle opacity="0.5" fill="#FFFFFF" cx="701.2" cy="111.5" r="2.2"/>
		<circle opacity="0.5" fill="#FFFFFF" cx="703.4" cy="80.2" r="2.2"/>
		<circle opacity="0.5" fill="#FFFFFF" cx="639.9" cy="170.8" r="2.2"/>
		<circle opacity="0.5" fill="#FFFFFF" cx="576.6" cy="144.5" r="2.2"/>
		<circle opacity="0.5" fill="#FFFFFF" cx="554.4" cy="114.2" r="2.2"/>
		<circle opacity="0.5" fill="#FFFFFF" cx="512.4" cy="175.2" r="2.2"/>
		<circle opacity="0.5" fill="#FFFFFF" cx="572.2" cy="203.8" r="2.2"/>
		<circle opacity="0.5" fill="#FFFFFF" cx="556.6" cy="214.3" r="2.2"/>
		<circle opacity="0.5" fill="#FFFFFF" cx="480.2" cy="63.5" r="2.2"/>
		<circle opacity="0.5" fill="#FFFFFF" cx="444.1" cy="125" r="2.2"/>
		<circle opacity="0.5" fill="#FFFFFF" cx="430.6" cy="206" r="2.2"/>
		<circle opacity="0.5" fill="#FFFFFF" cx="446.2" cy="264.5" r="2.2"/>
		<circle opacity="0.5" fill="#FFFFFF" cx="404.9" cy="300" r="2.2"/>
		<circle opacity="0.5" fill="#FFFFFF" cx="308.6" cy="370.7" r="2.2"/>
		<circle opacity="0.5" fill="#FFFFFF" cx="275.6" cy="339.7" r="2.2"/>
		<circle opacity="0.5" fill="#FFFFFF" cx="310.7" cy="306.5" r="2.2"/>
		<circle opacity="0.5" fill="#FFFFFF" cx="244.6" cy="288.8" r="2.2"/>
		<circle opacity="0.5" fill="#FFFFFF" cx="346.6" cy="264.5" r="2.2"/>
		<circle opacity="0.5" fill="#FFFFFF" cx="366.9" cy="334.5" r="2.2"/>
		<circle opacity="0.5" fill="#FFFFFF" cx="660.9" cy="348.2" r="2.2"/>
		<circle opacity="0.5" fill="#FFFFFF" cx="632.6" cy="308.7" r="2.2"/>
		<circle opacity="0.5" fill="#FFFFFF" cx="652.2" cy="286.7" r="2.2"/>
		<circle opacity="0.5" fill="#FFFFFF" cx="572.2" cy="284.5" r="2.2"/>
		<circle opacity="0.5" fill="#FFFFFF" cx="508.1" cy="304.3" r="2.2"/>
		<circle opacity="0.5" fill="#FFFFFF" cx="348.7" cy="199.5" r="2.2"/>
		<circle opacity="0.5" fill="#FFFFFF" cx="293.9" cy="245.2" r="2.2"/>
		<circle opacity="0.5" fill="#FFFFFF" cx="248.9" cy="191.5" r="2.2"/>
		<circle opacity="0.5" fill="#FFFFFF" cx="293.9" cy="214.3" r="2.2"/>
		<circle opacity="0.5" fill="#FFFFFF" cx="273.4" cy="146.7" r="2.2"/>
	</g>
	<g>
		<ellipse opacity="0.5" fill="#FFFFFF" cx="482.4" cy="148.8" rx="51.6" ry="7.9"/>
		<path fill="#EFCD89" d="M482.4,208.3c-25.4,0-46-2.9-46-6.4v190.5h0.2c2.2,32.3,21.8,57.5,45.8,57.5c23.9,0,43.6-25.3,45.8-57.5
			h0.2V201.8C528.4,205.4,507.8,208.3,482.4,208.3z"/>
		<g>
			<circle fill="#DD9D1D" cx="454.6" cy="232.9" r="4.1"/>
			<circle fill="#DD9D1D" cx="470" cy="270.8" r="7.5"/>
			<circle fill="#DD9D1D" cx="480.4" cy="242.8" r="2"/>
			<circle fill="#DD9D1D" cx="494" cy="258" r="2.2"/>
			<circle fill="#DD9D1D" cx="487.5" cy="303.8" r="1.7"/>
			<circle fill="#DD9D1D" cx="459.5" cy="328.8" r="3"/>
			<circle fill="#DD9D1D" cx="502.6" cy="357.7" r="3.5"/>
		</g>
		<path opacity="0.5" fill="#FFFFFF" d="M482.4,160.8c-28.5,0-51.6-3.5-51.6-7.9v235h0.2c2.1,34.8,19.3,63.1,41.5,69.6v103.9h19.7
			V457.4c22.2-6.5,39.4-34.7,41.5-69.6h0.2v-235C534,157.2,510.9,160.8,482.4,160.8z"/>
	</g>
</g>
</svg>
