<?xml version="1.0" encoding="utf-8"?>
<!-- Generator: Adobe Illustrator 18.1.1, SVG Export Plug-In . SVG Version: 6.00 Build 0)  -->
<!DOCTYPE svg PUBLIC "-//W3C//DTD SVG 1.1//EN" "http://www.w3.org/Graphics/SVG/1.1/DTD/svg11.dtd">
<svg version="1.1" id="Layer_1" xmlns="http://www.w3.org/2000/svg" xmlns:xlink="http://www.w3.org/1999/xlink" x="0px" y="0px"
	 viewBox="0 0 960 640" enable-background="new 0 0 960 640" xml:space="preserve">
<g>
	<path fill="#F76A8C" d="M754.1,216c0-87.7-71.1-158.8-158.8-158.8c-45.4,0-86.3,19-115.2,49.5c-28.9-30.5-69.9-49.5-115.2-49.5
		c-87.7,0-158.8,71.1-158.8,158.8c0,47.1,20.5,89.4,53.1,118.5l-0.3,0.3l221,221l220.9-220.9C733.4,305.8,754.1,263.4,754.1,216z"/>
	<g>
		<path fill="#EDDCB7" d="M746.9,216.2c0-83.3-67.5-150.8-150.8-150.8s-150.8,67.5-150.8,150.8c0,37.9,14,72.6,37.1,99.1
			c8.4,23.7,44.5,134,7.6,182.6c0,0-4.4,11,6.6,5.9c9.8-4.6,156.8-107.7,208.7-183.6C731.1,293,746.9,256.4,746.9,216.2z"/>
		<g>
			<path fill="none" stroke="#D8BA7D" stroke-width="2" stroke-linecap="round" stroke-miterlimit="10" d="M491.2,503
				c30.5-20.8,57.6-46.8,79.6-76.5c21.5-28.9,38.6-62.4,41.6-98.4"/>
			<path fill="none" stroke="#D8BA7D" stroke-width="2" stroke-linecap="round" stroke-miterlimit="10" d="M663.4,301.4
				c-6.7,31.8-22.8,60.8-41.9,87.1c-34.4,47-79.1,86.4-130.2,114.5c13.6-13.9,20.4-35,24.7-53.9s4.4-38.7,2.2-58.1"/>
			<path fill="none" stroke="#D8BA7D" stroke-width="2" stroke-linecap="round" stroke-miterlimit="10" d="M520.7,467.6
				c3.7-3.4,6-8.2,8.1-12.8c10.7-23.4,20.8-47.2,26.9-72.2c6.1-25,8.2-51.3,2.7-76.5"/>
			<path fill="#D8BA7D" d="M488.9,501.7c-1.5-0.2-3-0.4-4.6-0.6c-0.7-0.1-1.7,0-1.9,0.6c-0.2,0.8,0.7,1.3,1.5,1.4
				c0.8,0,1.7-0.1,2.3,0.4c-3.3,0.9-6,3.4-7.2,6.6c2.2-0.5,4.4-1.2,6.4-2.2c-1.7,2.1-2.5,5-2,7.7c0.1,0.7,0.3,1.4,0.9,1.8
				c1.3,0.9,3-0.7,3.6-2.2c0.6-1.5,1.1-3.4,2.7-3.7c0.1,1.8,0.3,3.7,1.3,5.2c1,1.5,3.2,2.4,4.7,1.3c2.3-1.6,0.7-5.3,1.6-7.9
				c0.4,1.2,1.7,2.1,3,1.9c1.3-0.2,2.3-1.3,2.4-2.6c0-1.1-0.5-2-1.1-2.9c-1.1-1.9-2.3-3.7-4-5.1s-4-2.2-6.1-1.6
				c-1.7,0.5-3.3,2-5.1,1.5"/>
			<path fill="#D8BA7D" d="M598,74.9c8.5,0.9,16.7,4.7,22.9,10.5c0.3-4.8,3.2-9.4,7.4-11.9c1.5,3.5,2.1,7.3,1.7,11.1
				c6-1,12.1-1.2,18.2-0.7c1.4,0.1,3.2,0.6,3.3,2c0.2,1.6-1.9,2.4-3.6,2.6c-4.5,0.5-8.9,1-13.4,1.5c4.4,0.3,8.9,0.7,13.1,2.2
				c4.2,1.5,8.1,4.2,10,8.2c-7.2-0.1-14.3-1.2-21.3-2.3c-7-1.1-14-2.2-21-3.3c-1.8-0.3-3.5-0.6-5.3-0.8c-11.9-1.9-23.7-3.8-35.6-5.6
				c12.8-1,25.6-0.6,38.3,1.1c-4-3.2-8-6.4-12-9.5C599,78.6,597.2,76.7,598,74.9z"/>
			<path fill="none" stroke="#D8BA7D" stroke-width="2" stroke-linecap="round" stroke-miterlimit="10" d="M595.6,99.7
				c-24.5,23.2-38.2,57.4-36.4,91.1"/>
			<path fill="none" stroke="#D8BA7D" stroke-width="2" stroke-linecap="round" stroke-miterlimit="10" d="M663.2,95.9
				C688,111,706.7,136,714,164.1c7.3,28.1,3.3,59-10.9,84.3"/>
			<path fill="none" stroke="#D8BA7D" stroke-width="2" stroke-linecap="round" stroke-miterlimit="10" d="M639.8,106.4
				c4.6,13.5,6.6,27.8,6,42"/>
			<path fill="none" stroke="#D8BA7D" stroke-width="2" stroke-linecap="round" stroke-miterlimit="10" d="M572.7,76.8
				c-23.6,1.4-46.4,13.1-61.2,31.5"/>
			<path fill="none" stroke="#D8BA7D" stroke-width="2" stroke-linecap="round" stroke-miterlimit="10" d="M568.6,94.3
				c-32.9,21.2-55.9,57-61.6,95.7"/>
		</g>
	</g>
	
		<ellipse transform="matrix(0.9381 -0.3465 0.3465 0.9381 -15.5289 245.8001)" opacity="0.65" fill="#EDEDED" cx="679.7" cy="166.3" rx="30.8" ry="53.2"/>
	<g>
		<path fill="#60355B" d="M482.9,316.2c23.6-26.6,38-61.6,38-100c0-83.3-67.5-150.8-150.8-150.8s-150.8,67.5-150.8,150.8
			c0,30.3,9,58.6,24.4,82.2c0,0.1,0.1,0.2,0.1,0.3c27.7,75.6,212.2,205.4,223.3,210.5c11,5.1,6.6-5.9,6.6-5.9
			C432.2,448.7,482.9,316.2,482.9,316.2z"/>
		<g>
			<path fill="#91517E" d="M479.6,494.6c-1.3-0.6-2.9,0.2-3.9,1.2c-2.5,2.6-3.2,6.6-5.9,8.9c-1,0.8-2.1,1.4-2.9,2.4
				c-1.2,1.7-0.7,4.1,0.1,6.1c0.4,1,1,2.2,2,2.5c1.1,0.3,2.5-0.8,1.9-1.8c0.5,1.6,1,3.2,2.1,4.4c1.1,1.2,2.9,2,4.4,1.3
				c1.5-0.7,1.9-3.1,0.5-4c1.5,0.8,3.1,1.5,4.8,1.4c1.7-0.1,3.4-1.3,3.6-3c0.2-1.7-1.2-3.3-2.7-4.1c-1.5-0.9-3.3-1.3-4.7-2.4
				c2,0.8,4.2-1.5,3.8-3.6s-2.7-3.4-4.9-3.4c1.2-0.5,2.4-1.4,2.8-2.6C481.3,496.8,480.8,495.2,479.6,494.6z"/>
			<path fill="#91517E" d="M330.2,95.6c-5.7,0.3-11.4-0.2-16.9-1.5c7.7-2.7,15.9-4,24-3.8c-4.1-1.6-7.7-4.3-10.6-7.5
				c4.6-1,9.6,0.5,12.9,3.8c2.5-3.1,5.4-5.8,8.6-8c0.9-0.6,1.9-1.2,2.9-0.8c1.7,0.7,1.2,3.3,0,4.7c-1.2,1.4-3,2.6-3.1,4.5
				c6.3-3.8,13.7-5.7,21-5.3c1.6,0.1,3.5,0.5,4.1,2c-7.5,3.2-15.1,6-22.8,8.4c1.5,0.1,3,0.5,4.4,1.1c0.4,0.2,0.9,0.5,1.1,0.9
				c0.4,1-0.9,1.9-1.9,2.2c-7.3,2.2-15.1,2.2-22.5,4c-7.6,1.9-15.2,5.6-22.8,3.9C315.6,100.7,322.8,97.8,330.2,95.6z"/>
			<path fill="none" stroke="#91517E" stroke-width="2" stroke-linecap="round" stroke-miterlimit="10" d="M311.5,117.9
				c-19.9,36.1-23.9,80.5-10.7,119.6"/>
			<path fill="none" stroke="#91517E" stroke-width="2" stroke-linecap="round" stroke-miterlimit="10" d="M294.9,110.3
				c-20.7,12.4-37.4,31.5-46.9,53.7s-11.8,47.4-6.5,71"/>
			<path fill="none" stroke="#91517E" stroke-width="2" stroke-linecap="round" stroke-miterlimit="10" d="M354.9,109.1
				c3.8,1.9,6.4,5.6,8.5,9.3c4.7,7.9,8.3,16.4,10.9,25.3"/>
			<path fill="none" stroke="#91517E" stroke-width="2" stroke-linecap="round" stroke-miterlimit="10" d="M374.9,93.5
				c5.2,0.4,9.7,3.5,13.8,6.6c20.2,15.6,36,36.7,45.3,60.4"/>
			<path fill="none" stroke="#91517E" stroke-width="2" stroke-linecap="round" stroke-miterlimit="10" d="M393.9,79.3
				c22.6,5.4,43.5,17.3,59.7,33.9c16.2,16.6,27.6,37.8,32.5,60.5"/>
			<path fill="none" stroke="#91517E" stroke-width="2" stroke-linecap="round" stroke-miterlimit="10" d="M473.6,507.8
				c-56.4-36.4-101.2-90.5-126.3-152.8"/>
			<path fill="none" stroke="#91517E" stroke-width="2" stroke-linecap="round" stroke-miterlimit="10" d="M427,440
				c-30.8-39.2-51.2-86.6-58.6-135.9"/>
			<path fill="none" stroke="#91517E" stroke-width="2" stroke-linecap="round" stroke-miterlimit="10" d="M470.3,505.9
				c1.9-0.3,1.3-3.2,0.1-4.8c-19.5-26.7-30.8-58.8-35.8-91.5c-5-32.7-4.1-66-0.8-98.9"/>
		</g>
	</g>
	
		<ellipse transform="matrix(0.9381 -0.3465 0.3465 0.9381 -48.6296 251.7173)" opacity="0.65" fill="#EDEDED" cx="679.7" cy="261.9" rx="17.2" ry="17.6"/>
	<rect x="305.3" y="202" fill="none" width="347.5" height="104.5"/>
	<text transform="matrix(1 0 0 1 341.695 236.7606)"><tspan x="0" y="0" fill="#F76A8C" font-family="'Calligraffiti'" font-size="45">My love for you</tspan><tspan x="-9.7" y="54" fill="#F76A8C" font-family="'Calligraffiti'" font-size="45">transcends onions</tspan></text>
</g>
</svg>
