<?xml version="1.0" encoding="utf-8"?>
<!-- Generator: Adobe Illustrator 18.1.1, SVG Export Plug-In . SVG Version: 6.00 Build 0)  -->
<!DOCTYPE svg PUBLIC "-//W3C//DTD SVG 1.1//EN" "http://www.w3.org/Graphics/SVG/1.1/DTD/svg11.dtd">
<svg version="1.1" id="Layer_1" xmlns="http://www.w3.org/2000/svg" xmlns:xlink="http://www.w3.org/1999/xlink" x="0px" y="0px"
	 viewBox="0 0 960 640" enable-background="new 0 0 960 640" xml:space="preserve">
<g>
	<linearGradient id="SVGID_1_" gradientUnits="userSpaceOnUse" x1="480" y1="640" x2="480" y2="2.185335e-05">
		<stop  offset="1.179572e-02" style="stop-color:#FFBD6A;stop-opacity:0.8"/>
		<stop  offset="7.997166e-02" style="stop-color:#FFC578;stop-opacity:0.8286"/>
		<stop  offset="0.1894" style="stop-color:#FFCE88;stop-opacity:0.8746"/>
		<stop  offset="0.3144" style="stop-color:#FFD391;stop-opacity:0.9271"/>
		<stop  offset="0.488" style="stop-color:#FFD594"/>
		<stop  offset="0.7604" style="stop-color:#FFD492;stop-opacity:0.8896"/>
		<stop  offset="0.8585" style="stop-color:#FFD08B;stop-opacity:0.8498"/>
		<stop  offset="0.9282" style="stop-color:#FFC980;stop-opacity:0.8215"/>
		<stop  offset="0.9814" style="stop-color:#FFC070;stop-opacity:0.8"/>
	</linearGradient>
	<rect y="0" fill="url(#SVGID_1_)" width="960" height="640"/>
	<g opacity="0.5">
		<path opacity="0.3" fill="#BE925D" d="M3.6,21.4C130.9,14,258.5,12.3,386,10.6c207.1-2.8,414.2-5.6,621.3-8.4
			c-124.8,9.2-250.2,9.4-375.3,11.1C418,16.1,204,23.2-9.6,34.7C-15.3,29.1-4.4,21.9,3.6,21.4z"/>
		<path opacity="0.3" fill="#BE925D" d="M1.7,51.9c-4.2,0.2-10.1-1.4-9.5-5.6c141.1-15.4,283.4-15.5,425.4-15.5
			c16.8,0,33.5,0,50.3,0c-65.9,6.7-132.1,9.1-198.3,11.5C180.2,45.5,91,48.7,1.7,51.9z"/>
		<path opacity="0.3" fill="#BE925D" d="M737.8,71.3c-47.7,1.8-95.1,7.8-142.7,11c-93.7,6.2-187.7,1-281.6,0.3
			C210.8,81.8,108,86.3,5.9,96.4c-7.1,0.7-17.1-0.9-17.2-8.1c158-19,317.8-8.6,476.8-10.9c168.8-2.4,337.7-19.1,506.1-7.3
			C894,77.1,815.7,68.5,737.8,71.3z"/>
		<path opacity="0.3" fill="#BE925D" d="M707.7,255.7c-9.3,1.9-17.9,6-27,8.5c-25.4,7.1-52.4,1.8-78.6-2.1
			c-70.4-10.5-141.9-10.3-213-9.7c-135.9,1.3-271.8,4.3-407.6,9c3.6-8.5,14.6-10.4,23.8-11c225.5-15.3,452.1-14,677.3,3.9
			c4.3,0.3,9.4-6.1,5.1-6.1c98.5-2.2,196.9-4.4,295.4-6.7c-81.8,10.2-164.4,14.4-246.9,12.6C726.7,254,717.1,253.7,707.7,255.7z"/>
		<path opacity="0.3" fill="#BE925D" d="M308,464.3c-29.9-5.3-59.6-12.6-90-13.9c-58.5-2.6-116.5,16.8-174.9,13.1
			c-18-1.1-37.2-5.2-49.3-18.5c-0.9-1-1.8-2.2-1.8-3.6c0.2-4,6.5-2.7,9.8-0.5c19,13,43.1,16.6,66.1,15.7c23-0.9,45.7-5.9,68.6-8.5
			c89.4-10.4,178.9,14.9,268.9,17.2c8.7,0.2,17.5,0.2,26.2,0.5C391.2,475.3,348.8,471.6,308,464.3z"/>
		<path opacity="0.3" fill="#BE925D" d="M782.5,401.8c67.7,0.8,135.3-24.5,185.9-69.5c-46.4,11.4-86,49.1-133.8,48.2
			c-6.6-0.1-16.5,3-13.8,9.1c-30.8-1.6-61.6-3.1-92.4-4.7c7.2-0.4,14.3-0.7,21.5-1.1c-32.7-8.6-61-29.9-93.7-38.3
			c-21.5-5.5-44-5.2-66.2-4.7c-82.9,2.1-166.4,7.7-248.4-5.1c-52.5-8.2-104.1-24-157.2-24.6c-65-0.7-128.1,21.5-188,46.7
			c37.8,40.9,99.5,46.1,155.1,48.6c56.6,2.5,113.3,5,169.9,7.6c-5.7,2.4-11.3,4.8-17,7.3c115.1-6.2,230.3,4.6,345.2,13.8
			c36.6,2.9,74.1,5.6,109.2-4.8c-16.7-2.1-33.4-4.2-50.1-6.3c60.1-4.7,120.7-2.9,180.4,5.3c31.7,4.3,66.7,9.8,93.4-7.8
			C915.8,414.9,849.1,408.3,782.5,401.8z M650.3,411.8c-59.5,6-119.6,5.5-179-1.3c-46.3-5.3-93.7-14.5-138.9-3
			c1.3-3.5,2.7-7.1,4-10.6c-81.4-4.2-162.7-8.4-244.1-12.6c-26.4-1.4-56.7-4.8-71.7-26.7c40.7-2.7,81.3-7.5,121.6-14.3
			c-2.3-5.1,3.9-9.9,9.3-11.7c27.3-8.9,56.8-1.8,85,3.6c108.3,21,219.5,17.3,329.8,17.5c24.2,0,48.6,0.3,72,6.4
			c23.4,6.1,46,18.6,59.5,38.6C684.3,407.7,666.9,410.1,650.3,411.8z"/>
		<path opacity="0.3" fill="#BE925D" d="M445.2,511.2c2.3-0.6,3.3-3.9,1.8-5.7c-37.1-2.1-74.4-2.2-111.5-0.4c28.7-0.1,57.4,0.9,86,3
			c3.7,0.3,7.6,0.7,10.4,3c2.9,2.3,3.9,7.2,1.1,9.6c181.7,10.5,363.9,2.1,545.7-6.2c-1.7-3.5-3.4-7.1-5.1-10.6
			c-119.6-3-238.7,15.3-358.3,15.4C558.5,519.2,501.9,515.2,445.2,511.2z"/>
		<path opacity="0.2" fill="#BE925D" d="M-33.2,622c93-12.3,189-1.7,277.2,30.7c-19.4-6.7-41.1-3.9-60.3-11.1
			c-6.2-2.3-12-5.7-18.2-7.9c-8.6-3.1-17.9-4-27-4.9c-39.4-3.7-79-7.5-118.3-3c-12.1,1.4-24.5,3.5-36.3,0.4c-1-0.3-1.7-2.2-0.7-1.8"
			/>
		<path opacity="0.3" fill="#BE925D" d="M121.8,594.1c-41.8-0.3-83.9,5.1-125.3-1.3c-5.8-0.9-13.3-5.2-10.7-10.4
			c247.6,12.9,495.7,15,743.6,17c83.8,0.7,167.6,1.4,251.4,2.1c-186.4,19.3-374.6-7-561.9,0c-47.3,1.8-94.6,5.7-141.9,3.8
			C225.2,603.3,173.7,594.4,121.8,594.1z"/>
		<path opacity="0.3" fill="#BE925D" d="M681.8,192.1c4.9-5.3,13.8-2.2,20.7-4.1c2.7-0.8,5.1-2.3,7.7-3.4c3.7-1.6,7.6-2.3,11.6-2.9
			c87.3-14.5,176.5-8.5,264.7-2.5c-79.2,8.6-159.5-7.4-238.8,0.6c-8.5,0.9-17.1,2-25,5.3c-5.9,2.5-11.3,6.1-17.3,8
			C697.7,195.6,689.2,195.3,681.8,192.1z"/>
		<path opacity="0.3" fill="#BE925D" d="M875.7,158.9c-176.7,0.1-352.6,25.3-529.2,25.9c-121.9,0.4-244.6-10.9-365.3,6.1
			c77.1-10.3,154.5-20.7,232.3-19.7c60,0.7,119.8,8.1,179.8,8.5c57.3,0.4,114.4-5.7,171.5-10.1c135.4-10.6,271.3-12.2,407.1-13.8
			C940,159.7,907.8,158.9,875.7,158.9z"/>
		<path opacity="0.3" fill="#BE925D" d="M832.5,117.6c-2.2,1.8-4.4,3.6-6.6,5.4c4.1,1.3,8.4,2,12.7,2.7
			c50.4,8.1,100.9,16.2,151.3,24.2c-11.9-5.7-24.7-8.7-37.5-11.7c-33.5-7.8-67.1-15-100.7-21.8c45-5.8,91.5-0.6,135.4-12.2
			c-6.1-4.6-12.6-9.4-20.3-9.8c-3.8-0.2-7.6,0.7-11.4,1.5c-44.7,9.4-92.3,1.2-135.8,15.1C823.9,113.3,828.2,115.5,832.5,117.6z"/>
		<path opacity="0.3" fill="#BE925D" d="M-14.8,502.5c30.2-2.5,60.7-2.1,90.8,1.1c6.1,0.7,12.3,1.5,17.6,4.5
			c2.8,1.6,5.3,3.8,8.1,5.6c3,1.9,6.3,3.2,9.6,4.5c22.3,8.7,44.9,17.5,68.6,21c18.5,2.7,37.4,2.2,56.1,1.6c84.5-2.5,169-5,253.6-7.5
			c-96,12.3-193,16.6-289.7,12.7c-15.6-0.6-31.2-1.5-46.6-3.6c-21-3-41.5-8.4-62-13.7c-2.4-0.6-4.9-1.3-6.7-3
			c-1.6-1.5-2.5-3.5-3.7-5.3c-4.3-6.4-12.5-9-20.1-10.5c-18.3-3.8-37.3-4.7-55.8-2.5C-2.3,508.2-11.1,508.7-14.8,502.5z"/>
		<path opacity="0.3" fill="#BE925D" d="M-18.7,132.5c29.2-1,58.2-4.6,87.3-6.8c123.8-9.1,248.5,8.2,372.2-2.7
			c48.4-4.3,97.1-12.9,145.4-7.3c-92.4,15.6-186.3,22.6-280.1,20.9c-106.1-2-213.7-15.1-317.2,7.9c-5.1,1.1-10.4,2.3-15.3,0.5
			c-4.9-1.8-8.5-7.9-5.7-12.3"/>
	</g>
</g>
</svg>
