<?xml version="1.0" encoding="utf-8"?>
<!-- Generator: Adobe Illustrator 18.1.1, SVG Export Plug-In . SVG Version: 6.00 Build 0)  -->
<!DOCTYPE svg PUBLIC "-//W3C//DTD SVG 1.1//EN" "http://www.w3.org/Graphics/SVG/1.1/DTD/svg11.dtd">
<svg version="1.1" id="Layer_1" xmlns="http://www.w3.org/2000/svg" xmlns:xlink="http://www.w3.org/1999/xlink" x="0px" y="0px"
	 viewBox="0 0 960 640" enable-background="new 0 0 960 640" xml:space="preserve">
<path fill="#DDDAC5" d="M804.9,254.5c1.7,1.4,3.3,2.9,4.8,4.5s3,3.4,4.4,5.2s2.7,3.7,3.8,5.7s2.1,3.9,2.9,6c0.8,2,1.4,4,1.7,6
	c0.3,2,0.5,4,0.3,5.9c-0.2,1.9-0.6,3.8-1.4,5.6s-1.9,3.5-3.3,5.1c-0.3,0.4-0.7,0.7-1.1,1.1c-0.4,0.4-0.8,0.7-1.2,1
	c-0.4,0.3-0.8,0.7-1.2,1s-0.8,0.7-1.2,1c-0.4,0.3-0.8,0.7-1.1,1c-0.4,0.4-0.7,0.7-1.1,1.1c-0.3,0.4-0.6,0.8-0.9,1.2
	c-0.3,0.4-0.6,0.9-0.8,1.3c-0.4,0.9-0.7,1.8-0.9,2.7s-0.2,1.8-0.2,2.8c0.1,0.9,0.2,1.9,0.5,2.8c0.3,0.9,0.6,1.9,1,2.8
	c0.4,0.9,0.9,1.8,1.4,2.7s1.1,1.8,1.7,2.7c0.6,0.9,1.2,1.7,1.8,2.5c0.6,0.8,1.3,1.6,1.9,2.4s1.2,1.6,1.8,2.5
	c0.6,0.9,1.1,1.8,1.7,2.7s1,1.9,1.4,2.8c0.4,1,0.7,1.9,1,2.9c0.3,1,0.4,1.9,0.5,2.9c0.1,0.9,0,1.9-0.1,2.8s-0.4,1.8-0.8,2.6
	c-0.4,0.8-1,1.6-1.7,2.3c-0.3,0.3-0.6,0.6-1,0.9c-0.3,0.3-0.7,0.5-1.1,0.7c-0.4,0.2-0.8,0.4-1.2,0.6c-0.4,0.2-0.8,0.4-1.2,0.6
	c-0.4,0.2-0.8,0.4-1.2,0.5c-0.4,0.2-0.8,0.4-1.2,0.5c-0.4,0.2-0.8,0.4-1.2,0.6c-0.4,0.2-0.8,0.4-1.2,0.7c-0.8,0.5-1.6,1.1-2.3,1.8
	s-1.3,1.4-1.8,2.2s-1,1.6-1.4,2.5s-0.7,1.8-1,2.8c-0.3,1-0.5,1.9-0.6,2.9s-0.2,2-0.2,3s0,2,0.2,3c0.1,1,0.3,2,0.5,3s0.5,1.9,0.8,2.9
	s0.6,1.9,1,2.8c0.4,0.9,0.8,1.8,1.2,2.7c0.4,0.9,0.8,1.8,1.3,2.7c0.4,0.9,0.9,1.8,1.4,2.7c0.5,0.9,0.9,1.8,1.4,2.6s0.9,1.8,1.4,2.7
	s0.9,1.8,1.3,2.7c1.8,3.8,3.3,7.6,4.5,11.6c1.2,3.9,2.2,7.9,2.9,12c0.7,4,1.2,8.1,1.5,12.3c0.3,4.1,0.4,8.3,0.3,12.5
	c-0.1,4.2-0.3,8.4-0.6,12.6c-0.3,4.2-0.8,8.5-1.3,12.7s-1.1,8.4-1.8,12.6c-0.7,4.2-1.4,8.4-2.1,12.5c-0.1,0.8-0.3,1.6-0.4,2.5
	c-0.2,0.8-0.3,1.7-0.5,2.5c-0.2,0.8-0.4,1.6-0.6,2.5c-0.2,0.8-0.5,1.6-0.8,2.4c-0.3,0.8-0.6,1.5-0.9,2.3c-0.3,0.7-0.7,1.5-1.2,2.1
	s-0.9,1.3-1.4,2c-0.5,0.6-1.1,1.2-1.7,1.7c-0.5,0.5-1.1,0.9-1.7,1.3c-0.6,0.4-1.2,0.7-1.9,1c-0.6,0.3-1.3,0.6-2,0.8
	c-0.7,0.2-1.4,0.4-2.1,0.6c-0.7,0.2-1.4,0.3-2.1,0.5c-0.7,0.1-1.4,0.2-2.2,0.3c-0.7,0.1-1.4,0.2-2.2,0.2s-1.4,0.1-2.2,0.1
	c-4.9,0.3-9.8,0.3-14.7,0.1s-9.8-0.5-14.7-0.9c-4.9-0.4-9.8-1-14.7-1.6s-9.8-1.3-14.6-1.9c-4.9-0.6-9.8-1.2-14.6-1.8
	c-4.9-0.5-9.8-1-14.6-1.3c-4.9-0.3-9.7-0.5-14.6-0.4s-9.7,0.3-14.6,0.9c-0.7,0.1-1.4,0.2-2.2,0.3c-0.7,0.1-1.4,0.2-2.2,0.3
	c-0.7,0.1-1.4,0.3-2.2,0.4c-0.7,0.2-1.4,0.3-2.1,0.5c-0.7,0.2-1.4,0.4-2.1,0.6c-0.7,0.2-1.4,0.5-2,0.8s-1.3,0.6-1.9,0.9
	c-0.6,0.3-1.3,0.7-1.9,1.1c-0.8,0.5-1.6,1.1-2.3,1.8s-1.4,1.3-2,2c-0.6,0.7-1.3,1.4-1.9,2.2c-0.6,0.8-1.2,1.5-1.7,2.3
	c-0.6,0.8-1.1,1.6-1.7,2.4s-1.1,1.6-1.6,2.4c-0.6,0.8-1.1,1.6-1.7,2.4c-0.6,0.8-1.2,1.6-1.8,2.3c-1.3,1.7-2.8,3.2-4.3,4.7
	c-1.5,1.4-3.2,2.8-4.9,4c-1.7,1.2-3.5,2.4-5.3,3.4c-1.8,1.1-3.7,2-5.7,2.9c-1.9,0.9-3.9,1.7-6,2.5c-2,0.8-4.1,1.5-6.2,2.1
	c-2.1,0.7-4.2,1.3-6.3,1.8s-4.2,1.1-6.3,1.6c-13.5,3.2-27.2,5.7-40.9,7.6c-13.7,1.8-27.4,3-41.2,3.7c-13.8,0.6-27.6,0.7-41.5,0.3
	c-13.9-0.4-27.7-1.2-41.6-2.5c-13.9-1.2-27.8-2.8-41.7-4.7c-13.9-1.9-27.8-4-41.6-6.4s-27.7-4.9-41.4-7.5c-13.8-2.6-27.5-5.3-41.2-8
	c-1-0.2-2-0.4-3.1-0.6s-2.1-0.5-3.1-0.7c-1-0.3-2-0.5-3.1-0.8c-1-0.3-2-0.6-3-1c-1-0.4-1.9-0.8-2.9-1.2c-0.9-0.4-1.8-0.9-2.7-1.4
	s-1.7-1.1-2.5-1.7c-0.8-0.6-1.6-1.3-2.3-2.1c-1.8-1.9-3.2-4.1-4.1-6.4c-1-2.3-1.6-4.7-1.9-7.3c-0.4-2.5-0.5-5.2-0.4-7.9
	c0-2.7,0.2-5.5,0.4-8.3c0.2-2.8,0.4-5.6,0.6-8.4c0.2-2.8,0.2-5.6,0.1-8.3c-0.1-2.7-0.5-5.3-1.1-7.9c-0.6-2.5-1.6-5-3-7.2
	c-1-1.6-2.1-3-3.3-4.3c-1.2-1.3-2.6-2.4-4.1-3.4c-1.5-1-3-1.9-4.7-2.6c-1.6-0.8-3.4-1.4-5.2-2s-3.6-1-5.5-1.4
	c-1.9-0.4-3.8-0.7-5.7-0.9c-1.9-0.2-3.8-0.4-5.7-0.6c-1.9-0.1-3.8-0.2-5.7-0.3c-2.6-0.1-5.4-0.2-8.2-0.5c-2.8-0.2-5.6-0.5-8.4-0.9
	s-5.6-0.9-8.3-1.5c-2.7-0.6-5.3-1.4-7.8-2.3c-2.5-0.9-4.9-2-7.1-3.2c-2.2-1.2-4.2-2.7-6.1-4.3c-1.8-1.6-3.4-3.5-4.7-5.5
	c-1.3-2.1-2.3-4.4-3-6.9c-0.6-2.4-0.9-4.7-0.9-7c0-2.3,0.3-4.6,0.8-6.9c0.5-2.3,1.2-4.6,2-6.9s1.8-4.6,2.8-6.9
	c1-2.3,2.1-4.6,3.1-6.9c1-2.3,2-4.6,2.9-7c0.9-2.3,1.7-4.7,2.3-7.1s1.1-4.8,1.2-7.2c0.2-2.7,0.1-5.4-0.3-8.1
	c-0.3-2.7-0.9-5.4-1.6-8.1c-0.7-2.7-1.5-5.4-2.4-8.1c-0.8-2.7-1.7-5.4-2.5-8c-0.8-2.7-1.6-5.3-2.1-7.9s-1-5.2-1.2-7.8
	c-0.2-2.6-0.1-5.1,0.4-7.6c0.5-2.5,1.3-4.9,2.5-7.3c1-1.8,2.1-3.4,3.4-5c1.3-1.5,2.8-2.9,4.4-4.2s3.2-2.6,4.9-3.8
	c1.7-1.2,3.5-2.4,5.2-3.6c1.7-1.2,3.5-2.4,5.1-3.6c1.7-1.2,3.3-2.5,4.7-3.9s2.8-2.8,4-4.4c1.2-1.6,2.2-3.3,2.9-5.2
	c0.5-1.3,0.9-2.6,1.2-3.9c0.3-1.3,0.4-2.6,0.4-4c0-1.3,0-2.7-0.2-4s-0.4-2.7-0.8-4c-0.3-1.3-0.8-2.6-1.3-3.9
	c-0.5-1.3-1.1-2.6-1.7-3.8s-1.3-2.5-2.1-3.6c-0.7-1.2-1.5-2.3-2.3-3.4c-0.8-1.1-1.7-2.2-2.6-3.2c-0.9-1-1.8-2.1-2.7-3.1
	c-0.9-1-1.9-2-2.8-3c-0.9-1-1.9-2-2.9-3c-1-1-1.9-2-2.9-3c-0.9-1-1.9-2-2.8-3c-0.9-1-1.8-2-2.7-3.1c-0.9-1-1.7-2.1-2.5-3.2
	c-0.4-0.5-0.8-1-1.1-1.6c-0.4-0.5-0.7-1.1-1-1.6c-0.3-0.6-0.6-1.1-0.9-1.7c-0.3-0.6-0.6-1.2-0.8-1.7c-0.2-0.6-0.5-1.2-0.6-1.8
	c-0.2-0.6-0.3-1.2-0.4-1.8c-0.1-0.6-0.2-1.2-0.2-1.9c0-0.6,0-1.3,0.1-1.9c0.1-0.5,0.2-1.1,0.3-1.6c0.1-0.5,0.3-1,0.5-1.5
	c0.2-0.5,0.4-1,0.7-1.5c0.2-0.5,0.5-1,0.8-1.4c0.3-0.5,0.6-0.9,0.9-1.4c0.3-0.4,0.7-0.9,1-1.3c0.4-0.4,0.7-0.8,1.1-1.2
	c0.4-0.4,0.7-0.8,1.1-1.2c2.1-2.1,4.3-4.1,6.6-5.9c2.3-1.8,4.8-3.5,7.3-5c2.5-1.5,5.1-2.9,7.8-4.3c2.7-1.3,5.4-2.6,8.1-3.7
	s5.6-2.3,8.4-3.4c2.8-1.1,5.7-2.1,8.5-3.2c2.8-1.1,5.7-2.1,8.5-3.2c2.8-1.1,5.6-2.2,8.3-3.4c0.9-0.4,1.8-0.8,2.7-1.3
	c0.9-0.4,1.8-0.9,2.7-1.4s1.8-1,2.6-1.6c0.9-0.5,1.7-1.1,2.5-1.7s1.5-1.3,2.2-1.9s1.3-1.4,1.9-2.2c0.6-0.8,1.1-1.6,1.6-2.4
	c0.5-0.9,0.8-1.8,1.1-2.7c0.2-0.6,0.3-1.1,0.4-1.7c0.1-0.6,0.2-1.1,0.3-1.7c0.1-0.6,0.1-1.1,0.2-1.7c0-0.6,0.1-1.2,0.1-1.7
	c0-0.6,0.1-1.2,0.1-1.7s0.1-1.2,0.1-1.7c0-0.6,0.1-1.2,0.2-1.7c0.1-0.6,0.2-1.1,0.3-1.7c0.4-1.9,1-3.7,1.8-5.4
	c0.8-1.7,1.9-3.2,3.1-4.6c1.2-1.4,2.6-2.7,4.1-3.8s3.1-2.2,4.9-3.1c1.7-0.9,3.6-1.8,5.5-2.5s3.9-1.4,5.9-2c2-0.6,4-1.1,6-1.5
	c2-0.4,4-0.8,5.9-1c3-0.4,6.1-0.8,9.1-1.2c3.1-0.4,6.1-0.7,9.2-0.9c3.1-0.3,6.1-0.5,9.2-0.7s6.1-0.3,9.2-0.4
	c3.1-0.1,6.1-0.2,9.2-0.2c3.1,0,6.1,0,9.2,0.1c3.1,0.1,6.1,0.2,9.2,0.3c3.1,0.1,6.1,0.3,9.2,0.6c1.9,0.1,3.8,0.3,5.8,0.4
	c2,0.1,3.9,0.2,5.9,0.3c2,0,3.9,0,5.9,0c2-0.1,3.9-0.2,5.8-0.5s3.7-0.6,5.5-1c1.8-0.5,3.5-1,5.2-1.8c1.7-0.7,3.2-1.6,4.7-2.7
	c1.5-1.1,2.9-2.3,4.1-3.7c0.3-0.4,0.7-0.8,1-1.2c0.3-0.4,0.6-0.8,1-1.3c0.3-0.4,0.6-0.9,0.9-1.3s0.6-0.9,0.9-1.3
	c0.3-0.4,0.6-0.8,0.9-1.3c0.3-0.4,0.7-0.8,1-1.2s0.7-0.8,1.1-1.1c0.4-0.4,0.8-0.7,1.2-1c0.5-0.4,1.1-0.8,1.7-1.2s1.2-0.7,1.8-1
	c0.6-0.3,1.2-0.5,1.9-0.8c0.6-0.2,1.3-0.4,2-0.6c0.7-0.2,1.3-0.3,2-0.5c0.7-0.1,1.4-0.2,2-0.4c0.7-0.1,1.4-0.2,2.1-0.3
	c0.7-0.1,1.4-0.2,2.1-0.2c5.8-0.6,11.6-1.1,17.4-1.5c5.8-0.4,11.6-0.7,17.4-0.8c5.8-0.2,11.6-0.3,17.4-0.2c5.8,0,11.6,0.2,17.4,0.4
	s11.6,0.6,17.4,1s11.6,1,17.4,1.6c5.8,0.6,11.5,1.4,17.3,2.2s11.5,1.8,17.2,2.9c2.2,0.4,4.4,0.9,6.6,1.4c2.2,0.5,4.5,1.2,6.7,1.9
	c2.2,0.7,4.4,1.5,6.5,2.4c2.1,0.9,4.1,1.9,6.1,3s3.7,2.3,5.4,3.6s3.2,2.8,4.5,4.4c1.3,1.6,2.5,3.3,3.4,5.2c0.9,1.9,1.6,3.9,2,6
	c0.1,0.4,0.1,0.8,0.2,1.2c0.1,0.4,0.1,0.8,0.2,1.2s0.1,0.8,0.2,1.2c0.1,0.4,0.1,0.8,0.2,1.2c0.1,0.4,0.2,0.8,0.3,1.1
	c0.1,0.4,0.2,0.7,0.3,1.1c0.1,0.4,0.3,0.7,0.5,1.1c0.2,0.3,0.4,0.7,0.6,1c0.3,0.5,0.7,1,1.2,1.4c0.4,0.4,0.9,0.7,1.4,1.1
	c0.5,0.3,1,0.6,1.6,0.8c0.6,0.2,1.1,0.4,1.7,0.6s1.2,0.3,1.8,0.4c0.6,0.1,1.2,0.2,1.9,0.3c0.6,0.1,1.3,0.1,1.9,0.2
	c0.6,0.1,1.3,0.1,1.9,0.1c5.5,0.4,10.9,1.1,16.3,2.2c5.3,1.1,10.6,2.4,15.8,4.1c5.2,1.6,10.3,3.6,15.4,5.7s10,4.5,14.9,7
	c4.9,2.5,9.8,5.2,14.6,8.1c4.8,2.8,9.5,5.8,14.2,8.8s9.3,6.2,13.9,9.3c4.6,3.1,9.2,6.3,13.7,9.5c0.8,0.5,1.6,1.1,2.3,1.6
	c0.8,0.6,1.6,1.1,2.3,1.7c0.8,0.6,1.5,1.2,2.3,1.8c0.7,0.6,1.5,1.2,2.2,1.9s1.4,1.3,2,2c0.6,0.7,1.3,1.4,1.8,2.1
	c0.6,0.7,1.1,1.5,1.6,2.3c0.5,0.8,1,1.6,1.4,2.5s0.7,1.8,1,2.7s0.4,1.9,0.5,2.8c0.1,1,0.1,1.9,0.1,2.9c0,1-0.2,1.9-0.4,2.8
	c-0.2,0.9-0.5,1.8-0.8,2.7s-0.8,1.7-1.3,2.4c-0.5,0.7-1.1,1.4-1.8,2c-0.7,0.6-1.4,1.1-2.3,1.5c2.8,0.7,5.5,1.5,8.2,2.4
	c2.7,0.9,5.4,1.8,8.1,2.8s5.3,2.1,7.9,3.3c2.6,1.2,5.2,2.4,7.7,3.7c2.5,1.3,5,2.7,7.5,4.1c2.5,1.4,4.9,2.9,7.3,4.5
	c2.4,1.6,4.7,3.2,7,4.9C800.5,250.9,802.7,252.7,804.9,254.5z"/>
</svg>
