<?xml version="1.0" encoding="utf-8"?>
<!-- Generator: Adobe Illustrator 18.1.1, SVG Export Plug-In . SVG Version: 6.00 Build 0)  -->
<!DOCTYPE svg PUBLIC "-//W3C//DTD SVG 1.1//EN" "http://www.w3.org/Graphics/SVG/1.1/DTD/svg11.dtd">
<svg version="1.1" id="Layer_1" xmlns="http://www.w3.org/2000/svg" xmlns:xlink="http://www.w3.org/1999/xlink" x="0px" y="0px"
	 viewBox="0 0 960 640" enable-background="new 0 0 960 640" xml:space="preserve">
<path fill="#DDDAC5" d="M743,268.9c0.2,0.5,0.4,0.9,0.7,1.4c0.3,0.4,0.6,0.8,0.9,1.2s0.7,0.7,1.1,1.1c0.4,0.3,0.8,0.6,1.2,0.9
	c0.4,0.3,0.9,0.6,1.3,0.8s0.9,0.5,1.4,0.8c0.5,0.2,1,0.5,1.4,0.7c0.5,0.2,1,0.4,1.4,0.6c1.3,0.6,2.7,1.2,4,1.8
	c1.3,0.6,2.7,1.2,4,1.8c1.3,0.6,2.7,1.2,4,1.8c1.3,0.6,2.7,1.2,4,1.8c1.3,0.6,2.7,1.2,4,1.8c1.3,0.6,2.7,1.2,4,1.8
	c1.3,0.6,2.7,1.2,4,1.8c1.3,0.6,2.7,1.2,4,1.8c0.8,0.4,1.6,0.7,2.4,1.1c0.8,0.4,1.6,0.7,2.4,1.1s1.6,0.8,2.4,1.2
	c0.8,0.4,1.5,0.8,2.3,1.3s1.5,0.9,2.2,1.4c0.7,0.5,1.4,1,2.1,1.6s1.3,1.1,1.9,1.7s1.2,1.3,1.7,1.9c0.5,0.7,1,1.4,1.4,2.1
	c0.4,0.7,0.8,1.5,1.2,2.2c0.4,0.8,0.7,1.5,1,2.3c0.3,0.8,0.6,1.6,0.8,2.4c0.2,0.8,0.5,1.6,0.6,2.5c0.2,0.8,0.4,1.7,0.5,2.5
	c0.1,0.8,0.3,1.7,0.4,2.5c0.1,0.8,0.2,1.7,0.3,2.5c0.5,4.9,0.8,9.9,0.7,14.8s-0.3,9.8-0.8,14.7s-1.2,9.7-2.1,14.6
	c-0.9,4.8-2,9.7-3.2,14.5s-2.6,9.6-4.1,14.4c-1.5,4.8-3.1,9.5-4.7,14.2s-3.4,9.4-5.1,14.1c-1.8,4.7-3.6,9.3-5.3,14
	c-0.6,1.6-1.3,3.3-1.9,4.9s-1.3,3.3-2,4.9c-0.7,1.6-1.3,3.3-2,4.9c-0.7,1.6-1.4,3.2-2.1,4.8c-0.7,1.6-1.5,3.2-2.3,4.8
	s-1.6,3.1-2.4,4.7c-0.8,1.5-1.7,3.1-2.6,4.6s-1.9,3-2.8,4.4c-2.9,4.3-6.2,8.4-9.7,12.1c-3.5,3.7-7.4,7.2-11.4,10.3
	c-4,3.2-8.3,6-12.8,8.7c-4.5,2.6-9.1,5-13.9,7.1c-4.8,2.1-9.7,4-14.7,5.7s-10.2,3.1-15.3,4.4c-5.2,1.3-10.4,2.3-15.6,3.2
	c-5.2,0.9-10.5,1.5-15.7,2.1c-8,0.8-16,1.3-24,1.5c-8,0.2-16,0.1-24-0.2c-8-0.3-16-0.9-24-1.8c-8-0.8-15.9-1.9-23.9-3.2
	c-7.9-1.3-15.9-2.7-23.8-4.4c-7.9-1.7-15.8-3.5-23.6-5.5c-7.8-2-15.6-4.1-23.4-6.4s-15.4-4.7-23.1-7.2c-7.6-2.5-15.3-5.1-22.8-7.8
	s-15.1-5.4-22.7-8.2c-7.5-2.8-15-5.7-22.6-8.6c-7.5-2.9-15-5.8-22.5-8.8c-7.5-2.9-15-5.9-22.5-8.8c-7.5-2.9-15-5.8-22.5-8.7
	s-15-5.7-22.6-8.5c-7.5-2.8-15.1-5.5-22.7-8.1c-3.2-1.1-6.4-2.2-9.7-3.3c-3.2-1.1-6.5-2.2-9.7-3.3c-3.2-1.1-6.4-2.2-9.6-3.4
	c-3.2-1.1-6.4-2.3-9.6-3.5c-3.2-1.2-6.3-2.5-9.5-3.8c-3.1-1.3-6.2-2.7-9.3-4.1c-3.1-1.4-6.1-2.9-9.1-4.5c-3-1.6-6-3.2-8.9-5
	c-3.7-2.2-7.2-4.6-10.7-7.1s-6.8-5.2-10.1-8c-3.3-2.8-6.4-5.7-9.4-8.8s-5.9-6.2-8.6-9.5c-2.7-3.3-5.3-6.7-7.7-10.2
	c-2.4-3.5-4.6-7.2-6.7-10.9c-2-3.7-3.9-7.6-5.6-11.5c-1.7-3.9-3.1-7.9-4.4-12c-1.3-4.1-2.3-8.2-3.1-12.4c-0.8-4.2-1.4-8.5-1.7-12.7
	c-0.3-4.3-0.4-8.6-0.3-12.8c0.1-4.3,0.5-8.5,1.1-12.8s1.5-8.4,2.5-12.5c1.1-4.1,2.4-8.2,4-12.1c1.6-3.9,3.4-7.8,5.4-11.5
	s4.3-7.3,6.9-10.8c0.6-0.8,1.2-1.6,1.8-2.4c0.6-0.8,1.2-1.6,1.8-2.4c0.6-0.8,1.2-1.6,1.8-2.4c0.6-0.8,1.2-1.6,1.8-2.4
	c0.6-0.8,1.1-1.6,1.7-2.4c0.5-0.8,1-1.7,1.5-2.5s0.9-1.7,1.3-2.6c0.4-0.9,0.8-1.8,1.1-2.7c0.3-0.8,0.5-1.5,0.7-2.3
	c0.2-0.8,0.4-1.5,0.5-2.3c0.1-0.8,0.3-1.6,0.4-2.4c0.1-0.8,0.2-1.6,0.3-2.4c0.1-0.8,0.1-1.6,0.2-2.4c0.1-0.8,0.1-1.6,0.2-2.4
	c0.1-0.8,0.1-1.6,0.2-2.4c0.1-0.8,0.2-1.6,0.3-2.4c0.5-3.8,1.4-7.6,2.7-11.2s2.8-7,4.7-10.3c1.9-3.3,4-6.4,6.5-9.4
	c2.4-3,5.1-5.8,8-8.4c2.9-2.6,5.9-5,9.2-7.2c3.2-2.2,6.6-4.2,10.1-6c3.5-1.8,7.1-3.3,10.8-4.6c3.7-1.3,7.5-2.4,11.3-3.2
	c3.8-0.8,7.6-1.4,11.4-1.8c3.8-0.4,7.7-0.6,11.5-0.7s7.7,0,11.5,0.3c3.9,0.2,7.7,0.6,11.6,1.1c3.8,0.5,7.7,1.1,11.5,1.9
	c3.8,0.7,7.7,1.5,11.5,2.4c3.8,0.9,7.6,1.9,11.4,2.9c3.8,1,7.5,2.1,11.2,3.2c10.1,3,20.1,6.3,30,9.7c9.9,3.4,19.8,7,29.7,10.8
	c9.8,3.7,19.6,7.6,29.4,11.4c9.8,3.9,19.6,7.8,29.3,11.7c9.8,3.9,19.5,7.8,29.3,11.7c9.8,3.8,19.6,7.6,29.5,11.3
	c9.9,3.6,19.8,7.1,29.7,10.5c10,3.3,20,6.4,30.1,9.3c0.4,0.1,0.9,0.3,1.4,0.4c0.5,0.1,0.9,0.2,1.4,0.3c0.5,0.1,0.9,0.2,1.4,0.3
	s0.9,0.1,1.4,0.2c0.5,0,0.9,0,1.4,0c0.5,0,0.9-0.1,1.4-0.1c0.4-0.1,0.9-0.2,1.3-0.3c0.4-0.2,0.8-0.3,1.2-0.6
	c0.3-0.2,0.6-0.4,0.9-0.7c0.3-0.2,0.6-0.5,0.8-0.8c0.3-0.3,0.5-0.6,0.7-0.9c0.2-0.3,0.4-0.6,0.6-1c0.2-0.3,0.4-0.7,0.6-1
	s0.3-0.7,0.5-1.1c0.1-0.4,0.3-0.7,0.4-1.1c0.1-0.4,0.3-0.7,0.4-1.1c1.1-3.4,1.9-7,2.5-10.6c0.6-3.6,1.1-7.4,1.4-11.1
	s0.6-7.5,0.8-11.3s0.5-7.5,0.8-11.2s0.8-7.3,1.4-10.8c0.6-3.5,1.4-6.9,2.6-10.2c1.1-3.2,2.5-6.3,4.3-9.2c1.8-2.9,4-5.6,6.6-8
	c1.9-1.8,4-3.3,6.2-4.6c2.2-1.3,4.5-2.4,6.9-3.2c2.4-0.9,4.8-1.5,7.4-2c2.5-0.5,5.1-0.8,7.8-1c2.6-0.2,5.3-0.2,8-0.1
	c2.7,0.1,5.4,0.3,8.1,0.6c2.7,0.3,5.4,0.7,8,1.2s5.3,1,7.9,1.5c3.3,0.7,6.7,1.5,10,2.2c3.3,0.8,6.7,1.6,10,2.4
	c3.3,0.8,6.6,1.7,9.9,2.6c3.3,0.9,6.6,1.9,9.9,2.8c3.3,1,6.5,2,9.8,3c3.3,1,6.5,2.1,9.7,3.2s6.5,2.2,9.7,3.4
	c3.2,1.2,6.4,2.4,9.6,3.6c0.8,0.3,1.6,0.6,2.5,1c0.8,0.3,1.6,0.7,2.5,1c0.8,0.4,1.6,0.7,2.4,1.1c0.8,0.4,1.6,0.8,2.4,1.2
	c0.8,0.4,1.5,0.9,2.2,1.4c0.7,0.5,1.4,1,2.1,1.6c0.7,0.5,1.3,1.1,1.9,1.7s1.2,1.3,1.7,2c1,1.3,1.8,2.6,2.5,4.1
	c0.7,1.4,1.2,2.9,1.5,4.4c0.4,1.5,0.6,3.1,0.7,4.6s0.1,3.2,0,4.8s-0.3,3.3-0.5,4.9c-0.3,1.6-0.6,3.3-1,4.9s-0.8,3.3-1.3,4.9
	c-0.5,1.6-0.9,3.2-1.4,4.7c-0.8,2.5-1.6,5-2.4,7.5s-1.6,5-2.4,7.5c-0.8,2.5-1.6,5-2.4,7.5s-1.6,5-2.4,7.5c-0.8,2.5-1.6,5-2.4,7.5
	s-1.6,5-2.4,7.5s-1.6,5-2.4,7.5c-0.8,2.5-1.6,5-2.4,7.5c-0.1,0.5-0.3,0.9-0.4,1.4s-0.3,0.9-0.4,1.4s-0.2,1-0.3,1.4
	c-0.1,0.5-0.2,1-0.2,1.4c-0.1,0.5-0.1,1-0.1,1.4c0,0.5,0,1,0,1.4c0,0.5,0.1,0.9,0.2,1.4S742.9,268.5,743,268.9z"/>
</svg>
