<?xml version="1.0" encoding="utf-8"?>
<!-- Generator: Adobe Illustrator 18.1.1, SVG Export Plug-In . SVG Version: 6.00 Build 0)  -->
<!DOCTYPE svg PUBLIC "-//W3C//DTD SVG 1.1//EN" "http://www.w3.org/Graphics/SVG/1.1/DTD/svg11.dtd">
<svg version="1.1" id="Layer_1" xmlns="http://www.w3.org/2000/svg" xmlns:xlink="http://www.w3.org/1999/xlink" x="0px" y="0px"
	 viewBox="0 0 960 640" enable-background="new 0 0 960 640" xml:space="preserve">
<path fill="#DDDAC5" d="M638.7,533.9c-2.8,1.1-5.6,2.1-8.5,3.1s-5.7,1.9-8.6,2.8s-5.7,1.8-8.6,2.6c-2.9,0.8-5.8,1.7-8.7,2.4
	c-2.9,0.8-5.8,1.5-8.7,2.2c-2.9,0.7-5.9,1.4-8.8,2c-2.9,0.6-5.9,1.2-8.8,1.8c-3,0.6-5.9,1.1-8.9,1.6c-4.3,0.7-8.6,1.3-13,1.9
	c-4.3,0.5-8.7,1-13.1,1.4s-8.7,0.6-13.1,0.8s-8.7,0.2-13.1,0.2c-4.4,0-8.7-0.2-13.1-0.4c-4.4-0.3-8.7-0.6-13-1.1s-8.6-1.1-12.9-1.9
	s-8.6-1.6-12.8-2.7c-4.2-1-8.5-2.2-12.6-3.5c-4.2-1.3-8.3-2.8-12.4-4.4c-4.1-1.6-8.1-3.4-12-5.3c-3.9-1.9-7.8-3.9-11.6-6.1
	s-7.5-4.5-11.1-7c-3.6-2.5-7.1-5.1-10.4-7.9c-3.4-2.8-6.6-5.7-9.7-8.7c-3.1-3-6.1-6.2-8.9-9.6c-1.2-1.5-2.4-2.9-3.6-4.4
	s-2.4-3-3.5-4.5c-1.2-1.5-2.3-3.1-3.5-4.6c-1.2-1.5-2.3-3-3.5-4.6c-1.2-1.5-2.4-3-3.6-4.5c-1.2-1.5-2.5-2.9-3.7-4.3
	c-1.3-1.4-2.6-2.8-4-4.1c-1.4-1.3-2.8-2.6-4.2-3.8c-3.3-2.7-6.8-5.1-10.4-7.2c-3.6-2.1-7.4-3.8-11.3-5.3c-3.9-1.5-7.9-2.7-12-3.7
	s-8.3-1.8-12.6-2.4c-4.3-0.6-8.6-1.1-12.9-1.5s-8.7-0.6-13.1-0.8c-4.4-0.2-8.8-0.3-13.1-0.4c-4.4-0.1-8.7-0.2-13-0.3
	c-4.3-0.1-8.7-0.4-13.1-0.7c-4.4-0.4-8.8-0.9-13.2-1.6s-8.7-1.5-13-2.6c-4.3-1-8.5-2.3-12.5-3.8c-4-1.5-7.9-3.2-11.6-5.2
	c-3.7-2-7.2-4.2-10.4-6.7c-3.2-2.5-6.2-5.3-8.9-8.5c-2.7-3.1-5-6.6-7-10.4c-1.9-3.6-3.2-7.4-4.1-11.3s-1.2-7.9-1.2-11.8
	s0.6-8,1.5-11.9c0.9-3.9,2.2-7.7,3.9-11.4s3.7-7.2,6.1-10.4c2.4-3.2,5.1-6.2,8.1-8.9c3-2.6,6.2-4.9,9.8-6.8
	c3.5-1.9,7.3-3.3,11.2-4.2c2.1-0.5,4.2-0.9,6.3-1.2c2.2-0.3,4.3-0.6,6.5-0.8c2.2-0.2,4.4-0.4,6.6-0.7c2.2-0.2,4.4-0.5,6.5-0.8
	c2.1-0.3,4.2-0.7,6.2-1.3c2-0.5,4-1.2,5.8-2c1.8-0.8,3.6-1.8,5.2-2.9c1.6-1.2,3.1-2.5,4.5-4.2c0.9-1,1.6-2.1,2.3-3.3
	c0.7-1.1,1.3-2.3,1.8-3.5c0.5-1.2,0.9-2.5,1.3-3.8c0.4-1.3,0.7-2.6,0.9-3.9c0.3-1.3,0.5-2.7,0.6-4s0.3-2.7,0.4-4.1
	c0.1-1.4,0.2-2.8,0.3-4.1s0.2-2.7,0.2-4.1c0.3-4.3,0.6-8.6,1.1-13s1.2-8.6,2-12.9c0.8-4.3,1.7-8.5,2.8-12.7
	c1.1-4.2,2.3-8.4,3.7-12.5c1.4-4.1,3-8.1,4.7-12.1c1.7-4,3.6-7.8,5.7-11.6c2.1-3.8,4.3-7.5,6.7-11c2.4-3.6,5-7,7.7-10.4
	c2.7-3.2,5.5-6.3,8.5-9.2c3-2.9,6.1-5.7,9.3-8.4c3.2-2.6,6.6-5.1,10-7.5c3.5-2.3,7-4.5,10.7-6.6c3.7-2,7.4-3.9,11.2-5.7
	c3.8-1.7,7.7-3.3,11.7-4.8c3.9-1.4,7.9-2.7,12-3.9c4-1.1,8.1-2.1,12.2-3c4.1-0.8,8.2-1.5,12.4-2.1c4.1-0.6,8.3-1,12.5-1.2
	c4.2-0.3,8.3-0.4,12.5-0.5c4.2,0,8.4,0.1,12.6,0.3c4.2,0.2,8.4,0.5,12.5,1c4.2,0.4,8.3,1,12.5,1.6s8.3,1.4,12.4,2.2
	s8.2,1.8,12.3,2.8c1.6,0.4,3.2,0.8,4.9,1.2c1.6,0.4,3.2,0.8,4.9,1.3c1.6,0.4,3.2,0.8,4.9,1.3s3.2,0.8,4.9,1.2
	c1.6,0.4,3.3,0.8,4.9,1.1c1.6,0.3,3.3,0.7,4.9,1c1.6,0.3,3.3,0.6,4.9,0.8c1.7,0.2,3.3,0.4,5,0.5c3.5,0.3,7,0.4,10.6,0.3
	c3.5-0.1,7-0.4,10.5-0.7c3.5-0.4,7-0.9,10.5-1.5c3.5-0.6,7-1.3,10.4-2c3.5-0.7,7-1.5,10.4-2.2c3.5-0.8,7-1.5,10.5-2.2
	s7-1.4,10.5-1.9c3.5-0.6,7-1.1,10.5-1.4c6.2-0.6,12.4-0.8,18.6-0.6s12.3,0.7,18.4,1.7c6.1,0.9,12.1,2.2,18.1,3.7
	c6,1.6,11.9,3.5,17.8,5.6c5.8,2.2,11.6,4.6,17.3,7.3c5.7,2.7,11.2,5.6,16.7,8.8c5.4,3.1,10.8,6.5,16,10s10.2,7.2,15.1,11.1
	c2.4,1.9,4.8,3.9,7.2,5.9c2.4,2,4.7,4.1,7,6.2c2.3,2.1,4.5,4.3,6.6,6.6c2.1,2.3,4.2,4.6,6.1,7c1.9,2.4,3.8,4.9,5.4,7.4
	c1.7,2.5,3.3,5.1,4.7,7.8s2.7,5.4,3.8,8.3c1.1,2.8,2,5.7,2.7,8.7c0.6,2.6,1.1,5.2,1.4,7.9c0.3,2.6,0.5,5.3,0.6,7.9s0,5.3-0.1,8
	s-0.4,5.3-0.7,8s-0.7,5.3-1.2,8c-0.5,2.7-1,5.3-1.6,8c-0.6,2.6-1.2,5.3-1.8,7.9s-1.3,5.2-1.9,7.8c-1.9,7.4-3.7,14.8-5.6,22.2
	s-3.8,14.8-5.8,22.2s-4.1,14.8-6.2,22.1c-2.2,7.3-4.4,14.7-6.8,21.9c-2.4,7.3-4.9,14.5-7.5,21.6c-2.7,7.1-5.5,14.2-8.5,21.2
	c-3,7-6.2,13.9-9.6,20.7s-7,13.5-10.9,20.1c-0.9,1.5-1.7,3-2.6,4.4c-0.9,1.5-1.8,2.9-2.7,4.4c-0.9,1.4-1.9,2.9-2.9,4.3
	c-1,1.4-2,2.8-3,4.2c-1,1.4-2.1,2.7-3.1,4.1s-2.2,2.6-3.3,3.9c-1.1,1.3-2.3,2.5-3.5,3.7c-1.2,1.2-2.4,2.4-3.7,3.5
	c-1.5,1.4-3.1,2.7-4.8,4c-1.6,1.3-3.3,2.5-5,3.6c-1.7,1.2-3.5,2.2-5.2,3.3c-1.8,1.1-3.6,2.1-5.4,3c-1.8,1-3.7,1.9-5.6,2.8
	s-3.8,1.7-5.7,2.6c-1.9,0.8-3.8,1.6-5.8,2.4C642.6,532.4,640.6,533.2,638.7,533.9z"/>
</svg>
