<?xml version="1.0" encoding="utf-8"?>
<!-- Generator: Adobe Illustrator 18.1.1, SVG Export Plug-In . SVG Version: 6.00 Build 0)  -->
<!DOCTYPE svg PUBLIC "-//W3C//DTD SVG 1.1//EN" "http://www.w3.org/Graphics/SVG/1.1/DTD/svg11.dtd">
<svg version="1.1" id="Layer_1" xmlns="http://www.w3.org/2000/svg" xmlns:xlink="http://www.w3.org/1999/xlink" x="0px" y="0px"
	 viewBox="0 0 960 640" enable-background="new 0 0 960 640" xml:space="preserve">
<path fill="#C6DCE0" d="M490.9,105.8c0.9-1.1,2-2.2,3.1-3.2c1.1-1,2.3-1.9,3.5-2.8s2.5-1.6,3.8-2.3c1.3-0.7,2.7-1.3,4-1.8
	c1.4-0.5,2.8-0.9,4.2-1.2s2.8-0.5,4.3-0.5c1.4,0,2.8,0,4.3,0.3c1.4,0.2,2.8,0.6,4.2,1.1c1.3,0.5,2.5,1.1,3.7,1.8
	c1.2,0.7,2.2,1.5,3.3,2.4c1,0.9,2,1.9,2.8,2.9c0.9,1.1,1.7,2.2,2.5,3.3c0.8,1.2,1.4,2.4,2.1,3.7c0.6,1.3,1.2,2.6,1.7,3.9
	s1,2.7,1.4,4c0.4,1.4,0.8,2.7,1.1,4.1c0.3,1.4,0.6,2.7,0.8,4.1c0.3,1.4,0.5,2.8,0.7,4.1c0.2,1.4,0.4,2.8,0.7,4.1s0.4,2.8,0.7,4.1
	c0.2,1.4,0.5,2.7,0.8,4.1c0.3,1.4,0.6,2.7,0.9,4.1s0.7,2.7,1.2,4c0.4,1.3,0.9,2.6,1.5,3.9c0.2,0.6,0.5,1.1,0.8,1.7
	c0.3,0.6,0.5,1.1,0.8,1.7c0.3,0.6,0.5,1.1,0.8,1.7c0.3,0.6,0.5,1.1,0.7,1.7c0.2,0.6,0.4,1.1,0.6,1.7c0.2,0.6,0.4,1.1,0.5,1.7
	c0.1,0.6,0.2,1.2,0.3,1.8c0.1,0.6,0.1,1.2,0.1,1.8c0,0.4,0,0.8-0.1,1.1c0,0.4-0.1,0.7-0.1,1.1c-0.1,0.4-0.1,0.7-0.2,1.1
	c-0.1,0.4-0.2,0.7-0.3,1.1c-0.1,0.4-0.2,0.7-0.3,1.1c-0.1,0.4-0.2,0.7-0.3,1.1c-0.1,0.4-0.2,0.7-0.3,1.1c-0.1,0.4-0.2,0.7-0.3,1.1
	c-0.3,1.4-0.5,2.8-0.6,4.2c-0.1,1.4-0.1,2.8,0,4.2c0.1,1.4,0.3,2.8,0.5,4.2c0.2,1.4,0.5,2.8,0.8,4.2c0.3,1.4,0.7,2.8,1,4.2
	c0.4,1.4,0.7,2.8,1.1,4.2c0.4,1.4,0.8,2.8,1.1,4.2c0.4,1.4,0.7,2.8,1,4.2c0.3,1.6,0.6,3.3,0.8,5c0.2,1.7,0.4,3.3,0.5,5
	s0.1,3.4,0.1,5c0,1.7-0.1,3.4-0.3,5s-0.3,3.3-0.6,5c-0.3,1.7-0.6,3.3-1,5s-0.8,3.3-1.3,4.9s-1,3.2-1.6,4.8c-0.1,0.2-0.2,0.5-0.3,0.7
	c-0.1,0.2-0.2,0.5-0.3,0.7c-0.1,0.2-0.2,0.5-0.3,0.7c-0.1,0.2-0.2,0.5-0.2,0.7c-0.1,0.2-0.1,0.5-0.2,0.7c-0.1,0.2-0.1,0.5-0.1,0.8
	s-0.1,0.5-0.1,0.8c0,0.3,0,0.5,0,0.8c0,0.3,0,0.5,0.1,0.7c0,0.2,0.1,0.5,0.2,0.7c0.1,0.2,0.1,0.5,0.2,0.7c0.1,0.2,0.2,0.5,0.3,0.7
	s0.2,0.5,0.3,0.7c0.1,0.2,0.2,0.4,0.4,0.7s0.3,0.4,0.4,0.7s0.3,0.4,0.4,0.6c0.9,1.4,1.8,2.7,2.7,4.1c0.9,1.3,1.9,2.7,2.9,4
	c1,1.3,2,2.6,3.1,3.8c1.1,1.3,2.2,2.5,3.3,3.7s2.3,2.4,3.4,3.5c1.2,1.2,2.4,2.3,3.6,3.4s2.5,2.2,3.7,3.2c1.3,1,2.6,2.1,3.9,3
	c1.8,1.3,3.6,2.6,5.4,3.8c1.8,1.2,3.7,2.4,5.6,3.6c1.9,1.2,3.7,2.4,5.6,3.6c1.9,1.2,3.7,2.4,5.6,3.6c1.8,1.2,3.6,2.5,5.4,3.8
	s3.5,2.6,5.1,4c1.7,1.4,3.3,2.9,4.8,4.4c1.5,1.6,3,3.2,4.3,4.9c1.3,1.6,2.4,3.3,3.5,5.1c1.1,1.7,2,3.6,2.9,5.4s1.7,3.7,2.4,5.7
	c0.7,1.9,1.3,3.9,1.9,5.9c0.6,2,1.1,4,1.5,6c0.4,2,0.8,4.1,1.2,6.1c0.3,2.1,0.6,4.1,0.9,6.2c0.2,2.1,0.5,4.1,0.6,6.2
	c0.5,5.3,0.8,10.6,0.9,15.8c0.1,5.3,0.1,10.6,0,15.9s-0.5,10.6-1,15.8c-0.5,5.3-1.1,10.5-1.9,15.8c-0.8,5.2-1.7,10.4-2.8,15.6
	c-1.1,5.2-2.3,10.3-3.7,15.4c-1.4,5.1-2.9,10.2-4.6,15.2c-1.7,5-3.5,10-5.5,14.9c-0.2,0.5-0.4,1.1-0.7,1.6c-0.2,0.5-0.5,1.1-0.7,1.6
	c-0.2,0.5-0.5,1.1-0.8,1.6c-0.3,0.5-0.5,1.1-0.8,1.6c-0.3,0.5-0.6,1-0.9,1.5c-0.3,0.5-0.7,1-1,1.4c-0.4,0.5-0.8,0.9-1.2,1.3
	c-0.4,0.4-0.8,0.8-1.3,1.2c-0.6,0.5-1.2,0.9-1.9,1.3c-0.7,0.4-1.3,0.7-2,1c-0.7,0.3-1.4,0.5-2.1,0.7c-0.7,0.2-1.5,0.4-2.2,0.5
	s-1.5,0.3-2.3,0.4c-0.8,0.1-1.5,0.2-2.3,0.2s-1.6,0.1-2.3,0.1c-0.8,0-1.6,0.1-2.3,0.1c-6,0.1-11.9,0.2-17.9,0.2
	c-6,0-11.9-0.1-17.9-0.2s-11.9-0.4-17.8-0.7c-5.9-0.3-11.9-0.7-17.8-1.1c-5.9-0.5-11.9-1-17.8-1.6c-5.9-0.6-11.8-1.3-17.7-2
	c-5.9-0.8-11.8-1.6-17.7-2.5c-5.9-0.9-11.8-1.9-17.6-2.9c-0.3,0-0.5-0.1-0.8-0.1s-0.5-0.1-0.8-0.2c-0.3-0.1-0.5-0.1-0.8-0.2
	s-0.5-0.1-0.8-0.2c-0.3-0.1-0.5-0.2-0.7-0.3c-0.2-0.1-0.5-0.2-0.7-0.3c-0.2-0.1-0.5-0.2-0.7-0.4s-0.4-0.3-0.6-0.5
	c-0.2-0.2-0.4-0.4-0.6-0.6s-0.4-0.4-0.5-0.6c-0.2-0.2-0.3-0.4-0.4-0.7s-0.3-0.5-0.4-0.7c-0.1-0.2-0.2-0.5-0.3-0.8
	c-0.1-0.3-0.2-0.5-0.3-0.8c-0.1-0.3-0.2-0.5-0.2-0.8c-0.1-0.3-0.1-0.5-0.2-0.8c-0.4-1.6-0.7-3.3-1-5c-0.3-1.7-0.5-3.4-0.6-5.1
	s-0.3-3.4-0.5-5.2s-0.4-3.4-0.6-5.1c-0.2-1.7-0.5-3.3-0.9-4.9s-0.8-3.2-1.4-4.6s-1.3-2.9-2.1-4.3s-1.9-2.6-3-3.8
	c-0.7-0.7-1.5-1.3-2.3-1.9s-1.6-1.1-2.5-1.6s-1.7-0.9-2.6-1.3c-0.9-0.4-1.8-0.8-2.8-1.1c-0.9-0.3-1.9-0.7-2.9-1
	c-1-0.3-1.9-0.6-2.9-0.9c-1-0.3-1.9-0.6-2.9-0.8c-1-0.3-1.9-0.6-2.9-0.9c-2.4-0.8-4.7-1.6-6.9-2.6c-2.3-1-4.5-2-6.7-3.1
	c-2.2-1.1-4.3-2.3-6.5-3.6s-4.2-2.6-6.3-4c-2.1-1.4-4.1-2.8-6.1-4.2s-4-2.9-6-4.4s-4-3-6-4.5c-2-1.5-4-3-5.9-4.5
	c-1.1-0.8-2.2-1.6-3.3-2.5s-2.2-1.6-3.3-2.4c-1.1-0.8-2.2-1.6-3.4-2.4c-1.1-0.8-2.3-1.5-3.4-2.3c-1.1-0.7-2.3-1.5-3.5-2.2
	c-1.2-0.7-2.4-1.4-3.6-2c-1.2-0.6-2.4-1.3-3.6-1.8s-2.5-1.1-3.7-1.6c-1.7-0.7-3.5-1.3-5.3-1.9s-3.6-1.2-5.4-1.7
	c-1.8-0.5-3.6-1.1-5.5-1.6c-1.8-0.5-3.6-1.1-5.4-1.7c-1.8-0.6-3.6-1.2-5.3-1.9c-1.7-0.7-3.4-1.4-5.1-2.2c-1.6-0.8-3.2-1.7-4.8-2.7
	c-1.5-1-3-2.1-4.4-3.4c-1.5-1.3-2.8-2.8-4-4.3c-1.2-1.5-2.2-3.2-3.1-4.9c-0.9-1.7-1.7-3.5-2.3-5.4c-0.6-1.9-1.1-3.8-1.5-5.7
	c-0.3-1.9-0.6-3.9-0.6-5.9c-0.1-2,0-4,0.2-5.9s0.5-3.9,1-5.9c0.5-1.9,1.1-3.8,1.8-5.6c0.7-1.8,1.6-3.6,2.6-5.3c1-1.7,2-3.4,3.2-4.9
	s2.4-3.1,3.7-4.5s2.7-2.8,4.2-4.1c1.5-1.3,3-2.6,4.6-3.7c1.6-1.2,3.3-2.3,5-3.3c1.7-1,3.4-2,5.2-2.8s3.6-1.7,5.4-2.4
	c1.8-0.7,3.7-1.4,5.6-1.9c1.9-0.6,3.8-1.1,5.7-1.5c1.9-0.4,3.8-0.8,5.8-1.2s3.9-0.6,5.9-0.8s3.9-0.4,5.9-0.5c2-0.1,4-0.2,5.9-0.3
	s4-0.1,5.9,0c2,0,4,0.1,5.9,0.1c-2.1-2-4-4-5.9-6.2c-1.9-2.1-3.6-4.4-5.3-6.7c-1.6-2.3-3.2-4.7-4.6-7.2c-1.4-2.5-2.7-5-3.9-7.6
	s-2.2-5.2-3.1-7.9c-0.9-2.7-1.7-5.4-2.4-8.2c-0.7-2.8-1.2-5.6-1.6-8.4c-0.4-2.8-0.6-5.7-0.7-8.5c0-0.4,0-0.9,0-1.3
	c0-0.4,0-0.9,0-1.3c0-0.4,0-0.9-0.1-1.3c0-0.4-0.1-0.9-0.1-1.3c0-0.4-0.1-0.9-0.2-1.3c-0.1-0.4-0.2-0.9-0.3-1.3
	c-0.1-0.4-0.2-0.8-0.4-1.3c-0.1-0.4-0.3-0.8-0.5-1.2c-0.1-0.3-0.3-0.6-0.4-0.9s-0.3-0.6-0.5-0.8c-0.2-0.3-0.4-0.5-0.6-0.8
	s-0.4-0.5-0.6-0.8c-0.2-0.3-0.4-0.5-0.6-0.8s-0.4-0.5-0.7-0.7c-0.2-0.2-0.4-0.5-0.7-0.7c-0.2-0.2-0.4-0.5-0.7-0.7
	c-1.7-1.9-3.4-3.8-5.1-5.8c-1.6-2-3.2-4-4.7-6c-1.5-2.1-3-4.1-4.4-6.3c-1.4-2.1-2.8-4.3-4.1-6.5s-2.6-4.4-3.8-6.7
	c-1.2-2.3-2.3-4.6-3.4-6.9s-2.1-4.7-3.1-7c-1-2.4-1.9-4.8-2.7-7.2c-0.3-0.9-0.6-1.7-0.9-2.6c-0.3-0.9-0.5-1.8-0.8-2.6
	c-0.2-0.9-0.5-1.8-0.7-2.7c-0.2-0.9-0.4-1.8-0.6-2.7c-0.2-0.9-0.3-1.8-0.4-2.7c-0.1-0.9-0.2-1.8-0.2-2.7c0-0.9,0-1.8,0-2.7
	s0.1-1.8,0.3-2.7c0.1-0.9,0.3-1.8,0.6-2.7c0.2-0.9,0.5-1.8,0.9-2.6c0.4-0.9,0.8-1.7,1.2-2.5s1-1.6,1.5-2.3c0.5-0.7,1.1-1.4,1.8-2.1
	c0.6-0.6,1.3-1.2,2-1.8c0.7-0.5,1.5-1,2.3-1.4c0.8-0.4,1.7-0.7,2.5-1c2.3-0.6,4.6-0.7,6.8-0.4c2.2,0.3,4.4,1.1,6.5,2.1
	s4.3,2.3,6.4,3.7c2.1,1.4,4.2,3,6.3,4.5c2.1,1.5,4.2,3.1,6.2,4.5c2.1,1.4,4.2,2.6,6.3,3.5c2.1,0.9,4.2,1.6,6.4,1.7
	c2.2,0.2,4.4-0.1,6.6-0.9c0.5-0.2,1-0.4,1.5-0.7c0.5-0.2,1-0.5,1.5-0.8c0.5-0.3,0.9-0.6,1.4-0.9s0.9-0.7,1.3-1s0.9-0.7,1.3-1.1
	c0.4-0.4,0.8-0.8,1.3-1.1c0.4-0.4,0.8-0.8,1.3-1.2c0.4-0.4,0.8-0.8,1.3-1.1c3.3-2.9,6.7-5.4,10.4-7.6c3.6-2.2,7.4-4,11.4-5.5
	c3.9-1.5,8-2.8,12.2-3.8c4.2-1,8.5-1.8,12.8-2.5c4.4-0.6,8.8-1.1,13.2-1.4s8.9-0.6,13.4-0.7c4.5-0.2,9-0.2,13.5-0.3
	c4.5-0.1,8.9-0.2,13.3-0.3c0.5,0,0.9,0,1.4,0c0.5,0,0.9,0,1.4-0.1s0.9-0.1,1.4-0.1c0.5,0,0.9-0.1,1.4-0.2c0.5-0.1,0.9-0.1,1.3-0.2
	c0.4-0.1,0.9-0.2,1.3-0.3s0.9-0.3,1.3-0.4c0.4-0.2,0.8-0.3,1.2-0.5c0.6-0.3,1.1-0.6,1.6-1c0.5-0.3,1-0.7,1.5-1.1s0.9-0.8,1.4-1.3
	c0.4-0.4,0.9-0.9,1.3-1.4c0.4-0.5,0.8-1,1.2-1.5c0.4-0.5,0.8-1,1.2-1.5c0.4-0.5,0.8-1,1.2-1.5S490.5,106.2,490.9,105.8z"/>
</svg>
