<?xml version="1.0" encoding="utf-8"?>
<!-- Generator: Adobe Illustrator 18.1.1, SVG Export Plug-In . SVG Version: 6.00 Build 0)  -->
<!DOCTYPE svg PUBLIC "-//W3C//DTD SVG 1.1//EN" "http://www.w3.org/Graphics/SVG/1.1/DTD/svg11.dtd">
<svg version="1.1" id="Layer_1" xmlns="http://www.w3.org/2000/svg" xmlns:xlink="http://www.w3.org/1999/xlink" x="0px" y="0px"
	 viewBox="0 0 500 500" enable-background="new 0 0 500 500" xml:space="preserve">
<path fill="#C6DCE0" d="M394.5,321.9c-1.8-3-3.8-5.8-6-8.3c-2.2-2.6-4.6-5-7.1-7.1c-2.5-2.2-5.3-4.1-8.1-5.9c-2.9-1.8-5.8-3.3-9-4.7
	c-3.1-1.3-6.3-2.5-9.6-3.4c-3.3-0.9-6.7-1.6-10.2-2.1s-7-0.7-10.6-0.7c-3.6,0-7.2,0.2-10.8,0.6v-21.9v-21.9v-21.9v-21.9V181v-21.9
	v-21.9v-21.9v-4.2V107v-4.2v-4.2v-4.2v-4.2V86v-4.2h0h0h0h0h0h0h0h0c0-0.1,0-0.1,0-0.2c0-0.1,0-0.1,0-0.2s0-0.1,0-0.2
	c0-0.1,0-0.1,0-0.2s0-0.1,0-0.2c0-0.1,0-0.1,0-0.2s0-0.1,0-0.2c0-0.1,0-0.1,0-0.2c0-1.4-0.6-2.7-1.6-3.9s-2.6-2.5-4.6-3.6
	s-4.4-2.2-7.3-3.2s-6.1-1.9-9.6-2.7c-3.6-0.8-7.5-1.6-11.6-2.2s-8.6-1.2-13.3-1.6c-4.7-0.4-9.6-0.7-14.7-0.9
	c-5.1-0.2-10.4-0.2-15.8-0.1c-5.2,0.1-10.3,0.3-15.2,0.6c-4.9,0.3-9.6,0.8-14.2,1.3c-4.5,0.5-8.8,1.2-12.9,1.9s-7.8,1.5-11.3,2.4
	s-6.7,1.8-9.5,2.9c-2.8,1-5.3,2.1-7.4,3.2c-2.1,1.1-3.8,2.3-5,3.5c-1.3,1.2-2.1,2.5-2.4,3.8h0h0h0h0h0h0h0h0v0.1V82v0.1v0.1v0.1v0.1
	v0.1v0.1c0,0,0,0,0,0c0,0,0,0,0,0s0,0,0,0c0,0,0,0,0,0c0,0,0,0,0,0c0,0,0,0,0,0c0,0,0,0,0,0s0,0,0,0c0,0,0,0,0,0c0,0,0,0,0,0
	c0,0,0,0,0,0c0,0,0,0,0,0c0,0,0,0,0,0c0,0,0,0,0,0c0,0,0,0,0,0c0,0,0,0,0,0v4v4v4v4v4v4v4v4v22.3V160v22.3v22.3v22.3v22.3v22.3v22.3
	c-3.6-0.4-7.2-0.6-10.8-0.6c-3.6,0-7.1,0.3-10.6,0.7c-3.5,0.5-6.9,1.2-10.2,2.1c-3.3,0.9-6.5,2-9.6,3.4s-6.1,2.9-9,4.7
	c-2.9,1.8-5.6,3.7-8.1,5.9c-2.5,2.2-4.9,4.6-7.1,7.1c-2.2,2.6-4.2,5.4-6,8.3c-2.6,4.3-4.6,8.7-6,13.3s-2.4,9.3-2.8,14.1
	s-0.3,9.6,0.3,14.4s1.7,9.6,3.2,14.4c1.6,4.7,3.6,9.4,6,13.9c2.5,4.5,5.4,8.9,8.7,13s7.1,8,11.2,11.7s8.7,6.9,13.6,9.9
	c3,1.8,6.1,3.5,9.2,4.9s6.3,2.7,9.5,3.8c3.2,1.1,6.4,2,9.6,2.7s6.4,1.2,9.6,1.6s6.4,0.5,9.5,0.5c3.1,0,6.3-0.2,9.3-0.5
	c3.1-0.3,6.1-0.9,9-1.6s5.9-1.5,8.7-2.6c1.5,0.4,3,0.7,4.6,1s3.1,0.6,4.8,0.9s3.3,0.6,4.9,0.8s3.4,0.5,5.1,0.7
	c1.7,0.2,3.5,0.4,5.2,0.5c1.8,0.2,3.6,0.3,5.4,0.4c1.8,0.1,3.6,0.2,5.5,0.2c1.8,0.1,3.7,0.1,5.6,0.1c2.2,0,4.4,0,6.5-0.1
	c2.2-0.1,4.3-0.2,6.4-0.3s4.2-0.3,6.2-0.5c2-0.2,4.1-0.4,6-0.7s3.9-0.6,5.8-0.9c1.9-0.3,3.8-0.7,5.6-1.1c1.8-0.4,3.6-0.8,5.3-1.2
	s3.4-0.9,5-1.4c2.7,0.7,5.4,1.3,8.2,1.7c2.8,0.4,5.6,0.7,8.4,0.9c2.8,0.2,5.7,0.2,8.6,0c2.9-0.1,5.8-0.4,8.7-0.9s5.9-1,8.8-1.8
	s5.8-1.6,8.7-2.7c2.9-1,5.8-2.2,8.6-3.6s5.7-2.9,8.4-4.5c4.9-3,9.5-6.3,13.6-9.9s7.9-7.5,11.2-11.7s6.2-8.5,8.7-13
	c2.5-4.5,4.5-9.2,6-13.9c1.6-4.7,2.6-9.6,3.2-14.4c0.6-4.8,0.7-9.7,0.3-14.4s-1.3-9.5-2.8-14.1C399.1,330.6,397.1,326.2,394.5,321.9
	z"/>
</svg>
