<?xml version="1.0" encoding="utf-8"?>
<!-- Generator: Adobe Illustrator 18.1.1, SVG Export Plug-In . SVG Version: 6.00 Build 0)  -->
<!DOCTYPE svg PUBLIC "-//W3C//DTD SVG 1.1//EN" "http://www.w3.org/Graphics/SVG/1.1/DTD/svg11.dtd">
<svg version="1.1" id="Layer_1" xmlns="http://www.w3.org/2000/svg" xmlns:xlink="http://www.w3.org/1999/xlink" x="0px" y="0px"
	 viewBox="0 0 960 640" enable-background="new 0 0 960 640" xml:space="preserve">
<path fill="#C6DCE0" d="M580.1,89c1.2-1.4,2.5-2.8,3.9-4c1.4-1.3,2.9-2.5,4.4-3.5c1.5-1.1,3.2-2.1,4.8-3s3.4-1.6,5.1-2.3
	s3.5-1.1,5.3-1.5c1.8-0.4,3.6-0.6,5.4-0.6c1.8-0.1,3.6,0.1,5.4,0.4c1.8,0.3,3.6,0.8,5.3,1.4c1.7,0.6,3.2,1.4,4.7,2.3
	c1.5,0.9,2.8,1.9,4.1,3.1c1.3,1.1,2.5,2.4,3.6,3.7c1.1,1.3,2.2,2.8,3.1,4.3c1,1.5,1.8,3.1,2.6,4.7c0.8,1.6,1.5,3.3,2.2,5
	c0.7,1.7,1.2,3.4,1.8,5.1c0.5,1.7,1,3.5,1.4,5.2c0.4,1.7,0.7,3.5,1.1,5.2s0.6,3.5,0.9,5.3c0.3,1.8,0.6,3.5,0.8,5.3
	c0.3,1.8,0.6,3.5,0.9,5.3c0.3,1.7,0.6,3.5,1,5.2c0.4,1.7,0.7,3.5,1.2,5.2s0.9,3.4,1.5,5.1c0.6,1.7,1.2,3.3,1.9,4.9
	c0.3,0.7,0.6,1.4,1,2.1c0.3,0.7,0.7,1.4,1,2.1c0.3,0.7,0.7,1.4,1,2.1c0.3,0.7,0.6,1.4,0.9,2.1c0.3,0.7,0.6,1.4,0.8,2.2
	s0.5,1.5,0.6,2.2c0.2,0.7,0.3,1.5,0.4,2.2c0.1,0.8,0.1,1.5,0.1,2.3c0,0.5,0,1-0.1,1.4c0,0.5-0.1,1-0.2,1.4c-0.1,0.5-0.2,0.9-0.3,1.4
	c-0.1,0.5-0.2,0.9-0.3,1.4c-0.1,0.5-0.2,0.9-0.4,1.4c-0.1,0.5-0.2,0.9-0.4,1.4s-0.2,0.9-0.4,1.4s-0.2,0.9-0.3,1.4
	c-0.4,1.8-0.6,3.6-0.7,5.4s-0.1,3.6,0,5.4s0.3,3.6,0.6,5.4c0.3,1.8,0.6,3.6,1,5.4c0.4,1.8,0.8,3.6,1.3,5.4c0.5,1.8,0.9,3.6,1.4,5.4
	c0.5,1.8,1,3.6,1.4,5.4s0.9,3.6,1.2,5.4c0.4,2.1,0.8,4.2,1,6.3c0.3,2.1,0.5,4.2,0.6,6.4c0.1,2.1,0.2,4.3,0.1,6.4
	c0,2.1-0.1,4.3-0.3,6.4c-0.2,2.1-0.4,4.3-0.8,6.4c-0.3,2.1-0.7,4.2-1.2,6.3c-0.5,2.1-1,4.1-1.7,6.2c-0.6,2-1.3,4.1-2.1,6.1
	c-0.1,0.3-0.2,0.6-0.4,0.9c-0.1,0.3-0.2,0.6-0.4,0.9c-0.1,0.3-0.2,0.6-0.3,0.9c-0.1,0.3-0.2,0.6-0.3,0.9c-0.1,0.3-0.2,0.6-0.2,0.9
	c-0.1,0.3-0.1,0.6-0.2,1s-0.1,0.6-0.1,1c0,0.3,0,0.6,0,1c0,0.3,0.1,0.6,0.1,0.9c0.1,0.3,0.1,0.6,0.2,0.9c0.1,0.3,0.2,0.6,0.3,0.9
	s0.2,0.6,0.4,0.9c0.1,0.3,0.3,0.6,0.4,0.9c0.1,0.3,0.3,0.6,0.5,0.8s0.3,0.6,0.5,0.8c0.2,0.3,0.3,0.5,0.5,0.8
	c1.1,1.8,2.3,3.5,3.5,5.2c1.2,1.7,2.4,3.4,3.7,5c1.3,1.6,2.6,3.3,3.9,4.9c1.4,1.6,2.7,3.1,4.2,4.7s2.9,3,4.4,4.5
	c1.5,1.5,3,2.9,4.6,4.3s3.1,2.8,4.7,4.1c1.6,1.3,3.3,2.6,4.9,3.9c2.2,1.7,4.5,3.3,6.9,4.9c2.3,1.6,4.7,3.1,7.1,4.6
	c2.4,1.5,4.8,3,7.1,4.5c2.4,1.5,4.7,3,7.1,4.6s4.6,3.2,6.9,4.8s4.4,3.4,6.5,5.1s4.1,3.7,6.1,5.6c1.9,2,3.8,4.1,5.5,6.3
	c1.6,2.1,3.1,4.2,4.4,6.5s2.6,4.5,3.7,6.9c1.1,2.3,2.1,4.8,3,7.2c0.9,2.4,1.7,4.9,2.4,7.5c0.7,2.5,1.4,5.1,1.9,7.7s1,5.2,1.5,7.8
	c0.4,2.6,0.8,5.2,1.1,7.9c0.3,2.6,0.6,5.3,0.8,7.9c0.6,6.7,1,13.4,1.2,20.1c0.2,6.7,0.2,13.4,0,20.2s-0.6,13.4-1.2,20.1
	c-0.6,6.7-1.4,13.4-2.4,20c-1,6.6-2.2,13.3-3.5,19.8c-1.4,6.6-2.9,13.1-4.7,19.6s-3.7,12.9-5.8,19.3c-2.1,6.4-4.5,12.7-7,18.9
	c-0.3,0.7-0.6,1.4-0.9,2.1c-0.3,0.7-0.6,1.4-0.9,2.1s-0.6,1.4-1,2c-0.3,0.7-0.7,1.3-1.1,2s-0.8,1.3-1.2,1.9s-0.9,1.2-1.3,1.8
	c-0.5,0.6-1,1.1-1.5,1.7c-0.5,0.5-1.1,1-1.7,1.5c-0.8,0.6-1.6,1.1-2.4,1.6c-0.8,0.5-1.7,0.9-2.6,1.3c-0.9,0.4-1.8,0.7-2.7,1
	c-0.9,0.3-1.9,0.5-2.8,0.7c-1,0.2-1.9,0.3-2.9,0.5c-1,0.1-2,0.2-3,0.3c-1,0.1-2,0.1-3,0.2c-1,0-2,0.1-2.9,0.1
	c-7.6,0.2-15.1,0.3-22.7,0.3s-15.1-0.1-22.7-0.3c-7.6-0.2-15.1-0.5-22.7-0.9c-7.6-0.4-15.1-0.9-22.7-1.5s-15.1-1.3-22.6-2
	c-7.5-0.8-15-1.6-22.6-2.6c-7.5-1-15-2-22.5-3.2s-14.9-2.4-22.4-3.7c-0.3-0.1-0.7-0.1-1-0.2c-0.3-0.1-0.7-0.1-1-0.2s-0.7-0.2-1-0.2
	c-0.3-0.1-0.7-0.2-1-0.3c-0.3-0.1-0.6-0.2-0.9-0.3c-0.3-0.1-0.6-0.3-0.9-0.4c-0.3-0.2-0.6-0.3-0.9-0.5c-0.3-0.2-0.5-0.4-0.8-0.6
	c-0.3-0.2-0.5-0.5-0.7-0.7c-0.2-0.3-0.4-0.5-0.6-0.8c-0.2-0.3-0.4-0.6-0.6-0.9s-0.3-0.6-0.5-0.9c-0.1-0.3-0.3-0.6-0.4-1
	c-0.1-0.3-0.2-0.7-0.4-1c-0.1-0.3-0.2-0.7-0.3-1c-0.1-0.3-0.2-0.7-0.3-1c-0.5-2.1-0.9-4.2-1.2-6.3s-0.6-4.3-0.8-6.5
	s-0.4-4.4-0.7-6.6c-0.2-2.2-0.5-4.3-0.8-6.5c-0.3-2.1-0.7-4.2-1.2-6.3c-0.5-2-1.1-4-1.8-5.9s-1.6-3.7-2.7-5.4
	c-1.1-1.7-2.4-3.3-3.9-4.8c-0.9-0.9-1.9-1.7-2.9-2.4s-2-1.4-3.1-2c-1.1-0.6-2.2-1.2-3.3-1.7c-1.1-0.5-2.3-1-3.5-1.4
	c-1.2-0.4-2.4-0.8-3.6-1.2c-1.2-0.4-2.5-0.8-3.7-1.1c-1.2-0.4-2.5-0.7-3.7-1.1c-1.2-0.4-2.4-0.7-3.7-1.1c-3-1-5.9-2.1-8.8-3.3
	c-2.9-1.2-5.7-2.5-8.5-4c-2.8-1.4-5.5-3-8.2-4.6c-2.7-1.6-5.4-3.3-8-5s-5.2-3.5-7.8-5.4c-2.6-1.8-5.1-3.7-7.7-5.6
	c-2.5-1.9-5.1-3.8-7.6-5.7c-2.5-1.9-5-3.8-7.5-5.8c-1.4-1-2.8-2.1-4.2-3.1c-1.4-1-2.8-2.1-4.2-3.1c-1.4-1-2.8-2-4.3-3
	c-1.4-1-2.9-1.9-4.3-2.9c-1.5-0.9-2.9-1.9-4.4-2.7c-1.5-0.9-3-1.7-4.5-2.6c-1.5-0.8-3.1-1.6-4.6-2.3c-1.6-0.7-3.1-1.4-4.7-2.1
	c-2.2-0.9-4.4-1.7-6.7-2.5c-2.3-0.8-4.6-1.5-6.9-2.2c-2.3-0.7-4.6-1.4-6.9-2c-2.3-0.7-4.6-1.4-6.9-2.1c-2.3-0.7-4.5-1.5-6.7-2.4
	s-4.4-1.8-6.4-2.8c-2.1-1-4.1-2.2-6.1-3.5c-1.9-1.3-3.8-2.7-5.6-4.3c-1.9-1.7-3.5-3.5-5-5.5c-1.5-2-2.8-4.1-4-6.2
	c-1.1-2.2-2.1-4.5-2.9-6.8c-0.8-2.4-1.4-4.8-1.9-7.2s-0.7-5-0.8-7.5s0-5,0.2-7.6c0.3-2.5,0.7-5,1.3-7.4c0.6-2.4,1.4-4.8,2.3-7.2
	c0.9-2.3,2-4.6,3.2-6.7s2.6-4.3,4-6.3c1.5-2,3-3.9,4.7-5.8c1.7-1.8,3.5-3.6,5.3-5.3c1.9-1.7,3.8-3.2,5.9-4.7c2-1.5,4.1-2.9,6.3-4.2
	s4.4-2.5,6.6-3.6c2.3-1.1,4.6-2.1,6.9-3c2.3-0.9,4.7-1.7,7.1-2.5s4.8-1.4,7.2-1.9c2.4-0.6,4.9-1.1,7.3-1.5c2.5-0.4,4.9-0.8,7.4-1.1
	c2.5-0.3,5-0.5,7.5-0.7c2.5-0.2,5-0.3,7.5-0.4c2.5-0.1,5-0.1,7.5-0.1s5,0.1,7.5,0.2c-2.6-2.5-5.1-5.1-7.5-7.8
	c-2.4-2.7-4.6-5.6-6.7-8.5c-2.1-2.9-4-6-5.8-9.1c-1.8-3.1-3.4-6.4-4.9-9.7c-1.5-3.3-2.8-6.7-4-10.1c-1.2-3.4-2.2-6.9-3-10.4
	c-0.8-3.5-1.5-7.1-2-10.6c-0.5-3.6-0.8-7.2-0.9-10.8c0-0.6,0-1.1-0.1-1.7s0-1.1-0.1-1.7s-0.1-1.1-0.1-1.7c0-0.6-0.1-1.1-0.1-1.7
	c-0.1-0.6-0.1-1.1-0.2-1.7s-0.2-1.1-0.3-1.6c-0.1-0.5-0.3-1.1-0.5-1.6s-0.4-1-0.6-1.6c-0.2-0.4-0.4-0.7-0.6-1.1
	c-0.2-0.4-0.4-0.7-0.6-1.1c-0.2-0.3-0.5-0.7-0.7-1c-0.2-0.3-0.5-0.7-0.8-1c-0.3-0.3-0.5-0.6-0.8-1s-0.5-0.6-0.8-0.9
	c-0.3-0.3-0.6-0.6-0.8-0.9c-0.3-0.3-0.6-0.6-0.8-0.9c-2.2-2.4-4.3-4.8-6.4-7.3c-2.1-2.5-4.1-5.1-6-7.7c-1.9-2.6-3.8-5.3-5.6-8
	c-1.8-2.7-3.6-5.5-5.2-8.2s-3.3-5.6-4.8-8.5s-3-5.8-4.4-8.7c-1.4-2.9-2.7-5.9-3.9-8.9c-1.2-3-2.4-6.1-3.4-9.1
	c-0.4-1.1-0.8-2.2-1.1-3.3c-0.4-1.1-0.7-2.2-1-3.4c-0.3-1.1-0.6-2.3-0.9-3.4c-0.3-1.1-0.5-2.3-0.7-3.4c-0.2-1.1-0.4-2.3-0.5-3.4
	c-0.1-1.2-0.2-2.3-0.3-3.5c0-1.2,0-2.3,0-3.5s0.2-2.3,0.3-3.5s0.4-2.3,0.7-3.4s0.7-2.3,1.1-3.3c0.4-1.1,1-2.2,1.5-3.2s1.2-2,1.9-2.9
	c0.7-0.9,1.5-1.8,2.3-2.6c0.8-0.8,1.7-1.6,2.6-2.2c0.9-0.7,1.9-1.3,2.9-1.8s2.1-0.9,3.2-1.2c2.9-0.8,5.8-0.9,8.6-0.5
	c2.8,0.4,5.6,1.4,8.3,2.7c2.7,1.3,5.4,2.9,8.1,4.8c2.7,1.8,5.3,3.8,8,5.8s5.3,3.9,7.9,5.7c2.7,1.8,5.3,3.3,8,4.5
	c2.7,1.2,5.4,2,8.1,2.2s5.5-0.1,8.4-1.1c0.7-0.2,1.3-0.5,2-0.9s1.2-0.7,1.8-1s1.2-0.8,1.8-1.2c0.6-0.4,1.1-0.9,1.7-1.3
	c0.6-0.5,1.1-0.9,1.6-1.4c0.5-0.5,1.1-1,1.6-1.5c0.5-0.5,1.1-1,1.6-1.5c0.5-0.5,1.1-1,1.6-1.4c4.2-3.7,8.6-6.9,13.2-9.6
	c4.6-2.8,9.5-5.1,14.5-7c5-2,10.2-3.6,15.5-4.9c5.3-1.3,10.8-2.3,16.3-3.1c5.5-0.8,11.1-1.4,16.8-1.8c5.7-0.4,11.4-0.7,17.1-0.9
	s11.4-0.3,17.1-0.4c5.7-0.1,11.3-0.2,16.9-0.4c0.6,0,1.2,0,1.7-0.1c0.6,0,1.2-0.1,1.7-0.1c0.6,0,1.2-0.1,1.7-0.1
	c0.6-0.1,1.2-0.1,1.7-0.2c0.6-0.1,1.1-0.2,1.7-0.3c0.6-0.1,1.1-0.3,1.7-0.4c0.6-0.2,1.1-0.3,1.6-0.5c0.5-0.2,1.1-0.4,1.6-0.7
	c0.7-0.4,1.4-0.8,2.1-1.2c0.7-0.4,1.3-0.9,1.9-1.4s1.2-1.1,1.7-1.6c0.6-0.6,1.1-1.2,1.6-1.8c0.5-0.6,1.1-1.2,1.6-1.9
	c0.5-0.6,1-1.3,1.5-1.9s1-1.3,1.5-1.9C579.1,90.2,579.6,89.6,580.1,89z"/>
</svg>
