<?xml version="1.0" encoding="utf-8"?>
<!-- Generator: Adobe Illustrator 18.1.1, SVG Export Plug-In . SVG Version: 6.00 Build 0)  -->
<!DOCTYPE svg PUBLIC "-//W3C//DTD SVG 1.1//EN" "http://www.w3.org/Graphics/SVG/1.1/DTD/svg11.dtd">
<svg version="1.1" id="Layer_1" xmlns="http://www.w3.org/2000/svg" xmlns:xlink="http://www.w3.org/1999/xlink" x="0px" y="0px"
	 viewBox="0 0 960 640" enable-background="new 0 0 960 640" xml:space="preserve">
<path fill="#C6DCE0" d="M314.9,121c0.8-0.5,1.6-0.9,2.4-1.4c0.8-0.4,1.6-0.9,2.5-1.3c0.8-0.4,1.7-0.8,2.5-1.2s1.7-0.8,2.6-1.1
	c0.9-0.4,1.7-0.7,2.6-1.1c0.9-0.3,1.7-0.7,2.6-1c0.9-0.3,1.8-0.6,2.7-0.9s1.8-0.6,2.7-0.9c0.9-0.3,1.8-0.5,2.7-0.8
	c0.9-0.3,1.8-0.5,2.7-0.8c0.9-0.2,1.8-0.5,2.7-0.7c0.9-0.2,1.8-0.5,2.7-0.7c0.9-0.2,1.8-0.4,2.7-0.7c0.9-0.2,1.8-0.4,2.8-0.6
	c0.9-0.2,1.8-0.4,2.8-0.6s1.8-0.4,2.7-0.6c2.1-0.5,4.2-1,6.4-1.4c2.1-0.5,4.3-0.9,6.4-1.4c2.1-0.5,4.3-0.9,6.5-1.3
	c2.2-0.4,4.3-0.9,6.5-1.2c2.2-0.4,4.3-0.8,6.5-1.1c2.2-0.4,4.3-0.7,6.5-1c2.2-0.3,4.3-0.6,6.5-0.8c2.2-0.2,4.3-0.4,6.5-0.6
	s4.3-0.3,6.5-0.4c2.2-0.1,4.3-0.1,6.5-0.1c2.2,0,4.3,0,6.4,0.1c2.1,0.1,4.3,0.3,6.4,0.5c2.1,0.2,4.2,0.5,6.4,0.8
	c2.1,0.3,4.2,0.7,6.3,1.2c2.1,0.5,4.2,1,6.2,1.6c2.1,0.6,4.1,1.3,6.2,2c0.8,0.3,1.6,0.6,2.4,0.9c0.8,0.3,1.6,0.6,2.4,1
	c0.8,0.3,1.6,0.7,2.4,1c0.8,0.3,1.6,0.7,2.4,1c0.8,0.4,1.6,0.7,2.3,1.1s1.6,0.7,2.3,1.1c0.8,0.4,1.6,0.7,2.3,1.1
	c0.8,0.4,1.6,0.7,2.3,1.1c0.8,0.4,1.6,0.7,2.3,1.1c0.8,0.4,1.6,0.7,2.3,1c0.8,0.3,1.6,0.7,2.4,1c0.8,0.3,1.6,0.7,2.4,1
	c0.8,0.3,1.6,0.6,2.4,0.9c0.8,0.3,1.6,0.6,2.4,0.8c0.8,0.3,1.6,0.5,2.4,0.8c0.8,0.2,1.6,0.5,2.5,0.7c2,0.5,4,0.9,6,1.2
	c2,0.3,4,0.6,6.1,0.7c2,0.2,4.1,0.3,6.1,0.3c2,0,4.1,0,6.2-0.1c2.1-0.1,4.1-0.2,6.2-0.4c2.1-0.2,4.1-0.4,6.2-0.6
	c2.1-0.2,4.1-0.5,6.2-0.7c2.1-0.2,4.2-0.5,6.2-0.8c2.1-0.3,4.2-0.5,6.2-0.7c2.1-0.2,4.1-0.4,6.2-0.6s4.1-0.3,6.2-0.5
	c2.1-0.1,4.1-0.2,6.1-0.2c2,0,4.1,0,6.1,0.1s4,0.3,6.1,0.5s4,0.6,6,1c2,0.4,4,0.9,5.9,1.6c0.7,0.2,1.4,0.4,2,0.7
	c0.7,0.2,1.3,0.5,2,0.7c0.7,0.3,1.3,0.5,2,0.8c0.7,0.3,1.3,0.6,2,0.8c0.7,0.3,1.3,0.6,2,0.9s1.3,0.6,1.9,0.9
	c0.6,0.3,1.3,0.6,1.9,0.9c0.6,0.3,1.3,0.6,1.9,0.9c0.6,0.3,1.3,0.6,1.9,0.9c0.6,0.3,1.3,0.6,1.9,0.9s1.3,0.6,2,0.9
	c0.7,0.3,1.3,0.6,2,0.8c0.7,0.3,1.3,0.5,2,0.8c0.7,0.2,1.3,0.5,2,0.7c0.7,0.2,1.3,0.4,2,0.7c0.7,0.2,1.4,0.4,2.1,0.6
	c2,0.5,4,0.9,6,1.2c2,0.3,4.1,0.5,6.1,0.5c2.1,0.1,4.1,0.1,6.2,0c2.1-0.1,4.2-0.2,6.3-0.4c2.1-0.2,4.2-0.4,6.3-0.7
	c2.1-0.3,4.2-0.6,6.3-0.9c2.1-0.3,4.2-0.7,6.3-1c2.1-0.3,4.2-0.7,6.3-1c2.1-0.3,4.2-0.6,6.2-0.8c2.1-0.2,4.1-0.5,6.2-0.6
	c2-0.2,4.1-0.2,6.1-0.3s4,0,5.9,0.2c1.9,0.1,3.9,0.4,5.8,0.7c1.9,0.4,3.8,0.8,5.6,1.4s3.6,1.3,5.4,2.2c1.8,0.9,3.5,1.9,5.1,3.1
	c1.2,0.9,2.4,1.8,3.5,2.8c1.1,1,2.1,2,3,3.1s1.8,2.2,2.7,3.4c0.8,1.2,1.6,2.4,2.3,3.6c0.7,1.2,1.4,2.5,1.9,3.8
	c0.6,1.3,1.1,2.7,1.6,4s0.9,2.8,1.3,4.2s0.8,2.9,1.1,4.4s0.6,3,0.8,4.5s0.4,3,0.6,4.6s0.3,3.1,0.4,4.6c0.1,1.6,0.2,3.1,0.3,4.7
	c0.1,1.6,0.1,3.1,0.1,4.7c0,1.6,0,3.1,0,4.7c0,1.5-0.1,3.1-0.1,4.6c0,1.5-0.1,3-0.2,4.5c0,1.1-0.1,2.2-0.2,3.3
	c-0.1,1.1-0.1,2.2-0.2,3.3c-0.1,1.1-0.1,2.2-0.2,3.3c-0.1,1.1-0.1,2.2-0.2,3.3c-0.1,1.1-0.2,2.2-0.2,3.3s-0.2,2.2-0.3,3.3
	s-0.2,2.2-0.3,3.3c-0.1,1.1-0.2,2.2-0.4,3.3c-0.1,1.1-0.3,2.2-0.4,3.2c-0.2,1.1-0.3,2.2-0.5,3.2c-0.2,1.1-0.4,2.1-0.6,3.2
	c-0.2,1.1-0.4,2.1-0.7,3.2s-0.5,2.1-0.8,3.2c-0.3,1.1-0.6,2.1-0.9,3.1c-0.3,1-0.6,2.1-1,3.1c-0.4,1-0.7,2.1-1.1,3.1
	c-0.2,0.4-0.3,0.8-0.5,1.3c-0.2,0.4-0.3,0.8-0.5,1.3c-0.2,0.4-0.4,0.8-0.5,1.3s-0.4,0.8-0.5,1.3c-0.2,0.4-0.4,0.8-0.5,1.3
	c-0.2,0.4-0.4,0.8-0.6,1.3s-0.4,0.8-0.6,1.3c-0.2,0.4-0.4,0.8-0.5,1.3c-0.2,0.4-0.4,0.8-0.5,1.3c-0.2,0.4-0.4,0.8-0.5,1.3
	s-0.3,0.8-0.5,1.3s-0.3,0.8-0.5,1.3c-0.2,0.4-0.3,0.9-0.5,1.3c-0.1,0.4-0.3,0.9-0.4,1.3c-0.1,0.4-0.3,0.9-0.4,1.3s-0.3,0.9-0.4,1.3
	c-0.2,0.8-0.4,1.6-0.6,2.4c-0.2,0.8-0.3,1.6-0.4,2.4c-0.1,0.8-0.2,1.6-0.3,2.4c-0.1,0.8-0.2,1.6-0.2,2.4s-0.1,1.6-0.2,2.4
	c0,0.8-0.1,1.6-0.1,2.4c0,0.8,0,1.6,0,2.4s0,1.6,0,2.5s0,1.6,0,2.5c0,0.8,0,1.6,0.1,2.5c0,0.8,0,1.6,0.1,2.5s0,1.6,0.1,2.5
	s0,1.6,0,2.5c0,0.8,0,1.6,0,2.5c0,0.8,0,1.6-0.1,2.5s-0.1,1.6-0.1,2.5c-0.1,1.7-0.3,3.4-0.5,5.1c-0.2,1.7-0.5,3.3-0.8,5
	s-0.7,3.3-1,4.9c-0.4,1.6-0.8,3.3-1.3,4.9c-0.5,1.6-1,3.2-1.6,4.8c-0.6,1.6-1.1,3.2-1.8,4.8s-1.3,3.1-2,4.7s-1.4,3.1-2.2,4.6
	c-0.7,1.5-1.5,3.1-2.3,4.6s-1.6,3-2.5,4.5c-0.8,1.5-1.7,3-2.6,4.5c-0.9,1.5-1.8,2.9-2.7,4.4c-0.9,1.5-1.8,2.9-2.8,4.4
	c-0.9,1.4-1.9,2.9-2.9,4.3c-1,1.4-1.9,2.8-2.9,4.3s-2,2.8-2.9,4.2c-0.3,0.4-0.6,0.9-0.9,1.3c-0.3,0.4-0.6,0.9-0.9,1.3
	c-0.3,0.4-0.6,0.9-0.9,1.3c-0.3,0.4-0.6,0.9-0.9,1.3s-0.6,0.9-0.9,1.3c-0.3,0.4-0.6,0.9-0.9,1.3s-0.6,0.9-0.9,1.4s-0.6,0.9-0.8,1.4
	c-0.3,0.5-0.6,0.9-0.8,1.4c-0.3,0.5-0.5,0.9-0.8,1.4c-0.3,0.5-0.5,0.9-0.8,1.4c-0.2,0.5-0.5,0.9-0.7,1.4s-0.5,1-0.7,1.4
	c-0.2,0.5-0.4,1-0.6,1.5c-0.2,0.5-0.4,1-0.6,1.5c-0.2,0.5-0.4,1-0.5,1.5c-0.1,0.3-0.2,0.7-0.3,1s-0.2,0.7-0.3,1.1
	c-0.1,0.4-0.2,0.7-0.3,1.1c-0.1,0.4-0.2,0.7-0.3,1.1s-0.2,0.7-0.3,1.1c-0.1,0.4-0.2,0.7-0.3,1.1c-0.1,0.4-0.2,0.7-0.3,1.1
	c-0.1,0.4-0.2,0.7-0.3,1.1c-0.1,0.4-0.2,0.7-0.3,1.1s-0.2,0.7-0.3,1.1c-0.1,0.4-0.2,0.7-0.3,1.1c-0.1,0.4-0.2,0.7-0.3,1.1
	c-0.1,0.4-0.2,0.7-0.3,1s-0.2,0.7-0.4,1c-0.1,0.3-0.3,0.7-0.4,1c-0.1,0.3-0.3,0.7-0.4,1c-0.6,1.4-1.3,2.7-2,3.9
	c-0.7,1.2-1.5,2.4-2.4,3.5c-0.9,1.1-1.8,2.1-2.8,3.1s-2,1.9-3.1,2.8c-1.1,0.9-2.2,1.7-3.4,2.5c-1.2,0.8-2.4,1.5-3.7,2.2
	c-1.3,0.7-2.6,1.4-3.9,2c-1.3,0.6-2.7,1.2-4.1,1.8s-2.8,1.1-4.2,1.7s-2.9,1.1-4.3,1.6s-2.9,1-4.4,1.5s-3,1-4.4,1.5s-3,1-4.4,1.5
	s-2.9,1-4.4,1.5s-2.9,1.1-4.3,1.6c-1.4,0.6-2.8,1.1-4.2,1.7c-0.1,0-0.2,0.1-0.3,0.1c-0.1,0-0.2,0.1-0.3,0.1c-0.1,0-0.2,0.1-0.3,0.1
	c-0.1,0-0.2,0.1-0.3,0.1c-0.1,0-0.2,0.1-0.3,0.1s-0.2,0.1-0.3,0.1c-0.1,0-0.2,0.1-0.3,0.1c-0.1,0-0.2,0.1-0.2,0.2
	c-0.1,0.1-0.2,0.1-0.2,0.2c-0.1,0.1-0.2,0.1-0.2,0.2c-0.1,0.1-0.2,0.1-0.2,0.2c-0.1,0.1-0.1,0.1-0.2,0.2c-0.1,0.1-0.1,0.1-0.2,0.2
	s-0.1,0.1-0.2,0.2s-0.1,0.1-0.2,0.2c-0.1,0.1-0.1,0.2-0.2,0.2c-0.2,0.3-0.3,0.6-0.5,0.8s-0.2,0.6-0.3,0.8c-0.1,0.3-0.1,0.6-0.1,0.8
	c0,0.3,0,0.6,0.1,0.8c0.1,0.3,0.2,0.6,0.3,0.8c0.1,0.3,0.2,0.5,0.4,0.8c0.2,0.3,0.3,0.5,0.5,0.8c0.2,0.3,0.4,0.5,0.6,0.8
	c0.2,0.3,0.5,0.5,0.7,0.7c0.3,0.2,0.5,0.5,0.8,0.7c0.3,0.2,0.6,0.5,0.9,0.7c0.3,0.2,0.6,0.4,0.9,0.6c0.3,0.2,0.6,0.4,0.9,0.6
	s0.6,0.4,1,0.5c0.3,0.2,0.6,0.3,1,0.5c0.3,0.2,0.6,0.3,0.9,0.4c0.7,0.3,1.3,0.6,2,0.9c0.7,0.3,1.3,0.7,2,1c0.7,0.4,1.3,0.7,2,1.1
	c0.6,0.4,1.3,0.8,1.9,1.2s1.3,0.8,1.9,1.3s1.2,0.9,1.8,1.4c0.6,0.5,1.1,1,1.7,1.5c0.5,0.5,1.1,1,1.6,1.5c0.5,0.5,1,1.1,1.5,1.6
	c0.5,0.6,0.9,1.1,1.3,1.7c0.4,0.6,0.8,1.2,1.2,1.8c0.4,0.6,0.7,1.2,1,1.9s0.6,1.3,0.9,1.9c0.3,0.7,0.5,1.3,0.7,2
	c0.2,0.7,0.4,1.4,0.5,2.1c0.1,0.7,0.2,1.4,0.3,2.2c0.1,1,0.1,2,0,2.9c-0.1,1-0.2,1.9-0.4,2.8s-0.4,1.8-0.7,2.7
	c-0.3,0.9-0.7,1.7-1.1,2.6c-0.4,0.8-0.9,1.7-1.4,2.5c-0.5,0.8-1.1,1.6-1.6,2.4c-0.6,0.8-1.2,1.5-1.9,2.2c-0.7,0.7-1.4,1.4-2.1,2.1
	c-0.7,0.7-1.5,1.3-2.3,2c-0.8,0.6-1.6,1.3-2.5,1.9c-0.8,0.6-1.7,1.2-2.6,1.7c-0.9,0.6-1.8,1.1-2.7,1.6s-1.8,1-2.8,1.5
	c-0.9,0.5-1.9,0.9-2.8,1.3c-0.9,0.4-1.9,0.8-2.9,1.2c-1,0.4-1.9,0.7-2.8,1.1c-3.1,1.1-6.3,2.2-9.5,3.1c-3.2,0.9-6.4,1.8-9.6,2.6
	c-3.2,0.8-6.5,1.4-9.8,2s-6.6,1.1-9.9,1.5c-3.3,0.4-6.6,0.7-9.9,1c-3.3,0.2-6.6,0.4-10,0.5c-3.3,0.1-6.6,0-10-0.1
	c-3.3-0.1-6.6-0.3-10-0.6c-3.3-0.3-6.6-0.7-9.9-1.1s-6.6-1-9.8-1.6c-3.3-0.6-6.5-1.3-9.7-2.1c-3.2-0.8-6.4-1.7-9.6-2.6
	s-6.3-2-9.5-3.2s-6.2-2.4-9.3-3.7c-3.1-1.3-6.1-2.7-9.1-4.2c-3-1.5-5.9-3-8.8-4.7c-0.5-0.3-1-0.6-1.5-0.9s-1-0.6-1.5-0.9
	c-0.5-0.3-1-0.6-1.5-0.9s-1-0.6-1.5-0.9c-0.5-0.3-1-0.6-1.5-0.9c-0.5-0.3-1-0.6-1.5-0.9c-0.5-0.3-1-0.6-1.5-0.9s-1-0.6-1.5-0.9
	s-1-0.6-1.5-0.9c-0.5-0.3-1-0.6-1.5-0.9c-0.5-0.3-1-0.6-1.5-0.9c-0.5-0.3-1-0.6-1.5-0.8s-1-0.5-1.6-0.8c-0.5-0.3-1-0.5-1.6-0.8
	c-0.5-0.3-1.1-0.5-1.6-0.8s-1.1-0.5-1.6-0.7c-2.2-1-4.4-1.9-6.7-2.7s-4.5-1.5-6.8-2.1c-2.3-0.6-4.6-1.1-6.9-1.6
	c-2.3-0.4-4.7-0.8-7-1.1c-2.4-0.3-4.7-0.5-7.1-0.6c-2.4-0.1-4.8-0.2-7.2-0.2c-2.4,0-4.8,0.1-7.2,0.2c-2.4,0.1-4.8,0.3-7.2,0.6
	c-2.4,0.2-4.8,0.5-7.3,0.9s-4.8,0.7-7.3,1.1c-2.4,0.4-4.8,0.9-7.3,1.4c-2.4,0.5-4.8,1-7.2,1.6c-2.4,0.6-4.8,1.1-7.2,1.7
	s-4.8,1.2-7.2,1.8s-4.8,1.3-7.1,1.9c-2.4,0.6-4.7,1.3-7,2c-2.3,0.7-4.7,1.3-7,2c-2.4,0.6-4.7,1.3-7.1,1.9c-2.4,0.6-4.8,1.2-7.2,1.8
	c-2.4,0.6-4.8,1.2-7.2,1.7c-2.4,0.5-4.8,1.1-7.3,1.5c-2.4,0.5-4.9,0.9-7.3,1.3s-4.9,0.8-7.3,1.1s-4.9,0.6-7.3,0.8
	c-2.4,0.2-4.8,0.4-7.2,0.5c-2.4,0.1-4.8,0.2-7.2,0.1c-2.4,0-4.8-0.1-7.1-0.3c-2.4-0.2-4.7-0.4-7.1-0.7s-4.7-0.7-7-1.2
	c-2.3-0.5-4.6-1-6.9-1.7c-2.3-0.6-4.5-1.4-6.8-2.2c-2.2-0.8-4.5-1.8-6.6-2.8c-0.3-0.1-0.6-0.3-0.8-0.4c-0.3-0.1-0.6-0.3-0.8-0.4
	c-0.3-0.1-0.6-0.3-0.8-0.4s-0.6-0.3-0.8-0.5c-0.3-0.2-0.5-0.3-0.8-0.5c-0.3-0.2-0.5-0.3-0.8-0.5s-0.5-0.4-0.8-0.5
	c-0.3-0.2-0.5-0.4-0.8-0.6c-0.2-0.2-0.5-0.4-0.7-0.6s-0.5-0.4-0.7-0.6c-0.2-0.2-0.4-0.4-0.7-0.6c-0.2-0.2-0.4-0.4-0.6-0.7
	s-0.4-0.5-0.6-0.7c-0.2-0.2-0.4-0.5-0.5-0.8c-0.2-0.3-0.3-0.5-0.5-0.8c-0.2-0.3-0.3-0.5-0.4-0.8c-0.3-0.6-0.5-1.1-0.7-1.7
	c-0.2-0.6-0.3-1.1-0.4-1.7s-0.2-1.1-0.2-1.7c0-0.6,0-1.1,0-1.7s0.1-1.1,0.2-1.7c0.1-0.6,0.2-1.2,0.4-1.7c0.1-0.6,0.3-1.2,0.5-1.7
	s0.4-1.1,0.6-1.7s0.5-1.1,0.8-1.7c0.3-0.6,0.6-1.1,0.9-1.7c0.3-0.6,0.6-1.1,0.9-1.7c0.3-0.6,0.7-1.1,1-1.6c0.3-0.5,0.7-1.1,1.1-1.6
	c0.4-0.5,0.7-1.1,1.1-1.6s0.7-1,1.1-1.5s0.7-1,1.1-1.5c0.4-0.5,0.7-1,1.1-1.5s0.7-1.1,1-1.6s0.7-1.1,1-1.7c0.3-0.6,0.6-1.1,0.9-1.7
	s0.6-1.2,0.9-1.8s0.5-1.2,0.8-1.8c0.2-0.6,0.4-1.2,0.6-1.8c0.2-0.6,0.4-1.2,0.5-1.8c0.1-0.6,0.3-1.2,0.4-1.8s0.2-1.2,0.2-1.8
	c0-0.6,0-1.2,0-1.7c0-0.6-0.1-1.1-0.2-1.7c-0.1-0.6-0.2-1.1-0.4-1.6c-0.2-0.5-0.4-1.1-0.6-1.6s-0.5-1-0.9-1.5s-0.7-1-1.1-1.4
	c-0.1-0.1-0.3-0.3-0.4-0.4c-0.1-0.1-0.3-0.3-0.4-0.4c-0.1-0.1-0.3-0.3-0.4-0.4c-0.1-0.1-0.3-0.2-0.4-0.4c-0.1-0.1-0.3-0.2-0.4-0.4
	c-0.2-0.1-0.3-0.2-0.5-0.4c-0.2-0.1-0.3-0.2-0.5-0.4c-0.2-0.1-0.3-0.2-0.4-0.4c-0.1-0.1-0.3-0.2-0.4-0.4c-0.1-0.1-0.3-0.2-0.4-0.4
	c-0.1-0.1-0.3-0.3-0.4-0.4c-0.1-0.1-0.3-0.3-0.4-0.4c-0.1-0.1-0.3-0.3-0.4-0.4c-0.1-0.1-0.2-0.3-0.4-0.4c-0.1-0.1-0.2-0.3-0.3-0.5
	c-0.1-0.2-0.2-0.3-0.3-0.5c-0.1-0.2-0.3-0.5-0.4-0.7c-0.1-0.3-0.2-0.5-0.3-0.8s-0.2-0.5-0.2-0.8c-0.1-0.3-0.1-0.5-0.1-0.8
	c0-0.3-0.1-0.5-0.1-0.8c0-0.3,0-0.5,0-0.8c0-0.3,0-0.6,0.1-0.8c0-0.3,0.1-0.6,0.1-0.8s0.1-0.6,0.2-0.8c0.1-0.3,0.1-0.6,0.2-0.8
	c0.1-0.3,0.2-0.6,0.2-0.8c0.1-0.3,0.2-0.6,0.3-0.8s0.2-0.5,0.3-0.8c0.1-0.3,0.2-0.5,0.3-0.8s0.2-0.5,0.3-0.8
	c0.1-0.3,0.2-0.5,0.3-0.8c0.3-0.7,0.6-1.4,1-2.2c0.3-0.7,0.7-1.4,1-2.2s0.7-1.4,1-2.1c0.3-0.7,0.7-1.4,1-2.1
	c0.3-0.7,0.7-1.4,1.1-2.1s0.7-1.4,1.1-2.1s0.7-1.4,1.1-2.1c0.4-0.7,0.7-1.4,1.1-2.1c0.4-0.7,0.8-1.4,1.1-2.1
	c0.4-0.7,0.8-1.4,1.2-2.1s0.8-1.4,1.2-2.1c0.4-0.7,0.8-1.4,1.2-2.1c0.4-0.7,0.8-1.4,1.2-2c0.4-0.7,0.8-1.4,1.2-2
	c0.4-0.7,0.8-1.3,1.2-2s0.8-1.3,1.3-2c0.4-0.6,0.7-1.1,1.1-1.7c0.4-0.6,0.7-1.1,1.1-1.7s0.7-1.1,1.1-1.7s0.7-1.1,1.1-1.7
	c0.4-0.6,0.7-1.1,1.1-1.7c0.4-0.6,0.7-1.1,1.1-1.7c0.3-0.6,0.7-1.1,1-1.7c0.3-0.6,0.7-1.1,1-1.7c0.3-0.6,0.6-1.2,1-1.7
	c0.3-0.6,0.6-1.2,0.9-1.7c0.3-0.6,0.6-1.2,0.9-1.8c0.3-0.6,0.5-1.2,0.8-1.8c0.3-0.6,0.5-1.2,0.7-1.8c0.2-0.6,0.5-1.2,0.7-1.8
	c0.2-0.6,0.4-1.2,0.6-1.9c0.2-0.6,0.4-1.3,0.5-1.9c0.1-0.4,0.2-0.9,0.3-1.3c0.1-0.4,0.2-0.9,0.3-1.3c0.1-0.4,0.1-0.9,0.2-1.3
	s0.1-0.9,0.2-1.4c0.1-0.5,0.1-0.9,0.1-1.4c0-0.5,0.1-0.9,0.1-1.4c0-0.5,0.1-0.9,0.1-1.4c0-0.5,0-0.9,0.1-1.4s0-0.9,0-1.4
	c0-0.5,0-0.9,0-1.4s0-0.9,0-1.4s0-0.9,0-1.4c0-0.5,0-0.9,0-1.4c0-0.5,0-0.9,0-1.4s0-0.9,0-1.4s0-0.9,0-1.4c0-3.7,0-7.4,0-11.1
	c0.1-3.7,0.2-7.4,0.3-11.1c0.2-3.7,0.4-7.4,0.6-11.1c0.3-3.7,0.6-7.4,0.9-11.1s0.8-7.4,1.2-11c0.5-3.7,1-7.3,1.5-11
	c0.6-3.7,1.2-7.3,1.8-10.9c0.7-3.6,1.4-7.3,2.2-10.9c0.8-3.6,1.6-7.2,2.4-10.8s1.8-7.2,2.7-10.7s2-7.1,3-10.7
	c1.1-3.5,2.2-7.1,3.3-10.6c1.2-3.5,2.4-7,3.6-10.5c1.3-3.5,2.6-6.9,3.9-10.4c1.4-3.4,2.8-6.9,4.2-10.3c1.5-3.4,2.9-6.8,4.5-10.1
	c0.6-1.4,1.3-2.7,1.9-4.1s1.3-2.7,2-4.1c0.7-1.4,1.4-2.7,2.1-4.1c0.7-1.3,1.4-2.7,2.2-4c0.7-1.3,1.5-2.6,2.3-4
	c0.8-1.3,1.6-2.6,2.4-3.9c0.8-1.3,1.6-2.6,2.5-3.8c0.8-1.3,1.7-2.5,2.6-3.7s1.8-2.4,2.7-3.6s1.9-2.3,2.8-3.5c1-1.1,2-2.2,3-3.3
	s2.1-2.1,3.1-3.2c1.1-1,2.2-2,3.3-3c1.1-1,2.3-1.9,3.4-2.8c1.2-0.9,2.4-1.8,3.6-2.6C312.3,122.6,313.6,121.8,314.9,121z"/>
</svg>
