<?xml version="1.0" encoding="utf-8"?>
<!-- Generator: Adobe Illustrator 18.1.1, SVG Export Plug-In . SVG Version: 6.00 Build 0)  -->
<!DOCTYPE svg PUBLIC "-//W3C//DTD SVG 1.1//EN" "http://www.w3.org/Graphics/SVG/1.1/DTD/svg11.dtd">
<svg version="1.1" id="Layer_1" xmlns="http://www.w3.org/2000/svg" xmlns:xlink="http://www.w3.org/1999/xlink" x="0px" y="0px"
	 viewBox="0 0 549.2 500" enable-background="new 0 0 549.2 500" xml:space="preserve">
<g>
	<path fill="#C6DCE0" d="M549.2,159.6c0-5.5-0.3-10.9-0.8-16.2c-0.5-5.3-1.3-10.6-2.4-15.8c-1.1-5.2-2.4-10.2-3.9-15.2
		c-1.5-5-3.3-9.8-5.3-14.6c-2-4.8-4.2-9.4-6.7-13.9c-2.4-4.5-5.1-8.9-8-13.1s-5.9-8.3-9.1-12.2c-3.2-3.9-6.7-7.7-10.3-11.3
		s-7.4-7-11.3-10.3c-3.9-3.2-8-6.3-12.2-9.1s-8.6-5.5-13.1-8c-4.5-2.4-9.1-4.7-13.9-6.7s-9.6-3.8-14.6-5.3S427.5,5.1,422.4,4
		s-10.4-1.9-15.8-2.4c-5.3-0.5-10.8-0.8-16.2-0.8c-2.8,0-5.7,0.1-8.5,0.2c-2.8,0.1-5.6,0.4-8.3,0.7s-5.5,0.7-8.2,1.1
		c-2.7,0.4-5.4,0.9-8.1,1.5s-5.3,1.2-7.9,1.9c-2.6,0.7-5.2,1.5-7.8,2.3s-5.1,1.7-7.6,2.7c-2.5,1-5,2-7.4,3c-2.4,1.1-4.8,2.2-7.2,3.4
		c-2.4,1.2-4.7,2.4-7,3.7c-2.3,1.3-4.6,2.7-6.8,4.1c-2.2,1.4-4.4,2.9-6.6,4.4s-4.3,3.1-6.3,4.7c-2.1,1.6-4.1,3.3-6.1,5
		c-2,1.7-3.9,3.5-5.8,5.3c-1.9,1.8-3.8,3.7-5.6,5.6c-1.8-1.9-3.7-3.8-5.6-5.6c-1.9-1.8-3.8-3.6-5.8-5.3c-2-1.7-4-3.4-6.1-5
		c-2.1-1.6-4.2-3.2-6.3-4.7s-4.3-3-6.6-4.4s-4.5-2.8-6.8-4.1c-2.3-1.3-4.6-2.5-7-3.7c-2.4-1.2-4.8-2.3-7.2-3.4
		c-2.4-1.1-4.9-2.1-7.4-3s-5-1.8-7.6-2.7s-5.2-1.6-7.8-2.3c-2.6-0.7-5.3-1.3-7.9-1.9s-5.4-1.1-8.1-1.5c-2.7-0.4-5.5-0.8-8.2-1.1
		c-2.8-0.3-5.5-0.5-8.3-0.7c-2.8-0.1-5.6-0.2-8.5-0.2c-5.5,0-10.9,0.3-16.2,0.8S133,3,127.8,4s-10.2,2.4-15.2,3.9s-9.8,3.3-14.6,5.3
		c-4.8,2-9.4,4.2-13.9,6.7c-4.5,2.4-8.9,5.1-13.1,8s-8.3,5.9-12.2,9.1c-3.9,3.2-7.7,6.7-11.3,10.3s-7,7.4-10.3,11.3
		c-3.2,3.9-6.3,8-9.1,12.2s-5.5,8.6-8,13.1c-2.4,4.5-4.7,9.1-6.7,13.9c-2,4.8-3.8,9.6-5.3,14.6s-2.9,10.1-3.9,15.2
		c-1.1,5.2-1.9,10.4-2.4,15.8C1.3,148.7,1,154.1,1,159.6c0,2.9,0.1,5.9,0.2,8.8c0.2,2.9,0.4,5.8,0.7,8.6s0.7,5.7,1.2,8.5
		s1,5.6,1.6,8.4c0.6,2.8,1.3,5.5,2,8.2s1.6,5.4,2.5,8s1.8,5.3,2.9,7.8c1,2.6,2.1,5.1,3.3,7.6c1.2,2.5,2.4,5,3.6,7.4
		c1.3,2.4,2.6,4.8,4,7.2c1.4,2.4,2.9,4.7,4.4,7c1.5,2.3,3.1,4.5,4.7,6.7c1.6,2.2,3.3,4.4,5,6.5s3.5,4.2,5.4,6.2s3.7,4,5.7,5.9
		c1.9,1.9,3.9,3.8,6,5.6l0,0l0,0l0,0l0,0l0,0l0,0l0,0l0,0l0,0l0,0l0,0l0,0l0,0l0,0l0,0l0,0l13.8,13.8L81.4,306l13.8,13.8l13.8,13.8
		l13.8,13.8l13.8,13.8l13.8,13.8l13.8,13.8l13.8,13.8l13.8,13.8l13.8,13.8l13.8,13.8l13.8,13.8l13.8,13.8l13.8,13.8l13.8,13.8
		l13.8-13.8l13.8-13.8l13.8-13.8l13.8-13.8l13.8-13.8l13.8-13.8l13.8-13.8l13.8-13.8l13.8-13.8l13.8-13.8l13.8-13.8l13.8-13.8
		l13.8-13.8l13.8-13.8l13.8-13.8l13.8-13.8c2.1-1.8,4.1-3.7,6-5.6c2-1.9,3.9-3.9,5.7-5.9s3.7-4.1,5.4-6.2c1.7-2.1,3.4-4.3,5.1-6.5
		c1.6-2.2,3.2-4.5,4.7-6.7s3-4.6,4.4-7c1.4-2.4,2.8-4.8,4-7.2c1.3-2.4,2.5-4.9,3.7-7.5s2.3-5.1,3.3-7.7s2-5.2,2.9-7.9
		c0.9-2.7,1.7-5.3,2.5-8.1c0.8-2.7,1.4-5.5,2.1-8.2c0.6-2.8,1.2-5.6,1.6-8.4c0.5-2.8,0.9-5.7,1.2-8.5c0.3-2.9,0.6-5.8,0.7-8.7
		C549.1,165.5,549.2,162.6,549.2,159.6z"/>
</g>
</svg>
