<?xml version="1.0" encoding="utf-8"?>
<!-- Generator: Adobe Illustrator 18.1.1, SVG Export Plug-In . SVG Version: 6.00 Build 0)  -->
<!DOCTYPE svg PUBLIC "-//W3C//DTD SVG 1.1//EN" "http://www.w3.org/Graphics/SVG/1.1/DTD/svg11.dtd">
<svg version="1.1" id="Layer_1" xmlns="http://www.w3.org/2000/svg" xmlns:xlink="http://www.w3.org/1999/xlink" x="0px" y="0px"
	 viewBox="0 0 960 640" enable-background="new 0 0 960 640" xml:space="preserve">
<path fill="#DDDAC5" d="M684.9,414.1c-0.6-9.1-1.2-18.3-1.7-27.4c-0.6-9.1-1.2-18.3-1.7-27.4s-1.2-18.3-1.7-27.4s-1.2-18.3-1.7-27.4
	c-0.6-9.1-1.2-18.3-1.7-27.4s-1.2-18.3-1.7-27.4c-0.6-9.1-1.2-18.3-1.7-27.4c-0.6-9.1-1.2-18.3-1.7-27.4c-0.1-1.2-0.1-2.3-0.2-3.5
	s-0.2-2.3-0.3-3.5s-0.2-2.3-0.4-3.5s-0.3-2.3-0.5-3.5s-0.4-2.3-0.6-3.4c-0.2-1.1-0.5-2.3-0.8-3.4s-0.6-2.2-1-3.3
	c-0.4-1.1-0.8-2.2-1.3-3.2c-0.5-1.1-1-2.1-1.6-3.1c-0.6-1-1.3-2-2-3c-0.7-1-1.5-1.9-2.3-2.7s-1.7-1.7-2.6-2.4
	c-0.9-0.7-1.8-1.4-2.8-2c-1-0.6-2-1.2-3-1.6c-1-0.5-2.1-0.8-3.2-1.1c-1.1-0.3-2.3-0.5-3.4-0.5c-1.1-0.1-2.1-0.1-3.2,0.1
	c-1,0.1-2.1,0.3-3.1,0.6s-2,0.6-3,1.1c-1,0.4-1.9,1-2.8,1.5s-1.7,1.2-2.5,1.9c-0.8,0.7-1.5,1.5-2.2,2.3c-0.7,0.8-1.3,1.7-1.8,2.6
	c-0.5,0.9-1,1.9-1.3,2.9c-0.2,0.4-0.3,0.9-0.4,1.3c-0.1,0.4-0.2,0.9-0.3,1.4c-0.1,0.5-0.2,0.9-0.3,1.4s-0.1,0.9-0.2,1.4
	s-0.1,0.9-0.1,1.4c0,0.5-0.1,0.9-0.1,1.4c0,0.5-0.1,0.9-0.1,1.4c0,0.5,0,0.9-0.1,1.4c-0.2,3.9-0.4,7.7-0.6,11.6
	c-0.2,3.9-0.4,7.7-0.6,11.6c-0.2,3.9-0.4,7.7-0.6,11.6c-0.2,3.9-0.4,7.7-0.6,11.6c-0.2,3.9-0.4,7.7-0.6,11.6s-0.4,7.7-0.6,11.6
	s-0.4,7.7-0.6,11.6s-0.4,7.7-0.6,11.6c0,0.5-0.1,1.1-0.1,1.6c-0.1,0.6-0.1,1.1-0.2,1.7c-0.1,0.6-0.2,1.1-0.3,1.6s-0.3,1.1-0.5,1.6
	s-0.4,1-0.6,1.4s-0.5,0.9-0.9,1.2c-0.3,0.4-0.7,0.7-1.1,1c-0.4,0.3-0.9,0.5-1.4,0.7c-0.7,0.3-1.4,0.4-2.1,0.4
	c-0.7,0-1.3-0.2-1.9-0.4c-0.6-0.3-1.2-0.6-1.7-1.1c-0.5-0.5-1.1-1-1.5-1.6c-0.5-0.6-0.9-1.3-1.3-2c-0.4-0.7-0.8-1.5-1.1-2.3
	c-0.3-0.8-0.6-1.6-0.8-2.4c-0.2-0.8-0.4-1.6-0.5-2.4c-0.9-5.2-1.6-10.5-2.3-15.8c-0.6-5.3-1.1-10.6-1.6-15.9s-0.8-10.6-1.1-15.9
	c-0.3-5.3-0.6-10.6-0.9-15.9c-0.3-5.3-0.6-10.6-0.9-15.9s-0.7-10.6-1.2-15.9s-1-10.6-1.6-15.9s-1.4-10.5-2.4-15.8
	c-0.3-1.5-0.6-3-0.9-4.5c-0.3-1.5-0.7-3-1-4.5c-0.4-1.5-0.8-3-1.2-4.5c-0.4-1.5-0.9-3-1.5-4.4c-0.5-1.4-1.1-2.9-1.7-4.3
	s-1.3-2.8-2.1-4.1s-1.6-2.6-2.4-3.9c-0.9-1.2-1.8-2.4-2.8-3.6c-1-1.1-2.1-2.2-3.3-3.2c-1.2-1-2.5-1.9-3.8-2.7
	c-1.3-0.8-2.7-1.5-4.1-2.2s-2.9-1.1-4.4-1.5c-1.5-0.4-3-0.7-4.5-0.8c-1.5-0.1-3-0.1-4.5,0c-1.5,0.1-2.9,0.4-4.4,0.9s-2.8,1-4.1,1.8
	c-0.9,0.5-1.7,1.1-2.5,1.7s-1.5,1.3-2.3,2.1c-0.7,0.7-1.4,1.5-2,2.3c-0.6,0.8-1.2,1.7-1.7,2.6c-0.5,0.9-1,1.8-1.4,2.8
	s-0.8,1.9-1.1,2.9c-0.3,1-0.6,2-0.9,3s-0.5,2-0.6,3c-0.2,1-0.3,2-0.4,3.1c-0.1,1-0.1,2-0.2,3.1s0,2.1,0,3.1c0,1,0.1,2.1,0.1,3.1
	c0.1,1,0.2,2.1,0.3,3.1c0.1,1,0.2,2.1,0.3,3.1s0.3,2.1,0.4,3.1c0.1,1,0.3,2,0.4,3.1c0.7,5,1.5,10.1,2.2,15.1
	c0.7,5,1.5,10.1,2.2,15.1c0.7,5,1.5,10.1,2.2,15.1c0.7,5,1.5,10.1,2.2,15.1c0.7,5,1.5,10.1,2.2,15.1c0.7,5,1.5,10.1,2.2,15.1
	s1.5,10.1,2.2,15.1c0.7,5,1.5,10.1,2.2,15.1c-0.5,0.7-1,1.2-1.6,1.7s-1.3,0.9-2,1.1s-1.4,0.5-2.2,0.6c-0.8,0.1-1.6,0.2-2.4,0.2
	c-0.8,0-1.6-0.1-2.4-0.3c-0.8-0.2-1.6-0.4-2.4-0.7s-1.5-0.7-2.2-1.1c-0.7-0.4-1.3-0.9-1.9-1.5c-0.6-0.5-1.1-1.1-1.6-1.7
	s-1-1.3-1.4-1.9s-0.8-1.4-1.2-2.1c-0.4-0.7-0.7-1.4-1-2.2c-0.3-0.7-0.6-1.5-0.9-2.3c-0.3-0.8-0.5-1.5-0.8-2.3
	c-0.2-0.8-0.5-1.6-0.7-2.4c-0.2-0.8-0.4-1.6-0.6-2.4c-0.6-2.5-1.3-5-1.9-7.5c-0.6-2.5-1.3-5-1.9-7.5s-1.3-5-1.9-7.5
	c-0.6-2.5-1.3-5-1.9-7.5c-0.6-2.5-1.3-5-1.9-7.5c-0.6-2.5-1.3-5-1.9-7.5s-1.3-5-1.9-7.5c-0.6-2.5-1.3-5-1.9-7.5
	c-0.9-3.4-1.8-6.9-2.7-10.3c-0.9-3.4-1.8-6.9-2.8-10.3c-1-3.4-1.9-6.8-3-10.2s-2.1-6.8-3.2-10.1c-1.1-3.3-2.3-6.7-3.6-10
	s-2.6-6.5-4.1-9.7s-3-6.4-4.6-9.5c-1.6-3.1-3.4-6.2-5.2-9.2c-0.9-1.4-1.8-2.9-2.8-4.3c-1-1.4-2-2.8-3-4.1c-1-1.4-2.1-2.7-3.3-3.9
	c-1.1-1.3-2.3-2.5-3.5-3.7c-1.2-1.2-2.5-2.3-3.8-3.3c-1.3-1-2.7-2-4.1-2.9c-1.4-0.9-2.9-1.7-4.4-2.4c-1.5-0.7-3.1-1.4-4.7-1.9
	c-1.6-0.5-3.3-0.9-5-1.1c-1.7-0.2-3.4-0.3-5.1-0.3c-1.7,0-3.4,0.2-5.1,0.5c-1.7,0.3-3.3,0.7-4.9,1.3c-1.6,0.6-3.1,1.3-4.5,2.1
	c-1.4,0.8-2.8,1.8-4,2.9s-2.3,2.3-3.2,3.6c-0.9,1.3-1.7,2.8-2.3,4.4c-0.4,1-0.7,2.1-0.9,3.1c-0.2,1-0.4,2.1-0.5,3.2
	c-0.1,1.1-0.1,2.1-0.1,3.2s0.1,2.2,0.2,3.3s0.3,2.2,0.4,3.3c0.2,1.1,0.4,2.2,0.6,3.3c0.2,1.1,0.5,2.2,0.8,3.2
	c0.3,1.1,0.6,2.1,0.8,3.2c1.4,5.4,2.9,10.7,4.4,16.1c1.5,5.3,3,10.7,4.5,16s3,10.7,4.6,16c1.5,5.3,3.1,10.7,4.7,16
	c1.6,5.3,3.2,10.6,4.8,15.9c1.6,5.3,3.2,10.6,4.9,15.9c1.6,5.3,3.3,10.6,5,15.9c1.7,5.3,3.4,10.6,5.1,15.8c0.6,1.8,1.2,3.6,1.7,5.3
	c0.6,1.8,1.1,3.6,1.7,5.4c0.5,1.8,1.1,3.6,1.6,5.4s1,3.6,1.4,5.4s0.8,3.6,1.2,5.5c0.3,1.8,0.6,3.7,0.9,5.5s0.4,3.7,0.5,5.5
	c0.1,1.9,0.1,3.7,0.1,5.6c-0.6,0.7-1.2,1.3-1.9,1.9c-0.7,0.5-1.5,0.9-2.3,1.3c-0.8,0.3-1.7,0.6-2.5,0.7s-1.8,0.2-2.7,0.2
	c-0.9,0-1.8-0.1-2.7-0.3c-0.9-0.2-1.8-0.5-2.7-0.8c-0.9-0.3-1.7-0.7-2.5-1.2c-0.8-0.5-1.5-1-2.2-1.6c-0.7-0.6-1.3-1.2-1.9-1.9
	s-1.1-1.4-1.7-2.1s-1-1.5-1.4-2.3s-0.9-1.6-1.3-2.4c-0.4-0.8-0.8-1.7-1.1-2.5c-0.3-0.9-0.7-1.7-1-2.6c-0.3-0.9-0.6-1.7-0.9-2.6
	c-0.3-0.9-0.6-1.7-0.9-2.6c-1.5-4.5-3-9-4.6-13.4c-1.6-4.5-3.2-8.9-4.8-13.4s-3.3-8.9-5.1-13.3s-3.5-8.8-5.3-13.2
	c-1.8-4.4-3.6-8.7-5.5-13.1c-1.9-4.3-3.8-8.7-5.8-13s-4-8.6-6-12.9c-2-4.3-4.1-8.5-6.2-12.8c-0.5-1.1-1.1-2.2-1.7-3.3
	c-0.6-1.1-1.2-2.2-1.8-3.2c-0.6-1.1-1.3-2.1-2-3.1s-1.4-2-2.2-2.9c-0.8-0.9-1.6-1.8-2.4-2.7c-0.8-0.8-1.7-1.6-2.7-2.3
	s-1.9-1.3-3-1.9c-1-0.5-2.1-1-3.3-1.3c-1.5-0.4-2.9-0.7-4.4-0.7c-1.5-0.1-2.9,0.1-4.4,0.3c-1.4,0.3-2.8,0.7-4.2,1.3
	c-1.4,0.6-2.7,1.3-4,2.1s-2.5,1.8-3.6,2.8c-1.1,1-2.2,2.2-3.2,3.4c-1,1.2-1.8,2.5-2.6,3.9s-1.4,2.7-1.9,4.2
	c-0.5,1.4-0.9,2.9-1.3,4.3c-0.3,1.5-0.6,2.9-0.8,4.4c-0.2,1.5-0.3,3-0.3,4.5c0,1.5,0,3,0.1,4.6c0.1,1.5,0.2,3,0.4,4.6
	c0.2,1.5,0.4,3.1,0.6,4.6c0.2,1.5,0.5,3,0.8,4.5c0.3,1.5,0.6,3,0.9,4.5c0.7,3.2,1.4,6.4,2.2,9.6c0.8,3.2,1.5,6.4,2.4,9.6
	c0.8,3.2,1.7,6.3,2.5,9.5c0.9,3.2,1.8,6.3,2.7,9.4c0.9,3.1,1.9,6.3,2.9,9.4s2,6.2,3.1,9.3c1.1,3.1,2.2,6.2,3.3,9.3s2.3,6.1,3.5,9.2
	c1.1,2.8,2.2,5.6,3.3,8.3c1.1,2.8,2.3,5.5,3.4,8.3c1.2,2.8,2.3,5.5,3.5,8.3c1.2,2.8,2.3,5.5,3.4,8.3s2.3,5.5,3.4,8.3
	c1.1,2.8,2.2,5.6,3.2,8.4c1,2.8,2,5.6,3,8.4s1.9,5.7,2.7,8.5c0.4,1.3,0.8,2.6,1.1,3.9c0.4,1.3,0.7,2.6,1.1,3.9
	c0.4,1.3,0.7,2.6,1.1,3.9c0.3,1.3,0.7,2.6,1,3.9c0.3,1.3,0.7,2.6,1,3.9c0.3,1.3,0.7,2.6,1,3.9c0.4,1.3,0.7,2.6,1.1,3.9
	c0.4,1.3,0.7,2.6,1.1,3.9c-1.1,0-2.3-0.1-3.4-0.3c-1.1-0.2-2.2-0.4-3.3-0.7c-1.1-0.3-2.2-0.6-3.2-1c-1.1-0.4-2.1-0.8-3.1-1.3
	s-2-1-3-1.6s-1.9-1.2-2.8-1.9c-0.9-0.7-1.8-1.4-2.6-2.2c-0.8-0.8-1.6-1.6-2.4-2.4c-0.7-0.9-1.4-1.7-2.1-2.6
	c-0.7-0.9-1.3-1.8-1.9-2.8c-0.6-1-1.2-1.9-1.7-2.9c-0.6-1-1.1-2-1.6-3c-0.5-1-1.1-2-1.6-3c-0.5-1-1.1-2-1.6-3c-0.5-1-1.1-2-1.7-3
	c-0.6-1-1.2-1.9-1.8-2.9c-0.9-1.4-1.9-2.7-3-4c-1.1-1.3-2.2-2.5-3.4-3.7c-1.2-1.2-2.5-2.3-3.8-3.4s-2.7-2.1-4.1-3
	c-1.4-0.9-2.8-1.8-4.3-2.6c-1.5-0.8-3-1.5-4.6-2.1s-3.1-1.2-4.7-1.7s-3.2-0.9-4.9-1.2c-1.7-0.3-3.3-0.5-5-0.7
	c-1.7-0.1-3.4-0.2-5-0.2c-1.7,0-3.4,0.1-5,0.3c-1.7,0.2-3.3,0.4-5,0.8c-1.6,0.3-3.3,0.8-4.9,1.3c-1.6,0.5-3.2,1.1-4.7,1.7
	c-1.5,0.7-3.1,1.4-4.5,2.2s-2.9,1.7-4.3,2.6c-0.5,0.4-1.1,0.8-1.6,1.2c-0.5,0.4-1.1,0.9-1.6,1.3c-0.5,0.5-1,1-1.4,1.5
	c-0.5,0.5-0.9,1-1.3,1.6c-0.4,0.5-0.7,1.1-1,1.7c-0.3,0.6-0.6,1.2-0.8,1.8s-0.3,1.2-0.4,1.9s-0.1,1.3,0,1.9c0,0.5,0.1,1,0.3,1.5
	c0.1,0.5,0.3,0.9,0.5,1.4c0.2,0.5,0.4,0.9,0.7,1.3c0.2,0.4,0.5,0.9,0.8,1.3c0.3,0.4,0.6,0.8,0.9,1.2s0.6,0.8,1,1.2
	c0.3,0.4,0.7,0.8,1,1.1c0.3,0.4,0.7,0.7,1,1.1c1.4,1.5,2.7,3,4,4.5c1.3,1.5,2.6,3.1,3.8,4.6s2.5,3.2,3.6,4.8
	c1.2,1.6,2.3,3.2,3.5,4.9c1.1,1.7,2.2,3.3,3.3,5c1.1,1.7,2.1,3.4,3.1,5.1s2,3.5,2.9,5.3c0.9,1.8,1.8,3.6,2.7,5.4
	c0.5,1,0.9,1.9,1.3,2.9c0.4,1,0.9,1.9,1.3,2.9c0.4,1,0.9,1.9,1.3,2.9c0.4,1,0.9,1.9,1.3,2.9s0.9,1.9,1.4,2.9c0.5,0.9,1,1.9,1.4,2.8
	c0.5,0.9,1,1.8,1.6,2.8s1.1,1.8,1.7,2.7c0.7,1.1,1.4,2.1,2.2,3.1s1.6,2,2.4,3c0.8,1,1.7,1.9,2.5,2.8c0.9,0.9,1.7,1.8,2.6,2.8
	c0.9,0.9,1.8,1.8,2.7,2.7c0.9,0.9,1.9,1.8,2.8,2.6c0.9,0.9,1.9,1.7,2.8,2.6c0.9,0.9,1.9,1.7,2.8,2.6c1.7,1.5,3.3,3.1,4.9,4.6
	c1.6,1.6,3.3,3.1,4.9,4.7s3.2,3.2,4.8,4.8c1.6,1.6,3.2,3.2,4.7,4.8s3.1,3.3,4.7,4.9c1.5,1.6,3.1,3.3,4.6,5c1.5,1.7,3,3.3,4.5,5
	c1.5,1.7,3,3.4,4.4,5.1c0.7,1.9,1.5,3.8,2.3,5.7s1.7,3.8,2.6,5.7c0.9,1.9,1.9,3.8,2.9,5.7c1,1.9,2.1,3.8,3.2,5.6s2.3,3.7,3.5,5.5
	c1.2,1.8,2.5,3.7,3.8,5.5c1.3,1.8,2.7,3.6,4.1,5.4c1.4,1.8,2.9,3.5,4.4,5.2c5.1,5.7,10.5,10.9,16.1,15.6c5.6,4.7,11.4,8.8,17.4,12.4
	s12,6.6,18.1,9.1s12.2,4.4,18.3,5.7c6.1,1.3,12.1,2,18,2.2c5.9,0.1,11.6-0.4,17.1-1.5s10.8-2.9,15.7-5.3c4.9-2.4,9.5-5.5,13.7-9.2
	c0.2-0.2,0.4-0.4,0.6-0.5c0.2-0.2,0.4-0.4,0.6-0.6c0.2-0.2,0.4-0.4,0.6-0.6c0.2-0.2,0.4-0.4,0.6-0.6c0.2-0.2,0.4-0.4,0.6-0.6
	c0.2-0.2,0.4-0.4,0.6-0.6c0.2-0.2,0.4-0.4,0.6-0.6c0.2-0.2,0.4-0.4,0.5-0.6c0.6,0.3,1.2,0.6,1.8,0.9c0.6,0.3,1.2,0.6,1.8,0.9
	s1.2,0.6,1.9,0.8c0.6,0.3,1.3,0.5,1.9,0.8c0.6,0.3,1.3,0.5,1.9,0.7s1.3,0.5,1.9,0.7c0.7,0.2,1.3,0.4,2,0.6c0.7,0.2,1.3,0.4,2,0.6
	c5.5,1.5,11.1,2.4,16.7,2.7c5.5,0.3,11.1,0,16.5-0.9c5.4-0.9,10.7-2.3,15.9-4.3s10.1-4.5,14.9-7.5c4.7-3,9.2-6.4,13.4-10.3
	c4.2-3.9,8.1-8.2,11.6-12.9c3.5-4.7,6.6-9.8,9.3-15.2c2.7-5.4,4.9-11.2,6.6-17.3c0.1-0.3,0.2-0.7,0.3-1c0.1-0.3,0.2-0.7,0.3-1
	c0.1-0.3,0.2-0.7,0.3-1c0.1-0.3,0.2-0.7,0.2-1c0.1-0.3,0.2-0.7,0.2-1c0.1-0.3,0.2-0.7,0.2-1c0.1-0.3,0.1-0.7,0.2-1
	c0.1-0.3,0.1-0.7,0.2-1c1.3-2,2.5-4.2,3.5-6.3s1.8-4.5,2.6-6.8c0.7-2.3,1.3-4.7,1.7-7.1c0.5-2.4,0.8-4.9,1.1-7.4
	c0.3-2.5,0.4-5,0.5-7.6s0.1-5.1,0.1-7.6c0-2.5-0.1-5.1-0.2-7.6C685.2,419,685.1,416.5,684.9,414.1z"/>
</svg>
