<?xml version="1.0" encoding="utf-8"?>
<!-- Generator: Adobe Illustrator 18.1.1, SVG Export Plug-In . SVG Version: 6.00 Build 0)  -->
<!DOCTYPE svg PUBLIC "-//W3C//DTD SVG 1.1//EN" "http://www.w3.org/Graphics/SVG/1.1/DTD/svg11.dtd">
<svg version="1.1" id="Layer_1" xmlns="http://www.w3.org/2000/svg" xmlns:xlink="http://www.w3.org/1999/xlink" x="0px" y="0px"
	 viewBox="0 0 960 640" enable-background="new 0 0 960 640" xml:space="preserve">
<path fill="#DDD7DA" d="M337.4,113.6c-4.2-1.5-8.4-3-12.7-4.4c-4.3-1.4-8.5-2.7-12.8-4c-4.3-1.3-8.6-2.5-13-3.6s-8.7-2.2-13.1-3.2
	s-8.8-1.9-13.2-2.7s-8.8-1.6-13.3-2.3c-4.4-0.7-8.9-1.3-13.3-1.9s-8.9-1-13.4-1.4c-4.6-0.4-9.3-0.7-14-0.9
	c-4.7-0.2-9.5-0.2-14.2-0.1s-9.5,0.4-14.2,0.9c-4.7,0.5-9.3,1.2-13.9,2.2s-9,2.1-13.3,3.6s-8.5,3.2-12.5,5.2s-7.9,4.4-11.5,7
	c-3.6,2.7-7.1,5.7-10.3,9c-1.7,1.8-3.3,3.7-4.9,5.7c-1.5,2-3,4-4.3,6.1c-1.3,2.1-2.6,4.2-3.8,6.4c-1.2,2.2-2.3,4.4-3.4,6.7
	s-2.1,4.6-3,6.9c-1,2.3-1.9,4.7-2.7,7.1c-0.9,2.4-1.7,4.8-2.5,7.2s-1.6,4.8-2.3,7.2c-1,3.3-2.1,6.6-3,10c-1,3.3-1.9,6.7-2.8,10.1
	s-1.7,6.8-2.4,10.2s-1.3,6.8-1.8,10.2c-0.5,3.4-0.9,6.8-1.1,10.3s-0.3,6.8-0.2,10.2c0.1,3.4,0.3,6.8,0.8,10.2
	c0.4,3.4,1.1,6.7,1.9,10.1c1.4,5.5,3.3,10.8,5.7,15.8c2.4,5,5.2,9.7,8.4,14.2c3.2,4.5,6.7,8.8,10.6,12.8s8,7.9,12.4,11.5
	c4.4,3.6,9,7.1,13.8,10.4c4.8,3.3,9.8,6.4,14.8,9.4c5.1,3,10.2,5.8,15.4,8.5s10.4,5.3,15.5,7.8c22.5,10.8,45.1,21.2,68,31.1
	c22.8,9.9,45.9,19.4,69,28.5s46.5,17.9,69.9,26.3c23.4,8.4,47,16.6,70.7,24.4c23.7,7.9,47.4,15.5,71.2,22.9s47.7,14.7,71.6,21.8
	c23.9,7.1,47.9,14.1,71.9,21c24,6.9,48,13.8,71.9,20.6c2.8,0.8,5.6,1.6,8.5,2.4s5.7,1.6,8.5,2.3c2.8,0.8,5.7,1.5,8.5,2.2
	s5.7,1.3,8.6,1.9c2.9,0.6,5.7,1.1,8.6,1.6c2.9,0.5,5.8,0.9,8.7,1.2c2.9,0.3,5.8,0.5,8.7,0.7s5.8,0.2,8.8,0.1c2.6-0.1,5.3-0.3,8-0.7
	c2.7-0.4,5.4-1,8.1-1.7c2.7-0.7,5.3-1.7,7.8-2.7c2.5-1.1,4.9-2.3,7.1-3.7c2.2-1.4,4.3-3,6.2-4.7c1.9-1.7,3.5-3.6,4.8-5.6
	s2.4-4.2,3.2-6.6c0.7-2.3,1.2-4.8,1.2-7.5c0-1,0-2-0.2-3c-0.1-1-0.3-2-0.5-3c-0.2-1-0.5-2-0.8-2.9c-0.3-1-0.6-1.9-1-2.9
	c-0.4-1-0.8-1.9-1.2-2.8c-0.4-0.9-0.9-1.9-1.3-2.8c-0.5-0.9-0.9-1.8-1.4-2.7c-0.5-0.9-1-1.8-1.5-2.7c-6.5-11.8-13.5-23.2-20.9-34.4
	s-15.2-22-23.4-32.6c-8.1-10.6-16.6-21-25.4-31.1c-8.8-10.2-17.8-20.1-27.1-29.9c-9.3-9.8-18.8-19.4-28.4-28.8s-19.5-18.8-29.4-28
	c-9.9-9.2-19.9-18.3-30-27.4c-10-9-20.1-18-30.2-27c-1.2-1.1-2.4-2.2-3.6-3.2c-1.2-1.1-2.4-2.1-3.7-3.2s-2.5-2.1-3.7-3.1
	c-1.3-1-2.5-2-3.8-3s-2.6-2-3.9-2.9s-2.7-1.8-4-2.7c-1.4-0.9-2.7-1.7-4.2-2.5c-1.4-0.8-2.8-1.5-4.3-2.2c-4.6-2.2-9.3-3.9-14.1-5.1
	s-9.6-1.9-14.5-2.3c-4.9-0.3-9.9-0.3-14.9,0.1s-10,1-15.1,1.9s-10.1,2-15.2,3.3c-5.1,1.3-10.1,2.7-15.2,4.2c-5,1.5-10.1,3.1-15,4.7
	c-5,1.6-9.9,3.2-14.8,4.7c-5.7,1.8-11.6,3.4-17.6,4.8s-12,2.7-18.1,3.7c-6.1,1-12.2,1.7-18.4,2.2c-6.1,0.4-12.2,0.6-18.2,0.3
	c-6-0.2-12-0.8-17.8-1.8c-5.8-1-11.5-2.4-17-4.3c-5.5-1.9-10.8-4.2-15.9-7.1s-9.9-6.2-14.4-10.2c-4-3.5-7.7-7.4-10.9-11.5
	c-3.2-4.2-6-8.6-8.5-13.3c-2.4-4.7-4.5-9.5-6.1-14.6c-1.6-5-2.9-10.2-3.8-15.5c-0.9-5.3-1.4-10.7-1.5-16c-0.1-5.4,0.1-10.8,0.7-16.2
	c0.6-5.4,1.5-10.7,2.8-16C333.7,123.7,335.4,118.5,337.4,113.6z"/>
</svg>
