<?xml version="1.0" encoding="utf-8"?>
<!-- Generator: Adobe Illustrator 18.1.1, SVG Export Plug-In . SVG Version: 6.00 Build 0)  -->
<!DOCTYPE svg PUBLIC "-//W3C//DTD SVG 1.1//EN" "http://www.w3.org/Graphics/SVG/1.1/DTD/svg11.dtd">
<svg version="1.1" id="Layer_1" xmlns="http://www.w3.org/2000/svg" xmlns:xlink="http://www.w3.org/1999/xlink" x="0px" y="0px"
	 viewBox="0 0 960 640" enable-background="new 0 0 960 640" xml:space="preserve">
<path fill="#DDD7DA" d="M335.5,487.6c-2.9-2.6-5.8-5.4-8.7-8.2c-2.8-2.8-5.5-5.8-8.2-8.8c-2.6-3-5.1-6.1-7.5-9.4s-4.6-6.5-6.6-9.9
	s-3.9-6.8-5.6-10.4c-1.7-3.5-3.1-7.2-4.3-10.8c-1.2-3.7-2.2-7.4-2.9-11.3c-0.7-3.8-1.1-7.7-1.3-11.6c-0.2-4.7,0.1-9.4,0.7-14
	c0.6-4.6,1.6-9.1,3-13.5c1.3-4.4,3-8.8,4.8-13c1.9-4.3,4-8.5,6.4-12.6c2.4-4.1,4.9-8.2,7.6-12.2c2.7-4,5.5-7.9,8.5-11.8
	s6-7.7,9-11.4c3.1-3.7,6.2-7.4,9.2-11c6.2-7.3,12.4-14.6,18.7-21.9c6.2-7.3,12.4-14.6,18.7-21.9c6.2-7.3,12.4-14.6,18.7-21.9
	c6.2-7.3,12.4-14.6,18.7-21.9c6.2-7.3,12.4-14.6,18.7-21.9c6.2-7.3,12.4-14.6,18.7-21.9c6.2-7.3,12.4-14.6,18.7-21.9
	c6.2-7.3,12.4-14.6,18.7-21.9c2.2-2.6,4.5-5.2,6.8-7.8s4.7-5.2,7.1-7.7s4.9-5,7.5-7.3s5.2-4.6,7.9-6.7c2.7-2.1,5.5-4,8.4-5.7
	c2.9-1.7,5.8-3.2,8.8-4.5c3-1.3,6.1-2.3,9.4-3c3.2-0.7,6.5-1.2,9.9-1.3c5-0.2,9.7,0.4,14.2,1.5s8.8,2.9,12.8,5.1
	c4,2.3,7.9,5,11.5,8.2c3.6,3.2,7,6.7,10.1,10.6c3.2,3.9,6.1,8.1,8.8,12.5c2.7,4.4,5.3,9,7.6,13.7s4.4,9.5,6.3,14.4
	c1.9,4.8,3.6,9.7,5.1,14.4c3,9.4,5.8,18.8,8.5,28.3c2.7,9.5,5.1,19,7.4,28.6c2.3,9.6,4.4,19.2,6.4,28.9c1.9,9.7,3.7,19.4,5.3,29.1
	c1.6,9.7,3,19.5,4.2,29.2s2.3,19.6,3.2,29.4c0.9,9.8,1.6,19.6,2.1,29.5c0.5,9.8,0.8,19.7,1,29.5c0.1,3.9,0.1,7.8,0,11.7
	s-0.2,7.8-0.4,11.8s-0.5,7.8-0.9,11.7c-0.4,3.9-1,7.7-1.7,11.6c-0.7,3.8-1.5,7.6-2.5,11.3c-1,3.7-2.2,7.3-3.6,10.9
	c-1.4,3.5-3,7-4.8,10.3c-1.8,3.3-3.9,6.6-6.2,9.7c-1.4,1.8-2.8,3.6-4.3,5.3c-1.5,1.7-3.1,3.3-4.7,4.9c-1.6,1.6-3.3,3.1-5,4.6
	c-1.7,1.5-3.5,2.9-5.4,4.2c-1.8,1.4-3.7,2.7-5.6,3.9c-1.9,1.3-3.8,2.5-5.8,3.7c-2,1.2-4,2.3-6,3.4s-4,2.2-6.1,3.2
	c-10.8,5.4-22,10-33.5,13.6c-11.5,3.6-23.2,6.4-35.1,8.3s-24,2.9-36,3c-12.1,0.1-24.2-0.6-36.1-2.2c-12-1.6-23.8-4-35.5-7.2
	c-11.6-3.2-23-7.3-34-12.2c-11-4.9-21.7-10.5-31.8-17C354.2,502.9,344.5,495.6,335.5,487.6z"/>
</svg>
