<?xml version="1.0" encoding="utf-8"?>
<!-- Generator: Adobe Illustrator 18.1.1, SVG Export Plug-In . SVG Version: 6.00 Build 0)  -->
<!DOCTYPE svg PUBLIC "-//W3C//DTD SVG 1.1//EN" "http://www.w3.org/Graphics/SVG/1.1/DTD/svg11.dtd">
<svg version="1.1" id="Layer_1" xmlns="http://www.w3.org/2000/svg" xmlns:xlink="http://www.w3.org/1999/xlink" x="0px" y="0px"
	 viewBox="0 0 960 640" enable-background="new 0 0 960 640" xml:space="preserve">
<path fill="#DDD7DA" d="M717.4,84.3c0,0-0.1,0-0.1,0.1c0,0-0.1,0-0.1,0.1c0,0-0.1,0-0.1,0.1c0,0-0.1,0-0.1,0.1c0,0-0.1,0-0.1,0.1
	s-0.1,0-0.1,0.1c0,0-0.1,0-0.1,0.1c0,0-0.1,0-0.1,0.1c0,0-0.1,0-0.1,0.1c0,0-0.1,0-0.1,0.1c0,0-0.1,0-0.1,0.1c0,0-0.1,0-0.1,0.1
	s-0.1,0-0.1,0.1s-0.1,0-0.1,0.1c0,0-0.1,0-0.1,0.1c0,0-0.1,0-0.1,0.1l0,0l0,0l0,0l0,0l0,0l0,0l0,0l0,0l0,0l0,0l0,0l0,0l0,0l0,0l0,0
	l0,0L679,100l-36.3,14.8l-36.3,14.8l-36.3,14.8L534,159.3l-36.3,14.8L461.5,189l-36.3,14.8L389,218.7l-36.3,14.8l-36.3,14.8
	l-36.3,14.8L244,278l-36.3,14.8l-36.3,14.8l-36.3,14.8c-2.5,1-4.9,2.2-7.1,3.6c-2.3,1.4-4.4,3-6.5,4.7c-2,1.7-4,3.6-5.8,5.7
	s-3.5,4.3-5,6.6c-1.6,2.4-3,4.9-4.3,7.5c-1.3,2.6-2.5,5.4-3.6,8.3s-2,5.9-2.8,9s-1.5,6.3-2.1,9.6c-0.6,3.3-1,6.7-1.3,10.2
	c-0.3,3.5-0.5,7-0.5,10.7c0,3.6,0.1,7.3,0.3,11.1s0.6,7.6,1.1,11.4c0.5,3.9,1.2,7.8,2,11.7s1.7,7.9,2.8,11.9c1.1,4,2.3,8,3.6,12
	c1.4,4,2.9,8,4.5,12.1c1.6,4,3.4,7.9,5.3,11.8c1.9,3.8,3.8,7.5,5.8,11.1s4.2,7.1,6.4,10.4s4.5,6.6,6.8,9.7c2.3,3.1,4.8,6.1,7.2,8.9
	s5,5.6,7.6,8.1s5.2,5,7.8,7.3s5.3,4.4,8.1,6.4s5.5,3.8,8.2,5.4c2.8,1.6,5.5,3.1,8.3,4.4c2.8,1.3,5.6,2.4,8.4,3.4
	c2.8,1,5.6,1.7,8.3,2.3s5.5,1,8.3,1.2c2.7,0.2,5.4,0.2,8.1,0c2.7-0.2,5.3-0.6,7.9-1.2c2.6-0.6,5.1-1.4,7.6-2.4l36.3-14.8l36.3-14.8
	l36.3-14.8l36.3-14.8l36.3-14.8l36.3-14.8l36.3-14.8l36.3-14.8l36.3-14.8l36.3-14.8l36.3-14.8l36.3-14.8l36.3-14.8l36.3-14.8
	l36.3-14.8l36.3-14.8l0,0l0,0l0,0l0,0l0,0l0,0l0,0l0,0l0,0l0,0l0,0l0,0l0,0l0,0l0,0l0,0c0,0,0.1,0,0.1,0c0,0,0.1,0,0.1,0
	c0,0,0.1,0,0.1,0c0,0,0.1,0,0.1,0s0.1,0,0.1,0c0,0,0.1,0,0.1,0c0,0,0.1,0,0.1,0s0.1,0,0.1-0.1s0.1,0,0.1-0.1c0,0,0.1,0,0.1-0.1
	c0,0,0.1,0,0.1-0.1s0.1,0,0.1-0.1c0,0,0.1,0,0.1-0.1s0.1,0,0.1-0.1c0,0,0.1,0,0.1-0.1c0,0,0.1,0,0.1-0.1c2.5-1,4.9-2.2,7.1-3.6
	c2.3-1.4,4.4-3,6.5-4.7c2-1.7,4-3.6,5.8-5.7s3.5-4.3,5-6.6c1.6-2.4,3-4.9,4.3-7.5s2.5-5.4,3.6-8.3s2-5.9,2.8-9
	c0.8-3.1,1.5-6.3,2.1-9.6c0.6-3.3,1-6.7,1.3-10.2c0.3-3.5,0.5-7,0.5-10.7s-0.1-7.3-0.3-11.1c-0.2-3.8-0.6-7.6-1.1-11.4
	c-0.5-3.9-1.2-7.8-2-11.7c-0.8-3.9-1.7-7.9-2.8-11.9c-1.1-4-2.3-8-3.6-12c-1.4-4-2.9-8-4.5-12.1c-1.6-4-3.4-7.9-5.3-11.8
	c-1.9-3.8-3.8-7.5-5.8-11.1c-2-3.6-4.2-7.1-6.4-10.4s-4.5-6.6-6.8-9.7c-2.3-3.1-4.8-6.1-7.2-8.9c-2.5-2.8-5-5.6-7.6-8.1
	c-2.6-2.6-5.2-5-7.8-7.3c-2.7-2.3-5.3-4.4-8.1-6.4s-5.5-3.8-8.2-5.4c-2.8-1.6-5.5-3.1-8.3-4.4s-5.6-2.4-8.4-3.4
	c-2.8-1-5.6-1.7-8.3-2.3s-5.5-1-8.3-1.2s-5.4-0.2-8.1,0c-2.7,0.2-5.3,0.6-7.9,1.2C722.4,82.5,719.9,83.3,717.4,84.3z"/>
</svg>
