<?xml version="1.0" encoding="utf-8"?>
<!-- Generator: Adobe Illustrator 18.1.1, SVG Export Plug-In . SVG Version: 6.00 Build 0)  -->
<!DOCTYPE svg PUBLIC "-//W3C//DTD SVG 1.1//EN" "http://www.w3.org/Graphics/SVG/1.1/DTD/svg11.dtd">
<svg version="1.1" id="Layer_1" xmlns="http://www.w3.org/2000/svg" xmlns:xlink="http://www.w3.org/1999/xlink" x="0px" y="0px"
	 viewBox="0 0 960 640" enable-background="new 0 0 960 640" xml:space="preserve">
<g>
	<path fill="#14C0EF" d="M710.2,316.1h-1c0.7-4.8,1-9.6,1-14.6c0-34.5-16.1-58.7-45.1-84.4c10.3-10.1,10.5-18.8,10.5-34.4
		c0-30.9-15.2-54.2-49.9-59.1c-27.3-3.9-65.3,13-69.9,39.2c-29.3-8.5-47.8-16.5-81.9-16.5c-130.5,0-236.3,69.4-236.3,155.1
		c0,4.9,0.4,9.8,1,14.6h-1l2.6,8.6c1.2,5.1,2.7,10.1,4.6,15l66.6,218H629l70.6-210.2c3.8-8.1,6.6-16.4,8.4-25L710.2,316.1z"/>
	<path fill="#F4CBE1" d="M692.5,324.3h-1c0.6-4.5,1-9,1-13.6c0-32.1-16-61.8-43.1-85.8c9.6-9.5,15.6-22.6,15.6-37.1
		c0-28.8-23.3-52.1-52.1-52.1c-25.7,0-47,18.5-51.3,43c-27.3-8-57.5-12.4-89.3-12.4c-121.6,0-220.2,64.7-220.2,144.5
		c0,4.6,0.3,9.1,1,13.6h-1l2.4,8c1.1,4.7,2.5,9.4,4.3,14l62.1,203.2h296l65.8-195.9c3.5-7.5,6.2-15.3,7.8-23.3L692.5,324.3z"/>
	<path fill="#14C0EF" d="M380.4,211.9L380.4,211.9c-1.1,2.1-3.8,3-6,1.8l-14.7-7.8c-2.1-1.1-3-3.8-1.8-6v0c1.1-2.1,3.8-3,6-1.8
		l14.7,7.8C380.7,207.1,381.5,209.8,380.4,211.9z"/>
	<path fill="#EFD152" d="M445.9,216.3L445.9,216.3c-2,1.4-4.7,0.9-6.1-1.1l-9.6-13.6c-1.4-2-0.9-4.7,1.1-6.1v0
		c2-1.4,4.7-0.9,6.1,1.1l9.6,13.6C448.4,212.2,447.9,214.9,445.9,216.3z"/>
	<path fill="#EFD152" d="M294.2,267.1L294.2,267.1c-2.4-0.1-4.3-2.2-4.1-4.7l1-16.6c0.1-2.4,2.2-4.3,4.7-4.1l0,0
		c2.4,0.1,4.3,2.2,4.1,4.7l-1,16.6C298.8,265.4,296.7,267.3,294.2,267.1z"/>
	<path fill="#EFD152" d="M380.4,291.8L380.4,291.8c-1.4-2-0.9-4.7,1-6.1l13.6-9.7c2-1.4,4.7-0.9,6.1,1v0c1.4,2,0.9,4.7-1,6.1
		l-13.6,9.7C384.5,294.2,381.8,293.7,380.4,291.8z"/>
	<path fill="#7CBC44" d="M376.3,265.9L376.3,265.9c-2.2-1-3.1-3.7-2.1-5.9l7.2-15.1c1-2.2,3.7-3.1,5.9-2.1v0c2.2,1,3.1,3.7,2.1,5.9
		l-7.2,15.1C381.1,266,378.5,266.9,376.3,265.9z"/>
	<path fill="#EA50AF" d="M292.3,326.4L292.3,326.4c-2.1,1.3-4.8,0.6-6-1.5l-8.6-14.3c-1.3-2.1-0.6-4.8,1.5-6h0
		c2.1-1.3,4.8-0.6,6,1.5l8.6,14.3C295,322.5,294.3,325.2,292.3,326.4z"/>
	<path fill="#14C0EF" d="M338.8,322.4L338.8,322.4c-2.4-0.3-4.1-2.5-3.8-4.9l2-16.6c0.3-2.4,2.5-4.1,4.9-3.8h0
		c2.4,0.3,4.1,2.5,3.8,4.9l-2,16.6C343.4,321,341.2,322.7,338.8,322.4z"/>
	<path fill="#EA50AF" d="M351.3,236L351.3,236c1.2,2.1,0.5,4.8-1.6,6l-14.4,8.4c-2.1,1.2-4.8,0.5-6-1.6l0,0c-1.2-2.1-0.5-4.8,1.6-6
		l14.4-8.4C347.4,233.2,350.1,233.9,351.3,236z"/>
	<path fill="#14C0EF" d="M443.5,245.8L443.5,245.8c1.2,2.1,0.5,4.8-1.6,6l-14.4,8.4c-2.1,1.2-4.8,0.5-6-1.6l0,0
		c-1.2-2.1-0.5-4.8,1.6-6l14.4-8.4C439.6,243,442.3,243.7,443.5,245.8z"/>
	<path fill="#7CBC44" d="M479.7,265.1L479.7,265.1c-2.2-1-3.1-3.7-2.1-5.9l7.2-15.1c1-2.2,3.7-3.1,5.9-2.1l0,0
		c2.2,1,3.1,3.7,2.1,5.9l-7.2,15.1C484.6,265.2,481.9,266.2,479.7,265.1z"/>
	<path fill="#14C0EF" d="M310.8,413.1L310.8,413.1c-2.2-1-3.1-3.7-2.1-5.9l7.2-15.1c1-2.2,3.7-3.1,5.9-2.1l0,0
		c2.2,1,3.1,3.7,2.1,5.9l-7.2,15.1C315.6,413.2,313,414.2,310.8,413.1z"/>
	<path fill="#EFD152" d="M523.3,191.1L523.3,191.1c-1.6,1.8-4.4,2-6.2,0.5l-12.6-10.9c-1.8-1.6-2-4.4-0.5-6.2v0
		c1.6-1.8,4.4-2,6.2-0.5l12.6,10.9C524.6,186.4,524.8,189.2,523.3,191.1z"/>
	<path fill="#14C0EF" d="M539.5,327.2L539.5,327.2c-2.4-0.3-4.2-2.5-3.9-4.9l1.8-16.6c0.3-2.4,2.5-4.2,4.9-3.9l0,0
		c2.4,0.3,4.2,2.5,3.9,4.9l-1.8,16.6C544.1,325.7,541.9,327.4,539.5,327.2z"/>
	<path fill="#EFD152" d="M669.2,258L669.2,258c-1.3,2.1-4,2.7-6.1,1.5l-14.2-8.7c-2.1-1.3-2.7-4-1.5-6.1v0c1.3-2.1,4-2.7,6.1-1.5
		l14.2,8.7C669.8,253.3,670.5,256,669.2,258z"/>
	<path fill="#EA50AF" d="M608.5,162.8L608.5,162.8c-2.4,0.6-4.7-0.9-5.3-3.2l-3.9-16.2c-0.6-2.4,0.9-4.7,3.2-5.3l0,0
		c2.4-0.6,4.7,0.9,5.3,3.2l3.9,16.2C612.3,159.8,610.9,162.2,608.5,162.8z"/>
	<path fill="#7CBC44" d="M646.2,186.2L646.2,186.2c-1.2-2.1-3.9-2.8-6-1.6l-14.4,8.4c-2.1,1.2-2.8,3.9-1.6,6v0
		c1.2,2.1,3.9,2.8,6,1.6l14.4-8.4C646.7,191,647.5,188.3,646.2,186.2z"/>
	<path fill="#14C0EF" d="M556.7,202.1L556.7,202.1c-2-1.3-4.8-0.7-6.1,1.3l-9.1,14c-1.3,2-0.7,4.8,1.3,6.1l0,0
		c2,1.3,4.8,0.7,6.1-1.3l9.1-14C559.3,206.1,558.7,203.4,556.7,202.1z"/>
	<path fill="#EA50AF" d="M590,264.2L590,264.2c2-1.4,2.5-4.1,1.2-6.1l-9.4-13.8c-1.4-2-4.1-2.5-6.1-1.2l0,0c-2,1.4-2.5,4.1-1.2,6.1
		l9.4,13.8C585.3,265,588,265.5,590,264.2z"/>
	<path fill="#14C0EF" d="M579,438.8L579,438.8c2-1.4,2.5-4.1,1.2-6.1l-9.4-13.8c-1.4-2-4.1-2.5-6.1-1.2l0,0c-2,1.4-2.5,4.1-1.2,6.1
		l9.4,13.8C574.2,439.7,577,440.2,579,438.8z"/>
	<path fill="#7CBC44" d="M384.5,410.4L384.5,410.4c2-1.4,2.5-4.1,1.2-6.1l-9.4-13.8c-1.4-2-4.1-2.5-6.1-1.2l0,0
		c-2,1.4-2.5,4.1-1.2,6.1l9.4,13.8C379.7,411.2,382.5,411.7,384.5,410.4z"/>
	<path fill="#14C0EF" d="M607.4,214.4L607.4,214.4c-2.3-0.6-4.8,0.8-5.4,3.1l-4.2,16.1c-0.6,2.3,0.8,4.8,3.1,5.4l0,0
		c2.3,0.6,4.8-0.8,5.4-3.1l4.2-16.1C611.2,217.4,609.8,215,607.4,214.4z"/>
	<path fill="#EFD152" d="M572.7,175.1L572.7,175.1c-1.5,1.9-1.1,4.7,0.9,6.2l13.3,10c1.9,1.5,4.7,1.1,6.2-0.9v0
		c1.5-1.9,1.1-4.7-0.9-6.2l-13.3-10C576.9,172.8,574.2,173.2,572.7,175.1z"/>
	<path fill="#EFD152" d="M528.4,254.6L528.4,254.6c-2.4,0.1-4.4,2.1-4.3,4.5l0.4,16.7c0.1,2.4,2.1,4.4,4.5,4.3l0,0
		c2.4-0.1,4.4-2.1,4.3-4.5l-0.4-16.7C532.8,256.4,530.8,254.5,528.4,254.6z"/>
	<path fill="#EFD152" d="M407,450.5L407,450.5c-2.2-1-3.1-3.7-2.1-5.9l7.2-15.1c1-2.2,3.7-3.1,5.9-2.1l0,0c2.2,1,3.1,3.7,2.1,5.9
		l-7.2,15.1C411.8,450.6,409.2,451.6,407,450.5z"/>
	<path fill="#EFD152" d="M466.7,512.6L466.7,512.6c-2.4-0.3-4.2-2.5-3.9-4.9l1.8-16.6c0.3-2.4,2.5-4.2,4.9-3.9l0,0
		c2.4,0.3,4.2,2.5,3.9,4.9l-1.8,16.6C471.3,511.1,469.2,512.9,466.7,512.6z"/>
	<path fill="#EA50AF" d="M501.9,429.3L501.9,429.3c-1.8,1.6-2.1,4.4-0.5,6.2l10.8,12.7c1.6,1.8,4.4,2.1,6.2,0.5l0,0
		c1.8-1.6,2.1-4.4,0.5-6.2l-10.8-12.7C506.5,428,503.7,427.8,501.9,429.3z"/>
	<path fill="#14C0EF" d="M455.6,440L455.6,440c-2.4,0.1-4.4,2.1-4.3,4.5l0.4,16.7c0.1,2.4,2.1,4.4,4.5,4.3h0
		c2.4-0.1,4.4-2.1,4.3-4.5l-0.4-16.7C460.1,441.9,458.1,439.9,455.6,440z"/>
	<path fill="#7CBC44" d="M421.2,489.1L421.2,489.1c-2.1,1.3-2.7,4-1.4,6.1l8.8,14.1c1.3,2.1,4,2.7,6.1,1.4l0,0
		c2.1-1.3,2.7-4,1.4-6.1l-8.8-14.1C425.9,488.5,423.2,487.8,421.2,489.1z"/>
	<path fill="#EFD152" d="M352.7,476.4L352.7,476.4c-2.1,1.3-2.7,4-1.4,6.1l8.8,14.1c1.3,2.1,4,2.7,6.1,1.4l0,0
		c2.1-1.3,2.7-4,1.4-6.1l-8.8-14.1C357.5,475.8,354.8,475.1,352.7,476.4z"/>
	<path fill="#EA50AF" d="M481.5,197.6L481.5,197.6c-2.4,0.1-4.4,2.1-4.3,4.5l0.4,16.7c0.1,2.4,2.1,4.4,4.5,4.3l0,0
		c2.4-0.1,4.4-2.1,4.3-4.5l-0.4-16.7C486,199.5,483.9,197.5,481.5,197.6z"/>
	<path fill="#14C0EF" d="M581.3,399.4L581.3,399.4c-2.2-1-3.1-3.7-2.1-5.9l7.2-15.1c1-2.2,3.7-3.1,5.9-2.1h0c2.2,1,3.1,3.7,2.1,5.9
		l-7.2,15.1C586.1,399.5,583.5,400.5,581.3,399.4z"/>
	<path fill="#EFD152" d="M624.8,325.4L624.8,325.4c-1.6,1.8-4.4,2-6.2,0.5L606,315c-1.8-1.6-2-4.4-0.5-6.2l0,0
		c1.6-1.8,4.4-2,6.2-0.5l12.6,10.9C626.2,320.7,626.4,323.5,624.8,325.4z"/>
	<path fill="#EA50AF" d="M658.3,336.4L658.3,336.4c-2-1.3-4.8-0.7-6.1,1.3l-9.1,14c-1.3,2-0.7,4.8,1.3,6.1v0c2,1.3,4.8,0.7,6.1-1.3
		l9.1-14C660.9,340.4,660.3,337.7,658.3,336.4z"/>
	<path fill="#14C0EF" d="M630,388.9L630,388.9c-2.4,0.1-4.4,2.1-4.3,4.5L626,410c0.1,2.4,2.1,4.4,4.5,4.3l0,0
		c2.4-0.1,4.4-2.1,4.3-4.5l-0.4-16.7C634.4,390.7,632.4,388.8,630,388.9z"/>
	<path fill="#EA50AF" d="M583.1,331.9L583.1,331.9c-2.4,0.1-4.4,2.1-4.3,4.5l0.4,16.7c0.1,2.4,2.1,4.4,4.5,4.3l0,0
		c2.4-0.1,4.4-2.1,4.3-4.5l-0.4-16.7C587.5,333.8,585.5,331.8,583.1,331.9z"/>
	<path fill="#EA50AF" d="M428.3,401.9L428.3,401.9c-2.2-1-3.1-3.7-2.1-5.9l7.2-15.1c1-2.2,3.7-3.1,5.9-2.1l0,0
		c2.2,1,3.1,3.7,2.1,5.9l-7.2,15.1C433.2,402,430.5,403,428.3,401.9z"/>
	<path fill="#EA50AF" d="M471.9,327.9L471.9,327.9c-1.6,1.8-4.4,2-6.2,0.5L453,317.5c-1.8-1.6-2-4.4-0.5-6.2l0,0
		c1.6-1.8,4.4-2,6.2-0.5l12.6,10.9C473.2,323.3,473.4,326.1,471.9,327.9z"/>
	<path fill="#14C0EF" d="M505.3,338.9L505.3,338.9c-2-1.3-4.8-0.7-6.1,1.3l-9.1,14c-1.3,2-0.7,4.8,1.3,6.1l0,0
		c2,1.3,4.8,0.7,6.1-1.3l9.1-14C507.9,342.9,507.3,340.2,505.3,338.9z"/>
	<path fill="#14C0EF" d="M477,391.4L477,391.4c-2.4,0.1-4.4,2.1-4.3,4.5l0.4,16.7c0.1,2.4,2.1,4.4,4.5,4.3l0,0
		c2.4-0.1,4.4-2.1,4.3-4.5l-0.4-16.7C481.4,393.3,479.4,391.3,477,391.4z"/>
	<path fill="#14C0EF" d="M430.1,334.4L430.1,334.4c-2.4,0.1-4.4,2.1-4.3,4.5l0.4,16.7c0.1,2.4,2.1,4.4,4.5,4.3l0,0
		c2.4-0.1,4.4-2.1,4.3-4.5l-0.4-16.7C434.6,336.3,432.5,334.4,430.1,334.4z"/>
	<path fill="#7CBC44" d="M349.1,538.1L349.1,538.1c-2.4,0.2-4.6-1.5-4.8-3.9l-1.7-16.6c-0.2-2.4,1.5-4.6,3.9-4.8l0,0
		c2.4-0.2,4.6,1.5,4.8,3.9l1.7,16.6C353.3,535.7,351.5,537.9,349.1,538.1z"/>
	<path fill="#EA50AF" d="M348.1,452.2L348.1,452.2c-0.4,2.4-2.7,4-5.1,3.6l-16.4-2.8c-2.4-0.4-4-2.7-3.6-5.1l0,0
		c0.4-2.4,2.7-4,5.1-3.6l16.4,2.8C346.9,447.6,348.5,449.9,348.1,452.2z"/>
	<path fill="#14C0EF" d="M382.5,444.4L382.5,444.4c-2.4-0.1-4.5,1.8-4.5,4.2l-0.6,16.7c-0.1,2.4,1.8,4.5,4.2,4.5l0,0
		c2.4,0.1,4.5-1.8,4.5-4.2l0.6-16.7C386.8,446.5,384.9,444.5,382.5,444.4z"/>
	<path fill="#EA50AF" d="M385.3,504L385.3,504c-2,1.3-2.7,4-1.4,6.1l8.9,14.1c1.3,2,4,2.7,6.1,1.4l0,0c2-1.3,2.7-4,1.4-6.1
		l-8.9-14.1C390.1,503.3,387.4,502.7,385.3,504z"/>
	<path fill="#14C0EF" d="M315.8,479.4L315.8,479.4c-2,1.3-2.7,4-1.4,6.1l8.9,14.1c1.3,2,4,2.7,6.1,1.4l0,0c2-1.3,2.7-4,1.4-6.1
		l-8.9-14.1C320.5,478.7,317.8,478.1,315.8,479.4z"/>
	<path fill="#EA50AF" d="M559.5,543.9L559.5,543.9c-2.4,0.2-4.6-1.5-4.8-3.9l-1.7-16.6c-0.2-2.4,1.5-4.6,3.9-4.8l0,0
		c2.4-0.2,4.6,1.5,4.8,3.9l1.7,16.6C563.6,541.5,561.9,543.7,559.5,543.9z"/>
	<path fill="#EA50AF" d="M558.5,458L558.5,458c-0.4,2.4-2.7,4-5.1,3.6l-16.4-2.8c-2.4-0.4-4-2.7-3.6-5.1l0,0c0.4-2.4,2.7-4,5.1-3.6
		l16.4,2.8C557.3,453.4,558.9,455.6,558.5,458z"/>
	<path fill="#7CBC44" d="M512.9,529.7L512.9,529.7c-0.4,2.4-2.7,4-5.1,3.6l-16.4-2.8c-2.4-0.4-4-2.7-3.6-5.1l0,0
		c0.4-2.4,2.7-4,5.1-3.6l16.4,2.8C511.7,525,513.3,527.3,512.9,529.7z"/>
	<path fill="#EFD152" d="M592.9,450.2L592.9,450.2c-2.4-0.1-4.5,1.8-4.5,4.2l-0.6,16.7c-0.1,2.4,1.8,4.5,4.2,4.5l0,0
		c2.4,0.1,4.5-1.8,4.5-4.2l0.6-16.7C597.2,452.3,595.3,450.3,592.9,450.2z"/>
	<path fill="#EFD152" d="M595.7,509.8L595.7,509.8c-2,1.3-2.7,4-1.4,6.1l8.9,14.1c1.3,2,4,2.7,6.1,1.4l0,0c2-1.3,2.7-4,1.4-6.1
		l-8.9-14.1C600.5,509.1,597.7,508.5,595.7,509.8z"/>
	<path fill="#14C0EF" d="M526.1,485.2L526.1,485.2c-2,1.3-2.7,4-1.4,6.1l8.9,14.1c1.3,2,4,2.7,6.1,1.4l0,0c2-1.3,2.7-4,1.4-6.1
		l-8.9-14.1C530.9,484.5,528.2,483.9,526.1,485.2z"/>
	<path fill="#14C0EF" d="M397,329.8L397,329.8c-2.4,0.1-4.4,2.1-4.3,4.5l0.4,16.7c0.1,2.4,2.1,4.4,4.5,4.3l0,0
		c2.4-0.1,4.4-2.1,4.3-4.5l-0.4-16.7C401.5,331.7,399.5,329.8,397,329.8z"/>
	<path fill="#14C0EF" d="M652,297.7L652,297.7c-2.4,0.2-4.6-1.6-4.8-4l-1.4-16.6c-0.2-2.4,1.6-4.6,4-4.8l0,0c2.4-0.2,4.6,1.6,4.8,4
		L656,293C656.2,295.4,654.4,297.5,652,297.7z"/>
	<path fill="#7CBC44" d="M533.2,381.7L533.2,381.7c-2.4,0.1-4.4,2.1-4.3,4.5l0.4,16.7c0.1,2.4,2.1,4.4,4.5,4.3l0,0
		c2.4-0.1,4.4-2.1,4.3-4.5l-0.4-16.7C537.7,383.6,535.6,381.6,533.2,381.7z"/>
	<polygon opacity="0.81" fill="#C11F5D" points="637.2,418.6 291.1,418.6 315.7,321.3 669.8,321.3 	"/>
	<g>
		<path fill="#F2F2F2" d="M356.6,365.1h-0.5v-14.9h-21v14.9h-0.5v-29.8h0.5v14.4h21v-14.4h0.5V365.1z"/>
		<path fill="#F2F2F2" d="M378.4,365.1c-0.2,0-0.3-0.1-0.3-0.3l-0.1-3.4c-0.6,0.6-1.2,1.2-1.8,1.7c-0.6,0.5-1.2,0.9-1.9,1.3
			c-0.7,0.3-1.4,0.6-2.2,0.8c-0.8,0.2-1.6,0.3-2.6,0.3c-0.6,0-1.3-0.1-1.9-0.3c-0.6-0.2-1.2-0.5-1.7-0.9c-0.5-0.4-0.9-1-1.2-1.6
			c-0.3-0.7-0.5-1.5-0.5-2.4c0-0.9,0.3-1.8,0.8-2.5c0.5-0.7,1.4-1.4,2.5-1.9c1.1-0.5,2.6-0.9,4.3-1.2c1.7-0.3,3.8-0.5,6.1-0.5v-2.7
			c0-1.1-0.1-2.1-0.4-2.9c-0.2-0.9-0.6-1.6-1.1-2.2s-1.1-1.1-1.8-1.4c-0.7-0.3-1.5-0.5-2.5-0.5c-0.7,0-1.4,0.1-2,0.2
			c-0.6,0.2-1.1,0.3-1.6,0.6c-0.5,0.2-0.9,0.5-1.2,0.7c-0.3,0.3-0.6,0.5-0.9,0.7s-0.5,0.4-0.6,0.6s-0.3,0.2-0.3,0.2
			c-0.1,0-0.1,0-0.2-0.1l-0.1-0.1c1-1.1,2.1-1.9,3.2-2.5c1.1-0.6,2.4-0.9,3.8-0.9c1.1,0,2,0.2,2.8,0.5c0.8,0.3,1.4,0.8,1.9,1.5
			c0.5,0.6,0.9,1.4,1.1,2.3c0.2,0.9,0.4,2,0.4,3.1L378.4,365.1L378.4,365.1z M369.6,365c1,0,1.9-0.1,2.7-0.3
			c0.8-0.2,1.5-0.5,2.2-0.9c0.7-0.4,1.3-0.8,1.9-1.3c0.6-0.5,1.1-1,1.7-1.6v-6.4c-4.5,0.1-7.8,0.7-10,1.7c-2.2,1-3.2,2.3-3.2,4.1
			c0,0.8,0.1,1.6,0.4,2.2c0.3,0.6,0.6,1.1,1.1,1.5c0.4,0.4,1,0.7,1.5,0.9C368.4,364.9,369,365,369.6,365z"/>
		<path fill="#F2F2F2" d="M385.5,372.8v-28.6h0.1c0.2,0,0.3,0.1,0.3,0.3l0.1,4c0.9-1.4,2.1-2.6,3.4-3.4c1.3-0.8,2.8-1.2,4.4-1.2
			c2.7,0,4.8,0.9,6.2,2.6c1.4,1.7,2.2,4.4,2.2,8c0,1.5-0.2,2.9-0.6,4.3c-0.4,1.3-1,2.5-1.7,3.4c-0.8,1-1.7,1.7-2.9,2.3
			s-2.5,0.8-4,0.8c-3.1,0-5.4-1.2-6.9-3.7v11.1H385.5z M393.7,344.3c-1.5,0-3,0.4-4.3,1.3c-1.3,0.9-2.5,2.1-3.4,3.6v11.7
			c0.9,1.5,1.9,2.5,3,3.1s2.4,0.9,3.9,0.9c1.5,0,2.7-0.3,3.8-0.8c1.1-0.5,2-1.3,2.7-2.2c0.7-0.9,1.3-2,1.6-3.3
			c0.4-1.3,0.5-2.6,0.5-4.1c0-3.5-0.7-6-2-7.7C398.3,345.1,396.3,344.3,393.7,344.3z"/>
		<path fill="#F2F2F2" d="M407.7,372.8v-28.6h0.1c0.2,0,0.3,0.1,0.3,0.3l0.1,4c0.9-1.4,2.1-2.6,3.4-3.4c1.3-0.8,2.8-1.2,4.4-1.2
			c2.7,0,4.8,0.9,6.2,2.6c1.4,1.7,2.2,4.4,2.2,8c0,1.5-0.2,2.9-0.6,4.3c-0.4,1.3-1,2.5-1.7,3.4c-0.8,1-1.7,1.7-2.9,2.3
			s-2.5,0.8-4,0.8c-3.1,0-5.4-1.2-6.9-3.7v11.1H407.7z M415.9,344.3c-1.5,0-3,0.4-4.3,1.3c-1.3,0.9-2.5,2.1-3.4,3.6v11.7
			c0.9,1.5,1.9,2.5,3,3.1s2.4,0.9,3.9,0.9c1.5,0,2.7-0.3,3.8-0.8c1.1-0.5,2-1.3,2.7-2.2c0.7-0.9,1.3-2,1.6-3.3
			c0.4-1.3,0.5-2.6,0.5-4.1c0-3.5-0.7-6-2-7.7C420.5,345.1,418.5,344.3,415.9,344.3z"/>
		<path fill="#F2F2F2" d="M432.8,372.3c0,0.1-0.1,0.2-0.2,0.3c-0.1,0.1-0.2,0.1-0.3,0.1H432l3.6-8l-9-20.5h0.3c0.1,0,0.2,0,0.3,0.1
			c0.1,0.1,0.1,0.1,0.1,0.2l8.3,19c0.1,0.1,0.1,0.3,0.2,0.4s0.1,0.3,0.1,0.4c0-0.1,0.1-0.3,0.1-0.4s0.1-0.3,0.2-0.4l8.3-19
			c0.1-0.2,0.2-0.3,0.4-0.3h0.3L432.8,372.3z"/>
		<path fill="#F2F2F2" d="M458,365.1v-30.7h0.5v14.1c0.9-1.4,2.1-2.5,3.4-3.4c1.3-0.8,2.8-1.3,4.4-1.3c2.7,0,4.8,0.9,6.2,2.6
			c1.4,1.7,2.2,4.4,2.2,8c0,1.5-0.2,2.9-0.6,4.3c-0.4,1.3-1,2.5-1.7,3.4c-0.8,1-1.7,1.7-2.9,2.3c-1.1,0.6-2.5,0.8-4,0.8
			c-1.5,0-2.9-0.3-4-0.9c-1.2-0.6-2.1-1.6-2.9-2.8l-0.1,3.2c0,0.1,0,0.1,0,0.2c0,0.1-0.1,0.1-0.2,0.1H458z M466.3,344.3
			c-1.5,0-3,0.4-4.3,1.3c-1.3,0.9-2.5,2.1-3.4,3.6v11.7c0.9,1.5,1.9,2.5,3,3.1s2.4,0.9,3.9,0.9c1.5,0,2.7-0.3,3.8-0.8
			c1.1-0.5,2-1.3,2.7-2.2s1.3-2,1.6-3.3c0.4-1.3,0.5-2.6,0.5-4.1c0-3.5-0.7-6-2-7.7C470.8,345.1,468.8,344.3,466.3,344.3z"/>
		<path fill="#F2F2F2" d="M482.7,336.5c0,0.3-0.1,0.6-0.4,0.8c-0.2,0.2-0.5,0.4-0.8,0.4c-0.3,0-0.6-0.1-0.8-0.4s-0.4-0.5-0.4-0.8
			c0-0.3,0.1-0.6,0.4-0.8s0.5-0.4,0.8-0.4c0.3,0,0.6,0.1,0.8,0.4C482.6,335.9,482.7,336.1,482.7,336.5z M481.7,344.2v20.9h-0.5
			v-20.9H481.7z"/>
		<path fill="#F2F2F2" d="M490,365.1v-20.9h0.1c0.2,0,0.3,0.1,0.3,0.3l0.1,5.8c0.3-1,0.7-2,1.1-2.8s1-1.5,1.6-2c0.6-0.6,1.3-1,2-1.3
			c0.8-0.3,1.6-0.4,2.6-0.4c0.7,0,1.3,0.1,1.9,0.2c0.6,0.1,1.1,0.3,1.7,0.6l-0.1,0.2c0,0-0.1,0.1-0.1,0.1c0,0-0.1,0.1-0.1,0.1
			s-0.2,0-0.4-0.1s-0.4-0.1-0.6-0.2c-0.3-0.1-0.6-0.2-1-0.2c-0.4-0.1-0.8-0.1-1.3-0.1c-1.9,0-3.4,0.6-4.5,1.8
			c-1.2,1.2-2.1,3-2.7,5.2v13.7H490z"/>
		<path fill="#F2F2F2" d="M511.8,365.4c-1.2,0-2.2-0.3-2.9-1c-0.7-0.7-1-1.8-1-3.3v-15.6h-3.5c-0.2,0-0.3-0.1-0.3-0.2v-0.1l3.8-0.1
			l0.2-8.4c0-0.1,0-0.1,0.1-0.2c0-0.1,0.1-0.1,0.2-0.1h0.1v8.7h7.1v0.4h-7.1v15.6c0,0.7,0.1,1.3,0.3,1.8s0.4,0.9,0.7,1.2
			c0.3,0.3,0.7,0.5,1.1,0.7c0.4,0.1,0.9,0.2,1.3,0.2c0.6,0,1.1-0.1,1.6-0.3s0.8-0.4,1.1-0.6s0.6-0.4,0.8-0.6
			c0.2-0.2,0.3-0.3,0.4-0.3c0.1,0,0.1,0,0.2,0.1l0.1,0.1c-0.2,0.3-0.5,0.6-0.8,0.8c-0.3,0.2-0.6,0.5-1,0.6s-0.7,0.3-1.2,0.4
			C512.6,365.4,512.2,365.4,511.8,365.4z"/>
		<path fill="#F2F2F2" d="M521.3,365.1v-30.7h0.5v14.1c0.5-0.7,1-1.4,1.6-1.9c0.6-0.6,1.3-1.1,2-1.5c0.7-0.4,1.4-0.7,2.2-0.9
			c0.8-0.2,1.6-0.3,2.4-0.3c2.3,0,4,0.7,5.2,2.1c1.1,1.4,1.7,3.3,1.7,5.8v13.4h-0.5v-13.4c0-1.2-0.1-2.2-0.4-3.1s-0.7-1.7-1.2-2.3
			c-0.5-0.6-1.2-1.1-2-1.5c-0.8-0.3-1.7-0.5-2.8-0.5c-1.6,0-3.1,0.4-4.5,1.3c-1.4,0.9-2.6,2.1-3.6,3.6v15.9H521.3z"/>
		<path fill="#F2F2F2" d="M558.6,365.1c-0.2,0-0.3-0.1-0.3-0.3l-0.1-4c-0.9,1.4-2.1,2.5-3.4,3.4s-2.8,1.2-4.4,1.2
			c-2.7,0-4.8-0.9-6.2-2.6s-2.1-4.4-2.1-8c0-1.5,0.2-2.9,0.6-4.2s1-2.5,1.7-3.4c0.8-1,1.7-1.7,2.9-2.3s2.5-0.8,4-0.8
			c1.5,0,2.9,0.3,4,0.9c1.2,0.6,2.1,1.6,2.9,2.8v-13.2h0.5v30.7H558.6z M550.5,364.9c1.5,0,3-0.4,4.3-1.3c1.3-0.9,2.5-2.1,3.4-3.6
			v-11.7c-0.9-1.5-1.9-2.5-3.1-3.1c-1.1-0.6-2.4-0.9-3.9-0.9c-1.5,0-2.7,0.3-3.8,0.8c-1.1,0.5-2,1.3-2.7,2.2c-0.7,0.9-1.3,2-1.6,3.3
			c-0.4,1.3-0.5,2.6-0.5,4.1c0,3.5,0.7,6,2,7.7C546,364.1,547.9,364.9,550.5,364.9z"/>
		<path fill="#F2F2F2" d="M579.5,365.1c-0.2,0-0.3-0.1-0.3-0.3l-0.1-3.4c-0.6,0.6-1.2,1.2-1.8,1.7c-0.6,0.5-1.2,0.9-1.9,1.3
			c-0.7,0.3-1.4,0.6-2.2,0.8c-0.8,0.2-1.6,0.3-2.6,0.3c-0.6,0-1.3-0.1-1.9-0.3c-0.6-0.2-1.2-0.5-1.7-0.9c-0.5-0.4-0.9-1-1.2-1.6
			c-0.3-0.7-0.5-1.5-0.5-2.4c0-0.9,0.3-1.8,0.8-2.5c0.5-0.7,1.4-1.4,2.5-1.9c1.1-0.5,2.6-0.9,4.3-1.2c1.7-0.3,3.8-0.5,6.1-0.5v-2.7
			c0-1.1-0.1-2.1-0.4-2.9c-0.2-0.9-0.6-1.6-1.1-2.2s-1.1-1.1-1.8-1.4c-0.7-0.3-1.5-0.5-2.5-0.5c-0.7,0-1.4,0.1-2,0.2
			c-0.6,0.2-1.1,0.3-1.6,0.6c-0.5,0.2-0.9,0.5-1.2,0.7c-0.3,0.3-0.6,0.5-0.9,0.7s-0.5,0.4-0.6,0.6s-0.3,0.2-0.3,0.2
			c-0.1,0-0.1,0-0.2-0.1l-0.1-0.1c1-1.1,2.1-1.9,3.2-2.5c1.1-0.6,2.4-0.9,3.8-0.9c1.1,0,2,0.2,2.8,0.5c0.8,0.3,1.4,0.8,1.9,1.5
			c0.5,0.6,0.9,1.4,1.1,2.3c0.2,0.9,0.4,2,0.4,3.1L579.5,365.1L579.5,365.1z M570.7,365c1,0,1.9-0.1,2.7-0.3
			c0.8-0.2,1.5-0.5,2.2-0.9c0.7-0.4,1.3-0.8,1.9-1.3c0.6-0.5,1.1-1,1.7-1.6v-6.4c-4.5,0.1-7.8,0.7-10,1.7c-2.2,1-3.2,2.3-3.2,4.1
			c0,0.8,0.1,1.6,0.4,2.2c0.3,0.6,0.6,1.1,1.1,1.5c0.4,0.4,1,0.7,1.5,0.9C569.5,364.9,570.1,365,570.7,365z"/>
		<path fill="#F2F2F2" d="M589.3,372.3c0,0.1-0.1,0.2-0.2,0.3c-0.1,0.1-0.2,0.1-0.3,0.1h-0.3l3.6-8l-9-20.5h0.3c0.1,0,0.2,0,0.3,0.1
			c0.1,0.1,0.1,0.1,0.1,0.2l8.3,19c0.1,0.1,0.1,0.3,0.2,0.4s0.1,0.3,0.1,0.4c0-0.1,0.1-0.3,0.1-0.4s0.1-0.3,0.2-0.4l8.3-19
			c0.1-0.2,0.2-0.3,0.4-0.3h0.3L589.3,372.3z"/>
		<path fill="#F2F2F2" d="M607.3,364.1c0-0.4,0.1-0.7,0.4-1c0.3-0.3,0.6-0.4,1-0.4c0.4,0,0.7,0.1,1,0.4s0.4,0.6,0.4,1
			c0,0.4-0.1,0.7-0.4,1s-0.6,0.4-1,0.4c-0.4,0-0.7-0.1-1-0.4C607.4,364.8,607.3,364.5,607.3,364.1z M609,335.3v12.2
			c0,0.6,0,1.2,0,1.8s0,1.1,0,1.7c0,0.6,0,1.2,0,1.8c0,0.7,0,1.4-0.1,2.2h-0.3c0-0.8,0-1.6-0.1-2.2c0-0.7,0-1.3,0-1.8
			c0-0.6,0-1.1,0-1.7s0-1.1,0-1.8v-12.2H609z"/>
		<path fill="#F2F2F2" d="M332.2,392.9c0,2.4,0.3,4.8,1,7c0.7,2.2,1.7,4.3,3.1,6.4c0,0.1,0.1,0.1,0.1,0.1s0,0.1-0.1,0.1l-0.2,0.1
			c-0.8-1.2-1.5-2.4-2.1-3.6c-0.6-1.1-1-2.3-1.3-3.4c-0.3-1.1-0.6-2.2-0.7-3.3c-0.1-1.1-0.2-2.3-0.2-3.4c0-1.2,0.1-2.3,0.2-3.4
			c0.1-1.1,0.4-2.2,0.7-3.3s0.8-2.2,1.3-3.4c0.6-1.1,1.2-2.3,2.1-3.6l0.2,0.1c0,0,0.1,0.1,0.1,0.1c0,0,0,0.1-0.1,0.1
			c-1.4,2.1-2.4,4.2-3.1,6.4S332.2,390.5,332.2,392.9z"/>
		<path fill="#F2F2F2" d="M338.6,387.5h0.2c0.1,0,0.1,0,0.2,0.1s0.1,0.1,0.1,0.1l4.7,14.1c0,0.1,0.1,0.2,0.1,0.3
			c0,0.1,0.1,0.2,0.1,0.3c0-0.1,0-0.2,0.1-0.3c0-0.1,0.1-0.2,0.1-0.3l4.9-14.3c0-0.1,0.1-0.2,0.2-0.2h0.1c0.1,0,0.1,0.1,0.2,0.2
			l4.9,14.3c0,0.1,0.1,0.2,0.1,0.3c0,0.1,0.1,0.2,0.1,0.3c0.1-0.2,0.1-0.4,0.2-0.6l4.7-14.1c0.1-0.1,0.2-0.2,0.3-0.2h0.2l-5.3,15.4
			h-0.2c-0.1,0-0.2-0.1-0.2-0.2l-4.9-14.4c-0.1-0.2-0.1-0.3-0.1-0.4c0,0.1,0,0.1-0.1,0.2s0,0.1-0.1,0.2l-5,14.4
			c0,0.1-0.1,0.2-0.2,0.2h-0.2L338.6,387.5z"/>
		<path fill="#F2F2F2" d="M364.9,381.7c0,0.2-0.1,0.4-0.3,0.6c-0.2,0.2-0.4,0.3-0.6,0.3c-0.2,0-0.4-0.1-0.6-0.3
			c-0.2-0.2-0.3-0.4-0.3-0.6c0-0.2,0.1-0.4,0.3-0.6c0.2-0.2,0.4-0.3,0.6-0.3c0.2,0,0.4,0.1,0.6,0.3
			C364.8,381.3,364.9,381.5,364.9,381.7z M364.2,387.5v15.4h-0.4v-15.4H364.2z"/>
		<path fill="#F2F2F2" d="M374.1,403.2c-0.9,0-1.6-0.2-2.1-0.7s-0.8-1.3-0.8-2.4v-11.5h-2.6c-0.1,0-0.2-0.1-0.2-0.2v-0.1l2.8-0.1
			l0.1-6.2c0-0.1,0-0.1,0-0.1s0.1-0.1,0.1-0.1h0.1v6.4h5.3v0.3h-5.3V400c0,0.5,0.1,1,0.2,1.3c0.1,0.4,0.3,0.7,0.5,0.9
			c0.2,0.2,0.5,0.4,0.8,0.5c0.3,0.1,0.6,0.2,1,0.2c0.4,0,0.8-0.1,1.2-0.2s0.6-0.3,0.8-0.4c0.2-0.2,0.4-0.3,0.6-0.4
			c0.1-0.1,0.2-0.2,0.3-0.2c0,0,0.1,0,0.1,0.1l0.1,0.1c-0.2,0.2-0.3,0.4-0.6,0.6c-0.2,0.2-0.5,0.3-0.7,0.5c-0.3,0.1-0.6,0.2-0.9,0.3
			C374.7,403.1,374.4,403.2,374.1,403.2z"/>
		<path fill="#F2F2F2" d="M381.1,402.9v-22.7h0.4v10.5c0.4-0.5,0.8-1,1.2-1.4c0.4-0.4,0.9-0.8,1.4-1.1s1.1-0.5,1.6-0.7
			c0.6-0.2,1.2-0.2,1.7-0.2c1.7,0,3,0.5,3.8,1.5c0.8,1,1.3,2.4,1.3,4.3v9.9h-0.4V393c0-0.9-0.1-1.6-0.3-2.3
			c-0.2-0.7-0.5-1.3-0.9-1.7c-0.4-0.5-0.9-0.8-1.5-1.1c-0.6-0.2-1.3-0.4-2.1-0.4c-1.2,0-2.3,0.3-3.3,1s-1.9,1.5-2.7,2.7v11.7H381.1z
			"/>
		<path fill="#F2F2F2" d="M412,388.8c0,0.1-0.1,0.1-0.2,0.1c-0.1,0-0.2-0.1-0.4-0.2c-0.2-0.1-0.4-0.3-0.7-0.5
			c-0.3-0.2-0.7-0.3-1.2-0.5c-0.5-0.1-1.1-0.2-1.7-0.2c-0.7,0-1.2,0.1-1.8,0.3c-0.5,0.2-1,0.5-1.4,0.8c-0.4,0.3-0.7,0.7-0.9,1.1
			s-0.3,0.9-0.3,1.4c0,0.6,0.1,1,0.4,1.4c0.3,0.4,0.6,0.7,1,0.9c0.4,0.3,0.9,0.5,1.5,0.7c0.5,0.2,1.1,0.4,1.7,0.5
			c0.6,0.2,1.1,0.4,1.7,0.6s1,0.4,1.5,0.7c0.4,0.3,0.8,0.7,1,1.1s0.4,1,0.4,1.6s-0.1,1.2-0.3,1.8c-0.2,0.6-0.6,1-1,1.4s-1,0.7-1.6,1
			c-0.6,0.2-1.3,0.4-2.1,0.4c-0.6,0-1.1,0-1.5-0.1c-0.4-0.1-0.8-0.2-1.2-0.4c-0.4-0.2-0.7-0.4-1-0.6c-0.3-0.2-0.6-0.5-1-0.8l0.1-0.1
			c0,0,0.1-0.1,0.1-0.1c0,0,0.1,0,0.1,0c0.1,0,0.2,0.1,0.4,0.3s0.5,0.4,0.8,0.6c0.3,0.2,0.8,0.4,1.3,0.6c0.5,0.2,1.2,0.3,1.9,0.3
			c0.8,0,1.4-0.1,2-0.3s1.1-0.5,1.5-0.9c0.4-0.4,0.7-0.8,0.9-1.3c0.2-0.5,0.3-1.1,0.3-1.6c0-0.6-0.1-1.1-0.4-1.5
			c-0.3-0.4-0.6-0.7-1-1c-0.4-0.3-0.9-0.5-1.5-0.7c-0.5-0.2-1.1-0.4-1.7-0.5c-0.6-0.2-1.1-0.3-1.7-0.5c-0.5-0.2-1-0.4-1.5-0.7
			c-0.4-0.3-0.8-0.6-1-1c-0.3-0.4-0.4-0.9-0.4-1.5c0-0.5,0.1-1,0.3-1.5c0.2-0.5,0.6-0.9,1-1.2s0.9-0.7,1.5-0.9
			c0.6-0.2,1.2-0.3,1.9-0.3c0.9,0,1.6,0.1,2.3,0.4S411.4,388.2,412,388.8L412,388.8z"/>
		<path fill="#F2F2F2" d="M417.2,408.6v-21.1h0.1c0.1,0,0.2,0.1,0.2,0.3l0,2.9c0.7-1.1,1.5-1.9,2.5-2.5c1-0.6,2.1-0.9,3.2-0.9
			c2,0,3.5,0.6,4.6,1.9c1.1,1.3,1.6,3.3,1.6,5.9c0,1.1-0.1,2.2-0.4,3.1c-0.3,1-0.7,1.8-1.3,2.5c-0.6,0.7-1.3,1.3-2.1,1.7
			c-0.8,0.4-1.8,0.6-2.9,0.6c-2.3,0-4-0.9-5.1-2.8v8.2H417.2z M423.3,387.5c-1.1,0-2.2,0.3-3.2,1c-1,0.6-1.8,1.5-2.5,2.7v8.7
			c0.7,1.1,1.4,1.8,2.3,2.3c0.8,0.4,1.8,0.7,2.9,0.7c1.1,0,2-0.2,2.8-0.6s1.5-0.9,2-1.6c0.5-0.7,0.9-1.5,1.2-2.4s0.4-1.9,0.4-3
			c0-2.6-0.5-4.5-1.5-5.7C426.7,388.2,425.2,387.5,423.3,387.5z"/>
		<path fill="#F2F2F2" d="M433.6,402.9v-15.4h0.1c0.1,0,0.2,0.1,0.2,0.3l0,4.3c0.2-0.8,0.5-1.4,0.8-2c0.3-0.6,0.7-1.1,1.2-1.5
			c0.4-0.4,0.9-0.7,1.5-0.9c0.6-0.2,1.2-0.3,1.9-0.3c0.5,0,1,0.1,1.4,0.2c0.4,0.1,0.8,0.3,1.2,0.4l-0.1,0.1c0,0,0,0.1-0.1,0.1
			s0,0-0.1,0s-0.1,0-0.3-0.1c-0.1-0.1-0.3-0.1-0.5-0.2c-0.2-0.1-0.4-0.1-0.7-0.2s-0.6-0.1-1-0.1c-1.4,0-2.5,0.5-3.3,1.4
			c-0.9,0.9-1.5,2.2-2,3.8v10.1H433.6z"/>
		<path fill="#F2F2F2" d="M447.6,381.7c0,0.2-0.1,0.4-0.3,0.6c-0.2,0.2-0.4,0.3-0.6,0.3c-0.2,0-0.4-0.1-0.6-0.3
			c-0.2-0.2-0.3-0.4-0.3-0.6c0-0.2,0.1-0.4,0.3-0.6c0.2-0.2,0.4-0.3,0.6-0.3c0.2,0,0.4,0.1,0.6,0.3
			C447.5,381.3,447.6,381.5,447.6,381.7z M446.9,387.5v15.4h-0.4v-15.4H446.9z"/>
		<path fill="#F2F2F2" d="M453,402.9v-15.4h0.1c0.1,0,0.2,0.1,0.2,0.3l0,3c0.4-0.5,0.8-1,1.2-1.4s0.9-0.8,1.4-1.1s1.1-0.5,1.6-0.7
			c0.6-0.2,1.2-0.2,1.8-0.2c1.7,0,3,0.5,3.8,1.5c0.8,1,1.3,2.4,1.3,4.3v9.9h-0.4V393c0-0.9-0.1-1.6-0.3-2.3
			c-0.2-0.7-0.5-1.3-0.9-1.7c-0.4-0.5-0.9-0.8-1.5-1.1c-0.6-0.2-1.3-0.4-2.1-0.4c-1.2,0-2.3,0.3-3.3,1s-1.9,1.5-2.7,2.7v11.7H453z"
			/>
		<path fill="#F2F2F2" d="M470.2,380.2v14.2h0.7c0.1,0,0.2,0,0.3,0c0.1,0,0.3-0.1,0.4-0.3l7.3-6.5c0.1-0.1,0.2-0.1,0.3-0.2
			s0.2-0.1,0.3-0.1h0.3l-7.8,6.8c-0.1,0.1-0.3,0.2-0.4,0.3c0.1,0,0.3,0.1,0.4,0.2c0.1,0.1,0.2,0.1,0.3,0.2l8.2,7.9h-0.3
			c-0.1,0-0.2,0-0.2,0c-0.1,0-0.1-0.1-0.2-0.2l-7.7-7.5c-0.1-0.1-0.2-0.2-0.2-0.2c-0.1-0.1-0.2-0.1-0.3-0.1c-0.1,0-0.2-0.1-0.3-0.1
			s-0.2,0-0.4,0h-0.6v8.2h-0.4v-22.7H470.2z"/>
		<path fill="#F2F2F2" d="M485.2,380.2v22.7h-0.4v-22.7H485.2z"/>
		<path fill="#F2F2F2" d="M496.8,387.2c0.8,0,1.6,0.1,2.3,0.4s1.3,0.7,1.8,1.3c0.5,0.6,0.9,1.3,1.2,2.1c0.3,0.8,0.4,1.8,0.4,2.8
			c0,0.1,0,0.1-0.1,0.1c0,0-0.1,0-0.1,0h-11.9c0,0.1,0,0.3,0,0.4c0,0.1,0,0.3,0,0.4c0,1.3,0.2,2.4,0.5,3.4c0.3,1,0.7,1.8,1.3,2.5
			c0.6,0.7,1.2,1.2,2,1.5c0.8,0.3,1.7,0.5,2.6,0.5c0.9,0,1.6-0.1,2.2-0.3c0.6-0.2,1.1-0.4,1.6-0.6c0.4-0.2,0.7-0.4,0.9-0.6
			c0.2-0.2,0.4-0.3,0.4-0.3c0,0,0.1,0,0.1,0.1l0.1,0.1c-0.2,0.2-0.4,0.4-0.8,0.7s-0.8,0.5-1.2,0.7s-1,0.4-1.6,0.5
			c-0.6,0.1-1.1,0.2-1.7,0.2c-1.1,0-2-0.2-2.9-0.6s-1.6-0.9-2.1-1.6c-0.6-0.7-1-1.6-1.3-2.6c-0.3-1-0.5-2.2-0.5-3.5
			c0-1.1,0.2-2.2,0.5-3.1c0.3-0.9,0.7-1.7,1.3-2.4s1.3-1.2,2.1-1.6C494.8,387.4,495.7,387.2,496.8,387.2z M496.8,387.5
			c-0.9,0-1.8,0.1-2.5,0.4c-0.7,0.3-1.4,0.7-1.9,1.3c-0.5,0.5-1,1.2-1.3,2s-0.5,1.6-0.6,2.5h11.7c0-1-0.1-1.9-0.4-2.7
			c-0.3-0.8-0.7-1.4-1.1-1.9s-1.1-0.9-1.7-1.2C498.3,387.7,497.5,387.5,496.8,387.5z"/>
		<path fill="#F2F2F2" d="M515.2,388.8c0,0.1-0.1,0.1-0.2,0.1c-0.1,0-0.2-0.1-0.4-0.2c-0.2-0.1-0.4-0.3-0.7-0.5
			c-0.3-0.2-0.7-0.3-1.2-0.5c-0.5-0.1-1.1-0.2-1.7-0.2c-0.7,0-1.2,0.1-1.8,0.3c-0.5,0.2-1,0.5-1.4,0.8c-0.4,0.3-0.7,0.7-0.9,1.1
			s-0.3,0.9-0.3,1.4c0,0.6,0.1,1,0.4,1.4c0.3,0.4,0.6,0.7,1,0.9c0.4,0.3,0.9,0.5,1.5,0.7c0.5,0.2,1.1,0.4,1.7,0.5
			c0.6,0.2,1.1,0.4,1.7,0.6s1,0.4,1.5,0.7c0.4,0.3,0.8,0.7,1,1.1s0.4,1,0.4,1.6s-0.1,1.2-0.3,1.8c-0.2,0.6-0.6,1-1,1.4s-1,0.7-1.6,1
			c-0.6,0.2-1.3,0.4-2.1,0.4c-0.6,0-1.1,0-1.5-0.1c-0.4-0.1-0.8-0.2-1.2-0.4c-0.4-0.2-0.7-0.4-1-0.6c-0.3-0.2-0.6-0.5-1-0.8l0.1-0.1
			c0,0,0.1-0.1,0.1-0.1c0,0,0.1,0,0.1,0c0.1,0,0.2,0.1,0.4,0.3s0.5,0.4,0.8,0.6c0.3,0.2,0.8,0.4,1.3,0.6c0.5,0.2,1.2,0.3,1.9,0.3
			c0.8,0,1.4-0.1,2-0.3s1.1-0.5,1.5-0.9c0.4-0.4,0.7-0.8,0.9-1.3c0.2-0.5,0.3-1.1,0.3-1.6c0-0.6-0.1-1.1-0.4-1.5
			c-0.3-0.4-0.6-0.7-1-1c-0.4-0.3-0.9-0.5-1.5-0.7c-0.5-0.2-1.1-0.4-1.7-0.5c-0.6-0.2-1.1-0.3-1.7-0.5c-0.5-0.2-1-0.4-1.5-0.7
			c-0.4-0.3-0.8-0.6-1-1c-0.3-0.4-0.4-0.9-0.4-1.5c0-0.5,0.1-1,0.3-1.5c0.2-0.5,0.6-0.9,1-1.2s0.9-0.7,1.5-0.9
			c0.6-0.2,1.2-0.3,1.9-0.3c0.9,0,1.6,0.1,2.3,0.4S514.6,388.2,515.2,388.8L515.2,388.8z"/>
		<path fill="#F2F2F2" d="M532.1,387.2c1.1,0,2,0.2,2.9,0.6c0.8,0.4,1.5,0.9,2.1,1.6c0.6,0.7,1,1.5,1.3,2.5c0.3,1,0.4,2.1,0.4,3.3
			s-0.1,2.3-0.4,3.3c-0.3,1-0.7,1.8-1.3,2.5s-1.3,1.2-2.1,1.6s-1.8,0.6-2.9,0.6c-1.1,0-2.1-0.2-2.9-0.6s-1.5-0.9-2.1-1.6
			s-1-1.5-1.3-2.5c-0.3-1-0.4-2.1-0.4-3.3s0.1-2.3,0.4-3.3c0.3-1,0.7-1.8,1.3-2.5c0.6-0.7,1.3-1.2,2.1-1.6
			C530,387.4,531,387.2,532.1,387.2z M532.1,402.8c1,0,2-0.2,2.8-0.6c0.8-0.4,1.5-0.9,2-1.5s0.9-1.5,1.2-2.4c0.3-0.9,0.4-2,0.4-3.1
			s-0.1-2.2-0.4-3.1s-0.7-1.7-1.2-2.4s-1.2-1.2-2-1.6c-0.8-0.4-1.7-0.6-2.8-0.6c-1.1,0-2,0.2-2.8,0.6c-0.8,0.4-1.5,0.9-2,1.6
			s-0.9,1.5-1.2,2.4s-0.4,2-0.4,3.1s0.1,2.2,0.4,3.1c0.3,0.9,0.7,1.7,1.2,2.4s1.2,1.2,2,1.5C530.1,402.6,531,402.8,532.1,402.8z"/>
		<path fill="#F2F2F2" d="M543.1,402.9v-15.4h0.1c0.1,0,0.2,0.1,0.2,0.3l0,3c0.4-0.5,0.8-1,1.2-1.4s0.9-0.8,1.4-1.1s1.1-0.5,1.6-0.7
			c0.6-0.2,1.2-0.2,1.8-0.2c1.7,0,3,0.5,3.8,1.5c0.8,1,1.3,2.4,1.3,4.3v9.9h-0.4V393c0-0.9-0.1-1.6-0.3-2.3
			c-0.2-0.7-0.5-1.3-0.9-1.7c-0.4-0.5-0.9-0.8-1.5-1.1c-0.6-0.2-1.3-0.4-2.1-0.4c-1.2,0-2.3,0.3-3.3,1s-1.9,1.5-2.7,2.7v11.7H543.1z
			"/>
		<path fill="#F2F2F2" d="M569.7,403.2c-0.9,0-1.6-0.2-2.1-0.7s-0.8-1.3-0.8-2.4v-11.5h-2.6c-0.1,0-0.2-0.1-0.2-0.2v-0.1l2.8-0.1
			l0.1-6.2c0-0.1,0-0.1,0-0.1s0.1-0.1,0.1-0.1h0.1v6.4h5.3v0.3h-5.3V400c0,0.5,0.1,1,0.2,1.3c0.1,0.4,0.3,0.7,0.5,0.9
			c0.2,0.2,0.5,0.4,0.8,0.5c0.3,0.1,0.6,0.2,1,0.2c0.4,0,0.8-0.1,1.2-0.2s0.6-0.3,0.8-0.4c0.2-0.2,0.4-0.3,0.6-0.4
			c0.1-0.1,0.2-0.2,0.3-0.2c0,0,0.1,0,0.1,0.1l0.1,0.1c-0.2,0.2-0.3,0.4-0.6,0.6c-0.2,0.2-0.5,0.3-0.7,0.5c-0.3,0.1-0.6,0.2-0.9,0.3
			C570.3,403.1,570,403.2,569.7,403.2z"/>
		<path fill="#F2F2F2" d="M582.2,387.2c1.1,0,2,0.2,2.9,0.6c0.8,0.4,1.5,0.9,2.1,1.6c0.6,0.7,1,1.5,1.3,2.5c0.3,1,0.4,2.1,0.4,3.3
			s-0.1,2.3-0.4,3.3c-0.3,1-0.7,1.8-1.3,2.5s-1.3,1.2-2.1,1.6s-1.8,0.6-2.9,0.6c-1.1,0-2.1-0.2-2.9-0.6s-1.5-0.9-2.1-1.6
			s-1-1.5-1.3-2.5c-0.3-1-0.4-2.1-0.4-3.3s0.1-2.3,0.4-3.3c0.3-1,0.7-1.8,1.3-2.5c0.6-0.7,1.3-1.2,2.1-1.6
			C580.1,387.4,581.1,387.2,582.2,387.2z M582.2,402.8c1,0,2-0.2,2.8-0.6c0.8-0.4,1.5-0.9,2-1.5s0.9-1.5,1.2-2.4
			c0.3-0.9,0.4-2,0.4-3.1s-0.1-2.2-0.4-3.1s-0.7-1.7-1.2-2.4s-1.2-1.2-2-1.6c-0.8-0.4-1.7-0.6-2.8-0.6c-1.1,0-2,0.2-2.8,0.6
			c-0.8,0.4-1.5,0.9-2,1.6s-0.9,1.5-1.2,2.4s-0.4,2-0.4,3.1s0.1,2.2,0.4,3.1c0.3,0.9,0.7,1.7,1.2,2.4s1.2,1.2,2,1.5
			C580.2,402.6,581.1,402.8,582.2,402.8z"/>
		<path fill="#F2F2F2" d="M593.3,408.6v-21.1h0.1c0.1,0,0.2,0.1,0.2,0.3l0,2.9c0.7-1.1,1.5-1.9,2.5-2.5c1-0.6,2.1-0.9,3.2-0.9
			c2,0,3.5,0.6,4.6,1.9c1.1,1.3,1.6,3.3,1.6,5.9c0,1.1-0.1,2.2-0.4,3.1c-0.3,1-0.7,1.8-1.3,2.5c-0.6,0.7-1.3,1.3-2.1,1.7
			c-0.8,0.4-1.8,0.6-2.9,0.6c-2.3,0-4-0.9-5.1-2.8v8.2H593.3z M599.4,387.5c-1.1,0-2.2,0.3-3.2,1c-1,0.6-1.8,1.5-2.5,2.7v8.7
			c0.7,1.1,1.4,1.8,2.3,2.3c0.8,0.4,1.8,0.7,2.9,0.7c1.1,0,2-0.2,2.8-0.6s1.5-0.9,2-1.6c0.5-0.7,0.9-1.5,1.2-2.4s0.4-1.9,0.4-3
			c0-2.6-0.5-4.5-1.5-5.7C602.7,388.2,601.3,387.5,599.4,387.5z"/>
		<path fill="#F2F2F2" d="M612.5,392.9c0-2.4-0.3-4.8-1-7c-0.7-2.2-1.7-4.3-3.1-6.4c0-0.1-0.1-0.1-0.1-0.1c0-0.1,0-0.1,0.1-0.1
			l0.2-0.1c0.8,1.2,1.5,2.4,2.1,3.6c0.6,1.1,1,2.3,1.3,3.4s0.6,2.2,0.7,3.3c0.1,1.1,0.2,2.3,0.2,3.4c0,1.2-0.1,2.3-0.2,3.4
			c-0.1,1.1-0.4,2.2-0.7,3.3c-0.3,1.1-0.8,2.2-1.3,3.4c-0.6,1.1-1.2,2.3-2.1,3.6l-0.2-0.1c0,0-0.1-0.1-0.1-0.1s0-0.1,0.1-0.1
			c1.4-2.1,2.4-4.2,3.1-6.4C612.2,397.7,612.5,395.4,612.5,392.9z"/>
	</g>
</g>
</svg>
