<?xml version="1.0" encoding="utf-8"?>
<!-- Generator: Adobe Illustrator 18.1.1, SVG Export Plug-In . SVG Version: 6.00 Build 0)  -->
<!DOCTYPE svg PUBLIC "-//W3C//DTD SVG 1.1//EN" "http://www.w3.org/Graphics/SVG/1.1/DTD/svg11.dtd">
<svg version="1.1" id="Layer_1" xmlns="http://www.w3.org/2000/svg" xmlns:xlink="http://www.w3.org/1999/xlink" x="0px" y="0px"
	 viewBox="0 0 960 640" enable-background="new 0 0 960 640" xml:space="preserve">
<g>
	<path fill="#F2F8F9" d="M804.9,254.5c13.2,11,24.8,31.3,13.2,43.9c-2.8,3-6.7,5.1-8.5,8.8c-3.6,7.1,2.2,15.1,7.2,21.3
		c5,6.2,9.3,15.8,3.7,21.4c-2.5,2.5-6.3,3.3-9.3,5.2c-6.7,4.2-8.5,13.6-6.7,21.3s6.3,14.5,9.8,21.7c14.5,30.2,9.1,65.7,3.5,98.7
		c-1.1,6.5-2.5,13.6-7.5,17.9c-4.4,3.7-10.5,4.5-16.2,4.8c-39.1,2.1-78.2-11.2-117.1-6.9c-5.8,0.6-11.7,1.8-16.5,5
		c-6.4,4.4-9.8,11.9-14.7,18c-10.7,13.4-28.2,19.1-44.8,23.1c-108.4,25.9-221.7,4.3-331-17.4c-8.2-1.6-16.9-3.5-22.6-9.6
		c-14.6-15.5,1.6-43.3-9.5-61.6c-7.7-12.7-24.9-15-39.8-15.5c-21.2-0.7-47.9-4.7-53.5-25.2c-5.1-18.9,12.9-36.4,14.3-55.9
		c1.5-21.6-17.3-43.9-7.1-63c7.7-14.4,28.6-18.5,34.7-33.6c4.1-10.2-0.2-21.9-6.7-30.7c-6.6-8.8-15.3-15.8-21.8-24.5
		c-3-4.1-5.7-8.9-5.1-14c0.5-4.3,3.3-8,6.4-11.1c16.7-17.1,41.6-22.5,63.5-32.1c7.3-3.2,15-7.6,17.4-15.2c1.4-4.4,0.7-9.2,1.6-13.8
		c3-15.5,21.5-21.7,37.1-23.9c24.3-3.5,49.1-4.3,73.6-2.5c15.1,1.1,32.8,2.3,42.9-9c2.8-3.1,4.7-7,8-9.7c4.2-3.5,10-4.2,15.4-4.8
		c46.3-4.7,93.3-2.8,139,5.6c17.3,3.2,37.7,10.5,41.2,27.8c0.6,3.1,0.7,6.4,2.4,8.9c2.8,4,8.4,4.5,13.3,4.8
		c44.1,3.1,82.7,29.4,118.8,54.7c6.2,4.3,12.7,9,15.9,15.8c3.2,6.8,1.8,16.5-5,19.9C766.6,229.3,787.4,239.9,804.9,254.5z"/>
	<g>
		<linearGradient id="SVGID_1_" gradientUnits="userSpaceOnUse" x1="486.1704" y1="486.272" x2="486.1704" y2="99.0598">
			<stop  offset="3.309729e-03" style="stop-color:#008FAA;stop-opacity:0.8"/>
			<stop  offset="0.6215" style="stop-color:#8FD4DE;stop-opacity:0.924"/>
			<stop  offset="1" style="stop-color:#E9FFFE"/>
		</linearGradient>
		<path fill="url(#SVGID_1_)" d="M285.3,127.7c47.1-1.5,94.1-3,141.2-4.4c1.1-7.1-2.5-14.7-8.7-18.3c50.7-11.6,105.2-5.9,152.5,15.8
			c-6.5,4.4-12.9,8.7-19.4,13.1c4.3,8.9,15.4,11.9,25.1,14c38.1,8.3,75.7,18.9,112.6,31.7c11.4,4,23.6,8.8,30.2,18.9
			c-10.5-4.3-19.7,11.7-14.6,21.8s17,14.5,27.6,18.5c22.5,8.4,44.2,19.1,64.6,31.8c2.7,1.7,5.6,3.7,6.8,6.7
			c1.9,5.1-1.9,10.5-6.4,13.6s-9.8,5.1-13.3,9.2c-5.5,6.6-4.3,16.9,0.5,24.1c4.8,7.2,12.3,11.9,19.6,16.5
			c-9.3,3.5-18.8,7.2-26.3,13.8s-12.7,16.6-10.7,26.4c3.7,18.1,28.2,24.3,35.8,41.2c5.3,11.6,1.2,25.1-2.9,37.2
			c-1.7,5.2-3.7,10.7-8.2,13.7c-3.9,2.7-8.9,3-13.6,3.2c-72.7,3.3-145.5,6.6-218.2,9.8c-7.3,0.3-14.9,0.6-21.7-2.1
			c-8.4-3.4-14.4-11-22-16c-15.8-10.4-36.3-8.7-55.1-7c-51.3,4.5-102.8,5.8-154.2,3.9c-3.4-0.1-7.3-0.5-9.3-3.3
			c-3.1-4.4,1-10.2,1-15.5c-0.2-10.7-14.9-13.1-25.6-12.4c-28.8,1.9-57.7,1.3-86.4-1.6c-6.2-0.6-14.2-3.1-14.3-9.4
			c-0.1-7.1,9.3-9.2,15.2-13.2c10.3-7,8.2-25.8-3.4-30.3c7.3-1.1,4.3-12.3-0.3-18.1c-12.2-15.4-22.4-38.3-9.7-53.3
			c7.5-8.8,20-10.9,30.6-15.4c10.6-4.5,21.1-15.7,16.6-26.4c-1.4-3.4-4.1-6-6.8-8.5c-10.6-10.2-21.3-20.4-31.9-30.7
			c-5.3-5.1-11.1-12.3-8.1-19c1.4-3.3,4.7-5.4,7.8-7.2c11.5-6.6,24.1-11.2,37.2-13.8c9.9-1.9,20.1-2.7,29.4-6.4
			c9.3-3.7,18-11.4,19.3-21.3c1.3-9.3-3.4-20.6,3.3-27.2C274.5,128.2,280.1,127.9,285.3,127.7z"/>
		<path fill="#DB6E6E" d="M350.8,397.5c1.8,11.3,4,22.6,6.6,33.8c1.4,5.8,3,11.8,6.8,16.3c0.8,1,1.8,1.9,3.1,2.1
			c2.8,0.5,4.8-2.7,5.8-5.3c2.9-7.4,5.4-14.9,7.4-22.6c3.5,6.1,7,12.1,10.5,18.2c1.3,2.2,2.7,4.5,4.7,6.1s5,2.2,7.3,0.9
			c2.1-1.3,2.9-3.8,3.6-6.2c5.8-20.2,11.1-41.3,8.2-62.2c-11.5,15.6-33.1,20.2-52.4,18.5C358.6,396.8,354.5,396.3,350.8,397.5z"/>
		<ellipse fill="#DB6E6E" cx="373.5" cy="291.3" rx="95.1" ry="94.8"/>
		<path fill="#95996B" d="M667.5,332.8c6.5,41.2,10,82.9,10.4,124.7c0,2.8-0.4,6.3-3.1,7.2c-2.9,1-5.4-2.1-7-4.7
			c-4.8-8.2-9.6-16.3-14.4-24.5c-3.1,9.5-6.2,18.9-9.3,28.4c-1.5,1.6-3.9-0.9-4.6-2.9c-6.9-17.9-13.8-35.8-20.7-53.7
			c-0.3-0.7-0.5-1.4-0.6-2.2c-0.1-2,1.6-3.6,3.1-5C641.8,381.8,657.8,358.5,667.5,332.8z"/>
		<ellipse fill="#DB6E6E" cx="368.1" cy="196.5" rx="55.7" ry="55.5"/>
		<path fill="#95996B" d="M671,312.4c0,60.8-56.1,94.1-113.8,98.7c-60.8,4.8-107.2-37.9-107.2-98.7s49.5-110.1,110.5-110.1
			S671,251.6,671,312.4z"/>
		<ellipse fill="#95996B" cx="496" cy="222.3" rx="55.7" ry="55.5"/>
		<g>
			<path fill="#626841" d="M454,248.6c4.8,1.6,15.3-0.5,17-6c0.5-1.7-1.2-3.5-2.9-2.9c-2.5,0.8-4.3,2.6-7,3.4
				c-2.5,0.7-5.4,1.1-7.5,2.7C452.6,246.6,452.7,248.2,454,248.6L454,248.6z"/>
		</g>
		<g>
			<path fill="#626841" d="M492.2,231.4c6.8,1.9,17.4-0.1,20-7.7c0.9-2.5-2.4-5.1-4.6-3.6c-2.3,1.6-3.9,3.9-6.4,5.5
				c-2.6,1.7-5.4,2.6-8.6,2.7C490.9,228.4,490.5,230.9,492.2,231.4L492.2,231.4z"/>
		</g>
		<ellipse fill="#473A2B" cx="361.5" cy="174.9" rx="6.4" ry="9.7"/>
		<ellipse fill="#473A2B" cx="325.2" cy="174.9" rx="5.6" ry="8.6"/>
		<ellipse fill="#FFFFFF" cx="362.4" cy="170" rx="3.3" ry="4"/>
		<ellipse fill="#FFFFFF" cx="325.8" cy="171.1" rx="2.9" ry="3.5"/>
		<path fill="#6B3D2B" d="M335.3,203.9c1.1-0.1,2.3-0.1,3.3-0.7c0.6-0.4,1-0.9,1.4-1.5c2-3.4,0.9-8.1-2-10.8c-2.9-2.7-7.1-3.6-11-3
			c-3.9,0.6-7.5,2.4-10.7,4.7c-6.4,4.3-11.7,10.1-15.6,16.8c-2.1,3.6-3.7,7.6-3.6,11.8c0.1,1.7,1.1,3.9,2.8,3.5
			c0.8-0.2,1.2-0.9,1.7-1.5C309,212.1,321.9,204.8,335.3,203.9z"/>
		<g>
			<path fill="#847667" d="M808.5,500.1c-25.3-17.4-59.7-13.4-87.8-25.7c-18.2-8-32.6-22.3-48.8-33.8c-10-7.1-20.8-13.2-32-18.2
				c-3.1-1.4-6.3-2.7-9.7-2.6c-4.3,0-8.3,2.3-12.1,4.3c-38.8,20.7-85.1,27.2-128.1,18c-4.7-1-9.7-2.4-12.8-6
				c-3.2-3.6-4.1-9.1-8-11.8c-5-3.4-11.7-0.8-17.7-0.8c-12.4,0.1-22.7-14.8-17.4-26c-59.4-1.3-119,5.7-176.5,20.8
				c-14.7,3.9-29.9,8.3-44.8,5.4c-5.8-1.1-11.3-3.3-16.8-5.5c-10.4-4.2-20.8-8.4-31.3-12.5c1.9-3.8,7.1-3.8,11.3-4.2
				c4.2-0.4,9.4-3.7,7.8-7.6c-0.9-2.2-3.5-3-5.7-4c-6.9-3.3-11.1-11.4-9.8-19c20.1,5.1,40.6,10.1,61.4,9.5
				c30.8-1,60.7-14.8,91.4-11.6c13.4,1.4,26.4,6,39.9,5.8c18.9-0.2,36.7-9.7,55.5-10c35.4-0.6,63.1,30.1,96.7,41
				c22.9,7.5,48,5.5,71.3-0.6c23.3-6,45.4-16,68-24.4c7.7-2.9,16-5.7,24.1-3.9c7,1.5,12.8,6.3,18.6,10.4
				c15.7,11.2,33.6,19.2,52.3,23.4c-3.5,2.4-7.1,4.7-10.6,7.1c21.1,18,46.6,30.8,73.7,37c-6.7,6.4-14.1,14.8-11.8,23.8
				C800.8,486.2,809.7,492.1,808.5,500.1z"/>
			<linearGradient id="SVGID_2_" gradientUnits="userSpaceOnUse" x1="484.8631" y1="477.4416" x2="492.834" y2="363.4523">
				<stop  offset="0" style="stop-color:#3F1C00"/>
				<stop  offset="1" style="stop-color:#000000;stop-opacity:0"/>
			</linearGradient>
			<path fill="url(#SVGID_2_)" d="M808.5,500.1c-25.3-17.4-59.7-13.4-87.8-25.7c-18.2-8-32.6-22.3-48.8-33.8
				c-10-7.1-20.8-13.2-32-18.2c-3.1-1.4-6.3-2.7-9.7-2.6c-4.3,0-8.3,2.3-12.1,4.3c-38.8,20.7-85.1,27.2-128.1,18
				c-4.7-1-9.7-2.4-12.8-6c-3.2-3.6-4.1-9.1-8-11.8c-5-3.4-11.7-0.8-17.7-0.8c-12.4,0.1-22.7-14.8-17.4-26
				c-59.4-1.3-119,5.7-176.5,20.8c-14.7,3.9-29.9,8.3-44.8,5.4c-5.8-1.1-11.3-3.3-16.8-5.5c-10.4-4.2-20.8-8.4-31.3-12.5
				c1.9-3.8,7.1-3.8,11.3-4.2c4.2-0.4,9.4-3.7,7.8-7.6c-0.9-2.2-3.5-3-5.7-4c-6.9-3.3-11.1-11.4-9.8-19c20.1,5.1,40.6,10.1,61.4,9.5
				c30.8-1,60.7-14.8,91.4-11.6c13.4,1.4,26.4,6,39.9,5.8c18.9-0.2,36.7-9.7,55.5-10c35.4-0.6,63.1,30.1,96.7,41
				c22.9,7.5,48,5.5,71.3-0.6c23.3-6,45.4-16,68-24.4c7.7-2.9,16-5.7,24.1-3.9c7,1.5,12.8,6.3,18.6,10.4
				c15.7,11.2,33.6,19.2,52.3,23.4c-3.5,2.4-7.1,4.7-10.6,7.1c21.1,18,46.6,30.8,73.7,37c-6.7,6.4-14.1,14.8-11.8,23.8
				C800.8,486.2,809.7,492.1,808.5,500.1z"/>
		</g>
		<path fill="#FFFFFF" d="M609.1,305.1c14.8,15,36.5,23,57.6,21.3c0.9,5.3-1.1,10.3-2.4,15.5c-1.1,4.4-3.7,9.1-6.2,12.9
			c-8.2,12.4-13.5,24.5-24.2,34.8c-10.7,10.3-24.2,18.3-38.9,19.9c-7.9,0.9-15.8-0.1-23.7,0.8c-13.1,1.5-26,8.2-39,5.6
			c-7.3-1.4-13.7-5.7-19.9-9.8c-12.2-8.2-24.8-16.8-32.7-29.2c-7.4-11.6-10-25.5-11.7-39.1c1.2,0.4,2.3,0.8,3.5,1.2
			c0.5-5.7-0.6-11.6-3.3-16.7c3.2-0.4,3.9-4.6,4.1-7.8c1.5-23.5,18.6-44.3,40.1-53.9c6.3-2.8,13.3-4.9,20.2-4.1
			c9.6,1,18.7,7.1,28.1,5.4c2.5,10.5,8.2,20.2,16.3,27.3c2.5,2.2,6.8,4.1,8.9,1.4c3.7,5.7,8.4,10.6,13.9,14.6
			c1.5,1.1,3.1,2.1,4.9,2.3C606.5,307.8,608.6,306.9,609.1,305.1z"/>
		<path fill="#3F422A" d="M484.2,247c-2.1,1.6-3.1,4.5-3,7.2c0.1,2.7,1,5.3,2.1,7.8c2.6,6.3,5.7,12.5,10.3,17.6s10.6,9.1,17.4,10.1
			c-0.2-4.4-2.4-8.4-4.3-12.4c-2.2-4.8-4-9.7-5.3-14.8c-1.2-4.5-2.1-9.2-4.9-12.8C493.4,246.2,487.8,244.2,484.2,247z"/>
		<path fill="#DB6E6E" d="M288.4,309.5c-1.6-8.1-1.4-16.5-1-24.8c0.6-10.6,1.7-21.4,5.7-31.3c5.3-12.9,15.3-23.2,21.4-35.7
			c-7,4.1-13.7,8.9-19.8,14.3c-2.6,2.3-5.3,5.1-5.1,8.5c1-0.1,1.9-0.2,2.9-0.3c-2.6,0.6-4.5,3.3-4,6c-5.4,2.7-10,6.9-13,12.1
			c-1.8,3.1-3.1,6.8-2.1,10.3c1,3.5,5.2,6.1,8.4,4.4c-4.3,1.6-6.7,7.1-5,11.3c-3.1,7.1-4.3,16.2,0.1,22.6c0.7,1.1,2.8,3.5,3.2,2.3
			c-0.3,7.7,2.1,13.7,3.7,21.3c0.2,0.9,1.1,2,1.7,1.3c1.4,6.4,4,12.5,7.7,17.9c1.2,1.8,3.2,3.7,5.2,2.9c1.1,2.8,3.3,5.1,5.4,7.2
			c1.1,1.1,2.1,2.2,3.2,3.3c2.9,2.9,5.8,5.9,9.4,7.8c3.6,1.9,8.1,2.7,11.8,1c-10.3-9.9-19.4-21.1-27-33.2
			C295.4,329.6,290.5,320,288.4,309.5z"/>
		<g>
			<path fill="#FFFFFF" d="M308.6,347c5.7,10.4,13,21.1,24.3,24.7c6.8,2.2,14.2,1.4,21.2,2.4c5.7,0.8,11.1,2.6,16.8,3.4
				c15.2,2.1,30.5-3.5,44-10.8c6.7-3.6,13.5-8,17.1-14.8c1.1-2,1.8-4.7,0.4-6.6c-0.9-1.2-2.5-1.7-3.9-2.3c-7.8-3-14.3-8.8-19.4-15.5
				c-5-6.7-8.8-14.3-12.5-21.8c0.4,2.3,0.9,4.6,0.1,6.8c-0.7,2.2-3,4.1-5.2,3.5c-1.2-0.3-2.1-1.2-2.9-2
				c-9.9-10.2-15.3-24.5-14.6-38.7c-1.1,2-4.2,0.3-5.4-1.6c-3.6-5.6-4.8-12.7-3.2-19.2c-4.2,0.6-6.5-4.8-6.4-9
				c0.3-10.2,7.3-13.6,4.4-23.4c-10.5,8-25.3,4.4-38.1,1.5c-1.3-0.3-2.7-0.7-4-0.5c-1,0.1-1.9,0.6-2.8,1c-8.7,4.5-15.1,13-17.1,22.6
				c1,0.6,2.4,0.2,3-0.8c-11.8,13.5-15.8,32.7-13.8,50.5S299.9,331.3,308.6,347z"/>
			<g>
				<path fill="#E8B8B8" d="M329.6,322c-0.1,2.4,0.4,6.9,3.3,7.8c3.2,1,3.3-1.9,4.8-3.6c-0.8,0-1.7,0-2.5,0c5.2,4,11.8,7.6,18,3.5
					c5.2-3.5,7.4-12,3-16.9c-1.5-1.6-5-0.4-4.7,1.9c0.5,4.1,2.7,8-1.1,11.4c-4.3,3.8-9.4-0.1-13.1-2.7c-0.8-0.6-1.9-0.1-2.4,0.6
					c-0.7,1-0.8,2.4-2,1.6c-0.9-0.6-1.6-3.1-2.4-4.1C330.2,321.2,329.6,321.6,329.6,322L329.6,322z"/>
			</g>
		</g>
		<path fill="#95996B" d="M622.7,238.3c-1,4.4,0.2,9.1,1.7,13.4c4.2,11.9,11,22.8,19.8,31.9c5.5,5.6,11.8,10.6,16,17.3
			c3.7,6,5.5,13,5.9,20c0.1,1.2,0.2,2.5,1,3.4c0.6,0.7,1.4,1,2.3,1.3c8.5,3.2,17.1,6.2,25.7,9.1c1.2-1.2,0.2-3.2-0.7-4.5
			c-7.5-10.6-15-21.2-22.5-31.8c-1.3-1.9-2.7-3.8-3.6-5.9c-1.2-2.8-1.7-6-2.1-9c-1.5-9.4-3.6-18.8-8.1-27.2
			c-4.5-8.4-11.8-15.6-20.9-18.4c-3.4-1-6.9-1.5-10.4-1.9c-1-0.1-2.2-0.2-3,0.5C623.1,236.9,622.9,237.6,622.7,238.3z"/>
		<path fill="#95996B" d="M447.2,311.3c0.4,1.4,1,2.7,1.1,4.1c0.1,1.6-0.4,3.1-0.6,4.7c-1.9,10,4.2,19.8,4.7,29.9
			c0.2,3.2-0.2,6.6,1.1,9.5c2.9,6.4,11.8,7.2,16.5,12.4c-7.7-11.3-10.4-25.2-11.9-38.8c-1.2-10.9-1.8-21.9-1.7-32.9
			c0.1-8.6,0.6-17.6,4.7-25.2c1.4-2.7,3.4-5.4,3.3-8.4c-5.1,1.9-9.7,4.9-13.5,8.8c-1.5,1.5-2.9,3.3-2.7,5.4c0.1,2.1,2.8,3.9,4.4,2.6
			c-4,3-6.6,8-6.6,13.1c1.6-0.3,3.3,0.7,3.9,2.2C446.9,302,445.9,307,447.2,311.3z"/>
		<g>
			<g>
				<path fill="#6B3D2B" d="M328.1,370.3c-4.1-1.7-8.1-1.2-12,1.1c-3.8,2.2-7.7,6.5-7.4,11.2c0.2,3.1,4.5,5.8,6.8,2.8
					c2-2.5,3-5.5,5.3-7.9c2-2.1,4.8-4,7.5-5.2C329.4,372,328.9,370.7,328.1,370.3L328.1,370.3z"/>
			</g>
			<g>
				<path fill="#6B3D2B" d="M332.6,369.9c-2.2-4.4-8-0.4-9.6,2.3c-2.7,4.5-3.7,10.6-2.4,15.7c1.3,5.1,7.9,3.4,8.5-1.1
					c0.6-4.6-0.1-10.3,3.1-14.1C333,371.8,333.1,370.9,332.6,369.9L332.6,369.9z"/>
			</g>
			<g>
				<path fill="#6B3D2B" d="M379.8,376.7c-2.5-1.1-5.3,1.2-6.7,3.2c-1.9,2.7-2.6,5.7-2,9c0.8,4.2,7.7,3.3,7.5-1
					c-0.1-2.3-0.1-4.2,0.7-6.3C379.8,380.5,381.7,377.6,379.8,376.7L379.8,376.7z"/>
			</g>
			<g>
				<path fill="#6B3D2B" d="M378.5,377.3c-0.6,2.5-0.3,4.8,0.2,7.3c0.5,2.7,0.7,5.5,2.1,7.9c1.5,2.7,6.6,1.7,6.2-1.7
					c-0.4-2.8-1.7-5.2-2.7-7.8c-0.9-2.3-1.8-4.4-3.4-6.4C380.1,376,378.7,376.4,378.5,377.3L378.5,377.3z"/>
			</g>
			<g>
				<path fill="#6B3D2B" d="M381,379.1c5.9,0.4,11,7.4,11.1,13.1c0.1,3.5,4.9,4,6,0.8c1.9-5.5-2.3-10.3-6.1-13.8
					c-3-2.7-8.3-6.2-11.9-2.4C379.2,377.6,379.9,379,381,379.1L381,379.1z"/>
			</g>
		</g>
		<g>
			<g>
				<path fill="#3F422A" d="M519.7,409c-5.7,0.2-11.1,6.8-10.8,12.4c0.1,1.3,0.7,2.8,2,3.4c1.7,0.8,3.5,0.7,4.8-0.6
					c1.4-1.4,1.1-3.2,1.5-5c0.7-2.9,2.6-4.9,4.4-7.1C522.5,410.9,521.1,408.9,519.7,409L519.7,409z"/>
			</g>
			<g>
				<path fill="#3F422A" d="M519.3,411.1c-1.3,3.9-1.3,8.7-0.2,12.7c1.1,4,6.8,2.3,6.2-1.7c-0.6-3.6-1.2-7.3-1.9-11
					C522.9,408.9,519.9,409.3,519.3,411.1L519.3,411.1z"/>
			</g>
			<g>
				<path fill="#3F422A" d="M521.6,412.2c2.1,2.2,4.6,3.2,5.9,6.2c1.4,3,0.6,5.6,1.1,8.7c0.5,2.8,4.5,2.9,5.8,0.8
					c2.3-3.7,0.3-9.4-2.2-12.5c-2.1-2.7-6.4-6.1-10.1-4.8C521.3,410.7,521,411.6,521.6,412.2L521.6,412.2z"/>
			</g>
			<g>
				<path fill="#3F422A" d="M593.6,407.4c-3.4,0.4-6.8,2.5-8.7,5.3c-2,2.9-4.3,8.6-1,11.3c1.3,1.1,3.6,1.5,4.8,0c2-2.4,1-5,1.8-7.8
					c0.8-2.7,2.1-4.4,4.1-6.3C595.5,409.1,594.9,407.2,593.6,407.4L593.6,407.4z"/>
			</g>
			<g>
				<path fill="#3F422A" d="M595.1,406.5c-2.7,2.2-4,5.3-4.6,8.6c-0.5,3.1-0.8,7.7,2.6,9.4c1.4,0.7,3,0.4,3.9-1
					c1.6-2.4,0.3-5.3,0.1-7.9c-0.2-2.7,0.2-5.4,0.5-8.1C597.6,406.2,596,405.8,595.1,406.5L595.1,406.5z"/>
			</g>
			<g>
				<path fill="#3F422A" d="M596.7,409.3c0.3,1.8,1.7,3.5,2.4,5.2c0.7,1.8,1.2,3.7,1.6,5.6c0.9,4,7.7,3.2,7.3-1
					c-0.3-2.8-1.1-5.3-2.7-7.7c-1.3-2-3.3-4.5-5.7-5C597.8,406.1,596.4,407.5,596.7,409.3L596.7,409.3z"/>
			</g>
		</g>
		<g>
			<path fill="#D0D3B6" d="M507.8,375.1c-2,2.3-1.3,5.8,2,6.1c1.8,0.2,2.3-0.9,3.6-1.5c0.3-0.8,0.8-0.9,1.4-0.2
				c0.5,0.4,1.1,0.8,1.6,1.2c1.4,0.9,2.8,1.8,4.4,2.4c4.7,2.1,10.2,3,14.5-0.4c4.8-3.9,5.4-10.2,5.6-16c-1.5,0.9-3,1.7-4.5,2.6
				c5.5,4.1,12.2,8.1,19.2,5.1c6.1-2.6,7.5-9.3,7.3-15.4c-0.1-2.2-3.2-2.7-3.8-0.5c-1.1,4-2.4,9.3-7,10.3c-4.6,1.1-9.1-2.3-12.6-4.7
				c-1.9-1.3-4.5,0.4-4.5,2.6c0,3.9,0.3,9.2-3.1,12c-3.4,2.8-8.6,0.5-11.9-1.1c-1.8-0.9-3.9-3.1-6.1-3c-0.7,0-1.5,0.4-2,0.9
				c-0.3,0.3-0.5,0.7-0.7,1c-0.3,1.2-0.8,1-1.6-0.4C509.8,375.1,508.4,374.4,507.8,375.1L507.8,375.1z"/>
		</g>
		<g>
			<g>
				<path fill="#D8D8D8" d="M610.9,360.8c0.1,0,0.1-0.2,0-0.2C610.7,360.6,610.7,360.8,610.9,360.8L610.9,360.8z"/>
			</g>
		</g>
		<g>
			<path fill="#D0D3B6" d="M611.1,361.7c3.6-0.9,5.7-3.6,6.9-7c-1.1,0.5-2.3,0.9-3.4,1.4c3.9,2.4,9.5-0.3,10.5-4.6
				c0.7-2.9-3.6-5-5-2.1c-1,2.1-2.2,2.6-4.3,2.4c-1.6-0.1-2.5,1.6-2.2,2.9c0.4,2.2-1.4,4.2-3.2,5.2
				C609.4,360.5,610.1,362,611.1,361.7L611.1,361.7z"/>
		</g>
		<g>
			<path fill="#888E5C" d="M555.4,246.1c0.7,17.5,6.2,38.8,23.4,47.2c1.9,0.9,3.8,1.3,5.7,2c2.4,0.8,3.4,2.9,5,4.7
				c2.9,3.1,6.1,5.8,9.9,7.6c1.9,0.9,3.9,1.6,6,2.1c1.9,0.4,3.9,0.1,5.8,0.5c2.4,0.5,4.6,2.3,6.7,3.6c2.7,1.6,5.5,3.3,8.2,4.9
				c2.9,1.7,5.5-2.7,2.6-4.5c-4.3-2.7-8.6-5.4-12.8-8.1c-3.6-2.3-7.3-1.6-11.3-2.7c-4.2-1.2-8.5-3.7-11-7.4
				c-2.3-3.5-3.5-6.1-7.5-7.9c-7.7-3.5-13.4-7.9-17.9-15.3c-5-8.4-7.2-17.8-10.6-26.9C557.3,244.7,555.4,244.7,555.4,246.1
				L555.4,246.1z"/>
		</g>
		<g>
			<path fill="#888E5C" d="M591.2,259.1c1.6,4.1,5,8.3,9.6,8.9c4.6,0.7,8.5-2.6,8.4-7.3c-1.4,0.6-2.8,1.2-4.3,1.8
				c6.2,5.2,13,9.5,20.5,12.6c5.1,2.1,15.4,7.3,20.3,2.5c4.9-4.7-1.9-14.7-4.6-19.2c-3.9-6.5-9.2-13.8-15.6-17.9
				c-3.7-2.4-7,2.7-4.4,5.7c3.7,4.3,8,7.9,11.3,12.6c1.6,2.4,3.1,4.8,4.5,7.4c0.5,0.9,2.9,6.5,3.4,6.1c-1.4,0.9-6.3-1.2-7.9-1.7
				c-2.7-0.8-5.4-1.7-8-2.8c-5.9-2.4-11.4-5.7-16.5-9.5c-1.5-1.1-3.9,0.4-3.8,2.2c0.4,4.3-4.5,3.6-6.8,2.1c-1.8-1.2-3.1-3.1-4.6-4.6
				C592.1,257.7,590.9,258.2,591.2,259.1L591.2,259.1z"/>
		</g>
		<g>
			<ellipse fill="#FFFFFF" cx="244.3" cy="217.8" rx="5.4" ry="8"/>
			<ellipse fill="#FFFFFF" cx="290" cy="244.4" rx="5.4" ry="8"/>
			<ellipse fill="#FFFFFF" cx="423.7" cy="141" rx="5.4" ry="8"/>
			<ellipse fill="#FFFFFF" cx="563" cy="196.5" rx="5.4" ry="8"/>
			<ellipse fill="#FFFFFF" cx="695.5" cy="187.7" rx="5.4" ry="8"/>
			<ellipse fill="#FFFFFF" cx="700.9" cy="364.4" rx="5.4" ry="8"/>
			<ellipse fill="#FFFFFF" cx="260.5" cy="371.1" rx="5.4" ry="8"/>
			<ellipse fill="#FFFFFF" cx="194" cy="196.5" rx="5.4" ry="8"/>
			<ellipse fill="#FFFFFF" cx="260.5" cy="295.2" rx="4.7" ry="4.5"/>
			<ellipse fill="#FFFFFF" cx="224.8" cy="352.5" rx="4.7" ry="4.5"/>
			<ellipse fill="#FFFFFF" cx="330.8" cy="429.3" rx="4.7" ry="4.5"/>
			<ellipse fill="#FFFFFF" cx="429.2" cy="209.8" rx="4.7" ry="4.5"/>
			<ellipse fill="#FFFFFF" cx="512.4" cy="128.5" rx="4.7" ry="4.5"/>
			<ellipse fill="#FFFFFF" cx="547" cy="174.1" rx="4.7" ry="4.5"/>
			<ellipse fill="#FFFFFF" cx="642.7" cy="209.8" rx="4.7" ry="4.5"/>
			<ellipse fill="#FFFFFF" cx="771.5" cy="272.3" rx="4.7" ry="4.5"/>
			<ellipse fill="#FFFFFF" cx="706.3" cy="316.6" rx="4.7" ry="4.5"/>
			<ellipse fill="#FFFFFF" cx="766.8" cy="422.7" rx="4.7" ry="4.5"/>
		</g>
	</g>
	<g>
		<path fill="#229BC6" d="M309.8,517.9c0.4,1,0.8,1.9,1.2,2.8c-0.4,0.4-0.9,0.8-1.6,1.1s-1.4,0.6-2.3,0.9c-0.2,0.1-0.5,0.1-0.9,0.2
			c-0.3,0.1-0.7,0.2-1.1,0.3c-0.6,0-1.3,0.1-2.1,0.2c-0.8,0.1-1.8,0.2-2.9,0.3c-1.6,1.2-3,2.2-4.2,2.9c-1.2,0.7-2.2,1.2-3.1,1.4
			l-0.5,0.4c-0.7,0.3-1.5,0.5-2.5,0.7c-1,0.2-2.1,0.4-3.5,0.5c-0.2-0.1-0.5-0.2-0.7-0.4c-0.3-0.2-0.5-0.6-0.9-1
			c0.2-0.2,0.5-0.5,0.8-0.9c0.3-0.4,0.6-0.8,1-1.3c0.3-0.4,0.7-0.8,1.1-1.1c0.4-0.3,0.9-0.5,1.6-0.6c0.7-0.1,1.4-0.3,2.2-0.6
			c0.2-0.2,0.4-0.3,0.7-0.5c0.3-0.2,0.6-0.4,1-0.6c0.5-0.2,0.9-0.5,1.5-0.9c0.5-0.4,1.1-0.9,1.7-1.5c0.8-0.8,1.5-1.4,1.9-1.9
			c0.5-0.5,0.8-0.8,0.9-0.9c0.2-0.3,0.3-0.5,0.5-0.8c0.2-0.2,0.4-0.4,0.7-0.7c0.3-0.5,0.6-1.1,1.1-1.8c0.4-0.7,0.9-1.6,1.5-2.6
			c0.1-0.1,0.2-0.2,0.4-0.4c0.2-0.2,0.3-0.4,0.5-0.6c0.4-0.5,0.7-1.2,0.9-2.1c0.2-0.9,0.3-2.1,0.3-3.5c0-0.9-0.2-1.9-0.7-2.9
			c-0.5-1-1.2-2.1-2.2-3.2c-0.8-0.9-1.7-1.8-2.6-2.5c-0.9-0.7-1.9-1.3-2.8-1.8c-0.7-0.4-1.4-0.7-2-1.1c-0.6-0.4-1.2-0.7-1.7-1
			c-0.3,1-0.6,2.4-1.1,4.2c-0.4,1.8-0.9,3.9-1.5,6.5c-0.6,2.9-1.1,5.2-1.4,6.9s-0.5,2.9-0.5,3.5c-0.1,0.5-0.2,1-0.3,1.5l-1.2,6
			c-0.7,1.4-1.3,2.4-1.8,3.1c-0.5,0.7-0.9,1-1.2,1c-0.1,0-0.3-0.1-0.4-0.3c-0.1-0.2-0.2-0.6-0.4-1.1l0.4-1.7
			c-0.1-0.1-0.1-0.3-0.2-0.5c0.1-1.3,0.2-2.6,0.3-4c0.1-1.3,0.2-2.7,0.3-4c0.1-1.5,0.3-2.9,0.5-4.2c0.2-1.3,0.4-2.5,0.7-3.6
			l-0.4-1.5c0.1-0.4,0.3-0.9,0.4-1.4c0.1-0.6,0.2-1.2,0.3-1.9c0.1-0.9,0.2-1.7,0.2-2.3s0.1-1,0.2-1.2c0.1-0.3,0.2-0.6,0.3-1
			c0.1-0.4,0.2-0.9,0.3-1.5c0.1-0.2,0.4-0.7,1.1-1.3c0.6-0.6,1.1-1.1,1.2-1.4c0.4-0.1,0.7-0.1,0.9-0.3c0.2-0.1,0.3-0.3,0.3-0.4
			c0-0.1-0.1-0.3-0.3-0.4c-0.2-0.1-0.6-0.2-1-0.2c-0.2,0-0.5,0-0.8-0.1c-0.3,0-0.6-0.1-0.9-0.3l-2.5-1.2c-0.5-0.2-0.9-0.5-1.2-0.7
			c-0.3-0.2-0.4-0.5-0.4-0.8c0.1-0.4,0.2-0.8,0.3-1.2c-0.1-0.4-0.3-0.7-0.4-1s-0.1-0.5-0.1-0.6c0-0.2,0-0.3,0.1-0.4
			c0.1-0.1,0.2-0.2,0.4-0.2c0.6,0.1,1.1,0.2,1.5,0.3c0.2-0.1,0.4-0.1,0.6-0.2c0.2-0.1,0.4-0.1,0.6-0.2c0.5,0,0.9,0,1.3,0.1
			c0.4,0.1,0.7,0.1,0.9,0.2c0.3,0.1,0.6,0.3,0.9,0.5c0.3,0.2,0.6,0.3,0.9,0.4c0.2,0,0.6-0.1,1-0.2c0.1,0,0.2,0,0.3,0.1
			c0.2,0.2,0.5,0.3,0.9,0.4c0.3,0.1,0.7,0.2,1.2,0.3c0.5,0.1,0.9,0.2,1.2,0.3c0.3,0.1,0.6,0.2,0.8,0.3c2.1,1.1,4,2.2,5.6,3.1
			c1.6,1,2.9,1.9,4,2.9c1.7,1.4,2.9,3,3.7,4.6s1.2,3.3,1.2,5.1c0,2.8-0.8,5.8-2.5,9c-1.7,3.2-4.2,6.5-7.5,10
			c0.3-0.1,0.7-0.3,1.1-0.4c0.5-0.1,1-0.3,1.6-0.5c1.3-0.3,2.6-0.6,3.9-0.9c0.8-0.2,1.6-0.5,2.1-0.8
			C309,518.6,309.5,518.3,309.8,517.9z"/>
		<path fill="#229BC6" d="M309.7,517.9c0.3-0.4,0.6-0.9,1-1.3c1.5-1.2,2.7-2.4,3.6-3.5c0.9-1.1,1.6-2.2,2-3.1l-0.3-1.5
			c0.3-0.5,0.9-1.1,2-1.8c1-0.7,1.9-1,2.5-1c0.7,0,1.3,0.2,1.7,0.6c0.5,0.4,0.9,0.8,1.4,1.3c0.2,0.1,0.4,0.3,0.5,0.3
			c0.8,0.6,1.4,1.4,1.8,2.5c0.4,1.1,0.6,2.4,0.6,3.9c0,0.8-0.3,2-0.9,3.5c-0.6,1.5-0.9,2.6-0.9,3.4c0,0.1,0,0.2,0.1,0.2
			c0.1,0.1,0.2,0.1,0.3,0.1c0.3,0,0.6-0.1,0.9-0.3c0.4-0.2,0.8-0.5,1.2-1c1.1-1,1.7-1.6,1.9-1.7c0.2-0.1,0.5-0.3,0.8-0.6
			c0.2,0.4,0.4,0.8,0.6,1.3c0.2,0.5,0.4,1,0.6,1.5c-0.2,0.2-0.4,0.4-0.6,0.6c-0.2,0.2-0.5,0.5-0.8,0.8c-0.7,0.5-1.6,1.1-2.7,1.8
			c-1.1,0.7-2.4,1.5-4,2.5c-0.4,0.3-0.9,0.5-1.4,0.6c-0.8,0-1.5-0.1-1.9-0.4c-0.4-0.3-0.6-0.7-0.6-1.2c0-0.2,0-0.5,0.1-0.8
			c0.1-0.3,0.2-0.6,0.4-1c0.1-0.3,0.3-0.5,0.4-0.8c0.1-0.3,0.3-0.5,0.4-0.8c0.4-1.3,0.8-2.5,1-3.5c0.2-1.1,0.3-2.1,0.3-2.9
			c0-1.1-0.2-1.9-0.5-2.5c-0.3-0.6-0.8-0.9-1.5-1c-0.4,0.2-0.9,0.6-1.5,1c-0.5,0.4-1.1,1-1.6,1.7c-0.6,0.7-1.1,1.3-1.6,1.8
			c-0.5,0.5-0.8,0.8-1.2,0.9c-0.2,0.3-0.5,0.6-0.9,1c-0.4,0.4-0.9,0.8-1.6,1.2c0,0.1-0.1,0.2-0.2,0.4c-0.1,0.2-0.2,0.3-0.4,0.5
			c-0.2-0.5-0.3-0.9-0.5-1.4C310.1,518.9,309.9,518.4,309.7,517.9z"/>
		<path fill="#229BC6" d="M329.9,517.9c0.2-0.4,0.6-0.9,0.9-1.3c0.4-0.4,0.9-0.9,1.5-1.3c0.1-0.4,0.1-0.8,0.2-1.2
			c0.1-0.4,0.1-0.8,0.1-1.2c0.1-0.3,0.2-0.6,0.3-1c0.1-0.4,0.3-0.8,0.4-1.2c0.2-0.4,0.4-1,0.7-1.7c0.3-0.7,0.7-1.4,1.2-2.2
			c0.4-0.5,0.9-1,1.3-1.5c0.5-0.6,0.9-1.1,1.4-1.7c0.2-0.2,0.5-0.4,0.7-0.5c0.3-0.2,0.5-0.3,0.8-0.5c0.2-0.1,0.5-0.2,0.8-0.2
			s0.6-0.1,1-0.1c0.5,0,0.9,0.1,1.2,0.2c0.3,0.1,0.6,0.3,0.8,0.5c0.1,0.2,0.3,0.4,0.4,0.7c0.1,0.3,0.3,0.7,0.4,1.2
			c0.1,0.4,0.1,0.8,0.2,1.3c0-0.1,0-0.1-0.1,0.2c-0.1,0.2-0.2,0.6-0.3,1.1l-0.3,1c-0.3,1-0.9,2.1-1.9,3.4c-1,1.3-2.3,2.7-4,4.4
			c-0.1,0.1-0.3,0.3-0.4,0.5c-0.1,0.2-0.2,0.4-0.2,0.7c0,0.4,0.1,0.8,0.2,1.1c0.2,0.3,0.4,0.6,0.7,0.7c0.2,0.1,0.4,0.2,0.8,0.4
			c0.4,0.1,0.8,0.2,1.3,0.3c0.8-0.1,1.5-0.2,2.1-0.4c0.6-0.2,1.2-0.4,1.7-0.7c0.1-0.1,0.3-0.1,0.5-0.3c0.2-0.1,0.4-0.3,0.7-0.4
			c0.3,0.6,0.5,1.1,0.7,1.6c0.2,0.5,0.4,0.9,0.5,1.2c-1.2,1.1-2.2,2-3.1,2.6c-0.9,0.6-1.8,0.9-2.6,0.9c-0.3,0.2-0.7,0.3-1.1,0.4
			c-0.4,0.1-0.9,0.1-1.5,0.1c-0.7,0-1.4-0.1-2-0.3c-0.6-0.2-1.1-0.5-1.4-1c-0.2-0.2-0.4-0.5-0.6-0.9c-0.2-0.4-0.4-0.9-0.6-1.4
			c-0.2-0.4-0.4-0.8-0.5-1c-0.2-0.2-0.3-0.3-0.5-0.3c-0.2,0-0.3,0.1-0.5,0.2c-0.2,0.2-0.4,0.4-0.7,0.7c-0.1-0.3-0.2-0.7-0.4-1.1
			C330.4,519.1,330.2,518.6,329.9,517.9z M339.5,508.1c-0.4,0-1,0.6-1.8,1.7c-0.7,1.2-1.1,2-1.1,2.6c0,0.1,0,0.2,0.1,0.3
			c0,0.1,0.2,0.1,0.3,0.1c0.2,0,0.4-0.1,0.5-0.3c0.1-0.2,0.3-0.4,0.4-0.7c0.2-0.2,0.4-0.4,0.7-0.7c0.2-0.2,0.4-0.5,0.6-0.7
			c0.2-0.3,0.4-0.6,0.5-0.8c0.1-0.3,0.2-0.6,0.2-0.8c0-0.2,0-0.3-0.1-0.4C339.8,508.1,339.7,508.1,339.5,508.1z"/>
		<path fill="#229BC6" d="M346.1,516.6l2.8-1.8c0.1-0.1,0.2-0.2,0.4-0.4c0.1-0.2,0.3-0.4,0.5-0.7c0.1-0.3,0.3-0.5,0.6-0.7
			c0.2-0.2,0.5-0.3,0.8-0.5c0.2-0.2,0.4-0.5,0.7-0.8c0.3-0.3,0.7-0.7,1.2-1.1c0.2-0.1,0.5-0.3,0.8-0.5c0.3-0.2,0.7-0.5,1.1-0.9
			c1.8-1.7,3.4-3,4.8-3.9c1.4-0.9,2.5-1.3,3.5-1.3c0.5,0,0.9,0.1,1.2,0.3c0.3,0.2,0.4,0.5,0.4,0.9c0,0.4-0.1,0.8-0.2,1.1
			c-0.2,0.3-0.4,0.6-0.7,0.8c-0.5,0.4-1,0.8-1.6,1.2c-0.3,0.4-0.7,0.9-1.2,1.3c-0.5,0.5-1,0.9-1.6,1.4c-0.2,0.3-0.4,0.5-0.5,0.7
			c-0.1,0.1-0.3,0.3-0.6,0.5c-0.3,0.3-0.7,0.6-1.1,0.9c-0.2,0.4-0.6,1-1.3,1.7c-0.7,0.7-1.6,1.6-2.7,2.5c-0.1,0.1-0.4,0.5-0.8,1
			c-0.4,0.5-0.8,1.2-1.4,2l0.2,0.3c0.4-0.1,0.9-0.4,1.4-0.7c0.5-0.3,1-0.8,1.6-1.4c0.7-0.6,1.2-1.1,1.7-1.5c0.4-0.4,0.7-0.7,0.9-0.8
			c0.1-0.1,0.3-0.2,0.4-0.2c0.1-0.1,0.3-0.2,0.5-0.3c0.9-1.1,1.8-1.9,2.6-2.5c0.8-0.5,1.6-0.8,2.2-0.8c0.4,0,0.7,0.2,1,0.5
			c0.2,0.3,0.4,0.8,0.4,1.5c0,1-0.1,2-0.1,2.9c0,0.6,0.2,1.2,0.5,1.7c0.4,0.5,0.9,0.8,1.5,0.8c0.2,0,0.4,0,0.5-0.2
			c0.2-0.1,0.3-0.2,0.5-0.4c0.1-0.2,0.3-0.4,0.4-0.5c0.1-0.2,0.3-0.3,0.4-0.5c0.1,0,0.2-0.1,0.3-0.2c0.2-0.1,0.3-0.2,0.4-0.4
			c0.3,0.6,0.5,1.1,0.7,1.6c0.2,0.5,0.3,0.9,0.4,1.2c-0.5,0.4-0.9,0.9-1.4,1.3c-0.5,0.5-0.9,0.9-1.4,1.3c-0.6,0.5-1.2,0.8-1.8,1
			c-0.6,0.2-1.1,0.3-1.7,0.3c-1.3,0-2.3-0.4-3-1.1c-0.7-0.7-1.1-1.9-1.2-3.4c0-0.2,0-0.4-0.1-0.6c-0.1-0.2-0.2-0.4-0.3-0.6
			c-0.1,0.1-0.2,0.2-0.3,0.3c-0.1,0.1-0.3,0.3-0.4,0.4c-0.3,0.2-0.6,0.5-1,0.8c-0.4,0.3-0.9,0.7-1.4,1.1c-0.7,0.7-1.3,1.3-1.8,1.8
			c-0.5,0.5-0.8,0.8-1,1c-0.4,0.3-0.9,0.7-1.4,1c-0.5,0.3-1.1,0.7-1.8,1.1c-0.4,0.2-0.8,0.4-1.1,0.5c-0.3,0.1-0.5,0.2-0.7,0.2
			c-1,0-1.7-0.2-2.1-0.7c-0.5-0.5-0.7-1.2-0.7-2.2c0-0.5,0.1-1.1,0.3-1.6c0.2-0.5,0.6-1,1-1.4c0-0.3,0.1-0.5,0.1-0.6
			c0-0.1,0-0.2-0.1-0.3c0-0.1-0.1-0.2-0.2-0.4c-0.1-0.3-0.3-0.6-0.4-1c-0.2-0.4-0.3-0.7-0.5-1.1c0.1-0.1,0.2-0.2,0.3-0.5
			C345.7,517.2,345.9,516.9,346.1,516.6z"/>
		<path fill="#229BC6" d="M368.4,517.9c0.1-0.1,0.3-0.3,0.4-0.6c0.2-0.2,0.3-0.5,0.5-0.8c0.9-1.1,1.8-2.1,2.6-3
			c0.8-0.9,1.6-1.7,2.4-2.3c0.4-0.4,0.8-0.8,1.4-1.4c0.5-0.6,1.2-1.2,1.9-2c0.7-0.3,1.5-0.6,2.4-1c0.5,0,0.9,0.2,1.2,0.5
			c0.3,0.4,0.4,0.9,0.4,1.5c0,0.6,0,1.2-0.1,1.8c-0.1,0.7-0.2,1.3-0.4,2c-0.2,0.5-0.3,1.1-0.5,1.6c0,0.1,0,0.2,0.1,0.3
			c0.1,0.1,0.2,0.1,0.3,0.1c0.3-0.1,0.9-0.6,1.8-1.5c0.9-0.9,2-2.1,3.4-3.6c1.2-1.3,2.3-2.3,3.2-3c0.9-0.7,1.6-1,2.2-1
			c0.6,0,1,0.2,1.3,0.7c0.3,0.4,0.4,1.1,0.4,1.9c0,1.2-0.1,2.4-0.3,3.6c-0.2,1.1-0.5,2.2-0.9,3.3c-0.1,0.2-0.1,0.4-0.2,0.5
			c0,0.1,0,0.3,0,0.4c0,0.1,0.1,0.3,0.4,0.4c0.2-0.1,0.3-0.3,0.6-0.6c0.2-0.3,0.5-0.6,0.7-1c0.5-0.4,0.9-0.8,1.4-1.2
			c0.5-0.4,1-0.8,1.5-1.2c0.6-0.4,1.1-0.8,1.7-1c0.6-0.2,1.2-0.3,1.7-0.3c0.1,0,0.2,0,0.3,0.1s0.2,0.1,0.3,0.2
			c0.5,0.4,0.8,0.8,1.1,1.1c0.3,0.3,0.5,0.6,0.6,0.9c0.8,1.6,1.5,2.8,2.1,3.6c0.6,0.8,1.2,1.2,1.6,1.2c0.1,0,0.2,0,0.3-0.1
			c0.1-0.1,0.2-0.1,0.3-0.2c0.5,1,0.9,1.9,1.2,2.8c-0.7,0.6-1.4,1-1.9,1.3c-0.6,0.3-1.1,0.4-1.5,0.4c-1.4,0-2.8-0.9-4.3-2.7
			c-1.5-1.8-2.6-2.7-3.4-2.7c-1,0-2.8,1.5-5.2,4.6c-2.4,3.1-4,4.6-4.6,4.6c-0.3,0-0.7,0-1.2-0.1c-0.2-0.1-0.3-0.2-0.4-0.4
			c-0.1-0.2-0.1-0.4-0.1-0.7c0-0.3,0.1-0.7,0.2-1.2c0.1-0.5,0.3-1.1,0.5-1.7c0.3-0.8,0.5-1.5,0.6-2c0.2-0.5,0.3-0.9,0.3-1.1
			c0.1-0.3,0.1-0.8,0.3-1.5c0.1-0.8,0.3-1.8,0.4-3.1c0-0.2-0.1-0.4-0.2-0.5s-0.3-0.2-0.4-0.2c-0.1,0-0.3,0-0.5,0.1
			c-0.2,0.1-0.4,0.2-0.6,0.4c-0.2,0.3-0.5,0.5-0.8,0.8c-0.3,0.3-0.8,0.6-1.4,1.1c-0.7,0.8-1.4,1.6-2.2,2.5c-0.7,0.8-1.5,1.7-2.3,2.5
			c-1.2,1.4-2.2,2.5-2.9,3.1c-0.7,0.7-1.2,1-1.4,1c-0.6,0-1.1-0.1-1.4-0.2c-0.3-0.1-0.5-0.4-0.5-0.6c0-0.7,0.4-2.1,1.1-4.2
			c0.7-2.1,1.1-3.6,1.1-4.5c0-0.1,0-0.3-0.1-0.3c-0.1-0.1-0.2-0.1-0.3-0.1c-0.2,0-0.5,0.1-0.9,0.4c-0.3,0.3-0.7,0.7-1.1,1.3
			c-0.3,0.3-0.6,0.7-1,1.1c-0.4,0.4-0.9,0.9-1.5,1.5c-0.1,0.2-0.1,0.3-0.2,0.5c-0.1,0.2-0.2,0.3-0.3,0.4c-0.1-0.3-0.2-0.7-0.4-1.1
			C369,519.1,368.7,518.6,368.4,517.9z"/>
		<path fill="#229BC6" d="M406.6,517.9l0.2-0.2l0.1-0.3c0.5-0.7,1.5-1.7,2.9-2.9c1.4-1.2,2.3-2.2,2.8-2.9c0.2-0.3,0.4-0.6,0.7-0.7
			c0.3-0.1,0.5-0.2,0.8-0.2c0.7,0,1.3,0.2,1.8,0.5c0.5,0.4,0.8,0.9,1,1.6c0.1,0.6,0.3,1.3,0.4,1.9c0.1,0.6,0.2,1.3,0.3,1.9
			c0.1,0.4,0.3,1,0.5,1.8c0.2,0.8,0.4,1.3,0.5,1.4c0.1,0.2,0.3,0.3,0.5,0.4c0.2,0.1,0.5,0.1,0.8,0.1c0.4,0,0.7-0.1,1.1-0.2
			c0.4-0.1,0.8-0.4,1.2-0.7c0.3-0.3,0.6-0.5,1-0.8c0.3-0.3,0.7-0.5,1-0.8l1.2,2.8c-0.3,0.3-0.8,0.7-1.3,1.1
			c-0.5,0.4-1.2,0.9-1.9,1.4c-0.8,0.6-1.5,1.1-2.1,1.3c-0.6,0.3-1,0.4-1.3,0.4c-1.8,0-3-0.2-3.6-0.6s-1.2-1.6-1.8-3.5
			c-0.1-0.2-0.2-0.4-0.4-0.6c-0.2-0.2-0.3-0.5-0.5-0.8c-0.2-0.5-0.5-0.8-0.6-1c-0.2-0.2-0.3-0.3-0.5-0.3c-0.3,0-0.8,0.2-1.3,0.7
			c-0.5,0.4-1.2,1.1-2,2c-0.1-0.3-0.2-0.6-0.4-0.9c-0.2-0.4-0.3-0.8-0.5-1.3c0-0.1-0.1-0.2-0.2-0.3
			C406.7,518.1,406.7,518,406.6,517.9z M419.2,494c0.5,0,0.9,0.1,1.1,0.3c0.2,0.2,0.3,0.5,0.3,0.9c-0.1,0.6-0.2,1-0.3,1.4
			c-0.2,0.7-0.4,1.3-0.5,1.8c-0.2,0.5-0.3,0.8-0.3,1c-0.2,0.4-0.4,0.8-0.7,1.2c-0.3,0.3-0.7,0.6-1.1,0.9c-0.5,0.3-0.9,0.5-1.2,0.7
			c-0.3,0.1-0.5,0.2-0.7,0.2c-0.3,0-0.7-0.1-1-0.1c-0.3,0-0.6,0-0.9,0c-0.3-0.1-0.5-0.4-0.6-0.8c-0.2-0.4-0.2-0.9-0.2-1.6
			c0-0.6,0.4-1.4,1.1-2.3c0.7-0.9,1.4-1.4,2-1.5c0.3-0.4,0.7-0.9,1.2-1.5c0.2-0.1,0.5-0.3,0.8-0.3C418.4,494.1,418.8,494,419.2,494z
			"/>
		<path fill="#229BC6" d="M423.9,517.9c0.1-0.1,0.2-0.3,0.3-0.5c0.1-0.2,0.3-0.4,0.5-0.6c0.2-0.2,0.5-0.4,0.8-0.7
			c0.3-0.3,0.7-0.7,1.1-1.1c0.4-0.4,0.8-0.9,1.3-1.5c0.5-0.6,1.2-1.3,1.9-2.2c0.3-0.3,0.7-0.8,1.2-1.3c0.5-0.5,1.1-1.2,1.7-1.9
			c0.6-0.7,1.2-1.2,1.8-1.5c0.6-0.3,1.3-0.5,2.1-0.5s1.3,0.2,1.6,0.7c0.3,0.5,0.5,1.1,0.5,2c0,0.5-0.2,1.4-0.5,2.7
			c-0.3,1.3-0.9,3-1.6,5.2c-0.2,0.4-0.4,0.8-0.5,1.2c-0.1,0.3-0.2,0.5-0.2,0.7c0,0.2-0.1,0.4-0.1,0.5c0,0.1,0.1,0.3,0.2,0.5
			c0.1-0.1,0.2-0.1,0.3-0.2c0.1-0.1,0.2-0.2,0.3-0.4c0.2-0.3,0.4-0.6,0.7-1c0.3-0.3,0.7-0.7,1.2-1.1c0.2-0.3,0.4-0.7,0.7-1
			c0.3-0.3,0.6-0.6,1-0.9c0.1-0.1,0.2-0.2,0.3-0.4c0.1-0.2,0.3-0.4,0.5-0.6c0.3-0.3,0.6-0.5,0.9-0.8c0.4-0.3,0.8-0.6,1.3-0.9
			c0.5-0.3,1-0.5,1.5-0.7c0.4-0.2,0.8-0.2,1.1-0.2c0.6,0,1.2,0.2,1.7,0.5c0.5,0.3,0.9,0.8,1.2,1.4c0.4,1.3,0.8,2.4,1.2,3.5
			c0.2,0.6,0.5,1.1,0.7,1.4c0.3,0.3,0.6,0.5,0.9,0.5c0.3,0,0.5,0,0.7-0.2c0.2-0.1,0.4-0.3,0.6-0.5l1.2,2.8c-0.3,0.3-0.7,0.6-1.1,0.9
			s-0.7,0.6-1.1,0.9c-0.5,0.4-0.9,0.7-1.3,0.9c-0.4,0.2-0.8,0.3-1.2,0.3c-0.5,0-0.9-0.1-1.3-0.3c-0.4-0.2-0.8-0.5-1.1-0.9
			c-0.2-0.2-0.4-0.5-0.6-0.9c-0.2-0.4-0.5-1-0.8-1.6c-0.3-0.3-0.6-0.6-0.9-1c-0.3-0.4-0.7-0.9-1.2-1.5l-0.3-0.1
			c-0.4,0.1-0.8,0.3-1.1,0.5c-0.4,0.2-0.8,0.6-1.2,0.9c-0.9,0.8-1.6,1.3-2,1.5c-0.4,0.2-0.7,0.4-0.8,0.7c-0.3,0.5-0.8,1.1-1.5,1.9
			c-0.7,0.8-1.5,1.7-2.6,2.7c-0.3,0.3-0.5,0.5-0.8,0.8c-0.3,0.3-0.5,0.5-0.8,0.7c-0.3,0.2-0.6,0.4-0.9,0.5c-0.3,0.1-0.7,0.1-1.1,0.1
			c-0.8,0-1.2-0.3-1.3-0.8c-0.1-0.6-0.1-1.1-0.2-1.7c0.3-0.8,0.6-1.9,1-3.2s0.8-2.8,1.3-4.5c0-0.1,0-0.2,0.1-0.4
			c0.1-0.2,0.2-0.4,0.3-0.7c0.1-0.3,0.2-0.5,0.2-0.7c0-0.2,0.1-0.4,0.1-0.5c0-0.1-0.1-0.3-0.2-0.3c-0.1-0.1-0.3-0.1-0.5-0.1
			c-0.2,0-0.5,0.1-0.8,0.4c-0.3,0.2-0.7,0.6-1.2,1.2c-0.6,0.6-1,1.1-1.4,1.4c-0.3,0.3-0.6,0.5-0.7,0.6c-0.2,0.1-0.4,0.3-0.7,0.6
			c-0.3,0.3-0.6,0.6-0.9,0.9c0,0.1-0.1,0.2-0.2,0.4c-0.1,0.2-0.2,0.3-0.4,0.5c-0.1-0.3-0.2-0.7-0.4-1.1
			C424.5,519.1,424.2,518.6,423.9,517.9z"/>
		<path fill="#229BC6" d="M452.8,517.9c0.1-0.2,0.3-0.4,0.5-0.7c0.2-0.3,0.5-0.6,0.8-1c0.3-0.2,0.6-0.5,0.9-0.9
			c0.3-0.4,0.7-0.8,1.2-1.4c0.2-0.3,0.4-0.7,0.6-1.1c0.2-0.4,0.5-0.9,0.8-1.5c0.1-0.5,0.4-1.2,0.8-1.9c0.4-0.7,1.1-1.5,1.8-2.3
			c1.1-1.2,2.3-2.5,3.5-3.9c0.6-0.9,1.3-1.6,2-2.1c0.7-0.4,1.5-0.7,2.4-0.7c0.6,0,1,0.3,1.3,0.8c0.3,0.5,0.4,1.3,0.4,2.2
			c0,0.4-0.2,0.9-0.7,1.7c-0.5,0.8-1.2,1.7-2.3,2.9c-0.6,0.7-1.3,1.5-2,2.2c-0.7,0.7-1.4,1.5-2,2.3c-0.3,0.3-0.6,0.6-1,0.9
			c-0.3,0.3-0.7,0.7-1.1,1.1c-0.1,0.4-0.3,0.9-0.4,1.4c0,0.8,0,1.5,0.2,2c0.1,0.6,0.3,1.1,0.5,1.5c0.1,0.1,0.3,0.5,0.7,1
			c0.3,0.5,0.8,1.1,1.3,1.9c0.1,0.2,0.3,0.4,0.5,0.6c0.2,0.2,0.4,0.4,0.7,0.6c0.3-0.1,0.9-0.7,1.8-1.6c0.9-1,2-2.3,3.5-4.1l1.2,2.8
			c-0.1,0.2-0.4,0.5-0.8,1c-0.4,0.5-0.9,1.1-1.4,2c-0.6,0.8-1.3,1.8-2,2.7c0,0.2,0.1,0.4,0.3,0.7c0.2,0.3,0.4,0.6,0.7,0.9
			c0.5,0.6,1,1.4,1.3,2.4c0.4,1,0.7,2.1,0.9,3.5c0,0.1,0,0.3-0.1,0.5c0,0.2-0.1,0.5-0.1,0.8c-0.2,2.3-1.7,4.6-4.3,7
			c-2.6,2.3-5.1,3.5-7.4,3.5c-1.1,0-1.9-0.1-2.6-0.4c-0.6-0.3-1.1-0.7-1.3-1.2c-0.1-0.3-0.2-0.8-0.2-1.5c-0.1-0.8-0.1-1.8-0.1-3.1
			c0-0.1,0.1-0.4,0.2-0.7c0.1-0.4,0.3-0.8,0.6-1.4c0.1-0.4,0.3-0.8,0.6-1.3c0.3-0.4,0.5-0.9,0.8-1.4c0.3-0.4,0.6-0.8,0.9-1.2
			c0.3-0.4,0.6-0.8,0.8-1.2c0.6-0.7,1.2-1.3,1.7-1.9c0.4-0.4,0.7-0.7,0.9-1.1c0.2-0.3,0.3-0.6,0.3-0.9c-0.7-0.9-1.4-1.9-2.1-2.7
			c-0.7-0.9-1.3-1.8-1.8-2.7c-0.5-0.9-0.8-1.8-0.9-2.8c0-0.1-0.1-0.3-0.2-0.6c-0.5,0.4-0.9,0.9-1.4,1.4c-0.1-0.3-0.2-0.7-0.4-1.1
			C453.4,519.1,453.2,518.6,452.8,517.9z M462.8,530.6c-0.1,0-0.4,0.3-0.8,0.8c-0.4,0.6-1,1.4-1.8,2.5c-0.4,0.7-0.8,1.3-1.3,2
			c-0.4,0.7-0.9,1.4-1.3,2c-0.2,0.2-0.4,0.7-0.7,1.6c-0.3,0.8-0.5,1.4-0.5,1.6c0,0.4,0.1,0.7,0.3,0.8c0.2,0.2,0.5,0.3,1,0.3
			c1.6,0,3.1-0.8,4.8-2.5c1.6-1.7,2.5-3.3,2.5-4.9c0-0.3-0.1-0.7-0.2-1.1c-0.1-0.4-0.3-0.9-0.5-1.4c-0.3-0.6-0.5-1-0.8-1.3
			C463.3,530.8,463,530.6,462.8,530.6z"/>
		<path fill="#229BC6" d="M485,517.9c0.1-0.1,0.3-0.3,0.4-0.6c0.2-0.2,0.3-0.5,0.5-0.8l2.3-1.6c0.3-0.3,0.7-0.8,1.3-1.3
			c0.6-0.5,1.3-1.2,2.2-2c0.1-0.2,0.3-0.5,0.5-0.8c0.2-0.3,0.5-0.6,0.8-0.9c0.3-0.3,0.6-0.5,0.8-0.7c0.3-0.2,0.5-0.5,0.8-0.7
			c0.3-0.3,0.6-0.6,0.9-0.9c0.3-0.3,0.5-0.6,0.8-0.9c0.3-0.3,0.7-0.5,1-0.7c0.3-0.2,0.7-0.2,1.1-0.2c0.4,0,0.8,0.1,1,0.2
			c0.2,0.1,0.4,0.3,0.4,0.5c-0.2,0.5-0.4,0.9-0.6,1.4l0.2,0.3c0.9-0.3,1.6-0.6,2.1-0.8c0.5-0.2,0.8-0.2,1-0.2c1.5,0,2.6,0.4,3.3,1.3
			c0.7,0.9,1.1,2.3,1.1,4.1c0,0.3,0,0.7-0.1,1.2c-0.1,0.5-0.2,1-0.4,1.5c-0.2,0.6-0.4,1.1-0.7,1.5c-0.2,0.4-0.4,0.7-0.7,0.9
			c0.1,0.3,0.2,0.4,0.3,0.6c0.1,0.1,0.2,0.2,0.4,0.2c0.2,0,0.3,0,0.5-0.2c0.2-0.1,0.4-0.3,0.6-0.5c0.2,0.4,0.4,0.9,0.6,1.4
			c0.2,0.5,0.4,0.9,0.6,1.4c-0.4,0.3-0.7,0.6-1.1,0.9c-0.3,0.3-0.7,0.6-1.1,0.9c-0.5,0.4-0.9,0.7-1.3,0.8c-0.4,0.2-0.8,0.3-1.2,0.3
			c-0.5,0-0.8-0.1-1.2-0.3c-0.3-0.2-0.5-0.5-0.7-0.9c-0.5,0.7-1.1,1.3-1.8,1.8c-0.7,0.6-1.5,1-2.4,1.4c-0.5,0.2-1,0.4-1.4,0.6
			c-0.4,0.1-0.8,0.2-1.1,0.2c-0.1,0-0.3,0-0.6,0.1c-0.3,0.1-0.5,0.1-0.7,0.1c-1.2,0-2.2-0.5-3.1-1.5c-0.9-1-1.4-2-1.4-3.2
			c0-0.5,0.1-1.1,0.3-1.9c0.2-0.8,0.3-1.3,0.3-1.4c0-0.1,0-0.3-0.1-0.3c-0.1-0.1-0.2-0.1-0.4-0.1c-0.1,0-0.3,0.2-0.7,0.5
			c-0.4,0.3-0.9,0.7-1.6,1.3c-0.1,0.1-0.1,0.2-0.2,0.4c-0.1,0.2-0.2,0.3-0.4,0.5c-0.2-0.5-0.3-0.9-0.5-1.4
			C485.4,518.8,485.2,518.4,485,517.9z M499.5,512.4c-0.1,0-0.2,0.1-0.4,0.3c-0.2,0.2-0.4,0.4-0.6,0.7c-0.3,0.5-0.6,1-1,1.5
			c-0.2,0.2-0.5,0.4-0.7,0.6c-0.3,0.1-0.5,0.2-0.9,0.3c-0.2,0-0.4,0.2-0.6,0.6c-0.2,0.4-0.4,0.9-0.7,1.6c-0.2,0.6-0.4,1.2-0.5,1.6
			c-0.1,0.4-0.2,0.8-0.2,1.1c0,0.6,0.1,1,0.4,1.3c0.3,0.3,0.7,0.4,1.3,0.4c0.9,0,1.8-0.3,2.6-0.8c0.8-0.5,1.5-1.3,2.2-2.3
			c0.3-0.4,0.6-0.7,0.9-1.1c0.2-0.1,0.3-0.3,0.4-0.6c0.1-0.3,0.2-0.6,0.3-1l0.5-1.7c-0.2-0.6-0.4-1.1-0.5-1.4
			c-0.2-0.4-0.3-0.6-0.5-0.7c-0.1-0.1-0.3-0.1-0.7-0.2C500.7,512.5,500.2,512.5,499.5,512.4z"/>
		<path fill="#229BC6" d="M506.9,517.9c0.1-0.1,0.2-0.3,0.3-0.5c0.1-0.2,0.3-0.4,0.5-0.6c0.5-0.7,0.9-1.3,1.2-1.8
			c0.3-0.5,0.6-0.9,0.7-1.2c0.3-0.5,0.5-1.1,0.7-1.6c0.2-0.6,0.3-1.2,0.4-1.8c0.4-2.9,1.1-6,2.1-9.3c1-3.3,2.3-6.9,3.8-10.7
			c0.6-1.3,1.2-2.3,1.8-3c0.6-0.7,1.3-1,2-1c0.5,0,0.9,0.1,1.3,0.3c0.3,0.2,0.5,0.6,0.6,1c0,0.2,0.1,0.5,0.1,0.9c0,0.4,0,1,0,1.7
			c0,0.2-0.2,1.6-0.5,4.3c-0.3,1.4-0.8,3-1.4,5c-0.6,2-1.3,4.3-2.2,7c-0.2,0.4-0.4,0.8-0.7,1.4c-0.3,0.6-0.6,1.2-1,2
			c-0.1,0.1-0.1,0.3-0.2,0.6c-0.1,0.2-0.2,0.5-0.3,0.8c-0.1,0.1-0.3,0.4-0.5,0.7c-0.2,0.3-0.4,0.7-0.6,1.2c-0.4,1.1-0.7,2.6-1,4.3
			c-0.3,1.7-0.6,3.7-0.9,6.1c-0.3,2.2-0.5,4.2-0.6,5.9c-0.1,1.7-0.2,3.2-0.2,4.5c0,0.5,0.1,1,0.1,1.5c0.1,0.6,0.1,1.1,0.2,1.4
			c0.1,0.3,0.2,0.5,0.3,0.5c0.3,0,0.7-0.6,1.3-1.9c0.6-1.2,1.4-3.1,2.3-5.6l-0.1-0.6c0.1-0.2,0.2-0.4,0.3-0.7
			c0.2-0.3,0.3-0.6,0.4-1.1c0.5-1.6,0.9-2.9,1.1-3.8c0.2-0.9,0.4-1.4,0.5-1.5c0.3-0.8,0.7-1.6,1.1-2.4c0.5-0.8,1-1.5,1.5-2.2
			c0.3,0.6,0.5,1.1,0.7,1.6c0.2,0.5,0.3,0.9,0.5,1.2c-0.3,0.4-0.6,0.8-0.8,1.4c-0.3,0.6-0.5,1.2-0.6,1.8c-0.2,0.6-0.3,1.1-0.5,1.7
			c-0.1,0.6-0.3,1.2-0.4,1.7c-1,3.9-2,7.1-3,9.6c-1,2.6-1.9,4.5-2.8,5.7c-0.1,0.3-0.3,0.5-0.5,0.8c-0.2,0.3-0.4,0.5-0.5,0.8
			c-0.2,0.3-0.5,0.5-0.8,0.6c-0.3,0.2-0.5,0.2-0.8,0.2c-0.9,0-1.6-0.2-2.1-0.6c-0.5-0.4-0.9-1-1.1-1.7c-0.1-0.6-0.2-1.3-0.3-1.9
			c-0.1-0.6-0.1-1.3-0.2-1.9c-0.1-0.4-0.2-0.8-0.3-1.3c-0.1-0.4-0.1-0.9-0.1-1.4v-4.6c0-0.2,0-0.6,0.1-1c0.1-0.5,0.1-0.8,0.1-1.1
			c-0.1-0.6-0.2-1.2-0.4-1.8c0.1-0.7,0.2-1.6,0.3-2.7c0.2-1.1,0.3-2.3,0.6-3.7l-0.8-0.7c-0.1-0.3-0.2-0.6-0.4-1.1
			C507.5,519.2,507.2,518.6,506.9,517.9z M518.8,497.6c-0.1,0-0.2,0.1-0.3,0.2c0,0.2-0.1,0.4-0.2,0.7c0,0.2-0.1,0.5-0.2,0.8
			c-0.1,0.3-0.3,0.8-0.5,1.3c-0.2,0.4-0.3,0.8-0.4,1.2c-0.1,0.3-0.1,0.6-0.1,0.8l0.2,0.2l0.5-0.5c0-0.3,0.1-0.6,0.2-1
			c0.1-0.4,0.3-0.8,0.6-1.2c0.2-0.4,0.4-0.8,0.5-1.1c0.1-0.3,0.2-0.6,0.2-0.8c0-0.2,0-0.4-0.1-0.5
			C519,497.6,518.9,497.6,518.8,497.6z"/>
		<path fill="#229BC6" d="M537,517.9l0.2-0.2c0.1-0.3,0.3-0.6,0.5-0.9c0.3-0.3,0.7-0.6,1.2-1c0.7-0.4,1.2-0.8,1.6-1
			c0.4-0.3,0.6-0.5,0.7-0.6c0.2-0.2,0.3-0.4,0.4-0.5c0.2-0.2,0.5-0.4,0.8-0.7c0.3-0.3,0.7-0.6,1.1-1c0.1-0.1,0.3-0.3,0.5-0.5
			c0.2-0.2,0.3-0.5,0.5-0.8c0.3-0.2,0.6-0.4,0.9-0.7c0.3-0.3,0.7-0.6,1.2-1.1c0.5-0.5,1.1-1.1,1.7-1.8c0.6-0.7,1.3-1.3,2.1-2
			c0.3-0.1,0.5-0.2,0.7-0.3c0.2-0.1,0.5-0.1,0.7-0.1c0.9,0,1.6,0.2,2,0.7c0.5,0.4,0.7,1.1,0.7,1.9c0,0.2,0,0.5-0.1,1
			c-0.1,0.5-0.1,1-0.2,1.8c-0.3,2-0.5,3.3-0.6,3.7c-0.1,0.4-0.5,1.8-1.3,4.2c-0.2,0.4-0.3,0.9-0.5,1.4c-0.2,0.6-0.4,1.3-0.6,2.1
			c0,0.1,0.1,0.2,0.3,0.2c0.1,0,0.4-0.1,0.8-0.4c0.4-0.3,0.8-0.7,1.5-1.2c0.7-0.6,1.3-1.1,1.7-1.5c0.4-0.3,0.7-0.5,0.8-0.6
			c0.2,0.5,0.5,1,0.7,1.5c0.2,0.5,0.4,0.9,0.5,1.3c-0.3,0.2-0.5,0.3-0.7,0.5c-0.2,0.2-0.4,0.4-0.6,0.7c-0.4,0.3-0.9,0.6-1.5,1
			c-0.6,0.4-1.2,0.8-1.8,1.2c-0.3,0.3-0.7,0.7-1.2,1.1c-0.5,0.4-1.1,0.9-1.7,1.5l-0.6,0.1c-0.3,0.4-0.5,0.7-0.8,0.9
			c-0.3,0.2-0.5,0.3-0.7,0.4c-0.3,0.1-0.6,0.2-1,0.3c-0.3,0.1-0.7,0.2-1,0.3c-0.2-0.1-0.4-0.2-0.5-0.4c-0.1-0.2-0.1-0.5-0.1-0.8
			c-0.3-0.5-0.5-1.2-0.7-1.9c-0.2-0.7-0.3-1.5-0.3-2.4c0-0.2,0-0.3,0-0.5c0-0.2,0-0.3,0.1-0.5c-0.1-0.5-0.2-0.8-0.2-0.9
			c0-0.6,0.2-1.1,0.7-1.5c0.5-0.4,1-0.6,1.6-0.6c0.3,0,0.5,0.2,0.7,0.5c0.1,0.3,0.3,0.5,0.4,0.5c0.1,0,0.3-0.3,0.4-0.8
			c0.2-0.6,0.3-1.4,0.4-2.4c0.1-0.9,0.2-1.7,0.3-2.4c0-0.7,0.1-1.2,0.1-1.6c0-0.3-0.1-0.5-0.2-0.6c-0.1-0.1-0.3-0.2-0.6-0.2
			c-0.3,0-1.1,0.6-2.5,1.8c-1.4,1.2-3.4,3-6,5.4c-0.1,0.1-0.2,0.3-0.3,0.5c-0.2,0.2-0.3,0.5-0.5,0.8c-0.1-0.3-0.2-0.7-0.4-1.1
			C537.6,519.1,537.3,518.6,537,517.9z"/>
		<path fill="#229BC6" d="M555.9,517.9c0.1-0.1,0.2-0.3,0.3-0.5c0.1-0.2,0.3-0.4,0.5-0.6c0.2-0.2,0.5-0.4,0.8-0.7
			c0.3-0.3,0.7-0.7,1.1-1.1c0.4-0.4,0.8-0.9,1.3-1.5c0.5-0.6,1.2-1.3,1.9-2.2c0.3-0.3,0.7-0.8,1.2-1.3c0.5-0.5,1.1-1.2,1.7-1.9
			c0.6-0.7,1.2-1.2,1.8-1.5c0.6-0.3,1.3-0.5,2.1-0.5s1.3,0.2,1.6,0.7c0.3,0.5,0.5,1.1,0.5,2c0,0.5-0.2,1.4-0.5,2.7
			c-0.3,1.3-0.9,3-1.6,5.2c-0.2,0.4-0.4,0.8-0.5,1.2c-0.1,0.3-0.2,0.5-0.2,0.7c0,0.2-0.1,0.4-0.1,0.5c0,0.1,0.1,0.3,0.2,0.5
			c0.1-0.1,0.2-0.1,0.3-0.2c0.1-0.1,0.2-0.2,0.3-0.4c0.2-0.3,0.4-0.6,0.7-1c0.3-0.3,0.7-0.7,1.2-1.1c0.2-0.3,0.4-0.7,0.7-1
			c0.3-0.3,0.6-0.6,1-0.9c0.1-0.1,0.2-0.2,0.3-0.4c0.1-0.2,0.3-0.4,0.5-0.6c0.3-0.3,0.6-0.5,0.9-0.8c0.4-0.3,0.8-0.6,1.3-0.9
			c0.5-0.3,1-0.5,1.5-0.7c0.4-0.2,0.8-0.2,1.1-0.2c0.6,0,1.2,0.2,1.7,0.5c0.5,0.3,0.9,0.8,1.2,1.4c0.4,1.3,0.8,2.4,1.2,3.5
			c0.2,0.6,0.5,1.1,0.7,1.4c0.3,0.3,0.6,0.5,0.9,0.5c0.3,0,0.5,0,0.7-0.2c0.2-0.1,0.4-0.3,0.6-0.5l1.2,2.8c-0.3,0.3-0.7,0.6-1.1,0.9
			s-0.7,0.6-1.1,0.9c-0.5,0.4-0.9,0.7-1.3,0.9c-0.4,0.2-0.8,0.3-1.2,0.3c-0.5,0-0.9-0.1-1.3-0.3c-0.4-0.2-0.8-0.5-1.1-0.9
			c-0.2-0.2-0.4-0.5-0.6-0.9c-0.2-0.4-0.5-1-0.8-1.6c-0.3-0.3-0.6-0.6-0.9-1c-0.3-0.4-0.7-0.9-1.2-1.5l-0.3-0.1
			c-0.4,0.1-0.8,0.3-1.1,0.5c-0.4,0.2-0.8,0.6-1.2,0.9c-0.9,0.8-1.6,1.3-2,1.5c-0.4,0.2-0.7,0.4-0.8,0.7c-0.3,0.5-0.8,1.1-1.5,1.9
			c-0.7,0.8-1.5,1.7-2.6,2.7c-0.3,0.3-0.5,0.5-0.8,0.8c-0.3,0.3-0.5,0.5-0.8,0.7c-0.3,0.2-0.6,0.4-0.9,0.5c-0.3,0.1-0.7,0.1-1.1,0.1
			c-0.8,0-1.2-0.3-1.3-0.8c-0.1-0.6-0.1-1.1-0.2-1.7c0.3-0.8,0.6-1.9,1-3.2s0.8-2.8,1.3-4.5c0-0.1,0-0.2,0.1-0.4
			c0.1-0.2,0.2-0.4,0.3-0.7c0.1-0.3,0.2-0.5,0.2-0.7c0-0.2,0.1-0.4,0.1-0.5c0-0.1-0.1-0.3-0.2-0.3c-0.1-0.1-0.3-0.1-0.5-0.1
			c-0.2,0-0.5,0.1-0.8,0.4c-0.3,0.2-0.7,0.6-1.2,1.2c-0.6,0.6-1,1.1-1.4,1.4c-0.3,0.3-0.6,0.5-0.7,0.6c-0.2,0.1-0.4,0.3-0.7,0.6
			c-0.3,0.3-0.6,0.6-0.9,0.9c0,0.1-0.1,0.2-0.2,0.4c-0.1,0.2-0.2,0.3-0.4,0.5c-0.1-0.3-0.2-0.7-0.4-1.1
			C556.5,519.1,556.3,518.6,555.9,517.9z"/>
		<path fill="#229BC6" d="M584.9,517.9c0.1-0.1,0.3-0.3,0.4-0.6c0.2-0.2,0.3-0.5,0.5-0.8l2.3-1.6c0.3-0.3,0.7-0.8,1.3-1.3
			c0.6-0.5,1.3-1.2,2.2-2c0.1-0.2,0.3-0.5,0.5-0.8c0.2-0.3,0.5-0.6,0.8-0.9c0.3-0.3,0.6-0.5,0.8-0.7c0.3-0.2,0.5-0.5,0.8-0.7
			c0.3-0.3,0.6-0.6,0.9-0.9c0.3-0.3,0.5-0.6,0.8-0.9c0.3-0.3,0.7-0.5,1-0.7c0.3-0.2,0.7-0.2,1.1-0.2c0.4,0,0.8,0.1,1,0.2
			c0.2,0.1,0.4,0.3,0.4,0.5c-0.2,0.5-0.4,0.9-0.6,1.4l0.2,0.3c0.9-0.3,1.6-0.6,2.1-0.8c0.5-0.2,0.8-0.2,1-0.2c1.5,0,2.6,0.4,3.3,1.3
			c0.7,0.9,1.1,2.3,1.1,4.1c0,0.3,0,0.7-0.1,1.2c-0.1,0.5-0.2,1-0.4,1.5c-0.2,0.6-0.4,1.1-0.7,1.5c-0.2,0.4-0.4,0.7-0.7,0.9
			c0.1,0.3,0.2,0.4,0.3,0.6c0.1,0.1,0.2,0.2,0.4,0.2c0.2,0,0.3,0,0.5-0.2c0.2-0.1,0.4-0.3,0.6-0.5c0.2,0.4,0.4,0.9,0.6,1.4
			c0.2,0.5,0.4,0.9,0.6,1.4c-0.4,0.3-0.7,0.6-1.1,0.9c-0.3,0.3-0.7,0.6-1.1,0.9c-0.5,0.4-0.9,0.7-1.3,0.8c-0.4,0.2-0.8,0.3-1.2,0.3
			c-0.5,0-0.8-0.1-1.2-0.3c-0.3-0.2-0.5-0.5-0.7-0.9c-0.5,0.7-1.1,1.3-1.8,1.8c-0.7,0.6-1.5,1-2.4,1.4c-0.5,0.2-1,0.4-1.4,0.6
			c-0.4,0.1-0.8,0.2-1.1,0.2c-0.1,0-0.3,0-0.6,0.1c-0.3,0.1-0.5,0.1-0.7,0.1c-1.2,0-2.2-0.5-3.1-1.5c-0.9-1-1.4-2-1.4-3.2
			c0-0.5,0.1-1.1,0.3-1.9c0.2-0.8,0.3-1.3,0.3-1.4c0-0.1,0-0.3-0.1-0.3c-0.1-0.1-0.2-0.1-0.4-0.1c-0.1,0-0.3,0.2-0.7,0.5
			c-0.4,0.3-0.9,0.7-1.6,1.3c-0.1,0.1-0.1,0.2-0.2,0.4c-0.1,0.2-0.2,0.3-0.4,0.5c-0.2-0.5-0.3-0.9-0.5-1.4
			C585.3,518.8,585.1,518.4,584.9,517.9z M599.4,512.4c-0.1,0-0.2,0.1-0.4,0.3c-0.2,0.2-0.4,0.4-0.6,0.7c-0.3,0.5-0.6,1-1,1.5
			c-0.2,0.2-0.5,0.4-0.7,0.6c-0.3,0.1-0.5,0.2-0.9,0.3c-0.2,0-0.4,0.2-0.6,0.6c-0.2,0.4-0.4,0.9-0.7,1.6c-0.2,0.6-0.4,1.2-0.5,1.6
			c-0.1,0.4-0.2,0.8-0.2,1.1c0,0.6,0.1,1,0.4,1.3c0.3,0.3,0.7,0.4,1.3,0.4c0.9,0,1.8-0.3,2.6-0.8c0.8-0.5,1.5-1.3,2.2-2.3
			c0.3-0.4,0.6-0.7,0.9-1.1c0.2-0.1,0.3-0.3,0.4-0.6c0.1-0.3,0.2-0.6,0.3-1l0.5-1.7c-0.2-0.6-0.4-1.1-0.5-1.4
			c-0.2-0.4-0.3-0.6-0.5-0.7c-0.1-0.1-0.3-0.1-0.7-0.2C600.6,512.5,600.1,512.5,599.4,512.4z"/>
		<path fill="#229BC6" d="M606.8,517.9c0.1-0.1,0.3-0.2,0.6-0.5c0.3-0.2,0.7-0.5,1.2-0.8c0.3-0.2,0.7-0.5,1.1-1
			c0.4-0.5,0.9-1.1,1.5-1.9c0.5-0.6,0.9-1.2,1.2-1.8c0.4-0.6,0.6-1.1,0.9-1.5c0.7-1.6,1.5-2.7,2.2-3.5c0.7-0.7,1.5-1.1,2.3-1.1
			c0.3,0,0.5,0.1,0.7,0.2c0.2,0.1,0.2,0.4,0.2,0.7c0,0.6,0,1.4-0.2,2.6c-0.1,1.2-0.2,2.1-0.2,2.8c0,0.3,0,0.7,0.1,1.3
			c0,0.6,0.1,1.3,0.2,2.1c0.1,0.9,0.2,1.6,0.2,2.2c0.1,0.5,0.1,0.8,0.2,0.9l0.3,0.2c0.4,0,1.7-2.3,3.7-6.8c2-4.5,3.7-6.8,5-6.8
			c0.5,0,0.9,0.2,1.1,0.5c0.2,0.3,0.3,0.8,0.3,1.5c0,0.3-0.1,0.5-0.2,0.7c-0.1,0.2-0.3,0.4-0.5,0.5c-0.1,0.1-0.1,0.2-0.2,0.3
			c-0.1,0.2-0.1,0.4-0.1,0.6c-0.1,0.7-0.3,1.5-0.5,2.2c0,0.2,0.1,0.3,0.2,0.5c0.1,0.1,0.1,0.3,0.2,0.4c0-0.1,0,0.3-0.1,1.2
			s-0.2,2.5-0.3,4.5c0,0.1,0,0.3,0,0.5c0,0.2,0,0.4,0.1,0.6c0.1,0.3,0.3,0.5,0.5,0.8c0.4,0,1-0.6,1.8-1.9c0.8-1.2,1.8-3.1,3.1-5.6
			c0.1-0.4,0.2-0.9,0.3-1.4c0.2-0.5,0.4-1,0.6-1.6c0.2-0.5,0.4-0.9,0.6-1.4c0.2-0.5,0.4-0.9,0.7-1.4l-0.2-0.9
			c0.1-0.4,0.2-0.8,0.2-1.2c0.1-0.4,0.2-0.8,0.3-1.1c0.1-0.5,0.3-0.9,0.6-1.1c0.3-0.3,0.6-0.4,0.9-0.4c0.3,0,0.6,0.1,0.8,0.3
			c0.2,0.2,0.2,0.4,0.2,0.7c0,1-0.1,2.1-0.3,3.2c-0.2,1.1-0.5,2.3-0.9,3.5c-0.4,1.4-0.9,2.6-1.4,3.8s-1.1,2.2-1.8,3.3
			c-0.5,1.3-1.3,2.8-2.3,4.4c-0.7,1-1.2,1.8-1.6,2.4c-0.4,0.6-0.6,0.9-0.7,1c-0.5,0.6-1.1,1.1-1.7,1.5c-0.6,0.3-1.1,0.5-1.7,0.5
			c-0.7,0-1.3-0.6-1.7-1.8c-0.4-1.2-0.6-2.9-0.6-5.3c0-0.2,0.1-0.5,0.2-0.9c0.1-0.3,0.2-0.6,0.2-0.8l-0.2-0.2
			c-0.1,0-0.3,0.1-0.5,0.4c-0.2,0.3-0.5,0.8-0.8,1.4c-0.4,0.7-0.8,1.5-1.3,2.3c0,0.2-0.1,0.4-0.1,0.7c-0.1,0.3-0.2,0.5-0.3,0.8
			l-1,1.9c-0.2,0.4-0.3,0.7-0.5,1.1c-0.2,0.4-0.4,0.7-0.5,1.1c-0.2,0.3-0.5,0.5-0.9,0.6c-0.3,0.1-0.7,0.2-1.1,0.2
			c-0.1,0-0.2,0-0.3,0c-0.1,0-0.2-0.1-0.4-0.1l-0.5-0.5c-0.2-0.2-0.4-1.2-0.7-3.2c-0.3-2-0.8-4.8-1.4-8.6c-0.2,0.1-0.4,0.3-0.5,0.4
			c-0.2,0.1-0.3,0.3-0.5,0.5c-0.2,0.2-0.4,0.5-0.7,0.8c-0.3,0.3-0.6,0.7-0.9,1.1c-0.3,0.3-0.7,0.7-1.3,1.1c-0.6,0.4-1.1,0.8-1.3,1.1
			c-0.1-0.4-0.3-0.8-0.5-1.3C607.3,519,607,518.5,606.8,517.9z"/>
	</g>
</g>
</svg>
