<?xml version="1.0" encoding="utf-8"?>
<!-- Generator: Adobe Illustrator 18.1.1, SVG Export Plug-In . SVG Version: 6.00 Build 0)  -->
<!DOCTYPE svg PUBLIC "-//W3C//DTD SVG 1.1//EN" "http://www.w3.org/Graphics/SVG/1.1/DTD/svg11.dtd">
<svg version="1.1" id="Layer_1" xmlns="http://www.w3.org/2000/svg" xmlns:xlink="http://www.w3.org/1999/xlink" x="0px" y="0px"
	 viewBox="0 0 960 640" enable-background="new 0 0 960 640" xml:space="preserve">
<path fill="#5192B7" d="M743,291.1c1.6,3.8,5.7,5.8,9.5,7.5c10.6,4.7,21.3,9.4,31.9,14.1c6.4,2.8,13,5.8,17.3,11.3
	c4.2,5.3,5.6,12.3,6.3,19.1c4.2,39.4-10.3,78.2-24.7,115.2c-5.1,13.1-10.2,26.4-18.2,38.1c-23.5,34.7-67.5,49.4-109.2,53.5
	c-64,6.3-128.5-7.1-189.7-27.1c-61.2-20-120-46.4-180.8-67.4c-25.7-8.9-52-16.9-75.3-30.9c-29.3-17.7-53-45.3-63.1-77.9
	c-10.1-32.7-5.4-70.2,14.9-97.7c4.7-6.3,10.2-12.3,12.7-19.8c2-6.1,1.8-12.6,2.7-18.9c4.1-30.7,32.8-53.8,63.2-60.3
	s61.9,0.4,91.6,9.3c80.6,24.2,156.1,63.5,237.1,86.3c3.6,1,7.7,1.9,10.9,0.1c2.7-1.6,4-4.6,4.9-7.6c8.8-27.5-0.8-62.8,20.4-82.4
	c15.5-14.3,39.6-12,60.2-7.6c26.8,5.7,53.1,13.6,78.6,23.4c6.6,2.5,13.4,5.5,17.7,11c8,10.3,4.4,25,0.5,37.4
	c-6.3,20-12.5,40-18.8,60C742.7,283.5,741.5,287.5,743,291.1z"/>
<linearGradient id="SVGID_1_" gradientUnits="userSpaceOnUse" x1="511.888" y1="220.4203" x2="501.8329" y2="412.2822" gradientTransform="matrix(0.9679 0.2512 -0.2512 0.9679 75.6174 -106.4801)">
	<stop  offset="0.1343" style="stop-color:#FF9A3F"/>
	<stop  offset="0.9379" style="stop-color:#FFFFFF"/>
	<stop  offset="0.9387" style="stop-color:#FFFCF9"/>
	<stop  offset="0.9406" style="stop-color:#FFFBF7"/>
</linearGradient>
<path fill="url(#SVGID_1_)" d="M772.5,437.1c-20.9,23.6-55.9,28.2-87.4,27.5c-98-2.4-190.7-41.3-285.3-67.2
	c-39-10.7-78.9-19.2-115.4-36.5c-36.5-17.3-70.2-44.6-85.3-82.1S192,193,224.5,169.1c3.3-2.5,6.9-4.7,10.9-5.7
	c4.3-1.1,8.9-0.8,13.4-0.5c53.7,4.6,105.5,21.3,156.7,37.9c114.5,37.1,229.1,74.2,343.6,111.3c20.3,6.6,43.4,16.1,48.8,36.7
	c2.5,9.5,0.4,19.6-1.6,29.2C791.8,399.1,786.8,421,772.5,437.1z"/>
<path opacity="0.51" fill="#FFEBDC" d="M777.4,364.6c-33.3-8.9-66.2-19.3-99-29.6c-18.8-5.9-37.6-11.9-56.4-17.8
	c-27.5-8.7-55-17.4-82.5-26.1c-101.1-32-202.2-63.9-304.3-92.6c-6-1.7-12.8-4-15.2-9.9c-3.8-9.3,7.2-18.2,17.1-19.9
	c12.9-2.2,26,1.2,38.6,4.6c62.5,16.9,124.2,37,185.8,57c98.9,32.1,197.7,64.3,296.6,96.4c7.6,2.5,15.5,5.1,21.7,10.2
	s10.4,13.4,8.5,21.2c-0.9,3.4-3.4,6.8-6.9,7.1C780.1,365.3,778.7,365,777.4,364.6z"/>
<path fill="#D67D65" d="M739.5,415.4l-511-159.3c-17.8-5.5-27.8-24.6-22.3-42.4l0,0c5.5-17.8,24.6-27.8,42.4-22.3l511,159.3
	c17.8,5.5,27.8,24.6,22.3,42.4l0,0C776.4,410.9,757.3,421,739.5,415.4z"/>
<linearGradient id="SVGID_2_" gradientUnits="userSpaceOnUse" x1="501.2564" y1="292.2377" x2="491.2014" y2="484.0995" gradientTransform="matrix(0.9679 0.2512 -0.2512 0.9679 75.6174 -106.4801)">
	<stop  offset="0" style="stop-color:#FFFFFF"/>
	<stop  offset="2.012926e-02" style="stop-color:#FFF8F2"/>
	<stop  offset="9.499758e-02" style="stop-color:#FFE2C9"/>
	<stop  offset="0.1763" style="stop-color:#FFCFA3"/>
	<stop  offset="0.2632" style="stop-color:#FFBE84"/>
	<stop  offset="0.3574" style="stop-color:#FFB16B"/>
	<stop  offset="0.4617" style="stop-color:#FFA757"/>
	<stop  offset="0.5816" style="stop-color:#FF9F49"/>
	<stop  offset="0.7308" style="stop-color:#FF9B41"/>
	<stop  offset="1" style="stop-color:#FF9A3F"/>
</linearGradient>
<path fill="url(#SVGID_2_)" d="M744.2,503.9c-20.9,23.6-55.9,28.2-87.4,27.5c-98-2.4-190.7-41.3-285.3-67.2
	c-39-10.7-78.9-19.2-115.4-36.5c-36.5-17.3-70.2-44.6-85.3-82.1s-7.1-85.8,25.4-109.7c3.3-2.5,6.9-4.7,10.9-5.7
	c4.3-1.1,8.9-0.8,13.4-0.5c53.7,4.6,105.5,21.3,156.7,37.9c114.5,37.1,229.1,74.2,343.6,111.3c20.3,6.6,43.4,16.1,48.8,36.7
	c2.5,9.5,0.4,19.6-1.6,29.2C763.5,465.9,758.4,487.9,744.2,503.9z"/>
<g>
	<g>
		<g>
			<path fill="#C43418" d="M587.2,398.5c9-0.4,18.2-1.2,27.2-2c4.7-0.4,4.7-7,0-7.4c-9.2-0.7-20,1.4-28.1,5.9
				C584.6,395.9,585.3,398.6,587.2,398.5L587.2,398.5z"/>
		</g>
		<g>
			<g>
				<path fill="#C43418" d="M197.9,296.1c0.1-5.6,0.1-11.2,2.1-16.5c1-2.9,2.6-5.5,4.5-7.9c0.6-0.7,2.7-3.4,4-3
					c0.9,0.3,1.6,4.2,1.8,4.9c1.3,6.5-0.1,13.2-1.3,19.6c-1.2,6.5-2.2,13-2.9,19.6c-1.4,13-2.6,26.6,0,39.5
					c1.9,9.8,8,22.8,18.2,26.3c5.5,1.8,8.3-5.2,5.2-8.9c-2.2-2.7-5.1-4.6-7.2-7.4c-1.8-2.4-3.1-5.1-4.2-7.9
					c-2.8-7.5-3.4-15.5-3.6-23.5c-0.2-8.2,0-16.4,0.7-24.6c0.6-7.7,2.1-15.4,2.2-23.2c0.1-5.6-0.3-13-4-17.6
					c-3.3-4-7.8-2.9-11.1,0.5c-7.5,7.6-11.4,21-6.7,30.9C196.1,297.9,197.9,297.3,197.9,296.1L197.9,296.1z"/>
			</g>
			<g>
				<path fill="#C43418" d="M252.2,259.9c-0.8,10.5-1.3,21.1-2.6,31.6c-1.4,10.7-2.8,21.4-3.7,32.1c-0.8,9.7-1,19.4,0.2,29.1
					c1.1,9,2.7,20.2,8,27.8c3.4,4.9,12.2,2.1,10.2-4.3c-1.4-4.6-3.7-8.8-5.1-13.4c-1.3-4.4-2.2-8.8-2.8-13.4
					c-1.3-9.7-1.2-19.5-0.6-29.2c1.1-20,5.1-41.1,0.1-60.8C255.4,257.2,252.4,257.8,252.2,259.9L252.2,259.9z"/>
			</g>
			<g>
				<path fill="#C43418" d="M268.6,306.1c-8.9,12.9-20.9,24.9-36.9,27.9c-7.6,1.5-17,0.8-23.5-3.7c-8.1-5.7,6.3-11.5,11.2-11.6
					c7.6-0.1,14.4,4.2,19.4,9.6c5.3,5.7,8.4,13.4,15.2,17.7c6.9,4.4,14,3.3,20.9-0.5c7.5-4.2,14.5-9.4,21-15c-2.5-1.9-5-3.9-7.5-5.8
					c-5.6,9.8-10.5,20.9-12.3,32.1c-1.3,8.1,0.5,18.7,10.1,20.2c9.8,1.5,16.3-7.7,17.6-16.3c1.8-11.7,1.1-24.9-0.7-36.5
					c-2.1,0.6-4.2,1.2-6.3,1.7c0.9,5.3,1.6,10.7,2.3,16c0.3,2.3,4,1.7,4-0.5c0-5.4-0.1-10.9,0.1-16.3c0.1-4.2-6.4-4.2-6.6,0
					c-0.4,8.6,0,17.3-0.1,25.9c-0.1,5.2,0,19.2-8.6,18.2c-12.2-1.5,5.9-35,8.6-39.5c3-4.9-3.5-9-7.5-5.8
					c-6.3,5.1-13.4,10.2-20.8,13.6c-8.7,4-13.2-5.5-17.5-11.4c-8.4-11.6-21.5-20.1-36.3-17.3c-6.4,1.2-12.8,4.7-16.3,10.3
					c-3.4,5.6-3.3,12.7,1.8,17.3c10.6,9.5,28.4,9.1,40.8,4c14.4-6,24.5-19,30.1-33.2C271.5,305.6,269.4,305,268.6,306.1L268.6,306.1
					z"/>
			</g>
			<g>
				<path fill="#C43418" d="M298.3,325.3c-3,15.1-0.2,29.4,6.6,43c1.2,2.4,4.8,2.2,6.1,0c6.4-10.8,12.2-21.9,17.8-33.1
					c-3.1-1.3-6.2-2.6-9.2-3.9c-3.4,24.8-5.5,49.8-8.1,74.6c-0.5,4.8,7.7,6,8.6,1.2c2.4-14,5.1-27.9,7.9-41.9
					c2.2-10.8,2.8-26,10.7-34.5c6.5-6.9,21.3-4.4,15.5,7.2c-5.4,10.8-19.2,17.4-30.2,20.8c-3.8,1.2-4.5,7.7,0,8.4
					c10,1.6,19.1-2.4,26.8-8.6c8.3-6.7,14.4-15.7,23.6-21.2c-2-1.6-4.1-3.1-6.1-4.7c-5,25.1-10.2,50.2-15.3,75.3
					c-1.2,5.8,7.3,8.3,9,2.5c3.9-13,7.6-26.1,11.4-39.2c1.8-6.4,3.7-12.8,5.6-19.1c1.4-4.9,2.7-9.9,5.5-14.2
					c2.1-3.3,5.6-6.6,9.8-4.8c4.4,1.9,6.1,7.3,4.9,11.6c-3.3,11.9-18.2,14.7-28.6,16.6c-4.5,0.8-4,7.4,0,8.6
					c23.5,6.9,51.8-8.4,56.6-33c1.1-5.5-7.1-7.8-8.4-2.3c-1.3,5.4-2.7,10.8-4.1,16.2c-1.3,4.8-3.3,10-2.2,15
					c1.6,7.5,9.3,11,16.4,10.6c17.2-1,26.1-19.4,30.2-33.7c-2.8-0.4-5.6-0.8-8.3-1.1c0.8,20.1-0.6,40.3-4.4,60.1
					c-1.7,9.1-3.6,18.4-6.7,27.1c-2.4,6.7-6.6,14-14.4,14.8c-19.7,2.2-2.3-27.3,2.7-33.8c8.8-11.4,20.7-20.3,33.9-26
					c14.7-6.4,31.3-8.1,47.2-6.5c4.3,0.4,5-6.3,1-7.4c-33.8-9.9-71.5,8.4-91.1,36.2c-8.1,11.4-21.4,37.3-2.3,45.3
					c7.3,3.1,16,1.2,21.9-4c7.3-6.4,10.2-16.1,12.4-25.2c6.6-26.4,9.2-53.6,8.2-80.7c-0.2-4.7-7-5.8-8.3-1.1
					c-3,10.3-8.2,23.7-19.6,27c-5.8,1.7-11.6-0.5-10.2-7.4c1.7-7.8,4-15.6,6.2-23.2c-2.8-0.8-5.6-1.5-8.4-2.3
					c-5,19.6-26.1,32.9-45.9,26.8c0,2.9,0,5.7,0,8.6c14.3-2,31.2-6.9,35.7-22.6c3.4-12.2-6.2-27.1-19.9-24.2
					c-13.4,2.8-16.9,19-20.1,30.1c-5.2,18.3-10.6,36.5-15.8,54.7c3,0.8,6,1.7,9,2.5c4.8-25.2,9.5-50.4,14.4-75.6
					c0.7-3.4-2.8-6.7-6.1-4.7c-7.5,4.5-13.1,11-19.2,17.2c-6.5,6.5-14.8,13.4-24.7,11.4c0,2.8,0,5.6,0,8.4c14-3.5,31.3-12.7,36.9-27
					c5.1-13-5.2-24.3-18.6-22.1c-14.4,2.4-19.3,17.1-21.8,29.6c-3.7,19.1-7.1,38.2-11.2,57.2c2.9,0.4,5.7,0.8,8.6,1.2
					c3.2-24.4,6.9-48.8,9.3-73.3c0.5-4.9-7.3-7-9.4-2.6c-5.5,11.7-10.8,23.4-15.5,35.5c2.1-0.3,4.3-0.6,6.4-0.8
					c-7-11.6-9.3-25.5-8-38.8C303.3,323.3,298.8,322.7,298.3,325.3L298.3,325.3z"/>
			</g>
			<g>
				<path fill="#C43418" d="M545.9,347.5c-1.2,8.6-1.6,17.3-3.6,25.8c-2.1,8.8-5.3,17.2-9.4,25.2c-1.6,3.1,1.1,7.4,4.8,6.2
					c7.5-2.5,15.2-0.7,21.9,3.2c3.3,1.9,6.4,4.2,9.4,6.6c2.9,2.4,5.4,5.5,9.2,6.1c3.2,0.5,6.8-2,5.6-5.6c-1.4-4.4-5.4-6.8-9-9.5
					c-4.1-3-8.3-5.7-13-7.7c-8.4-3.6-17.7-4.5-26.3-1.2c1.6,2.1,3.2,4.1,4.8,6.2c7.9-16.4,14.1-37,10.7-55.3
					C550.4,345.1,546.2,345,545.9,347.5L545.9,347.5z"/>
			</g>
			<g>
				<path fill="#C43418" d="M576.2,350.8c-4.2,10.3-6.6,21.5-9.1,32.3c-2.6,11.2-4.9,22.5-6.9,33.8c-1.9,10.8-3.5,21.6-4.8,32.5
					c-0.7,5.6-1.4,11.1-1.9,16.7c-0.6,5.6-1.5,11.3-0.8,16.9c0.6,4.3,6.9,3.6,8,0c1.5-5.1,1.3-10.7,1.7-16
					c0.4-5.6,0.9-11.2,1.5-16.7c1.1-11.4,2.6-22.8,4.2-34.1c1.5-10.8,3.3-21.6,5.3-32.3c2-10.9,4.6-21.7,5.9-32.7
					C579.5,349.3,576.8,349.3,576.2,350.8L576.2,350.8z"/>
			</g>
			<g>
				<path fill="#C43418" d="M595.7,374.1c-0.6,10-2.2,19.6-3.8,29.4c-1.3,8.2-2.6,16.7-1.2,24.9c1.2,6.5,5,12.8,11.6,15
					c6,1.9,13,0.2,15.8-5.7c2.1-4.4-3.7-10-7.3-5.6c-2.8,3.4-7.3,1.9-9.3-1.5c-3-5-2.4-12.2-2.1-17.8c0.9-13,4.7-26.4,1.8-39.5
					C600.6,370.1,595.9,371,595.7,374.1L595.7,374.1z"/>
			</g>
			<g>
				<path fill="#C43418" d="M620.6,375.9c-1.1,3.6-0.4,7.4-0.1,11.2c0.3,4.3,0.6,8.5,0.7,12.8c0.3,8.6,0,17.2-0.7,25.7
					c-0.4,4.7,6.4,5,7.8,1c1.3-3.6,2.9-7,5-10.2c1.7-2.5,4.3-6.8,7.2-7.9c1.3-0.5,0.9-0.9,1.5,1.1c0.3,1.3,0.5,2.7,0.6,4
					c0.5,4.1,0.4,8.6,1.9,12.4c1.6,3.9,8.8,5.5,9.6,0c0.8-5.8-0.2-13.6-1.9-19.2c-1.5-4.8-5.2-8.9-10.6-8.7
					c-6,0.2-10.1,5.7-13.2,10.1c-3.4,5-5.9,10.6-7.7,16.4c2.6,0.3,5.2,0.7,7.8,1c0.3-8.9,0-17.8-0.8-26.6c-0.7-7-0.8-17.5-5.1-23.3
					C622,375,620.9,375,620.6,375.9L620.6,375.9z"/>
			</g>
			<g>
				<path fill="#C43418" d="M695.3,384.2c-3.8,4.3-6.3,9.8-8.9,15c-2.6,5.3-5.3,10.5-8.1,15.7c-2.7,5.2-5.5,10.4-8.3,15.6
					c-2.6,4.8-7.6,10.6-7.1,16.2c0.4,4,4.2,6.6,7.9,4.6c5.1-2.8,7-9.8,9.4-14.8c2.7-5.6,5.3-11.3,7.8-17
					c4.6-10.3,11.2-21.9,12.3-33.3C700.5,383.8,696.9,382.4,695.3,384.2L695.3,384.2z"/>
			</g>
			<g>
				<path fill="#C43418" d="M654,482c0.2,1.6,2,2.4,3.4,2.4c1.8,0,3.3-1,4.3-2.5c1.1-1.7,1.2-4,0.2-5.8c-1-1.9-3.2-3-5.3-3
					c-4.3,0-8.4,4.1-7,8.6c1.5,4.7,7.4,6.8,11.5,4.2c2.4-1.5,3.9-4.2,3.7-7c-0.1-1.9-0.7-3.6-2.1-5c-0.9-0.9-2.2-1.7-3.5-2
					c-2.2-0.5-4.9,0.3-6.1,2.5c-0.4,0.8-0.7,1.8-0.7,2.7c-0.1,1.5,0.7,2.7,1.6,3.8c-0.6-0.9-0.8-1.1-0.5-0.6
					c-0.2-0.4-0.4-0.9-0.6-1.3c0.1,0.2,0.1,0.4,0.2,0.6c-0.1-0.5-0.1-1-0.2-1.5c0.1,0.8,0.2,1.6,0.4,2.3c-0.1-0.5-0.1-1-0.2-1.6
					c0,0.3,0,0.5,0,0.8c0.1-0.5,0.1-1,0.2-1.6c-0.1,0.3-0.1,0.5-0.2,0.8c0.2-0.5,0.4-0.9,0.6-1.4c-0.1,0.1-0.1,0.2-0.2,0.4
					c0.3-0.4,0.6-0.8,0.9-1.2c-0.1,0.2-0.3,0.3-0.4,0.4c0.4-0.3,0.8-0.6,1.2-0.9c-0.1,0.1-0.2,0.1-0.4,0.2c0.5-0.2,0.9-0.4,1.4-0.6
					c-0.2,0.1-0.4,0.1-0.6,0.2c0.5-0.1,1-0.1,1.5-0.2c-0.3,0-0.7,0.1-1,0c0.5,0.1,1,0.1,1.5,0.2c-0.2,0-0.4-0.1-0.6-0.1
					c0.4,0.2,0.9,0.4,1.3,0.5c-0.2-0.1-0.7-0.5,0,0.1c0.7,0.6,0.3,0.2,0.1,0c0.4,0.8,0.9,1.5,1.3,2.3c-0.1-0.1-0.1-0.2-0.1-0.4
					c0.1,0.5,0.1,0.9,0.2,1.4c0-0.2,0-0.3,0-0.5c-0.1,0.4-0.1,0.9-0.2,1.3c0.2-0.7-0.5,1-0.3,0.6c0.3-0.5-0.9,1-0.4,0.5
					c0.5-0.5-0.9,0.6-0.4,0.3c0.5-0.3-1.2,0.4-0.5,0.2c0.6-0.2-0.9,0.1-1.1,0c-0.4-0.1-0.6-0.1-0.3,0c0.3,0.1,0.1,0-0.6-0.3
					c0.5,0.3-0.5-0.4-0.6-0.6c-0.3-0.4-0.7-1-0.6-1.6c0,0.1,0,0.3,0,0.4c-0.1-0.4,0.1-0.9,0-0.2c0,0-0.1,0.3-0.1,0.3
					c0.2-0.5,0.3-0.6,0.2-0.4c-0.1,0.1,0,0.1,0.1-0.1c0.3-0.4,0,0-0.1,0c0.4-0.4-0.8,1.1-0.3,0.5c0.3-0.4-0.2,0.2-0.2,0.3
					C653.9,481,653.9,481.5,654,482L654,482z"/>
			</g>
			<g>
				<path fill="#C43418" d="M589.7,464.7c9.2-3.5,18.6-6.4,28.2-8.3c4.8-0.9,9.7-1.6,14.6-1.9c4.8-0.3,10.1,0.5,14.6-1.4
					c1.9-0.8,2.9-3.7,0.6-4.8c-4.5-2.1-9.5-1.5-14.3-1.1c-5.2,0.4-10.4,1.2-15.5,2.3c-10.5,2.2-20.5,5.9-29.7,11.3
					C586,461.9,587.4,465.5,589.7,464.7L589.7,464.7z"/>
			</g>
		</g>
	</g>
	<g opacity="0.8">
		<path fill="#F9F0EF" d="M253.6,276c0.1,6.6,0.2,13.3-0.4,19.9c-0.1,1.2,1.8,1.2,1.9,0c0.7-6.8,0.8-13.3-0.3-20
			C254.6,275.2,253.5,275.3,253.6,276L253.6,276z"/>
	</g>
	<g opacity="0.8">
		<path fill="#F9F0EF" d="M316.7,359.7c-1.8,5.2-1.5,11.2-2.2,16.6c-0.8,6.6-2.3,13-3.2,19.5c-0.5,3.3-1.6,8.6,0.6,11.6
			c1.6,2.3,4.3,2.8,6.3,0.9c1.1-1-0.1-2.5-1.3-2.3c-3.9,0.6-1.6-10.7-1.5-12.4c0.3-4.5,0.8-8.8,1.5-13.3c0.9-6.5,2.9-14.2,1-20.6
			C317.7,359.1,316.9,359.1,316.7,359.7L316.7,359.7z"/>
	</g>
	<g opacity="0.8">
		<path fill="#F9F0EF" d="M361.6,370.3c-2.6,9.1-4.7,18.4-7.1,27.6c-1.1,4.3-1.8,10.5,3.5,12.2c1.5,0.5,2.5-1.5,1.5-2.5
			c-4.5-4.5-1.1-12.6,0-18.1c1.3-6.2,3-12.3,4.2-18.5C364,369.5,362,368.9,361.6,370.3L361.6,370.3z"/>
	</g>
	<g opacity="0.8">
		<path fill="#F9F0EF" d="M464.6,382.2c8.3-2.6,16.9-3.7,25.6-4c3.7-0.1,3.7-5.8,0-5.7c-9.5,0.3-18.2,3.1-26.3,8
			C463,381,463.6,382.5,464.6,382.2L464.6,382.2z"/>
	</g>
	<g opacity="0.8">
		<path fill="#F9F0EF" d="M500.8,375.8c1.1,0.8,2.2,1.2,3.4,1.5c1.1,0.3,2.4-0.2,2.9-1.2c0.5-0.9,0.5-1.7,0-2.6
			c-0.5-1-1.8-1.5-2.9-1.2c-1.3,0.3-2.4,0.8-3.4,1.5C500.1,374.4,500.1,375.3,500.8,375.8L500.8,375.8z"/>
	</g>
	<g opacity="0.8">
		<path fill="#F9F0EF" d="M557.6,484.3c0.8-1.4,1.8-2.6,2.4-4.1c0.6-1.7,1.1-3.2,1.2-5.1c0.1-2.9-3.5-3.3-5-1.4
			c-1.3,1.7-1.6,3.6-1.6,5.7c0,1.7,0.8,3.3,1.6,4.9C556.4,484.9,557.3,484.8,557.6,484.3L557.6,484.3z"/>
	</g>
	<g opacity="0.8">
		<path fill="#F9F0EF" d="M671.7,446c7.2-14,15.4-27.4,22.6-41.4c1.4-2.7-2.6-5-4.1-2.4c-7.9,13.7-13.8,28.6-19.5,43.3
			C670.5,446.1,671.4,446.5,671.7,446L671.7,446z"/>
	</g>
	<g opacity="0.8">
		<path fill="#F9F0EF" d="M659.2,485.5c0.7-0.4,1.3-0.8,1.8-1.3c0.3-0.2,0.5-0.5,0.7-0.8c0.4-0.5,0.5-1,0.4-1.7
			c-0.1-0.8-1.2-1.1-1.9-0.8c-0.4,0.2-0.7,0.6-0.9,1c-0.1,0.3-0.2,0.6-0.3,0.9c-0.2,0.6-0.6,1.1-0.9,1.6
			C657.7,485.1,658.6,485.8,659.2,485.5L659.2,485.5z"/>
	</g>
	<g opacity="0.8">
		<path fill="#F9F0EF" d="M641.9,451.9c0.3,0,0.7,0.1,1,0.2c0.2,0.1,0.4,0.2,0.7,0.3c0.3,0.1,0.5,0.1,0.8,0.1c0.9,0.2,1.9-0.3,2-1.3
			c0.1-1-0.6-1.7-1.6-1.8c-0.9-0.1-1.6,0-2.2,0.6c-0.4,0.3-0.8,0.8-1.1,1.2C641.4,451.5,641.6,451.8,641.9,451.9L641.9,451.9z"/>
	</g>
</g>
<g>
	<g>
		
			<rect x="612.3" y="172.2" transform="matrix(0.9729 0.231 -0.231 0.9729 67.8268 -151.4065)" fill="#EDEDED" width="136.3" height="83.4"/>
		
			<rect x="618.7" y="163" transform="matrix(0.9729 0.231 -0.231 0.9729 59.4003 -143.9309)" fill="#34588C" width="51.1" height="37.3"/>
		
			<rect x="671.6" y="179.2" transform="matrix(0.9729 0.231 -0.231 0.9729 61.3619 -160.0867)" fill="#CC2E15" width="85.2" height="5.6"/>
		
			<rect x="669.1" y="190" transform="matrix(0.9729 0.231 -0.231 0.9729 63.7981 -159.1982)" fill="#CC2E15" width="85.2" height="5.6"/>
		
			<rect x="666.5" y="200.6" transform="matrix(0.9729 0.231 -0.231 0.9729 66.1813 -158.3291)" fill="#CC2E15" width="85.2" height="5.6"/>
		
			<rect x="664.3" y="210.1" transform="matrix(0.9729 0.231 -0.231 0.9729 68.2996 -157.5565)" fill="#CC2E15" width="85.2" height="5.6"/>
		
			<rect x="611.6" y="214.1" transform="matrix(0.9729 0.231 -0.231 0.9729 68.4888 -151.1651)" fill="#CC2E15" width="136.3" height="5.6"/>
		
			<rect x="609" y="224.8" transform="matrix(0.9729 0.231 -0.231 0.9729 70.902 -150.285)" fill="#CC2E15" width="136.3" height="5.6"/>
		
			<rect x="606.6" y="235" transform="matrix(0.9729 0.231 -0.231 0.9729 73.1792 -149.4545)" fill="#CC2E15" width="136.3" height="5.6"/>
		
			<rect x="604.3" y="244.9" transform="matrix(0.9729 0.231 -0.231 0.9729 75.4035 -148.6434)" fill="#CC2E15" width="136.3" height="5.6"/>
		<circle fill="#FFFFFF" cx="629.8" cy="166.3" r="2.4"/>
		<circle fill="#FFFFFF" cx="638.3" cy="168.3" r="2.4"/>
		<circle fill="#FFFFFF" cx="646.8" cy="170.3" r="2.4"/>
		<circle fill="#FFFFFF" cx="655.3" cy="172.3" r="2.4"/>
		<circle fill="#FFFFFF" cx="663.8" cy="174.3" r="2.4"/>
		<circle fill="#FFFFFF" cx="627.5" cy="176.3" r="2.4"/>
		<circle fill="#FFFFFF" cx="635.9" cy="178.3" r="2.4"/>
		<circle fill="#FFFFFF" cx="644.4" cy="180.3" r="2.4"/>
		<circle fill="#FFFFFF" cx="652.9" cy="182.4" r="2.4"/>
		<circle fill="#FFFFFF" cx="661.4" cy="184.4" r="2.4"/>
		<circle fill="#FFFFFF" cx="625.1" cy="186.3" r="2.4"/>
		<circle fill="#FFFFFF" cx="633.6" cy="188.3" r="2.4"/>
		<circle fill="#FFFFFF" cx="642.1" cy="190.4" r="2.4"/>
		<circle fill="#FFFFFF" cx="650.5" cy="192.4" r="2.4"/>
		<circle fill="#FFFFFF" cx="659" cy="194.4" r="2.4"/>
	</g>
	
		<rect x="601.5" y="155" transform="matrix(-0.9729 -0.231 0.231 -0.9729 1136.0728 603.7363)" fill="#EFDDCA" width="3.7" height="160.7"/>
</g>
</svg>
