<?xml version="1.0" encoding="utf-8"?>
<!-- Generator: Adobe Illustrator 18.1.1, SVG Export Plug-In . SVG Version: 6.00 Build 0)  -->
<!DOCTYPE svg PUBLIC "-//W3C//DTD SVG 1.1//EN" "http://www.w3.org/Graphics/SVG/1.1/DTD/svg11.dtd">
<svg version="1.1" id="Layer_1" xmlns="http://www.w3.org/2000/svg" xmlns:xlink="http://www.w3.org/1999/xlink" x="0px" y="0px"
	 viewBox="0 0 960 640" enable-background="new 0 0 960 640" xml:space="preserve">
<g>
	<path fill="#EACB8C" d="M638.7,522.7c-22.5,8.4-45.9,14.6-69.6,18.5c-34.5,5.7-70.1,6.4-104.1-1.8c-34-8.2-66.2-25.7-88.7-52.4
		c-9.9-11.7-17.9-25.1-29.7-34.8c-26.4-21.9-64.2-20.6-98.5-21.6c-34.3-1-73.9-8.9-89.7-39.4c-15-28.8,3.7-69.4,35.3-76.7
		c16.5-3.8,36.8-0.8,47.7-13.8c7-8.3,7.2-20.1,7.8-30.8c2-34.6,12.3-69.5,34.4-96.1c21.4-25.8,52.8-42.3,85.6-49s67.1-4,99.6,4
		c13,3.2,25.9,7.3,39.2,8.4c28.2,2.3,55.7-9,83.9-11.8c49.6-4.9,98.7,16.8,137.9,47.6c19.3,15.2,37.7,34,43.4,57.9
		c5,20.8-0.2,42.6-5.5,63.4c-14.9,59.2-30.1,119.4-61,172.1c-6.9,11.8-14.7,23.4-24.9,32.5C669.6,509.9,654.2,516.9,638.7,522.7z"/>
	<g>
		<circle fill="#3F8E2F" cx="464.5" cy="332.2" r="13.2"/>
		<circle fill="#3F8E2F" cx="464.5" cy="357.8" r="13.2"/>
		<circle fill="#3F8E2F" cx="469.9" cy="382.1" r="13.2"/>
		<circle fill="#3F8E2F" cx="483.1" cy="403.9" r="13.2"/>
		<circle fill="#3F8E2F" cx="507.6" cy="412.3" r="13.2"/>
		<circle fill="#3F8E2F" cx="530" cy="403.9" r="13.2"/>
		<circle fill="#3F8E2F" cx="551.8" cy="390.6" r="13.2"/>
		<circle fill="#3F8E2F" cx="571.1" cy="372.7" r="13.2"/>
		<circle fill="#3F8E2F" cx="586.5" cy="353.6" r="13.2"/>
		<circle fill="#3F8E2F" cx="696.5" cy="352.3" r="13.2"/>
		<circle fill="#3F8E2F" cx="701.7" cy="377.4" r="13.2"/>
		<circle fill="#3F8E2F" cx="696.5" cy="399.1" r="13.2"/>
		<circle fill="#3F8E2F" cx="692" cy="420.9" r="13.2"/>
		<circle fill="#3F8E2F" cx="684.6" cy="445.5" r="13.2"/>
		<circle fill="#3F8E2F" cx="671.4" cy="468.1" r="13.2"/>
		<circle fill="#3F8E2F" cx="653.8" cy="483.7" r="13.2"/>
		<circle fill="#3F8E2F" cx="630.5" cy="494.4" r="13.2"/>
		<circle fill="#3F8E2F" cx="606.8" cy="489.9" r="13.2"/>
		<circle fill="#3F8E2F" cx="586.5" cy="476.9" r="13.2"/>
		<circle fill="#3F8E2F" cx="573.2" cy="454.2" r="13.2"/>
		<circle fill="#3F8E2F" cx="571.4" cy="427.9" r="13.2"/>
		<circle fill="#3F8E2F" cx="578.2" cy="403.9" r="13.2"/>
		<circle fill="#3F8E2F" cx="584.4" cy="382.1" r="13.2"/>
		<circle fill="#3F8E2F" cx="591.6" cy="364.2" r="13.2"/>
	</g>
	<g>
		<circle fill="#5E3696" cx="416.2" cy="340.3" r="17.5"/>
		<circle fill="#5E3696" cx="416.2" cy="375.4" r="17.5"/>
		<circle fill="#5E3696" cx="421.7" cy="410.4" r="17.5"/>
		<circle fill="#5E3696" cx="433.8" cy="440.8" r="17.5"/>
		<circle fill="#5E3696" cx="447.5" cy="472.4" r="17.5"/>
		<circle fill="#5E3696" cx="472" cy="494.4" r="17.5"/>
		<circle fill="#5E3696" cx="507.6" cy="501.3" r="17.5"/>
		<circle fill="#5E3696" cx="541.2" cy="498.5" r="17.5"/>
		<circle fill="#5E3696" cx="574.1" cy="489.9" r="17.5"/>
		<circle fill="#5E3696" cx="604" cy="472.4" r="17.5"/>
		<circle fill="#5E3696" cx="624.3" cy="445.5" r="17.5"/>
		<circle fill="#5E3696" cx="643.6" cy="416.6" r="17.5"/>
		<circle fill="#5E3696" cx="659.3" cy="386.4" r="17.5"/>
		<circle fill="#5E3696" cx="667.1" cy="351.3" r="17.5"/>
		<g>
			<circle fill="#5E3696" cx="457.7" cy="172.1" r="15"/>
			<circle fill="#5E3696" cx="430" cy="162.3" r="15"/>
			<circle fill="#5E3696" cx="402.3" cy="157.1" r="15"/>
			<circle fill="#5E3696" cx="372.3" cy="155.6" r="15"/>
			<circle fill="#5E3696" cx="342.2" cy="162.3" r="15"/>
			<circle fill="#5E3696" cx="317.5" cy="175.5" r="15"/>
			<circle fill="#5E3696" cx="302.5" cy="202.2" r="15"/>
			<circle fill="#5E3696" cx="312.2" cy="229.3" r="15"/>
			<circle fill="#5E3696" cx="342.2" cy="234.5" r="15"/>
			<circle fill="#5E3696" cx="372.3" cy="229.3" r="15"/>
			<circle fill="#5E3696" cx="398.7" cy="218.5" r="15"/>
			<circle fill="#5E3696" cx="424.2" cy="214.3" r="15"/>
		</g>
	</g>
	<g>
		<path fill="#CC973A" d="M395,294c0.2-26.4,7.6-52.7,21.2-75.3c5.6-9.3,12.3-18.1,20.8-25c7.9-6.4,17-11,26.3-15.1
			c18.3-8,37.3-14.1,56.5-19.5c22.3-6.3,45.2-11.6,68.3-10.2c26.7,1.6,51.9,12.1,76.5,22.4c11,4.6,22,9.2,33,13.8
			c12,5,24.1,10.1,34.4,18c10.3,7.9,18.8,19.1,20.6,31.9c1.1,7.5-0.1,15.1-1.2,22.5c-2.8,18-5.7,36.2-13.3,52.7
			c-10.5,22.9-30,41.3-52.9,51.7c-22.9,10.4-49.1,13-73.9,8.6c-7.8-1.4-15.6-3.5-22.5-7.4c-21.4-11.9-32.2-39-55.2-47.4
			c-14.9-5.4-31.4-1.5-46.1,4.2c-14.7,5.8-28.9,13.4-44.5,15.8s-33.6-1.9-42.1-15.3C395.9,312.9,395,303.2,395,294z"/>
		<path fill="#EACB8C" d="M623.8,243.7c-3.9,1.1-7.9,2.1-11.9,1.6c-4-0.5-8-3-9-6.9c-0.7-2.6,0.1-5.5,1.2-8
			c5.1-11.6,17-19,29.3-21.7c12.3-2.7,25.1-1.5,37.7,0.2c8.4,1.1,17.7,2.8,22.9,9.5c1.6,2,2.7,4.5,2.5,7c-0.4,6.2-7.9,9.2-14.1,9.7
			c-8.7,0.7-17.6-0.6-26.3,0.5c-5.1,0.6-10,2-14.9,3.3C635.3,240.5,629.6,242.1,623.8,243.7z"/>
		<path fill="#B2802F" d="M421.9,210.8c3.5-5.7,8.2-10.5,13.4-14.8c24.9-20.9,58.4-29.2,90.9-30.2c1.5,0,3.1-0.1,4.4,0.6
			c2.1,1.1,2.9,3.7,3.5,6c10.1,41.3-2.7,87.4-32.6,117.6c-1.5,1.5-3.1,3.2-3.5,5.3c-1.1,6.1,8.4,12.1,4.5,16.9c-0.8,1-2,1.6-3.2,2.1
			c-19.7,8.3-40.6,13.6-61.8,15.7c-7,0.7-14.4,1-20.6-2.2c-6.9-3.5-11.4-10.7-13.2-18.2c-1.8-7.5-1.4-15.4-0.6-23.1
			c1.9-19.2,5.7-38.3,11.2-56.8C416.1,223.1,418.3,216.6,421.9,210.8z"/>
		<path fill="#EACB8C" d="M510.5,219c-2.2-7.2-10.4-10.5-17.7-12.1c-7.3-1.6-14.7-2.5-22.1-2.6c-6.9-0.1-14,0.4-20.1,3.6
			c-2.9,1.5-5.8,4.1-5.9,7.4c-0.1,3.6,3.1,6.6,6.5,7.7c3.4,1.1,7.1,0.9,10.7,1.3c13.5,1.7,25.7,12.4,39,9.8c1.1-0.2,2.3-0.5,3.3-1
			C509.2,230.7,512.1,224.4,510.5,219z"/>
		<path fill="#B2802F" d="M555.4,296.4c4.4,4.8,9.6,9.1,15.2,12.5c5.4,3.3,13.1,5.5,17.4,0.9c2.8-3.1,2.7-7.8,2.3-11.9
			c-2.1-26.6-4.2-53.2-6.4-79.9c-0.1-1.8-0.3-3.6-1.3-5.1c-1-1.5-3.1-2.3-4.6-1.3c-2.1,23.9-4.9,49.5-20.6,67.7
			c-2.8,3.2-6.2,6.8-5.5,11.1C552.2,292.7,553.8,294.7,555.4,296.4z"/>
		<path fill="#B2802F" d="M571.9,170.7c-0.9,6.2-1.2,13.4,3.3,17.8c2.9,2.8,7.1,3.8,11.1,4.3c15.2,2,30.7-0.2,45.9-2.5
			c19.2-2.8,38.3-5.6,57.5-8.5c-3.7-1.8-7.5-3.4-11.3-5c-29.6-12.5-61.2-25.3-92.9-20.1c-3.6,0.6-7.4,1.6-9.9,4.3
			C573.2,163.6,572.5,167.3,571.9,170.7z"/>
		<path fill="#B2802F" d="M691,214.2c8.2,3.4,15.5,8.8,21.3,15.4c-0.5,0.8-1.5,0.9-2.4,1c-5,0.5-10.1,0.9-15.1,1.4
			c2.5-1.9,3.9-5.2,3.5-8.3c-0.4-3.1-2.6-6-5.6-7.1"/>
		<g>
			<g>
				<path fill="#D39C4A" d="M537.2,175.5c0.2,6.7-0.4,13.3-0.5,20.1c-0.1,6.7-0.2,13.5-0.7,20.2c-1,12.9-3.2,26.3-9.3,37.9
					c-3.1,6-7.1,11.4-11.8,16.3c-4.5,4.6-10.2,8.2-14.6,12.9c-4.2,4.6-6.5,10.4-5,16.6c1.5,5.9,6.9,11.3,13.3,10.6
					c3.7-0.4,6.7-2.5,7.2-6.4c0.4-3.3-1.6-7.5-5.3-8.1c-2.5-0.4-0.6-0.2-0.5,0.4c0-0.5-0.3-0.7,0.2-1.2c1.7-1.9,3.3-3.6,5.2-5.2
					c4.5-3.9,8.8-7.9,12.6-12.5c7.7-9.4,13.1-20,16-31.9c2.7-11.4,3-22.9,2-34.5c-1.1-12.3-4.4-23.6-7.2-35.5
					C538.6,174.4,537.2,174.6,537.2,175.5L537.2,175.5z"/>
			</g>
		</g>
		<g>
			<path fill="#D39C4A" d="M605.7,251.3c1.2,5.3,10.2,6.1,14.5,6.2c7.1,0.2,14-1.6,20.8-3.5c6.5-1.8,13.1-4.1,19.8-4.4
				c2.9-0.1,5.8,0,8.7,0.7c3.4,0.9,6.2,2.7,9.3,4.1c6.3,2.6,9.8-6.3,6.1-10.5c-4.4-5-12.5-6.7-18.9-7.2c-6.5-0.5-13.1,0.8-19.3,2.5
				c-6.5,1.8-12.9,4.3-19.4,6.3c-6.6,2-13.4,3-20.2,3.9C606.1,249.5,605.4,250.2,605.7,251.3L605.7,251.3z"/>
		</g>
		<g>
			<path fill="#D39C4A" d="M539.6,194.4c-0.8,2.8-0.5,5.9-0.5,8.8c-0.1,3.1-0.2,6.2-0.3,9.4c0,6.5-0.2,13.1-0.8,19.5
				c-1,10.8-3.7,21.9-8.9,31.5c-2.5,4.6-5.4,8.9-9,12.6c-3.4,3.5-7.8,6.1-10.9,9.9c-3.3,3.9-4.8,8.8-3.4,13.8c1.5,5,6,8.8,11.3,8.6
				c-1.1-4-2.2-8.1-3.3-12.1c-2.8,2,0.4-0.3-0.1,1.1c0.4,0.3,0.5,0.6,0.3,1c-1.3,2-2.6,2.1-3.9,0.1c2.6,7.5,14.5,4.4,12.1-3.3
				c-3.1-10.1-18-10.4-20.6,0.3c-2.6,10.8,10.1,18.2,18.8,12c4.8-3.4,3.7-12.5-3.3-12.1c0.1,0,1.2,0.6,1.1,1
				c0.2-0.3-0.4-0.7-0.1-1.1c0.9-1.4,2.2-2.5,3.5-3.6c3.5-3,7-5.9,9.9-9.5c6.1-7.5,10.4-16,13.2-25.2c3-10,3.8-20.8,3.4-31.2
				c-0.2-5.3-0.9-10.7-2-15.8c-1-5-2.1-11.5-4.8-15.8C540.8,193.6,539.8,193.7,539.6,194.4L539.6,194.4z"/>
		</g>
		<g>
			<path fill="#845C23" d="M604.9,235.8c3.3-6.2,8.6-11.3,14.4-15.1c6.8-4.5,14.3-5.6,22.3-6c8.4-0.4,16.8-0.4,25.2,1
				c4,0.6,7.9,1.5,11.8,2.6c3.1,0.9,7.8,1.6,9.4,4.7c2.7,5.4,10.6,0.7,8-4.7c-3.8-8.1-16.1-9.6-23.8-10.9c-10.2-1.8-21-2.6-31.3-1.3
				c-8.9,1.1-17.7,3.5-24.9,8.9c-6.8,5.1-10.8,12-13,20.1C602.6,236.2,604.3,236.9,604.9,235.8L604.9,235.8z"/>
		</g>
		<g>
			<path fill="#845C23" d="M508.9,229.6c4.1-8.3-0.5-16.4-8.2-20.6c-8.2-4.6-20.4-6.3-29.5-4.1c-2.6,0.6-2.8,4.9,0,5.4
				c7.2,1.4,14.4,0.4,21.5,2.7c6.4,2,17.2,7.8,14.8,15.9C507.4,229.9,508.6,230.4,508.9,229.6L508.9,229.6z"/>
		</g>
	</g>
	<g>
		<path fill="#845C23" d="M302.3,276.9v37h9.4v4.5h-13.9v-41.5H302.3z M300.6,315.6v-37.1h-1.1v38.1h10.5v-1H300.6z"/>
		<path fill="#845C23" d="M328,295.5v4.5h-8.1v13.9h12.2v4.5h-16.6v-41.5h16.6v4.4h-12.2v14.2H328z M317.2,278.6v38.1h13.2v-1h-12.1
			v-17.4h8.1v-1h-8.1v-17.5h12.1v-1.1H317.2z"/>
		<path fill="#845C23" d="M345,318.3h-4.5v-37h-6.9v-4.5h18.3v4.5H345V318.3z M335.4,279.7h6.8v37h1.2v-37h6.9v-1.1h-14.9V279.7z"/>
		<path fill="#845C23" d="M355.1,284.7v-7.8h4.5v7.8H355.1z M357.8,278.6h-1.1v4.4h1.1V278.6z"/>
		<path fill="#845C23" d="M373,296c4,3.6,8,7.3,8,12.4c0,6.5-3.2,10.3-9.8,10.3c-7.7,0-9.7-5-9.7-14.5h4.5c0,5.7,0.6,10,5.2,10
			c3.6,0,5.4-2.2,5.4-5.8c0-3.3-3.3-6.3-5.8-8.5l0.1,0.1c-4.1-3-8.9-7.8-8.9-13.4c0-5.7,3.6-10.2,9.6-10.2c8.3,0,9.2,6.2,9.2,14
			h-4.5c0-4.8-0.3-9.5-4.7-9.5c-3.4,0-5.1,2.7-5.1,6C366.4,290.3,369.7,293.2,373,296L373,296z M363.2,306c0,6.8,1.8,11.1,8,11.1
			c5.5,0,8.2-3.1,8.2-8.6c0-9-14.7-13.1-14.7-21.5c0-4.2,2.3-7.7,6.8-7.7c6,0,6.3,5.3,6.4,9.5h1c0-6.4-1.3-10.7-7.4-10.7
			c-4.9,0-7.9,3.8-7.9,8.5c0,5,4.4,9.3,8.2,12.1h-0.1c2.9,2.4,6.5,6.3,6.5,9.8c0,4.7-2.3,7.5-7.1,7.5c-6.1,0-6.8-5.8-6.8-10H363.2z"
			/>
		<path fill="#845C23" d="M213,378c0,7.8-0.9,14.6-10.2,14.6c-7.1,0-10.2-5-10.2-11.6v-19c0-6.6,3.1-11.6,10.3-11.6
			c8.2,0,10.1,5,10.1,14.6h-4.6c0-5.1-0.2-10.1-5.5-10.1c-4.1,0-5.7,3.3-5.7,7.1v19c0,3.8,1.6,7.2,5.7,7.2c4.9,0,5.6-4.4,5.6-10.2
			H213z M194.3,381c0,5.6,2.5,10,8.5,10c7,0,8.4-5.3,8.4-11.2h-1.1c0,5-1.1,10.1-7.3,10.1c-5.2,0-7.4-4.2-7.4-8.9v-19
			c0-4.7,2.2-8.9,7.4-8.9c6.2,0,7.3,5,7.3,10.1h1.1c0-6.8-2.3-11.1-8.4-11.1c-6,0-8.6,4.3-8.6,9.9V381z"/>
		<path fill="#845C23" d="M228.7,369.4v4.5h-8.1v13.9h12.2v4.5h-16.6v-41.5h16.6v4.4h-12.2v14.2H228.7z M217.8,352.4v38.1H231v-1
			h-12.1v-17.4h8.1v-1h-8.1v-17.5H231v-1.1H217.8z"/>
		<path fill="#845C23" d="M240.1,350.8v37h9.4v4.5h-13.9v-41.5H240.1z M238.5,389.5v-37.1h-1.1v38.1h10.5v-1H238.5z"/>
		<path fill="#845C23" d="M265.9,369.4v4.5h-8.1v13.9h12.2v4.5h-16.6v-41.5h16.6v4.4h-12.2v14.2H265.9z M255,352.4v38.1h13.2v-1
			h-12.1v-17.4h8.1v-1h-8.1v-17.5h12.1v-1.1H255z"/>
		<path fill="#845C23" d="M280.2,350.8c7.7,0,11,4.1,11,11.5c0,3.5-0.7,6.8-3.3,9c3,2.1,3.9,5.9,3.9,9.6c0,6.8-2.3,11.5-10,11.5
			h-8.6v-41.5H280.2z M281.9,390.5c6.3,0,8.2-3.9,8.2-9.7c0-4.1-1.4-8.4-5.8-9.4c4-1.5,5.1-5.2,5.1-9.2c0-6.3-2.8-9.8-9.2-9.8h-5.3
			v38.1H281.9z M280.3,353.5c5.6,0,8,3.3,8,8.7c0,5.1-2,8.9-7.6,8.9h-4.7v-17.5H280.3z M276.1,372.1h5.2c5.7,0,7.7,3.3,7.7,8.7
			c0,5.2-1.5,8.6-7.3,8.6h-5.6V372.1z M280.8,369.4c4.3,0,5.8-3,5.8-7.1c0-4.3-1.8-7-6.3-7h-2.6v14.2H280.8z M281.7,387.8
			c4.4,0,5.5-2.8,5.5-7c0-4.3-1.5-7-6-7h-3.5v13.9H281.7z"/>
		<path fill="#845C23" d="M303,350.8c7.9,0,9.8,4.7,9.8,11.6c0,3.1-0.6,6.8-2.8,9.1c1.9,1.8,2.6,4.9,2.6,7.6v13.1H308v-12.9
			c0-3.8-1.3-5.4-5.2-5.4h-4.2v18.3h-4.5v-41.5H303z M310.9,379.2c0-3.3-0.8-6.6-4.5-7.5c4.1-1.2,4.7-5.5,4.7-9.2
			c0-5.8-1.5-10-8.1-10h-7.2v38.1h1.2v-18.3h5.9c5.2,0,6.8,2.2,6.8,7.1v11.2h1.2V379.2z M296.9,353.6h5.8c6,0,7.2,3.6,7.2,8.8
			c0,5.8-1.5,8.7-7.8,8.7h-5.2V353.6z M302.2,369.4c4.9,0,6-2.3,6-7c0-4.2-0.9-7.1-5.5-7.1h-4.1v14.1H302.2z"/>
		<path fill="#845C23" d="M328.8,350.8l9.4,41.5h-4.6l-2.6-11.9h-7.9l-2.8,11.9h-4.6l9.5-41.5H328.8z M335,390.5h1.1l-8.7-38.1h-0.9
			l-8.7,38.1h1.2l2.6-11.8h10.7L335,390.5z M327,355.3l5.1,22.3h-10.2L327,355.3z M327,362.8l-3,13.2h5.9L327,362.8z"/>
		<path fill="#845C23" d="M345.7,392.2h-4.5v-37h-6.9v-4.5h18.3v4.5h-6.9V392.2z M336,353.5h6.8v37h1.2v-37h6.9v-1.1H336V353.5z"/>
		<path fill="#845C23" d="M368.5,369.4v4.5h-8.1v13.9h12.2v4.5h-16.6v-41.5h16.6v4.4h-12.2v14.2H368.5z M357.6,352.4v38.1h13.2v-1
			h-12.1v-17.4h8.1v-1h-8.1v-17.5h12.1v-1.1H357.6z"/>
		<path fill="#845C23" d="M375.5,385.2v-34.5h4.6v34.5H375.5z M380.1,392.2h-4.6V387h4.6V392.2z M378.3,383.6v-31.2h-1.1v31.2H378.3
			z M378.3,388.7h-1.1v1.8h1.1V388.7z"/>
	</g>
</g>
</svg>
