<?xml version="1.0" encoding="utf-8"?>
<!-- Generator: Adobe Illustrator 18.1.1, SVG Export Plug-In . SVG Version: 6.00 Build 0)  -->
<!DOCTYPE svg PUBLIC "-//W3C//DTD SVG 1.1//EN" "http://www.w3.org/Graphics/SVG/1.1/DTD/svg11.dtd">
<svg version="1.1" id="Layer_1" xmlns="http://www.w3.org/2000/svg" xmlns:xlink="http://www.w3.org/1999/xlink" x="0px" y="0px"
	 viewBox="0 0 960 640" enable-background="new 0 0 960 640" xml:space="preserve">
<g>
	<linearGradient id="SVGID_1_" gradientUnits="userSpaceOnUse" x1="471.9983" y1="513.178" x2="471.9983" y2="128.3517">
		<stop  offset="0" style="stop-color:#1E0055;stop-opacity:0.8"/>
		<stop  offset="1" style="stop-color:#02003F"/>
	</linearGradient>
	<rect x="279.4" y="128.4" fill="url(#SVGID_1_)" width="385.3" height="384.8"/>
	<g>
		<path fill="#E6EEEF" d="M376.7,441c0,2.9-1.7,5.3-5.2,7.3c-1.5,0.8-2.6,1.3-3.1,1.3c-0.1,0-0.2-0.1-0.2-0.2c0-0.1,0.3-0.2,0.8-0.4
			c2-0.8,3.7-1.9,5-3.4c1.3-1.5,1.9-3,1.9-4.5c0-1.4-0.5-2.6-1.5-3.5c-1-0.9-2.3-1.4-3.9-1.4c-5.2,0-9.8,3-13.9,8.9
			c-0.7,1-2.8,5-6.4,11.9c-3.9,7.4-8.5,12-13.7,13.7c1.6,0.2,2.8,0.3,3.7,0.3c3.3,0,6.1-1.1,8.4-3.2c2-1.8,3.8-4,5.4-6.4
			c0.2-0.3,0.3-0.4,0.4-0.4c0.1,0,0.1,0.1,0.1,0.1c0,0.2-0.8,1.4-2.5,3.5c-2,2.6-3.8,4.4-5.5,5.3c-1.7,1-3.7,1.4-6.1,1.4
			c-1.5,0-3.1-0.1-4.9-0.4c-1.3,0.4-2.6,0.5-3.7,0.5c-0.9,0-1.4-0.2-1.4-0.6c0-0.5,0.7-0.7,2.2-0.7c0.8,0,1.9,0.1,3.1,0.3
			c2.4-1,4.2-2.3,5.4-3.9c1.3-1.7,3.3-5.1,6-10.4l0.4-0.9h-10.5c-1.7,3.2-3.2,5.5-4.4,7s-2.9,3-5,4.4c-4.6,3.1-9,4.7-13.3,4.7
			c-2.5,0-4.5-0.5-6.1-1.6c-1.6-1.1-2.3-2.4-2.3-4.1c0-0.9,0.3-1.7,0.8-2.3c0.5-0.6,1.2-1,1.9-1c1.2,0,1.8,0.6,1.8,1.8
			c0,0.6-0.2,1.1-0.5,1.5c-0.4,0.4-0.8,0.6-1.4,0.6c-0.8,0-1.3-0.4-1.3-1.3c0.1-0.5,0-0.7-0.2-0.7c-0.3,0-0.5,0.5-0.5,1.4
			c0,1.5,0.7,2.7,2.1,3.6s3.2,1.4,5.3,1.4c3.8,0,7.2-1.1,10-3.4c2.9-2.3,6.1-6.3,9.7-12.2h-8.3l0.2-0.5h8.5c0.2-0.4,0.6-0.9,1.1-1.7
			c3.8-6.1,7.4-10.4,10.7-12.9c0.7-0.5,1.6-1.1,2.8-1.7c1.2-0.6,1.9-0.9,2.2-0.9c0.1,0,0.2,0.1,0.2,0.2s-0.2,0.2-0.5,0.4
			c-2.2,0.9-4.2,2.5-6,4.7c-1.8,2.2-4.2,6.2-7.2,11.9h10.6c3.4-6,7-10.7,11-14.1c4-3.4,7.8-5,11.6-5c1.9,0,3.4,0.5,4.5,1.5
			C376.1,438.1,376.7,439.4,376.7,441z M341.5,441.7c0,0.4-0.5,1.1-1.6,2.3c-1.6,1.7-3.1,2.6-4.6,2.6c-1,0-1.9-0.4-2.6-1.1
			c-0.7-0.7-1-1.6-1-2.7c0-1,0.4-2.2,1.1-3.7c0.9-1.8,1.4-3.1,1.4-3.8c0-0.9-0.4-1.7-1.3-2.2s-2-0.8-3.4-0.8c-4,0-7.8,1.6-11.4,4.9
			c-3.5,3.2-5.3,6.7-5.3,10.4c0,1.9,0.6,3.4,1.7,4.6s2.7,1.8,4.5,1.8c3.6,0,6.6-1.6,9-4.9c0-0.1,0.1-0.2,0.2-0.2
			c0.1,0,0.2,0.1,0.2,0.2c0,0.4-0.6,1.1-1.7,2.1c-2.4,2.1-5,3.2-7.7,3.2c-2,0-3.5-0.6-4.8-1.9c-1.2-1.3-1.8-2.9-1.8-4.9
			c0-3.9,1.8-7.5,5.4-10.8c3.6-3.3,7.6-4.9,11.9-4.9c3.8,0,5.7,1.7,5.7,5c0,1.1-0.4,2.5-1.2,4.1c-0.8,1.6-1.2,2.6-1.2,3.2
			c0,1.4,0.7,2.1,2.2,2.1c0.9,0,1.9-0.4,3.1-1.3s2-1.9,2.7-3c0.1-0.2,0.2-0.3,0.3-0.3C341.5,441.5,341.5,441.5,341.5,441.7z"/>
		<path fill="#E6EEEF" d="M372.9,461.7c0,0.4-1.3,2.1-4,5.3c-2.1,2.6-3.8,3.9-5,3.9c-0.8,0-1.5-0.3-2-0.9s-0.8-1.4-0.8-2.3
			c0-1,0.3-2,0.9-3.2c-1.8,2.5-3.2,4.2-4.1,5.1c-1,0.9-1.9,1.3-2.8,1.3c-1,0-1.8-0.4-2.4-1.2c-0.7-0.8-1-1.9-1-3.1
			c0-3.5,2.4-6.5,7.3-9.2c2.1-1.2,3.9-1.8,5.2-1.8c1.1,0,1.7,0.5,1.7,1.6c0,0.3-0.1,0.7-0.2,1.2l1.4-2.6c0.5,0.1,1,0.2,1.4,0.2
			c0.5,0,1.1-0.1,1.9-0.2l-4.8,7.9c-1.7,2.8-2.5,4.6-2.5,5.5c0,0.8,0.4,1.3,1.1,1.3c0.7,0,1.9-0.8,3.5-2.5c1.6-1.7,3.2-3.7,4.9-6.1
			c0.1-0.2,0.2-0.3,0.3-0.3C372.8,461.5,372.9,461.5,372.9,461.7z M365.4,457.2c0-0.9-0.4-1.3-1.2-1.3c-1.7,0-3.8,1.6-6.5,4.9
			c-2.7,3.3-4.1,5.9-4.1,7.9c0,1.2,0.5,1.8,1.6,1.8c1.2,0,3.4-2.1,6.5-6.2C364.2,460.8,365.4,458.4,365.4,457.2z"/>
		<path fill="#E6EEEF" d="M385.8,459.8c0,2.9-1.8,5.6-5.5,8c-3,2-5.3,3-7,3c-1.2,0-1.7-0.5-1.7-1.6c0-0.3,0.1-0.8,0.3-1.3
			l-10.4,17.3c-0.6-0.1-1.1-0.2-1.5-0.2c-0.6,0-1.2,0.1-1.8,0.3l22.2-36.6c0.5,0.2,1,0.2,1.4,0.2c0.5,0,1.1-0.1,1.8-0.2l-8,13
			c1.9-2.6,3.3-4.2,4.2-5s1.7-1.2,2.6-1.2c1,0,1.8,0.4,2.4,1.2C385.5,457.5,385.8,458.5,385.8,459.8z M383.8,457.6
			c0-1.2-0.5-1.8-1.6-1.8c-1.3,0-3.5,2.1-6.6,6.4c-2.4,3.3-3.6,5.5-3.6,6.8c0,0.9,0.4,1.4,1.3,1.4c1.7,0,3.8-1.6,6.5-4.9
			C382.5,462.3,383.8,459.6,383.8,457.6z"/>
		<path fill="#E6EEEF" d="M400.5,459.8c0,2.9-1.8,5.6-5.5,8c-3,2-5.3,3-7,3c-1.2,0-1.7-0.5-1.7-1.6c0-0.3,0.1-0.8,0.3-1.3
			l-10.4,17.3c-0.6-0.1-1.1-0.2-1.5-0.2c-0.6,0-1.2,0.1-1.8,0.3l22.2-36.6c0.5,0.2,1,0.2,1.4,0.2c0.5,0,1.1-0.1,1.8-0.2l-8,13
			c1.9-2.6,3.3-4.2,4.2-5s1.7-1.2,2.6-1.2c1,0,1.8,0.4,2.4,1.2C400.2,457.5,400.5,458.5,400.5,459.8z M398.5,457.6
			c0-1.2-0.5-1.8-1.6-1.8c-1.3,0-3.5,2.1-6.6,6.4c-2.4,3.3-3.6,5.5-3.6,6.8c0,0.9,0.4,1.4,1.3,1.4c1.7,0,3.8-1.6,6.5-4.9
			C397.2,462.3,398.5,459.6,398.5,457.6z"/>
		<path fill="#E6EEEF" d="M419.4,461.7c0,0.3-1,1.5-3,3.7c-2.2,2.4-5.1,4.6-8.6,6.5l-1.3,2.4c-2.6,4.7-5.4,8.2-8.2,10.5
			c-2.9,2.4-5.5,3.5-7.7,3.5c-0.7,0-1.4-0.2-1.9-0.7s-0.7-1-0.7-1.7c0-3.6,4.2-7.4,12.5-11.3c0.7-0.3,1.7-0.8,3.1-1.4l0.4-0.2
			l4.8-8.5c-1.9,2.6-3.2,4.3-4.1,5.1c-0.8,0.8-1.7,1.2-2.6,1.2c-0.7,0-1.4-0.3-1.9-0.9c-0.6-0.6-0.8-1.4-0.8-2.2
			c0-1,0.6-2.6,1.9-4.8l4.2-7c0.4,0.1,0.9,0.1,1.4,0.1c0.5,0,1.1-0.1,2-0.2l-5.3,8.7c-1.5,2.5-2.3,4.1-2.3,4.8
			c0,0.8,0.4,1.2,1.1,1.2c2,0,4.9-3.5,9-10.4l2.5-4.3c0.4,0.1,0.9,0.1,1.5,0.1c0.5,0,1.1-0.1,1.8-0.2c-2.2,3.6-5.3,8.8-9.1,15.7
			c2.2-1.1,4.1-2.4,5.6-3.7c1.5-1.3,3.2-3.2,5.1-5.6c0.3-0.3,0.4-0.5,0.5-0.5C419.4,461.5,419.4,461.6,419.4,461.7z M403.8,473.4
			c-0.3,0.2-1.3,0.7-3.1,1.5c-8.2,4.1-12.3,7.7-12.3,11c0,1.4,0.8,2,2.3,2c1.9,0,3.8-1,5.7-3.1s4.2-5.7,7-10.9L403.8,473.4z"/>
		<path fill="#E6EEEF" d="M508.1,443.5c0,1.5-0.2,2.3-0.5,2.3c-0.1,0-0.2-0.1-0.2-0.2c0-0.2,0-0.5,0.1-0.9c0.1-0.4,0.1-0.8,0.1-1
			c0-2.5-0.9-4.5-2.7-6.1s-4-2.4-6.8-2.4c-5.4,0-10.9,3.5-16.4,10.6c-1.7,2.2-5.1,7.5-10.1,15.9c-1.4,2.4-2.9,4.6-4.5,6.5
			c-1.5,1.9-2.5,2.9-3,2.9c-0.3,0-0.4-0.1-0.4-0.4c0-0.3,0.4-0.7,1.2-1.1c1.6-0.7,2.4-2.6,2.4-5.5c0-0.6,0-1.5-0.1-2.8
			c-0.2-3.2-0.3-6-0.3-8.3c0-3.9,0.4-7.1,1.1-9.6c0.8-2.5,2-4.7,3.8-6.6c0-0.1,0.1-0.1,0.1-0.2c-0.6-0.1-1.8,1.1-3.7,3.4
			c-1,1.2-1.9,2.5-2.7,3.9s-2.9,5.1-6.3,11.2c-2.9,5.2-6.3,9.3-10.1,12.1c-3.8,2.8-7.9,4.3-12,4.3c-2.3,0-4.3-0.5-5.8-1.6
			c-1.5-1-2.3-2.4-2.3-4c0-0.9,0.3-1.7,0.8-2.4c0.5-0.6,1.2-1,2-1c1.2,0,1.8,0.6,1.8,1.7c0,0.6-0.2,1.1-0.6,1.5
			c-0.4,0.4-0.8,0.6-1.4,0.6c-0.9,0-1.3-0.5-1.3-1.5c0-0.4-0.1-0.5-0.2-0.5c-0.3,0-0.4,0.5-0.4,1.5c0,1.5,0.7,2.7,2.1,3.6
			s3.2,1.4,5.4,1.4c4.2,0,8.1-1.6,11.7-4.7s7.7-8.6,12.3-16.4c3.8-6.3,6.8-10.5,9.1-12.5c1.6-1.4,2.5-2,3-2c0.1,0,0.1,0.1,0.1,0.1
			c0,0-0.1,0.2-0.4,0.5c-1.1,1.5-1.9,3.2-2.2,4.9c-0.3,1.7-0.5,5.4-0.6,11c-0.1,6.9-1,11.8-2.5,14.8c0,0-0.1,0-0.1,0.1l0.1,0.1
			c0.3,0,3.1-4.5,8.2-13.6c3.8-6.6,7.4-11.4,10.9-14.4c3.5-3,7.3-4.4,11.3-4.4c2.9,0,5.3,0.9,7.2,2.6
			C507.2,438.5,508.1,440.8,508.1,443.5z M464.7,441.6c0,0.4-0.5,1.2-1.5,2.3c-1.6,1.8-3.1,2.6-4.5,2.6c-1,0-1.8-0.4-2.5-1.1
			c-0.7-0.7-1-1.6-1-2.7c0-1,0.4-2.3,1.1-3.7c0.9-1.8,1.4-3.1,1.4-3.8c0-0.9-0.4-1.7-1.3-2.2s-2-0.8-3.4-0.8c-4,0-7.8,1.6-11.4,4.9
			c-3.5,3.3-5.3,6.7-5.3,10.4c0,1.9,0.6,3.4,1.7,4.6c1.2,1.2,2.7,1.8,4.5,1.8c1.6,0,3.3-0.5,4.9-1.4s3-2.1,4.1-3.6
			c0.1-0.1,0.1-0.1,0.2-0.1c0.1,0,0.2,0.1,0.2,0.2c0,0.4-0.6,1.1-1.7,2.1c-2.4,2.2-5,3.2-7.7,3.2c-2,0-3.5-0.6-4.8-1.9
			c-1.2-1.3-1.8-2.9-1.8-4.9c0-3.9,1.8-7.5,5.4-10.8c3.6-3.3,7.6-4.9,11.9-4.9c1.8,0,3.2,0.4,4.2,1.3c1,0.9,1.5,2.1,1.5,3.7
			c0,1.2-0.6,2.9-1.7,5.3c-0.4,0.8-0.6,1.5-0.6,2c0,1.4,0.7,2.1,2.2,2.1c0.9,0,1.9-0.4,3-1.3s2-1.9,2.6-3.1c0.1-0.2,0.2-0.3,0.3-0.3
			C464.6,441.3,464.7,441.4,464.7,441.6z"/>
		<path fill="#E6EEEF" d="M491.3,461.7c0,0.1-0.2,0.3-0.5,0.7l-1.2,1.5c-3.7,4.6-7,6.9-9.6,6.9c-1.3,0-2.3-0.5-3.2-1.4
			s-1.3-2.1-1.3-3.4c0-3.3,2.3-6.1,6.8-8.6c2.4-1.3,4.3-2,5.8-2c0.6,0,1.2,0.2,1.7,0.6s0.7,0.9,0.7,1.4c0,1.3-0.8,2.4-2.5,3.3
			s-4.5,1.8-8.5,2.6c-1.2,1.9-1.8,3.4-1.8,4.7c0,1.6,0.8,2.3,2.5,2.3c2.9,0,6.4-2.8,10.5-8.4c0.2-0.3,0.4-0.4,0.5-0.4
			C491.2,461.5,491.3,461.6,491.3,461.7z M489,456.7c0-0.6-0.3-0.9-0.9-0.9c-1,0-2.2,0.7-3.8,2c-1.6,1.3-3.1,3-4.6,5.2
			c2.6-0.7,4.8-1.6,6.6-2.8C488.1,458.9,489,457.7,489,456.7z"/>
		<path fill="#E6EEEF" d="M514.8,461.6c0,0.2-0.6,0.9-1.7,2.1c-1.6,1.6-2.9,2.5-4.1,2.5c-0.8,0-1.5-0.4-2-1.3
			c-1.6,2.2-2.9,3.8-3.9,4.6c-1,0.9-2,1.3-3.1,1.3c-0.9,0-1.7-0.3-2.3-0.9c-0.6-0.6-0.9-1.4-0.9-2.3c0-0.8,0.2-1.7,0.7-2.7
			c-2.7,4-4.8,6-6.4,6c-0.8,0-1.4-0.3-2-0.9s-0.8-1.4-0.8-2.3c0-1,0.5-2.5,1.6-4.3l4.5-7.6c0.7,0.1,1.3,0.2,1.6,0.2
			c0.3,0,0.9-0.1,1.8-0.2l-6.1,10.1c-1,1.6-1.5,2.7-1.5,3.4c0,0.8,0.4,1.2,1.1,1.2c0.8,0,2-0.9,3.6-2.7c1.6-1.8,3.2-4.1,4.8-6.8
			l3-5.2c1,0.1,1.6,0.1,1.8,0.1c0.6,0,1.1,0,1.5-0.1l-5.7,9.2c-1.2,2-1.9,3.5-1.9,4.2c0,0.9,0.5,1.3,1.4,1.3c1.8,0,4.1-1.9,6.7-5.8
			c-0.1-0.7-0.2-1.2-0.2-1.5c0-1.6,0.5-3.3,1.5-5c1-1.7,2-2.6,2.9-2.6c0.4,0,0.6,0.3,0.6,0.8c0,1.5-1.5,4.3-4.4,8.3
			c0.5,0.8,1,1.2,1.8,1.2c1.4,0,3-1.2,5-3.7c0.4-0.4,0.6-0.7,0.7-0.7C514.7,461.5,514.8,461.5,514.8,461.6z"/>
		<path fill="#E6EEEF" d="M586.5,440c0,0.1-0.1,0.1-0.2,0.2c-3.1,2.2-6,5.2-8.6,8.9c-2.5,3.7-5.4,8.9-8.6,15.6
			c-2.7,5.8-6.4,10.4-11,13.9s-9.4,5.2-14.3,5.2c-2.4,0-4.4-0.6-6-1.7c-1.6-1.1-2.4-2.6-2.4-4.3c0-1.1,0.3-2,1-2.7
			c0.7-0.7,1.4-1.1,2.4-1.1c1.2,0,1.8,0.6,1.8,1.7c0,0.6-0.2,1.1-0.6,1.6s-0.9,0.7-1.4,0.7c-1,0-1.4-0.5-1.4-1.4
			c0-0.2,0-0.4,0.1-0.6c0-0.1,0.1-0.2,0.1-0.3c0-0.1,0-0.2-0.1-0.2c-0.3,0-0.5,0.3-0.7,0.8c-0.2,0.5-0.4,1.1-0.4,1.6
			c0,1.6,0.7,2.9,2.2,4c1.4,1.1,3.3,1.6,5.5,1.6c3,0,5.9-0.8,8.6-2.5s4.9-3.6,6.7-5.8c1.7-2.1,4.2-6.3,7.7-12.6
			c1.2-2.1,2.6-4.5,4.3-7.2c-4,4.8-7,8.1-8.9,9.9c-3.6,3.4-6.6,5.1-8.9,5.1c-1.4,0-2.5-0.5-3.4-1.6c-0.9-1-1.3-2.4-1.3-4
			c0-1.7,0.5-3.4,1.5-5.2c1-1.8,3-4.6,6.1-8.6c4-5.1,6-9.2,6-12.4c0-4.2-2.6-6.3-7.7-6.3c-5.7,0-11.4,2.6-17.1,7.8
			c-2.3,2.1-4.3,4.7-5.9,7.6c-1.6,2.9-2.4,5.5-2.4,7.8c0,2.2,0.6,3.9,1.9,5.2s2.9,1.9,5.1,1.9c3.8,0,7.3-1.8,10.8-5.3
			c4.1-4.3,6.2-8.2,6.2-11.8c0-1.3-0.4-2.3-1.1-3.1c-0.7-0.8-1.7-1.2-2.9-1.2c-2.6,0-5.4,1.6-8.3,4.9c-2.9,3.3-4.4,6.4-4.4,9.3
			c0,1.9,0.9,2.8,2.7,2.8h0.1c0.2,0,0.3,0.1,0.3,0.2c0,0.1-0.2,0.2-0.7,0.2c-1,0-1.8-0.4-2.4-1.2c-0.6-0.8-0.9-1.9-0.9-3.2
			c0-3.1,1.5-6.1,4.5-9c3-2.9,6-4.4,9.1-4.4c1.4,0,2.5,0.4,3.3,1.3c0.8,0.9,1.2,2,1.2,3.5c0,3.2-1.7,6.8-5,10.8
			c-3.9,4.6-8,6.9-12.4,6.9c-2.4,0-4.4-0.8-5.9-2.5c-1.5-1.6-2.2-3.8-2.2-6.5c0-5.4,2.8-10.3,8.5-14.9c2.8-2.2,5.8-4,9.1-5.3
			c3.2-1.3,6.2-2,8.9-2c2.9,0,5.1,0.8,6.7,2.4c1.6,1.6,2.5,3.8,2.5,6.6c0,2.2-0.5,4.4-1.5,6.5c-1,2.1-3,5.1-6,8.9
			c-2.6,3.3-4.2,5.6-4.9,6.8c-0.7,1.2-1,2.3-1,3.5c0,2.3,1.1,3.4,3.2,3.4c2,0,4.4-1.2,7.2-3.7c2.8-2.5,6.5-6.6,11.1-12.4
			c4.7-6,9.5-10.6,14.2-13.8l0.4-0.2c0.1-0.1,0.2-0.1,0.3-0.1C586.5,439.7,586.5,439.8,586.5,440z"/>
		<path fill="#E6EEEF" d="M589.9,461.7c0,0.1-0.2,0.3-0.5,0.7l-1.2,1.5c-3.7,4.6-7,6.9-9.6,6.9c-1.3,0-2.3-0.5-3.2-1.4
			s-1.3-2.1-1.3-3.4c0-3.3,2.3-6.1,6.8-8.6c2.4-1.3,4.3-2,5.8-2c0.6,0,1.2,0.2,1.7,0.6s0.7,0.9,0.7,1.4c0,1.3-0.8,2.4-2.5,3.3
			s-4.5,1.8-8.5,2.6c-1.2,1.9-1.8,3.4-1.8,4.7c0,1.6,0.8,2.3,2.5,2.3c2.9,0,6.4-2.8,10.5-8.4c0.2-0.3,0.4-0.4,0.5-0.4
			C589.9,461.5,589.9,461.6,589.9,461.7z M587.6,456.7c0-0.6-0.3-0.9-0.9-0.9c-1,0-2.2,0.7-3.8,2c-1.6,1.3-3.1,3-4.6,5.2
			c2.6-0.7,4.8-1.6,6.6-2.8C586.7,458.9,587.6,457.7,587.6,456.7z"/>
		<path fill="#E6EEEF" d="M608.9,461.7c0,0.4-1.3,2.1-4,5.3c-2.1,2.6-3.8,3.9-5,3.9c-0.8,0-1.5-0.3-2-0.9s-0.8-1.4-0.8-2.3
			c0-1,0.3-2,0.9-3.2c-1.8,2.5-3.2,4.2-4.1,5.1c-1,0.9-1.9,1.3-2.8,1.3c-1,0-1.8-0.4-2.4-1.2c-0.7-0.8-1-1.9-1-3.1
			c0-3.5,2.4-6.5,7.3-9.2c2.1-1.2,3.9-1.8,5.2-1.8c1.1,0,1.7,0.5,1.7,1.6c0,0.3-0.1,0.7-0.2,1.2l1.4-2.6c0.5,0.1,1,0.2,1.4,0.2
			c0.5,0,1.1-0.1,1.9-0.2l-4.8,7.9c-1.7,2.8-2.5,4.6-2.5,5.5c0,0.8,0.4,1.3,1.1,1.3c0.7,0,1.9-0.8,3.5-2.5c1.6-1.7,3.2-3.7,4.9-6.1
			c0.1-0.2,0.2-0.3,0.3-0.3C608.9,461.5,608.9,461.5,608.9,461.7z M601.5,457.2c0-0.9-0.4-1.3-1.2-1.3c-1.7,0-3.8,1.6-6.5,4.9
			c-2.7,3.3-4.1,5.9-4.1,7.9c0,1.2,0.5,1.8,1.6,1.8c1.2,0,3.4-2.1,6.5-6.2C600.2,460.8,601.5,458.4,601.5,457.2z"/>
		<path fill="#E6EEEF" d="M624.4,461.7c0,0.1-0.5,0.8-1.6,2c-1.4,1.5-2.7,2.3-3.9,2.3c-1.4,0-2.1-0.8-2.1-2.4c0-0.5,0.1-1.1,0.3-1.9
			c-1.1,1-2.1,2-2.8,3c-0.7,1-1.9,3-3.7,6c-1-0.1-1.5-0.1-1.7-0.1c-0.1,0-0.6,0-1.7,0.1l4.4-7.2c2.2-3.6,3.3-5.9,3.3-6.7
			c0-0.5-0.2-0.8-0.6-0.8c-1,0-2.9,1.9-5.5,5.8c-0.2,0.3-0.3,0.4-0.4,0.4c-0.1,0-0.1-0.1-0.1-0.2c0-0.1,0.1-0.2,0.1-0.2l0.5-0.7
			c2.8-3.7,4.7-5.6,5.7-5.6c1.4,0,2.2,0.9,2.2,2.8c0,1.4-0.7,3.2-2.2,5.5c0.9-1.1,1.8-2,2.7-2.7c0.7-1.6,1.5-3,2.6-4
			c1-1.1,1.9-1.6,2.7-1.6c0.6,0,0.8,0.2,0.8,0.7c0,0.9-1.3,2.1-3.8,3.7c-0.4,0.3-1,0.6-1.8,1.1l-0.3,0.3c-0.3,0.8-0.4,1.5-0.4,2.1
			c0,1.5,0.6,2.3,1.7,2.3c1.4,0,2.9-1.2,4.6-3.5c0.4-0.4,0.6-0.6,0.7-0.6C624.4,461.5,624.4,461.5,624.4,461.7z"/>
		<path fill="#E6EEEF" d="M628.3,467c0,0.8-0.4,1.6-1.1,2.3c-0.7,0.7-1.5,1.1-2.3,1.1c-0.8,0-1.2-0.4-1.2-1.2c0-0.7,0.4-1.5,1.2-2.2
			c0.8-0.7,1.6-1.1,2.3-1.1C627.9,465.9,628.3,466.2,628.3,467z M643.8,440.2c0,0.8-2.1,4.1-6.2,9.8c-4.5,6.2-7.5,10.8-9,13.8
			c-0.1,0.2-0.2,0.3-0.4,0.3c-0.2,0-0.2-0.1-0.2-0.3c0-0.1,0.1-0.2,0.4-0.6c1.8-2.7,4.8-8.8,9-18.3c1-2.4,1.9-4.1,2.6-5
			c0.7-0.9,1.5-1.4,2.3-1.4C643.3,438.6,643.8,439.2,643.8,440.2z"/>
	</g>
	<circle opacity="0.5" fill="#FFFFFF" cx="468.7" cy="383.3" r="3.3"/>
	<circle opacity="0.5" fill="#FFFFFF" cx="419" cy="324.9" r="1.7"/>
	<g>
		<circle opacity="0.5" fill="#FFFFFF" cx="300.9" cy="155.2" r="3.3"/>
		<circle opacity="0.5" fill="#FFFFFF" cx="349.7" cy="189.1" r="3.3"/>
		<circle opacity="0.5" fill="#FFFFFF" cx="384.7" cy="169.1" r="3.3"/>
		<circle opacity="0.5" fill="#FFFFFF" cx="413.9" cy="251.3" r="3.3"/>
		<circle opacity="0.5" fill="#FFFFFF" cx="314.3" cy="314" r="3.3"/>
		<circle opacity="0.5" fill="#FFFFFF" cx="475.3" cy="361.8" r="3.3"/>
		<circle opacity="0.5" fill="#FFFFFF" cx="542.9" cy="335.6" r="3.3"/>
		<circle opacity="0.5" fill="#FFFFFF" cx="504.9" cy="281.6" r="3.3"/>
		<circle opacity="0.5" fill="#FFFFFF" cx="626.6" cy="266.7" r="3.3"/>
		<circle opacity="0.5" fill="#FFFFFF" cx="604.5" cy="234.9" r="3.3"/>
		<circle opacity="0.5" fill="#FFFFFF" cx="520.8" cy="182.5" r="3.3"/>
		<circle opacity="0.5" fill="#FFFFFF" cx="661.3" cy="155.2" r="3.3"/>
		<circle opacity="0.5" fill="#FFFFFF" cx="639" cy="167" r="1.7"/>
		<circle opacity="0.5" fill="#FFFFFF" cx="640.6" cy="142.9" r="1.7"/>
		<circle opacity="0.5" fill="#FFFFFF" cx="591.7" cy="212.8" r="1.7"/>
		<circle opacity="0.5" fill="#FFFFFF" cx="542.9" cy="192.5" r="1.7"/>
		<circle opacity="0.5" fill="#FFFFFF" cx="525.8" cy="169.1" r="1.7"/>
		<circle opacity="0.5" fill="#FFFFFF" cx="493.4" cy="216.1" r="1.7"/>
		<circle opacity="0.5" fill="#FFFFFF" cx="539.6" cy="238.2" r="1.7"/>
		<circle opacity="0.5" fill="#FFFFFF" cx="527.5" cy="246.3" r="1.7"/>
		<circle opacity="0.5" fill="#FFFFFF" cx="468.7" cy="130" r="1.7"/>
		<circle opacity="0.5" fill="#FFFFFF" cx="440.8" cy="177.5" r="1.7"/>
		<circle opacity="0.5" fill="#FFFFFF" cx="430.4" cy="239.9" r="1.7"/>
		<circle opacity="0.5" fill="#FFFFFF" cx="442.5" cy="284.9" r="1.7"/>
		<circle opacity="0.5" fill="#FFFFFF" cx="410.6" cy="312.3" r="1.7"/>
		<circle opacity="0.5" fill="#FFFFFF" cx="336.4" cy="366.8" r="1.7"/>
		<circle opacity="0.5" fill="#FFFFFF" cx="310.9" cy="342.9" r="1.7"/>
		<circle opacity="0.5" fill="#FFFFFF" cx="338" cy="317.3" r="1.7"/>
		<circle opacity="0.5" fill="#FFFFFF" cx="287.1" cy="303.7" r="1.7"/>
		<circle opacity="0.5" fill="#FFFFFF" cx="365.7" cy="284.9" r="1.7"/>
		<circle opacity="0.5" fill="#FFFFFF" cx="381.3" cy="338.9" r="1.7"/>
		<circle opacity="0.5" fill="#FFFFFF" cx="607.9" cy="349.4" r="1.7"/>
		<circle opacity="0.5" fill="#FFFFFF" cx="586" cy="319" r="1.7"/>
		<circle opacity="0.5" fill="#FFFFFF" cx="601.2" cy="302" r="1.7"/>
		<circle opacity="0.5" fill="#FFFFFF" cx="539.6" cy="300.4" r="1.7"/>
		<circle opacity="0.5" fill="#FFFFFF" cx="490.1" cy="315.6" r="1.7"/>
		<circle opacity="0.5" fill="#FFFFFF" cx="367.3" cy="234.9" r="1.7"/>
		<circle opacity="0.5" fill="#FFFFFF" cx="325.1" cy="270.1" r="1.7"/>
		<circle opacity="0.5" fill="#FFFFFF" cx="290.4" cy="228.7" r="1.7"/>
		<circle opacity="0.5" fill="#FFFFFF" cx="325.1" cy="246.3" r="1.7"/>
		<circle opacity="0.5" fill="#FFFFFF" cx="309.3" cy="194.1" r="1.7"/>
	</g>
	<g>
		<ellipse opacity="0.5" fill="#FFFFFF" cx="470.3" cy="195.8" rx="39.7" ry="6.1"/>
		<path fill="#EFCD89" d="M470.3,241.6c-19.6,0-35.4-2.2-35.4-4.9v146.8h0.2c1.7,24.9,16.8,44.3,35.3,44.3
			c18.4,0,33.6-19.5,35.3-44.3h0.2V236.7C505.7,239.4,489.9,241.6,470.3,241.6z"/>
		<g>
			<circle fill="#DD9D1D" cx="448.9" cy="260.6" r="3.1"/>
			<circle fill="#DD9D1D" cx="460.8" cy="289.8" r="5.7"/>
			<circle fill="#DD9D1D" cx="468.8" cy="268.2" r="1.5"/>
			<circle fill="#DD9D1D" cx="479.3" cy="279.9" r="1.7"/>
			<circle fill="#DD9D1D" cx="474.2" cy="315.3" r="1.3"/>
			<circle fill="#DD9D1D" cx="452.7" cy="334.5" r="2.3"/>
			<circle fill="#DD9D1D" cx="485.9" cy="356.7" r="2.7"/>
		</g>
		<path opacity="0.5" fill="#FFFFFF" d="M470.3,205c-22,0-39.7-2.7-39.7-6.1V380h0.2c1.6,26.8,14.9,48.6,32,53.6v80h15.2v-80
			c17.1-5,30.4-26.8,32-53.6h0.2V198.9C510.1,202.3,492.3,205,470.3,205z"/>
	</g>
</g>
</svg>
