<?xml version="1.0" encoding="utf-8"?>
<!-- Generator: Adobe Illustrator 18.1.1, SVG Export Plug-In . SVG Version: 6.00 Build 0)  -->
<!DOCTYPE svg PUBLIC "-//W3C//DTD SVG 1.1//EN" "http://www.w3.org/Graphics/SVG/1.1/DTD/svg11.dtd">
<svg version="1.1" id="Layer_1" xmlns="http://www.w3.org/2000/svg" xmlns:xlink="http://www.w3.org/1999/xlink" x="0px" y="0px"
	 viewBox="0 0 960 640" enable-background="new 0 0 960 640" xml:space="preserve">
<g>
	<path fill="#F2B266" d="M314.9,121c12.9-7.7,27.8-11.1,42.5-14.4c33.9-7.6,70-15.2,102.7-3.4c12.9,4.7,24.7,12.2,38,15.6
		c31.9,8.1,66.7-9.1,98.1,1c10.8,3.5,20.6,10,31.6,12.9c31.7,8.1,69.5-15.3,96.2,3.6c19.6,13.9,20.4,42.1,19.4,66.1
		c-0.8,17.5-1.7,35.3-7.9,51.6c-2.6,6.8-6.2,13.3-8,20.3c-3.3,12.6-1,26-1.8,39.1c-1.7,27.2-16.9,51.6-32.7,73.8
		c-4.9,7-10,14-12.8,22.1c-1.9,5.6-2.6,11.5-5,16.9c-9.5,21.8-38.3,24.8-60.1,34.4c-1.4,0.6-2.9,1.3-3.7,2.6
		c-3,4.5,3.3,9.2,8.3,11.3c10.8,4.7,21.4,13.4,22.2,25.1c1.2,16-15.5,27.1-30.6,32.5c-50.1,18-107.9,13.1-154.2-13.1
		c-8.2-4.6-16-9.9-24.6-13.7c-35.4-15.9-76.4-5.4-113.7,5.1s-78.6,20.5-113.6,4c-4.5-2.1-9.1-4.9-11.3-9.5
		c-4.3-8.9,2.5-18.8,8.4-26.7c5.8-7.9,10.9-19.5,4.2-26.7c-2.1-2.2-5-3.6-6.6-6.3c-2.3-3.9-0.6-8.8,1.2-12.9
		c5.1-11.6,11.1-22.8,17.9-33.5c5.7-8.9,12-17.7,14.5-27.9c1.7-7.1,1.4-14.5,1.3-21.8c-0.8-59.2,11.8-118.5,36.5-172.2
		C281.3,155.2,294.3,133.4,314.9,121z"/>
	<g>
		<path fill="#EFEFEF" d="M708.3,252.5c-2.3-1.1-4.1-2.9-5.9-4.8c-20.4-21.6-39.5-44.4-57.1-68.4c-3.6-4.9-7.4-10.9-5.6-16.8
			c2.1-7.1,11.2-9.7,18.5-8.5c2.7,0.5,5.8,1.7,6.6,4.3c3.6-7.8,9.3-14.6,16.3-19.5c1.5-1,3.1-2,4.9-1.9s3.6,1.7,3.2,3.4
			c6.5-2.8,14.9,2.8,14.9,9.8c7.7-5.8,20.2-3.4,25.2,4.9c5,8.3,1.2,20.5-7.6,24.5c2.6-2.3,7.2-1.6,8.9,1.4c1.7,3,0,7.4-3.2,8.4
			c3.6,2.3,2.2,9-2,9.7c6.7,7.6,6.6,20.3-0.3,27.8c3.9,1.1,6.9,5,6.9,9.1s-2.9,8-6.9,9.2c1.9,0.6,2.1,3.4,0.8,4.9
			c-1.3,1.5-3.4,2-5.3,2.4C716.5,253.4,712.1,254.2,708.3,252.5z"/>
		<linearGradient id="SVGID_1_" gradientUnits="userSpaceOnUse" x1="307.3904" y1="440.1733" x2="695.7317" y2="215.9643">
			<stop  offset="0" style="stop-color:#C7C7C7"/>
			<stop  offset="0.1631" style="stop-color:#DADADA"/>
			<stop  offset="0.3987" style="stop-color:#EEEEEE"/>
			<stop  offset="0.6314" style="stop-color:#FBFBFB"/>
			<stop  offset="0.8562" style="stop-color:#FFFFFF"/>
		</linearGradient>
		<path fill="url(#SVGID_1_)" d="M718.1,290.5c-0.6-36.7-16.1-72.7-41.7-98.9c-6.5-9.7-16.3-17.1-25.9-23.8
			c-11.8-8.3-23.9-16.2-36-24.1c-2.7-1.7-5.3-3.5-8-5.2c-6-3.9-14.8-7.5-19.5-2.2c2.1-3.5-2.7-7.7-6.8-7.4
			c-4.1,0.3-7.7,2.9-11.8,3.6c-2.9,0.5-5.8-0.1-8.6-0.5c-23.9-3.7-48.7-1.7-71.8,5.6c1.5,0.7,0.7,3,0,4.5c-2.3,4.5-1.8,9.8-1.3,14.8
			c2.9,33.2,0.5,69.1-19.4,95.8c-5.2,7-11.7,13.4-15,21.6c-3.3,8.2-3.1,17.3-3.9,26.1c-2.9,32.1-20.2,61.7-43.6,83.8
			c-25,23.5-57.1,39.4-79.1,65.7c-3.2,3.8-6.3,8.7-4.7,13.4c1.3,3.9,5.4,6.1,9.2,7.9c8.6,4.1,19.6,7.9,27,1.8
			c6.9,2.7,14.5,3.4,21.8,2.1c5.1,3.1,10.3,6.2,15.4,9.3c2.7,1.6,5.4,3.3,8.4,4.3c5.6,1.9,11.7,1.5,17.6,1
			c10.7-0.8,21.8-1.8,30.8-7.6c9.3-6,14.8-16.2,21-25.4c14.6-21.5,34.8-39.2,58.1-50.8c5.3-2.6,10.8-5,16.2-7.5
			c-0.8,18,2.4,36.1,9.8,52.6c3.1,6.9,8.6,14.5,16.1,13.9c3.4-0.3,6.4-2.2,9.3-3.9c21.2-12.2,46.9-13.6,69.8-22.4
			c6.4-2.4,12.8-5.6,16.8-11.2c4-5.5,4.6-13.9-0.1-18.8c-1.4-1.4-3.3-3.1-2.4-4.9C698.9,376.6,718.8,333.6,718.1,290.5z"/>
		<path fill="#E8E8E8" d="M312.2,439.3c1.4-16.5,2.7-33.2,1.8-49.7c-1.4-25.6-8.3-50.8-6.7-76.4c1.6-26,11.9-51.1,10.7-77.1
			c-0.3-6.5-1.3-13-1-19.6c0.6-11.1,5.2-21.6,9.7-31.8c8.5-19.1,16.9-38.2,25.4-57.3c-9.8-2.2-20.3-1.2-29.4,2.9
			c-9,4.1-16.5,11-22.8,18.7c-19.2,23.4-27.4,53.7-34.8,83c-4.2,17-8.3,34-12.4,51c-1.9,7.8-3.8,15.7-4.6,23.7
			c-1.2,11.6-0.2,23.3,0.1,34.9c1.5,49.3-8.9,98.9-30,143.5c-2.9,6.1-5.8,14.1-1.1,19.1c1.5,1.5,3.5,2.5,5.5,3.2
			c16.8,6.4,35.5,4.2,53.2,1.5c8.3-1.3,17.2-2.9,23.2-8.7c6-5.9,7.9-14.7,9.2-23C310.1,464.5,311.1,451.9,312.2,439.3z"/>
		<g>
			<polygon fill="#E5DCCF" points="214,448.3 274.6,305.9 463.6,309.3 427.3,456.9 			"/>
			<path fill="#BCAE9B" d="M463.6,309.3c0,0-6,4.3-15.2,10.5c-2.3,1.5-4.8,3.2-7.4,4.9c-2.6,1.7-5.4,3.6-8.3,5.5
				c-2.9,1.9-5.9,3.8-9,5.8c-3.1,1.9-6.2,3.9-9.3,5.9c-3.1,1.9-6.3,3.9-9.4,5.8c-3.1,1.9-6.2,3.7-9.1,5.5
				c-5.9,3.6-11.5,6.9-16.3,9.6c-9.6,5.6-16.1,9-16.1,9s6-4.3,15.2-10.5c4.6-3.1,10-6.6,15.8-10.4c2.9-1.9,5.9-3.8,9-5.8
				c3.1-1.9,6.2-3.9,9.3-5.9c3.1-1.9,6.3-3.9,9.4-5.8c3.1-1.9,6.2-3.7,9.1-5.5c3-1.8,5.8-3.5,8.6-5.1c2.7-1.6,5.3-3.1,7.7-4.5
				C457.1,312.7,463.6,309.3,463.6,309.3z"/>
			<path fill="#BCAE9B" d="M274.6,305.9c0,0,3.2,3.8,7.6,9.8c1.1,1.5,2.3,3.1,3.6,4.8c1.2,1.7,2.6,3.5,3.9,5.4
				c1.3,1.9,2.7,3.9,4.1,5.9c1.4,2,2.8,4.1,4.2,6.1c1.4,2.1,2.7,4.1,4.1,6.2c1.4,2,2.6,4.1,3.9,6c2.5,3.9,4.8,7.6,6.7,10.8
				c3.9,6.4,6.2,10.8,6.2,10.8s-3.2-3.8-7.6-9.8c-2.2-3-4.8-6.5-7.5-10.3c-1.3-1.9-2.7-3.9-4.1-5.9c-1.4-2-2.8-4.1-4.2-6.1
				c-1.4-2.1-2.7-4.1-4.1-6.2c-1.4-2-2.6-4.1-3.9-6c-1.3-1.9-2.4-3.9-3.6-5.7c-1.1-1.8-2.2-3.5-3.1-5.1
				C277,310.3,274.6,305.9,274.6,305.9z"/>
			<path fill="#BCAE9B" d="M427.3,456.9c0,0-1.1-1.1-3-3.1c-1.9-2-4.6-4.8-7.7-8.3c-3.2-3.5-6.9-7.5-10.8-11.9c-1.9-2.2-4-4.5-6-6.8
				c-2-2.3-4.1-4.7-6.2-7c-2-2.4-4.1-4.7-6.1-7.1c-2-2.3-4-4.6-5.9-6.9c-3.8-4.5-7.3-8.7-10.3-12.3c-3-3.6-5.4-6.7-7.2-8.8
				c-1.7-2.1-2.7-3.4-2.7-3.4s1.1,1.1,3,3.1c1.9,2,4.6,4.8,7.7,8.3c3.2,3.5,6.9,7.5,10.8,11.9c1.9,2.2,4,4.5,6,6.8
				c2,2.3,4.1,4.7,6.2,7c2,2.4,4.1,4.7,6.1,7.1c2,2.3,4,4.6,5.9,6.9c3.8,4.5,7.3,8.7,10.3,12.3c3,3.6,5.4,6.7,7.2,8.8
				C426.4,455.7,427.3,456.9,427.3,456.9z"/>
			<path fill="#BCAE9B" d="M318.9,381.4c0,0-1.6,1.1-4.4,3c-2.8,1.9-6.8,4.7-11.7,7.9c-4.9,3.2-10.5,7-16.6,11c-3.1,2-6.2,4-9.4,6.1
				c-3.2,2.1-6.5,4.2-9.8,6.3c-3.3,2.1-6.6,4.2-9.8,6.2c-3.2,2-6.4,4-9.5,6c-6.2,3.9-12,7.4-17,10.4c-5,3-9.2,5.5-12.1,7.3
				c-2.9,1.7-4.6,2.7-4.6,2.7s1.6-1.1,4.4-3c2.8-1.9,6.8-4.7,11.7-7.9c4.9-3.2,10.5-7,16.6-11c3.1-2,6.2-4,9.4-6.1
				c3.2-2.1,6.5-4.2,9.8-6.3c3.3-2.1,6.6-4.2,9.8-6.2c3.2-2,6.4-4,9.5-6c6.2-3.9,12-7.4,17-10.4c5-3,9.2-5.5,12.1-7.3
				C317.2,382.4,318.9,381.4,318.9,381.4z"/>
			<path fill="#F76A8C" d="M335.9,402.1c-4.1-2.1-8-4.4-11.8-7c-5-3.4-10.1-7.5-11.8-13.3c-2.2-7.1,1.9-15.5,8.8-18.2
				s15.6,0.7,18.8,7.3c3.6-3.3,7.9-6.2,12.7-7.1c4.9-0.8,10.4,0.8,13.1,4.9c2.5,3.8,2.1,9,0.1,13.1c-2.1,4.1-5.6,7.2-9.2,10
				c-5.1,3.9-10.6,7.3-16.3,10.1c-0.8,0.4-1.6,0.7-2.4,0.7C337.1,402.7,336.5,402.4,335.9,402.1z"/>
		</g>
		<linearGradient id="SVGID_2_" gradientUnits="userSpaceOnUse" x1="358.596" y1="167.912" x2="448.4516" y2="310.0103">
			<stop  offset="0" style="stop-color:#FFFFFF"/>
			<stop  offset="0.6045" style="stop-color:#FDFDFD"/>
			<stop  offset="0.822" style="stop-color:#F6F6F6"/>
			<stop  offset="0.9767" style="stop-color:#EBEBEB"/>
			<stop  offset="1" style="stop-color:#E8E8E8"/>
		</linearGradient>
		<path fill="url(#SVGID_2_)" d="M475.9,130.8c0,0,4-7.3-2.3-7.7c-6.3-0.3-6.5,3.7-6.5,3.7c-5.1,0-4.2-3.3-4.2-3.3
			c-15-19.7-31.3-11.3-31.3-11.3c-9.7-15.3-10.3-1-10.3-1c-5-12.7-10.7,0-10.7,0s-33.7,1.3-58.3,15s-30,61.3-34.7,66.1
			c-4.7,4.8-3.3,9.7-3.3,9.7v2.1c0,0-1.7-5.6-4.3-2.1c-2.7,3.5,0.3,13.2,0.3,13.2c-3-1-2,0-2,0s1.3,9,3.3,22s-2.3,17-2.3,17
			c-11.1,20.6-11.1,36.7-9,46.7c0.6,4.2,2,8,4.1,11.3l0,0l0,0c4.4,7.1,11.7,11.7,20,11.7c8.8,0,16.6-5.2,20.8-13.1l2.3-0.1
			c3.9,11.3,16.3,19.5,30.9,19.5c15.6,0,28.6-9.3,31.6-21.7l32.7-0.7c0,0,19.3-15.3,39-55C501.2,213.1,475.9,130.8,475.9,130.8z"/>
		<g>
			
				<ellipse transform="matrix(0.983 0.1838 -0.1838 0.983 47.9724 -72.8848)" fill="#EF6E54" cx="417.2" cy="222.4" rx="11.1" ry="18.2"/>
			<path fill="#C95947" d="M420.3,204.2c-6-1.1-12.4,6-14.2,15.8l6.7,1.3c-0.1,0.3-0.2,0.6-0.3,0.9c-0.9,3.7,0.4,7.2,3,7.8
				c2.6,0.7,5.4-1.8,6.4-5.4c0.1-0.5,0.2-1.1,0.3-1.6l5.7,1.1C429.7,214.2,426.3,205.3,420.3,204.2z"/>
			
				<ellipse transform="matrix(0.9878 -0.1556 0.1556 0.9878 -28.6302 68.453)" fill="#FFFFFF" cx="422.9" cy="217.1" rx="4" ry="7.1"/>
		</g>
		<ellipse opacity="0.14" fill="#EF6E54" cx="341.7" cy="278.2" rx="13.6" ry="13.1"/>
		<g>
			
				<ellipse transform="matrix(0.983 0.1838 -0.1838 0.983 43.8469 -57.1218)" fill="#EF6E54" cx="330.1" cy="208" rx="8.3" ry="16"/>
			<path fill="#C95947" d="M332.8,192.3c-4.5-0.8-9.2,4.5-10.6,11.8l5,0.9c-0.1,0.2-0.2,0.5-0.2,0.7c-0.7,2.7,0.3,5.4,2.2,5.8
				c1.9,0.5,4.1-1.3,4.8-4.1c0.1-0.4,0.2-0.8,0.2-1.2l4.2,0.8C339.8,199.8,337.3,193.1,332.8,192.3z"/>
			
				<ellipse transform="matrix(0.9272 0.3745 -0.3745 0.9272 99.4498 -107.8382)" fill="#FFFFFF" cx="327.2" cy="201.9" rx="3.1" ry="4.8"/>
		</g>
		<g>
			<g>
				<path fill="#EAEAEA" d="M625.6,191.7c-9.8-3.8-21.6-0.7-30.8,3.3c-10.4,4.6-19.8,11.3-28.7,18.3c-8.7,6.9-16.8,14.6-24,23
					c-3.7,4.3-7.3,8.8-10.6,13.4c-3.1,4.2-7.8,9.4-8.6,14.7c-0.5,3.5,3.3,8.3,7,5.4c3.8-3,5.8-7.3,8.4-11.3
					c2.9-4.5,6.1-8.9,9.4-13.1c6.4-8,13.4-15.6,20.9-22.5c7.6-6.9,15.7-13.5,24.6-18.6c10.3-5.9,20.3-8.2,31.9-9.7
					C626.9,194.4,627.2,192.3,625.6,191.7L625.6,191.7z"/>
			</g>
			<g>
				<path fill="#EAEAEA" d="M580.5,425.1c-4-2-9.8,0.8-13.5,2.7c-4.9,2.4-9.8,5.9-12.9,10.4c-1,1.4,1.1,2.7,2.2,1.7
					c4-3.4,7.6-6.8,12.5-9.1c3.6-1.7,8.9-2,11.8-4.8C580.9,425.7,580.8,425.2,580.5,425.1L580.5,425.1z"/>
			</g>
			<g>
				<path fill="#CECECE" d="M424,472.3c-3.2-1.8-5.1,2.5-5.6,5.1c-0.7,3.8,0.4,7.8,3.3,10.4c1.2,1.1,2.8-0.5,1.8-1.8
					c-1.6-1.9-2.6-4.2-2.6-6.7c0-1.9,0.8-5.6,3-6.2C424.3,473,424.4,472.5,424,472.3L424,472.3z"/>
			</g>
			<g>
				<path fill="#CECECE" d="M410.1,462c-11.5-1.4-23.2,18.1-13.7,26.6c2,1.7,4.5-0.9,2.9-2.9c-3.3-3.9,0.2-10.2,2.9-13.5
					c2.5-3.2,6.2-4.9,9-7.8C412,463.4,411.3,462.2,410.1,462L410.1,462z"/>
			</g>
			<g>
				<path fill="#CECECE" d="M392.6,457.2c-5-2.2-11.3,3.4-14,7.1c-3.2,4.3-4.4,14.8,2.5,16.2c1.7,0.4,4-0.5,4.3-2.5
					c0.6-4-2.2-7.1-1-11.3c1.3-4.4,6.2-5.1,8.3-8.7C393,457.8,392.9,457.4,392.6,457.2L392.6,457.2z"/>
			</g>
			<g>
				<path fill="#BABABA" d="M356.7,460.3c-3.3,5-3.1,12.5,1.3,16.7c1.6,1.5,4-1,2.4-2.4c-4.4-3.6-6.2-8.9-3.4-14.1
					C357.2,460.2,356.9,460.1,356.7,460.3L356.7,460.3z"/>
			</g>
			<g>
				<path fill="#BABABA" d="M330.4,454.5c-5-1-5.3,7.2-4.8,10.4c0.9,5.7,4.5,11.9,10.1,14c2.2,0.8,4-2.4,2.3-3.9
					c-2.9-2.5-5.6-4.3-7.2-8.1c-1.5-3.6-1.8-7.9-0.1-11.5C330.9,455,330.8,454.6,330.4,454.5L330.4,454.5z"/>
			</g>
			<g>
				<path fill="#BABABA" d="M321.2,453.2c-3.9,1.9-4.8,6.4-3.9,10.3c1,4.9,4.6,8.7,9.1,10.8c2.9,1.3,6.3-2.3,3.6-4.7
					c-4.7-4.3-9.9-7.9-7-15C323.4,453.5,322,452.8,321.2,453.2L321.2,453.2z"/>
			</g>
		</g>
		<g>
			<path fill="#BFBFBF" d="M338.8,251.8c0,0,0.5,0.9,1.1,2.6c0.3,0.9,0.6,1.9,0.9,3.2c0.3,1.2,0.6,2.7,0.6,4.3
				c0,0.8-0.1,1.7-0.4,2.7c-0.2,0.5-0.4,1-0.8,1.4c-0.4,0.4-1.1,0.8-1.4,1c-1.7,0.9-3.4,1.4-5,2.3c-1.6,0.8-2.9,1.9-3.8,3.4
				c-0.9,1.5-1.3,3.3-1.3,5.2c0,0.2,0,0.5,0,0.7l0.1,0.6c0,0.4,0.1,0.9,0.2,1.3c0.1,0.4,0.2,0.9,0.4,1.3c0.1,0.4,0.3,0.8,0.5,1.3
				c0.8,1.6,1.9,3.1,3.2,4.3c1.3,1.2,2.8,2.1,4.3,2.6c0.4,0.1,0.8,0.2,1.1,0.3c0.4,0.1,0.7,0.1,1.1,0.1c0.4,0,0.7,0,1.1,0
				c0.4,0,0.8-0.1,1.2-0.1c1.6-0.1,3-0.1,4.3,0c1.3,0.1,2.4,0.3,3.3,0.4c1.8,0.3,2.8,0.7,2.8,0.7s-1-0.1-2.8-0.1c-0.9,0-2,0-3.2,0.1
				c-1.2,0.1-2.6,0.3-4.1,0.5c-0.4,0.1-0.8,0.2-1.2,0.2c-0.4,0.1-0.9,0.1-1.4,0.2c-0.5,0-0.9,0-1.4-0.1c-0.5-0.1-1-0.1-1.4-0.3
				c-1.9-0.5-3.8-1.4-5.4-2.8c-1.6-1.3-3.1-3-4.1-5c-0.2-0.5-0.5-1-0.7-1.6c-0.2-0.5-0.4-1.1-0.5-1.6c-0.1-0.6-0.3-1.1-0.3-1.7
				l-0.1-0.9c0-0.3,0-0.5,0-0.8c0.1-2.2,0.6-4.5,1.9-6.5c1.3-2,3.3-3.4,5.1-4.2c1.9-0.9,3.7-1.3,5.3-1.9c0.5-0.2,0.6-0.2,0.8-0.4
				c0.2-0.2,0.4-0.4,0.5-0.7c0.3-0.6,0.4-1.3,0.5-2c0.1-1.4,0.1-2.8,0-4.1c-0.1-1.2-0.2-2.3-0.4-3.2
				C339.1,252.8,338.8,251.8,338.8,251.8z"/>
			<path fill="#BFBFBF" d="M413.5,186.5c0,0,1.5-1.1,3.9-2.3c0.6-0.3,1.3-0.6,2-0.9c0.7-0.3,1.4-0.6,2.2-0.9
				c0.8-0.3,1.6-0.6,2.4-0.9c0.8-0.3,1.7-0.5,2.6-0.7c0.9-0.2,1.8-0.4,2.6-0.6c0.9-0.2,1.8-0.3,2.6-0.3c0.8-0.1,1.7-0.1,2.5-0.1
				c0.8,0,1.5,0.1,2.2,0.2c0.3,0.1,0.7,0.1,1,0.2c0.3,0.1,0.6,0.2,0.9,0.3c0.5,0.2,1,0.4,1.3,0.7c0.4,0.2,0.6,0.4,0.7,0.6
				c0.2,0.1,0.2,0.2,0.2,0.2s-0.1,0-0.3-0.1c-0.2-0.1-0.5-0.2-0.8-0.3c-0.4-0.1-0.8-0.2-1.3-0.3c-0.5-0.1-1.1-0.1-1.7-0.1
				c-1.3,0-2.8,0.2-4.4,0.4c-0.8,0.1-1.6,0.3-2.4,0.5c-0.8,0.2-1.7,0.4-2.5,0.6c-0.8,0.2-1.7,0.4-2.5,0.7c-0.8,0.2-1.6,0.5-2.4,0.7
				c-1.6,0.5-3.1,0.9-4.3,1.2C415.2,186.1,413.5,186.5,413.5,186.5z"/>
			<path fill="#BFBFBF" d="M413.7,189.3c0,0,1.1-0.5,2.9-0.9c0.4-0.1,0.9-0.2,1.4-0.3c0.5-0.1,1.1-0.1,1.6-0.2
				c1.1-0.1,2.3-0.1,3.6,0.1c0.6,0.1,1.2,0.2,1.8,0.3c0.6,0.1,1.2,0.4,1.7,0.6c1.1,0.4,2.1,1.1,2.7,1.8c0.3,0.3,0.6,0.7,0.8,1.1
				c0.2,0.3,0.3,0.7,0.4,0.9c0.1,0.3,0.1,0.5,0.1,0.6c0,0.1,0,0.2,0,0.2s-0.2-0.3-0.5-0.6c-0.2-0.2-0.4-0.4-0.6-0.6
				c-0.3-0.2-0.6-0.4-0.9-0.6c-0.3-0.2-0.7-0.4-1.2-0.6c-0.4-0.2-0.9-0.3-1.4-0.5c-1-0.3-2.1-0.4-3.2-0.6c-1.1-0.1-2.3-0.2-3.3-0.3
				c-1.1-0.1-2.1-0.1-3-0.2C414.9,189.4,413.7,189.3,413.7,189.3z"/>
			<path fill="#BFBFBF" d="M378.7,273.8c0,0,1.6-0.6,4.3-1.4c2.8-0.8,6.7-2,11.6-3.2c2.4-0.6,5-1.2,7.8-1.7c2.8-0.5,5.8-1.1,8.8-1.5
				c1.5-0.2,3.1-0.5,4.7-0.6c1.6-0.2,3.2-0.4,4.8-0.5c3.3-0.3,6.6-0.5,9.9-0.7c3.3-0.1,6.7-0.1,9.9,0c0.8,0,1.6,0.1,2.4,0.1
				c0.8,0.1,1.6,0.1,2.4,0.2c0.8,0.1,1.6,0.1,2.4,0.2c0.8,0.1,1.6,0.2,2.3,0.3c3.1,0.4,6.1,1,8.9,1.7c2.8,0.7,5.4,1.5,7.7,2.4
				c1.2,0.4,2.3,0.9,3.3,1.4c0.5,0.2,1,0.4,1.5,0.7c0.5,0.3,0.9,0.5,1.4,0.8c1.8,0.9,3.3,1.9,4.5,2.7c0.6,0.4,1.1,0.8,1.6,1.2
				c0.4,0.4,0.8,0.7,1.1,0.9c0.6,0.5,0.9,0.7,0.9,0.7s-0.3-0.2-1-0.7c-0.7-0.4-1.6-1.1-2.8-1.8c-1.3-0.7-2.8-1.6-4.6-2.4
				c-0.5-0.2-0.9-0.4-1.4-0.6c-0.5-0.2-1-0.4-1.5-0.6c-1.1-0.4-2.1-0.9-3.3-1.2c-4.7-1.5-10.3-2.7-16.4-3.4
				c-0.8-0.1-1.5-0.2-2.3-0.2c-0.8-0.1-1.6-0.1-2.4-0.2c-1.6-0.1-3.2-0.2-4.8-0.2c-3.2-0.1-6.5-0.1-9.8,0c-3.3,0.1-6.6,0.3-9.8,0.6
				c-3.2,0.3-6.4,0.6-9.5,1c-3.1,0.4-6,0.8-8.8,1.3c-2.8,0.5-5.4,0.9-7.9,1.4c-4.9,0.9-8.9,1.7-11.7,2.4
				C380.4,273.4,378.7,273.8,378.7,273.8z"/>
			<path fill="#BFBFBF" d="M376.7,279.8c0,0,3.2-1,8.2-2c2.5-0.5,5.4-1,8.5-1.5c1.6-0.2,3.2-0.4,4.9-0.6c1.7-0.2,3.3-0.3,5-0.4
				c1.7-0.1,3.4-0.1,5.1-0.1c1.7,0,3.3,0.1,4.9,0.2c1.6,0.1,3.1,0.3,4.6,0.5c1.4,0.2,2.8,0.5,4,0.8c1.2,0.3,2.4,0.6,3.3,1
				c0.5,0.2,0.9,0.3,1.4,0.5c0.4,0.2,0.8,0.4,1.1,0.5c0.7,0.3,1.2,0.6,1.5,0.8c0.3,0.2,0.5,0.3,0.5,0.3s-0.2-0.1-0.6-0.2
				c-0.4-0.1-0.9-0.3-1.6-0.5c-0.4-0.1-0.7-0.2-1.2-0.3c-0.4-0.1-0.9-0.2-1.4-0.3c-1-0.2-2.1-0.4-3.4-0.6c-0.6-0.1-1.3-0.2-1.9-0.2
				c-0.7-0.1-1.4-0.1-2.1-0.2c-1.4-0.1-2.9-0.2-4.5-0.2c-1.6-0.1-3.2,0-4.8,0c-1.6,0-3.3,0.1-5,0.2c-3.3,0.1-6.7,0.4-9.8,0.7
				c-1.6,0.1-3.1,0.3-4.5,0.4c-1.4,0.1-2.8,0.3-4,0.4C380.1,279.4,376.7,279.8,376.7,279.8z"/>
			<path fill="#BFBFBF" d="M377.7,285.4c0,0,1.2,0.2,3.4,0.6c2.2,0.4,5.3,1.1,8.9,2c1.8,0.5,3.8,1,5.9,1.6c2.1,0.6,4.3,1.2,6.5,2
				c2.3,0.7,4.6,1.5,6.9,2.4c2.3,0.9,4.7,1.8,7,2.8c1.2,0.5,2.3,1,3.5,1.5c1.1,0.5,2.3,1.1,3.4,1.6c2.2,1.1,4.4,2.3,6.4,3.5
				c1,0.6,2,1.2,3,1.9c0.5,0.3,0.9,0.6,1.4,1c0.4,0.3,0.9,0.7,1.3,1c1.8,1.3,3.3,2.7,4.7,4.1c1.4,1.4,2.5,2.7,3.3,4
				c0.5,0.6,0.8,1.3,1.1,1.9c0.2,0.3,0.3,0.6,0.5,0.9c0.1,0.3,0.2,0.6,0.3,0.8c0.2,0.5,0.4,1,0.5,1.4c0.1,0.4,0.2,0.8,0.2,1.1
				c0.1,0.6,0.2,0.9,0.2,0.9s-0.1-0.3-0.3-0.9c-0.1-0.3-0.2-0.6-0.4-1c-0.1-0.4-0.4-0.8-0.6-1.3c-0.1-0.2-0.3-0.5-0.4-0.8
				c-0.1-0.3-0.3-0.5-0.5-0.8c-0.4-0.5-0.7-1.2-1.2-1.7c-1-1.2-2.1-2.4-3.5-3.6c-0.7-0.6-1.4-1.3-2.2-1.8c-0.8-0.6-1.6-1.3-2.5-1.8
				c-0.4-0.3-0.9-0.6-1.3-0.9c-0.5-0.3-0.9-0.6-1.4-0.9c-0.9-0.6-1.9-1.2-3-1.8c-2-1.2-4.2-2.2-6.4-3.3c-1.1-0.5-2.2-1-3.4-1.6
				c-1.1-0.5-2.3-1-3.4-1.5c-2.3-1-4.6-1.9-6.9-2.8c-2.3-0.9-4.6-1.7-6.8-2.5c-4.4-1.6-8.6-3-12.2-4.1c-3.6-1.1-6.6-2.1-8.7-2.7
				C378.9,285.7,377.7,285.4,377.7,285.4z"/>
			<path fill="#BFBFBF" d="M313.7,268.2c0,0-1.1-0.4-3.2-1.2c-2-0.8-4.9-1.7-8.4-2.9c-3.5-1.1-7.6-2.3-12-3.5
				c-2.2-0.6-4.5-1.1-6.9-1.6c-2.3-0.5-4.7-0.9-7.1-1.3c-2.4-0.3-4.8-0.7-7.2-0.8c-1.2-0.1-2.4-0.2-3.5-0.2c-1.2-0.1-2.3-0.1-3.5,0
				c-2.3,0-4.5,0.2-6.5,0.4c-1,0.1-2,0.3-3,0.4c-1,0.2-1.9,0.4-2.8,0.6c-1.8,0.5-3.4,0.9-4.7,1.4c-1.4,0.5-2.6,1.1-3.5,1.5
				c-1,0.5-1.7,0.9-2.2,1.2c-0.5,0.3-0.8,0.4-0.8,0.4s0.2-0.2,0.7-0.5c0.5-0.3,1.1-0.9,2-1.4c0.9-0.5,2-1.3,3.4-1.9
				c1.3-0.7,3-1.3,4.7-1.9c0.9-0.2,1.8-0.6,2.8-0.8c1-0.2,2-0.4,3.1-0.6c2.1-0.3,4.4-0.6,6.7-0.7c1.2,0,2.3-0.1,3.5-0.1
				c0.6,0,1.2,0,1.8,0c0.6,0,1.2,0.1,1.8,0.1c2.4,0.1,4.9,0.4,7.3,0.8c2.4,0.4,4.9,0.8,7.2,1.4c2.4,0.5,4.7,1.1,6.9,1.8
				c2.2,0.6,4.3,1.3,6.4,2c2,0.7,3.9,1.4,5.6,2.1c3.4,1.3,6.2,2.7,8.2,3.6C312.7,267.6,313.7,268.2,313.7,268.2z"/>
			<path fill="#BFBFBF" d="M314.7,273.1c0,0-2.4-0.5-6.1-1.3c-1.8-0.4-3.9-0.8-6.2-1.3c-2.3-0.5-4.7-0.9-7.1-1.3
				c-4.8-0.8-9.7-1.3-13.4-1.2c-0.9,0-1.8,0.1-2.5,0.2c-0.4,0-0.7,0.1-1,0.1c-0.3,0.1-0.6,0.1-0.9,0.2c-0.5,0.1-0.9,0.2-1.2,0.3
				c-0.3,0.1-0.4,0.1-0.4,0.1s0.1-0.1,0.4-0.2c0.3-0.1,0.6-0.4,1.2-0.5c0.3-0.1,0.5-0.2,0.9-0.3c0.3-0.1,0.7-0.2,1-0.3
				c0.7-0.2,1.6-0.4,2.5-0.6c0.9-0.2,2-0.3,3-0.3c1.1-0.1,2.2-0.1,3.4,0c1.2,0,2.4,0.1,3.6,0.2c1.2,0.1,2.5,0.3,3.7,0.5
				c1.2,0.2,2.5,0.5,3.7,0.7c1.2,0.2,2.4,0.6,3.5,0.9c2.3,0.6,4.3,1.3,6.1,1.9C312.4,272,314.7,273.1,314.7,273.1z"/>
			<path fill="#BFBFBF" d="M313.5,277.6c0,0-3.7,0.8-9.3,2.1c-2.8,0.7-6,1.5-9.4,2.4c-1.7,0.5-3.5,1-5.3,1.5
				c-1.8,0.5-3.6,1.1-5.4,1.7c-1.8,0.6-3.6,1.3-5.3,2c-1.7,0.7-3.4,1.4-5,2.2c-1.6,0.8-3.1,1.6-4.5,2.4c-0.7,0.4-1.3,0.9-2,1.3
				c-0.6,0.4-1.2,0.9-1.8,1.3c-0.5,0.5-1,0.9-1.5,1.3c-0.4,0.5-0.9,0.9-1.3,1.3c-0.7,0.9-1.4,1.6-1.8,2.4c-0.5,0.7-0.7,1.3-0.9,1.7
				c-0.2,0.4-0.3,0.6-0.3,0.6s0.1-0.2,0.2-0.7c0.1-0.4,0.3-1.1,0.7-1.8c0.3-0.8,0.9-1.7,1.5-2.7c0.4-0.5,0.8-1,1.2-1.5
				c0.5-0.5,1-1,1.5-1.5c0.5-0.5,1.1-1,1.7-1.5c0.6-0.5,1.3-1,2-1.5c1.4-0.9,2.9-1.9,4.5-2.7c0.8-0.4,1.6-0.9,2.5-1.2
				c0.8-0.4,1.7-0.8,2.6-1.2c1.7-0.7,3.5-1.4,5.4-2.1c1.8-0.6,3.7-1.2,5.5-1.7c1.8-0.5,3.6-1,5.4-1.4c1.7-0.4,3.5-0.8,5.1-1.1
				c1.6-0.3,3.2-0.6,4.6-0.8C309.6,277.7,313.5,277.6,313.5,277.6z"/>
			<path fill="#BFBFBF" d="M339.4,180.3c0,0-1-0.6-2.2-1.6c-0.6-0.5-1.4-1.1-2.2-1.7c-0.8-0.6-1.6-1.3-2.4-1.9
				c-0.8-0.7-1.6-1.3-2.4-1.9c-0.8-0.6-1.5-1.1-2.2-1.4c-0.3-0.2-0.7-0.3-0.9-0.5c-0.3-0.1-0.6-0.2-0.8-0.3
				c-0.2-0.1-0.4-0.1-0.5-0.1c-0.1,0-0.2,0-0.2,0s0.1,0,0.2-0.1c0.1,0,0.3-0.1,0.6-0.2c0.2-0.1,0.6-0.1,0.9-0.1c0.4,0,0.8,0,1.2,0.1
				c0.9,0.2,1.8,0.5,2.7,1c0.5,0.3,0.9,0.5,1.4,0.8c0.5,0.3,0.9,0.6,1.3,1c0.9,0.7,1.7,1.5,2.4,2.2c0.7,0.8,1.3,1.5,1.8,2.2
				C339,179.3,339.4,180.3,339.4,180.3z"/>
			<path fill="#BFBFBF" d="M338.6,181.7c0,0-0.8-0.1-1.8-0.4c-0.5-0.1-1.1-0.3-1.7-0.5c-0.6-0.2-1.2-0.4-1.9-0.6
				c-0.3-0.1-0.6-0.2-0.9-0.3c-0.3-0.1-0.6-0.2-0.9-0.2c-0.3-0.1-0.6-0.1-0.8-0.2c-0.3-0.1-0.5,0-0.8-0.1c-0.2,0-0.4,0-0.7,0
				c-0.2,0-0.4,0.1-0.5,0.1c-0.3,0.1-0.5,0.2-0.5,0.2s0.1-0.2,0.3-0.5c0.1-0.2,0.2-0.3,0.4-0.5c0.2-0.1,0.4-0.4,0.7-0.5
				c0.3-0.1,0.6-0.3,1-0.3c0.4-0.1,0.7-0.1,1.1-0.1c0.4,0,0.8,0,1.1,0.1c0.4,0,0.7,0.2,1.1,0.3c1.5,0.5,2.7,1.3,3.6,2.1
				C338.2,181.1,338.6,181.7,338.6,181.7z"/>
		</g>
		<path fill="#FFFFFF" d="M623.9,511.4c-15.9,14.7-39.1,18.3-60.8,18.8c-19.7,0.4-39.4-1.3-58.7-4.9c-5.7-1.1-11.6-2.4-16.4-5.7
			c-6.9-4.7-10.8-12.8-12.3-20.9s-0.7-16.6-0.1-24.9c4.2-54.4,4.6-109.1,4.9-163.7c0.1-22.6,0.3-45.1,0.4-67.7
			c0.1-18,0.2-36.1,0.4-54.1c0.1-11,0.1-22-2.1-32.8c-1.7-8.2-4.8-16.1-6.5-24.4c27,5.5,53,21.7,64.7,46.6
			c6.2,13.2,8.1,27.9,10,42.3c3.8,29.7,7.7,59.4,9.3,89.2c2.7,50.5-0.9,102.1,13.2,150.7c0.9,3.2,2,6.4,4.2,8.9
			c2.7,3,6.8,4.3,10.6,5.7c12.6,4.5,24.5,10.8,35.4,18.7c4.3,3.1,8.9,7.8,7.4,12.9C627,508.3,625.5,510,623.9,511.4z"/>
		<g>
			
				<ellipse transform="matrix(0.8261 -0.5635 0.5635 0.8261 8.4825 384.9343)" fill="#EFEFEF" cx="627.9" cy="178.7" rx="6.7" ry="9.6"/>
			
				<ellipse transform="matrix(0.8261 -0.5635 0.5635 0.8261 -8.539 385.3919)" fill="#EFEFEF" cx="620.2" cy="206.5" rx="6.7" ry="9.6"/>
			
				<ellipse transform="matrix(0.8261 -0.5635 0.5635 0.8261 -13.9687 407.4385)" fill="#EFEFEF" cx="653.2" cy="226.4" rx="6.7" ry="9.6"/>
			
				<ellipse transform="matrix(0.8261 -0.5635 0.5635 0.8261 8.523 400.4977)" fill="#EFEFEF" cx="653.2" cy="186.4" rx="4.2" ry="6"/>
			
				<ellipse transform="matrix(0.8261 -0.5635 0.5635 0.8261 -3.1835 398.5105)" fill="#EFEFEF" cx="644.1" cy="204.4" rx="4.2" ry="6"/>
			
				<ellipse transform="matrix(0.8261 -0.5635 0.5635 0.8261 8.326524e-02 409.0964)" fill="#EFEFEF" cx="662.9" cy="204.4" rx="4.2" ry="6"/>
			
				<ellipse transform="matrix(0.8261 -0.5635 0.5635 0.8261 5.9688 370.4733)" fill="#EFEFEF" cx="603.2" cy="175.6" rx="4.2" ry="6"/>
			
				<ellipse transform="matrix(0.6377 -0.7703 0.7703 0.6377 102.7167 526.3641)" fill="#EFEFEF" cx="610.9" cy="154" rx="5.9" ry="8.3"/>
		</g>
		<g>
			<path fill="#E8E8E8" d="M519.3,500.8c0,0,5.9,0.9,14.8,2.3c2.2,0.3,4.6,0.7,7.1,1c2.5,0.4,5.2,0.7,8,1c2.8,0.3,5.6,0.6,8.5,0.9
				c2.9,0.2,5.9,0.4,8.8,0.4c2.9,0,5.9-0.1,8.6-0.7c1.3-0.3,2.6-0.7,3.7-1.3c0.5-0.3,0.9-0.7,1.3-1c0.3-0.4,0.6-0.8,0.6-1.3
				c0.2-1-0.1-2.2-0.5-3.3c-0.5-1.1-1.1-2.2-1.8-3.2c-1.4-2-3-3.9-4.5-5.5c-3-3.2-5.8-5.8-7.7-7.6c-1.9-1.8-3-2.8-3-2.8
				s0.3,0.2,0.9,0.6c0.6,0.4,1.5,1,2.5,1.7c2.1,1.5,5.2,3.8,8.5,6.8c1.7,1.5,3.4,3.3,5.1,5.4c0.8,1.1,1.6,2.2,2.2,3.6
				c0.6,1.3,1.1,2.9,0.8,4.7c-0.1,0.9-0.6,1.8-1.1,2.5c-0.6,0.7-1.2,1.3-2,1.7c-1.4,0.9-3,1.4-4.5,1.7c-3.1,0.7-6.1,0.8-9.2,0.8
				c-3.1,0-6.1-0.2-9-0.5c-3-0.3-5.9-0.7-8.6-1.1c-2.8-0.4-5.5-0.9-8-1.4c-2.5-0.5-4.9-1-7.1-1.6C525,502.7,519.3,500.8,519.3,500.8
				z"/>
		</g>
		<g>
			<path fill="#CECECE" d="M240.7,474.8c0,0,0,1.1,0.3,2.9c0.1,0.9,0.3,2,0.6,3.2c0.3,1.2,0.7,2.6,1.4,4c0.6,1.4,1.5,2.8,2.6,4
				c1.1,1.2,2.6,2.2,4.2,2.9c1.7,0.7,3.5,1,5.5,1.1c0.5,0.1,1,0,1.5,0c0.5,0,1,0,1.5-0.1l1.5-0.2l0.8-0.1l0.7-0.2
				c2-0.3,4-0.9,5.9-1.5c1-0.3,1.9-0.6,2.9-1c0.9-0.4,1.9-0.7,2.8-1.1c0.9-0.3,1.8-0.8,2.7-1.1c0.9-0.4,1.7-0.7,2.5-1.1
				c1.6-0.8,3.2-1.5,4.6-2.2c1.4-0.7,2.7-1.3,3.9-1.9c1.2-0.6,2.2-1.1,3-1.5c1.7-0.8,2.6-1.3,2.6-1.3s-0.8,0.7-2.3,1.8
				c-0.8,0.6-1.6,1.3-2.7,2c-1.1,0.7-2.3,1.5-3.6,2.4c-1.3,0.9-2.9,1.7-4.5,2.6c-1.6,0.9-3.3,1.8-5.2,2.6c-0.9,0.4-1.9,0.8-2.8,1.2
				c-1,0.4-2,0.7-3,1.1c-2,0.7-4.1,1.3-6.3,1.7l-0.8,0.2l-0.8,0.1l-1.7,0.2c-0.5,0.1-1.1,0-1.7,0.1c-0.6,0-1.1,0.1-1.7,0
				c-0.6,0-1.1-0.1-1.7-0.1c-0.6-0.1-1.1-0.2-1.6-0.3c-0.5-0.1-1.1-0.3-1.6-0.5c-0.5-0.2-1-0.3-1.5-0.6c-2-0.9-3.7-2.3-4.9-3.9
				c-1.2-1.6-2-3.2-2.5-4.8c-0.5-1.6-0.8-3.1-0.9-4.4c-0.1-1.3-0.1-2.5-0.1-3.4c0-0.9,0.1-1.7,0.2-2.2
				C240.7,475,240.7,474.8,240.7,474.8z"/>
		</g>
	</g>
	<g>
		<path fill="#F2B266" d="M538.2,268.5h-3.4v-26.5h3.4V268.5z"/>
		<path fill="#F2B266" d="M544.3,247.4H541v-5.4h3.4V247.4z"/>
		<path fill="#F2B266" d="M553.7,268.4l-3.7-12.7v12.7h-3.4v-26.5h3l5.4,18.7l5.3-18.7h3v26.5h-3.4v-12.7l-3.7,12.7H553.7z"/>
		<path fill="#F2B266" d="M585.6,253.5v-11.6h3.4v26.5h-3.4v-11.6h-5.1v11.6h-3.4v-26.5h3.4v11.6H585.6z"/>
		<path fill="#F2B266" d="M591.8,249.5c0-2.3,0.5-4.2,1.5-5.5c0.4-0.5,0.9-1,1.7-1.4c0.8-0.4,1.8-0.7,3.1-0.7c2.6,0,4,1.1,4.8,2.1
			c1,1.3,1.5,3.1,1.5,5.5v11.4c0,2.3-0.5,4.2-1.5,5.5c-0.8,1-2.2,2.1-4.8,2.1c-2.6,0-4-1.1-4.8-2.1c-1-1.3-1.5-3.1-1.5-5.5V249.5z
			 M595.2,260.9c0,2.1,0.5,3.1,1.1,3.6c0.6,0.5,1.3,0.5,1.8,0.5c0.5,0,1.2,0,1.8-0.5c0.6-0.5,1.1-1.5,1.1-3.6v-11.4
			c0-2.1-0.5-3.1-1.1-3.6c-0.6-0.5-1.4-0.5-1.8-0.5c-0.5,0-1.2,0-1.8,0.5c-0.6,0.5-1.1,1.6-1.1,3.6V260.9z"/>
		<path fill="#F2B266" d="M609.8,256.9v11.6h-3.4v-26.5h5.5c4.5,0,6.8,2.7,6.8,7.5c0,4.9-2.2,7.5-6.8,7.5H609.8z M609.8,245.3v8.1
			h2.1c0.9,0,1.6-0.1,1.9-0.3s0.5-0.4,0.6-0.5c0.5-0.5,0.8-1.7,0.8-3.3c0-1.7-0.3-2.7-0.8-3.3c-0.6-0.6-1.4-0.7-2.5-0.7H609.8z"/>
		<path fill="#F2B266" d="M623.6,256.9v11.6h-3.4v-26.5h5.5c4.5,0,6.8,2.7,6.8,7.5c0,4.9-2.2,7.5-6.8,7.5H623.6z M623.6,245.3v8.1
			h2.1c0.9,0,1.6-0.1,1.9-0.3s0.5-0.4,0.6-0.5c0.5-0.5,0.8-1.7,0.8-3.3c0-1.7-0.3-2.7-0.8-3.3c-0.6-0.6-1.4-0.7-2.5-0.7H623.6z"/>
		<path fill="#F2B266" d="M642.2,251.7l5.4-9.7h3.9l-7.6,13.7v12.9h-3.4v-12.9l-7.6-13.7h3.9L642.2,251.7z"/>
		<path fill="#F2B266" d="M663.4,241.9h15v3.4h-5.8v23.1h-3.4v-23.1h-5.8V241.9z"/>
		<path fill="#F2B266" d="M680,249.5c0-2.3,0.5-4.2,1.5-5.5c0.4-0.5,0.9-1,1.7-1.4c0.8-0.4,1.8-0.7,3.1-0.7c2.6,0,4,1.1,4.8,2.1
			c1,1.3,1.5,3.1,1.5,5.5v11.4c0,2.3-0.5,4.2-1.5,5.5c-0.8,1-2.2,2.1-4.8,2.1c-2.6,0-4-1.1-4.8-2.1c-1-1.3-1.5-3.1-1.5-5.5V249.5z
			 M683.3,260.9c0,2.1,0.5,3.1,1.1,3.6c0.6,0.5,1.3,0.5,1.8,0.5c0.5,0,1.2,0,1.8-0.5c0.6-0.5,1.1-1.5,1.1-3.6v-11.4
			c0-2.1-0.5-3.1-1.1-3.6c-0.6-0.5-1.4-0.5-1.8-0.5c-0.5,0-1.2,0-1.8,0.5c-0.6,0.5-1.1,1.6-1.1,3.6V260.9z"/>
		<path fill="#F2B266" d="M570.7,296.7v-11.6h3.4v26.5h-3.4v-11.6h-5.1v11.6h-3.4v-26.5h3.4v11.6H570.7z"/>
		<path fill="#F2B266" d="M587.9,285.1v3.4h-7.6v8.2h7.6v3.4h-7.6v8.2h7.6v3.4h-11v-26.5H587.9z"/>
		<path fill="#F2B266" d="M600.1,304.2h-4.6l-1.7,7.4h-3.5l6.1-26.5h2.7l6.2,26.5h-3.5L600.1,304.2z M596.3,300.9h3l-1.5-6.5
			L596.3,300.9z"/>
		<path fill="#F2B266" d="M618.4,311.6H615v-7.8c0-2.3-1.1-3.5-3.4-3.5h-2.1v11.3h-3.4v-26.5h5.5c4.6,0,6.7,2.6,6.7,7.6
			c0,2.4-0.5,4.3-1.6,5.6c0,0-0.1,0.1-0.1,0.2c-0.1,0.1-0.1,0.1-0.2,0.2c1.3,1.3,2,3,2,5.2V311.6z M609.5,296.9h2.1
			c0.9,0,1.5-0.1,1.9-0.3c0.3-0.2,0.5-0.4,0.6-0.5c0.5-0.7,0.8-1.8,0.8-3.4c0-1.8-0.3-2.8-0.8-3.4c-0.6-0.6-1.4-0.7-2.5-0.7h-2.1
			V296.9z"/>
		<path fill="#F2B266" d="M643.2,285.1v3.4h-7.6v8.2h7.6v3.4h-7.6v11.6h-3.4v-26.5H643.2z"/>
		<path fill="#F2B266" d="M657.9,311.6h-3.4v-7.8c0-2.3-1.1-3.5-3.4-3.5H649v11.3h-3.4v-26.5h5.5c4.6,0,6.7,2.6,6.7,7.6
			c0,2.4-0.5,4.3-1.6,5.6c0,0-0.1,0.1-0.1,0.2c-0.1,0.1-0.1,0.1-0.2,0.2c1.3,1.3,2,3,2,5.2V311.6z M649,296.9h2.1
			c0.9,0,1.5-0.1,1.9-0.3c0.3-0.2,0.5-0.4,0.6-0.5c0.5-0.7,0.8-1.8,0.8-3.4c0-1.8-0.3-2.8-0.8-3.4c-0.6-0.6-1.4-0.7-2.5-0.7H649
			V296.9z"/>
		<path fill="#F2B266" d="M660.6,292.7c0-2.3,0.5-4.2,1.5-5.5c0.4-0.5,0.9-1,1.7-1.4c0.8-0.4,1.8-0.7,3.1-0.7c2.6,0,4,1.1,4.8,2.1
			c1,1.3,1.5,3.1,1.5,5.5v11.4c0,2.3-0.5,4.2-1.5,5.5c-0.8,1-2.2,2.1-4.8,2.1c-2.6,0-4-1.1-4.8-2.1c-1-1.3-1.5-3.1-1.5-5.5V292.7z
			 M664,304.1c0,2.1,0.5,3.1,1.1,3.6c0.6,0.5,1.3,0.5,1.8,0.5c0.5,0,1.2,0,1.8-0.5c0.6-0.5,1.1-1.5,1.1-3.6v-11.4
			c0-2.1-0.5-3.1-1.1-3.6c-0.6-0.5-1.4-0.5-1.8-0.5c-0.5,0-1.2,0-1.8,0.5c-0.6,0.5-1.1,1.6-1.1,3.6V304.1z"/>
		<path fill="#F2B266" d="M682.2,311.6l-3.7-12.7v12.7h-3.4v-26.5h3l5.4,18.7l5.3-18.7h3v26.5h-3.4v-12.7l-3.7,12.7H682.2z"/>
		<path fill="#F2B266" d="M650.1,338.1l5.4-9.7h3.9l-7.6,13.7v12.9h-3.4V342l-7.6-13.7h3.9L650.1,338.1z"/>
		<path fill="#F2B266" d="M660.1,335.9c0-2.3,0.5-4.2,1.5-5.5c0.4-0.5,0.9-1,1.7-1.4c0.8-0.4,1.8-0.7,3.1-0.7c2.6,0,4,1.1,4.8,2.1
			c1,1.3,1.5,3.1,1.5,5.5v11.4c0,2.3-0.5,4.2-1.5,5.5c-0.8,1-2.2,2.1-4.8,2.1c-2.6,0-4-1.1-4.8-2.1c-1-1.3-1.5-3.1-1.5-5.5V335.9z
			 M663.5,347.3c0,2.1,0.5,3.1,1.1,3.6c0.6,0.5,1.3,0.5,1.8,0.5c0.5,0,1.2,0,1.8-0.5c0.6-0.5,1.1-1.5,1.1-3.6v-11.4
			c0-2.1-0.5-3.1-1.1-3.6c-0.6-0.5-1.4-0.5-1.8-0.5c-0.5,0-1.2,0-1.8,0.5c-0.6,0.5-1.1,1.6-1.1,3.6V347.3z"/>
		<path fill="#F2B266" d="M674.7,328.3h3.4v19.5c0,1.8,0.4,2.8,0.9,3.2c0.5,0.5,1.2,0.5,1.6,0.5s1.1,0,1.6-0.5
			c0.5-0.4,0.9-1.4,0.9-3.2v-19.5h3.4v19.5c0,2.2-0.5,3.9-1.4,5.1c-0.7,1-2.1,2-4.5,2c-2.4,0-3.8-1-4.5-2c-1-1.2-1.4-2.9-1.4-5.1
			V328.3z"/>
		<path fill="#F2B266" d="M692.7,349h-3.4v-20.7h3.4V349z M692.7,351v3.8h-3.4V351H692.7z"/>
	</g>
</g>
</svg>
