<?xml version="1.0" encoding="utf-8"?>
<!-- Generator: Adobe Illustrator 18.1.1, SVG Export Plug-In . SVG Version: 6.00 Build 0)  -->
<!DOCTYPE svg PUBLIC "-//W3C//DTD SVG 1.1//EN" "http://www.w3.org/Graphics/SVG/1.1/DTD/svg11.dtd">
<svg version="1.1" id="Layer_1" xmlns="http://www.w3.org/2000/svg" xmlns:xlink="http://www.w3.org/1999/xlink" x="0px" y="0px"
	 viewBox="0 0 960 640" enable-background="new 0 0 960 640" xml:space="preserve">
<g>
	<path fill="#F76A8C" d="M700.4,267.2c0-68.6-55.6-124.2-124.2-124.2c-35.5,0-67.5,14.9-90.2,38.8c-22.6-23.9-54.7-38.8-90.2-38.8
		c-68.6,0-124.2,55.6-124.2,124.2c0,36.8,16,69.9,41.5,92.7l-0.2,0.2l172.9,172.9l172.8-172.8C684.2,337.4,700.4,304.2,700.4,267.2z
		"/>
	<g>
		<path fill="#EDDCB7" d="M694.8,267.2c0-65.1-52.8-117.9-117.9-117.9s-117.9,52.8-117.9,117.9c0,29.7,11,56.8,29,77.5
			c6.6,18.5,34.8,104.8,5.9,142.8c0,0-3.5,8.6,5.1,4.6c7.7-3.6,122.6-84.2,163.3-143.6C682.4,327.4,694.8,298.7,694.8,267.2z"/>
		<g>
			<path fill="none" stroke="#D8BA7D" stroke-width="2" stroke-linecap="round" stroke-miterlimit="10" d="M494.7,491.6
				c23.9-16.3,45-36.6,62.3-59.8c16.8-22.6,30.2-48.8,32.6-76.9"/>
			<path fill="none" stroke="#D8BA7D" stroke-width="2" stroke-linecap="round" stroke-miterlimit="10" d="M629.4,333.9
				c-5.2,24.8-17.8,47.6-32.8,68.1c-26.9,36.8-61.9,67.6-101.8,89.6c10.6-10.9,16-27.3,19.3-42.2s3.4-30.3,1.8-45.4"/>
			<path fill="none" stroke="#D8BA7D" stroke-width="2" stroke-linecap="round" stroke-miterlimit="10" d="M517.9,463.9
				c2.9-2.7,4.7-6.4,6.3-10c8.4-18.3,16.3-36.9,21.1-56.5s6.4-40.2,2.1-59.8"/>
			<path fill="#D8BA7D" d="M492.9,490.6c-1.2-0.2-2.4-0.3-3.6-0.5c-0.6-0.1-1.3,0-1.5,0.5c-0.2,0.6,0.6,1,1.2,1.1
				c0.6,0,1.3-0.1,1.8,0.4c-2.6,0.7-4.7,2.7-5.6,5.2c1.7-0.4,3.4-1,5-1.7c-1.4,1.7-2,3.9-1.6,6c0.1,0.5,0.3,1.1,0.7,1.4
				c1,0.7,2.3-0.5,2.8-1.7s0.9-2.7,2.1-2.9c0.1,1.4,0.2,2.9,1,4.1c0.8,1.2,2.5,1.8,3.6,1c1.8-1.2,0.6-4.1,1.3-6.2
				c0.3,1,1.3,1.6,2.3,1.5c1-0.1,1.8-1.1,1.8-2.1c0-0.8-0.4-1.6-0.9-2.3c-0.9-1.5-1.8-2.9-3.1-4c-1.3-1.1-3.1-1.7-4.8-1.2
				c-1.3,0.4-2.6,1.5-4,1.2"/>
			<path fill="#D8BA7D" d="M578.3,156.7c6.6,0.7,13,3.7,17.9,8.2c0.2-3.8,2.5-7.4,5.8-9.3c1.2,2.7,1.7,5.7,1.3,8.7
				c4.7-0.8,9.5-1,14.2-0.6c1.1,0.1,2.5,0.5,2.6,1.6c0.1,1.3-1.5,1.9-2.8,2c-3.5,0.4-7,0.8-10.5,1.2c3.5,0.3,7,0.5,10.2,1.7
				c3.3,1.2,6.3,3.3,7.8,6.5c-5.6-0.1-11.2-0.9-16.7-1.8c-5.5-0.9-10.9-1.7-16.4-2.6c-1.4-0.2-2.8-0.4-4.1-0.7
				c-9.3-1.5-18.6-2.9-27.9-4.4c10-0.8,20.1-0.5,30,0.9c-3.1-2.5-6.3-5-9.4-7.5C579.1,159.6,577.7,158.2,578.3,156.7z"/>
			<path fill="none" stroke="#D8BA7D" stroke-width="2" stroke-linecap="round" stroke-miterlimit="10" d="M576.4,176.1
				c-19.2,18.2-29.9,44.9-28.5,71.3"/>
			<path fill="none" stroke="#D8BA7D" stroke-width="2" stroke-linecap="round" stroke-miterlimit="10" d="M629.3,173.1
				c19.4,11.8,34,31.4,39.7,53.3s2.6,46.2-8.6,66"/>
			<path fill="none" stroke="#D8BA7D" stroke-width="2" stroke-linecap="round" stroke-miterlimit="10" d="M611,181.4
				c3.6,10.5,5.2,21.7,4.7,32.9"/>
			<path fill="none" stroke="#D8BA7D" stroke-width="2" stroke-linecap="round" stroke-miterlimit="10" d="M558.5,158.2
				c-18.4,1.1-36.3,10.3-47.9,24.6"/>
			<path fill="none" stroke="#D8BA7D" stroke-width="2" stroke-linecap="round" stroke-miterlimit="10" d="M555.3,171.9
				c-25.7,16.6-43.7,44.6-48.2,74.9"/>
		</g>
	</g>
	
		<ellipse transform="matrix(0.9381 -0.3465 0.3465 0.9381 -39.3087 236.6435)" opacity="0.65" fill="#EDEDED" cx="642.2" cy="228.3" rx="24.1" ry="41.7"/>
	<g>
		<path fill="#60355B" d="M488.3,345.5c18.5-20.8,29.7-48.2,29.7-78.2c0-65.1-52.8-117.9-117.9-117.9s-117.9,52.8-117.9,117.9
			c0,23.7,7,45.8,19.1,64.3c0,0.1,0.1,0.2,0.1,0.2c21.7,59.1,166,160.7,174.6,164.7c8.6,4,5.1-4.6,5.1-4.6
			C448.6,449.1,488.3,345.5,488.3,345.5z"/>
		<g>
			<path fill="#91517E" d="M485.7,485.1c-1-0.5-2.2,0.1-3,0.9c-2,2-2.5,5.2-4.6,7c-0.8,0.6-1.7,1.1-2.2,1.9
				c-0.9,1.4-0.5,3.2,0.1,4.8c0.3,0.8,0.8,1.7,1.6,2c0.8,0.3,1.9-0.6,1.5-1.4c0.4,1.2,0.8,2.5,1.6,3.5c0.9,1,2.3,1.5,3.5,1
				c1.2-0.6,1.5-2.5,0.4-3.1c1.2,0.6,2.5,1.2,3.8,1.1c1.3-0.1,2.7-1,2.8-2.3c0.2-1.4-0.9-2.6-2.1-3.2c-1.2-0.7-2.6-1-3.7-1.9
				c1.5,0.7,3.3-1.2,2.9-2.8c-0.3-1.6-2.1-2.6-3.8-2.6c1-0.4,1.9-1.1,2.2-2.1C487,486.8,486.6,485.5,485.7,485.1z"/>
			<path fill="#91517E" d="M368.8,172.9c-4.4,0.2-8.9-0.2-13.2-1.1c6-2.1,12.4-3.1,18.8-2.9c-3.2-1.3-6-3.3-8.3-5.9
				c3.6-0.7,7.5,0.4,10.1,3c1.9-2.4,4.2-4.5,6.8-6.3c0.7-0.5,1.5-0.9,2.3-0.6c1.4,0.5,1,2.6,0,3.7s-2.4,2.1-2.4,3.5
				c4.9-3,10.7-4.5,16.4-4.2c1.3,0.1,2.8,0.4,3.2,1.6c-5.8,2.5-11.8,4.7-17.8,6.6c1.2,0.1,2.4,0.4,3.4,0.9c0.3,0.2,0.7,0.4,0.8,0.7
				c0.3,0.8-0.7,1.5-1.5,1.7c-5.7,1.7-11.8,1.7-17.6,3.1c-5.9,1.5-11.9,4.4-17.9,3.1C357.3,176.9,363,174.7,368.8,172.9z"/>
			<path fill="none" stroke="#91517E" stroke-width="2" stroke-linecap="round" stroke-miterlimit="10" d="M354.2,190.4
				c-15.5,28.2-18.7,63-8.4,93.6"/>
			<path fill="none" stroke="#91517E" stroke-width="2" stroke-linecap="round" stroke-miterlimit="10" d="M341.2,184.4
				c-16.2,9.7-29.3,24.6-36.7,42s-9.2,37.1-5.1,55.5"/>
			<path fill="none" stroke="#91517E" stroke-width="2" stroke-linecap="round" stroke-miterlimit="10" d="M388.1,183.5
				c3,1.5,5,4.4,6.7,7.3c3.7,6.2,6.5,12.9,8.5,19.8"/>
			<path fill="none" stroke="#91517E" stroke-width="2" stroke-linecap="round" stroke-miterlimit="10" d="M403.8,171.3
				c4,0.3,7.6,2.7,10.8,5.2c15.8,12.2,28.2,28.7,35.4,47.3"/>
			<path fill="none" stroke="#91517E" stroke-width="2" stroke-linecap="round" stroke-miterlimit="10" d="M418.7,160.2
				c17.6,4.2,34.1,13.5,46.7,26.5c12.7,13,21.6,29.6,25.4,47.3"/>
			<path fill="none" stroke="#91517E" stroke-width="2" stroke-linecap="round" stroke-miterlimit="10" d="M481,495.4
				c-44.2-28.4-79.2-70.8-98.8-119.5"/>
			<path fill="none" stroke="#91517E" stroke-width="2" stroke-linecap="round" stroke-miterlimit="10" d="M444.5,442.4
				c-24.1-30.7-40-67.7-45.8-106.3"/>
			<path fill="none" stroke="#91517E" stroke-width="2" stroke-linecap="round" stroke-miterlimit="10" d="M478.4,493.9
				c1.5-0.2,1-2.5,0.1-3.8c-15.3-20.9-24.1-46-28-71.6s-3.2-51.6-0.6-77.4"/>
		</g>
	</g>
	
		<ellipse transform="matrix(0.9381 -0.3465 0.3465 0.9381 -65.2023 241.2723)" opacity="0.65" fill="#EDEDED" cx="642.2" cy="303" rx="13.5" ry="13.8"/>
	<g>
		<path fill="#F76A8C" d="M412.8,282.9c0,0.1-0.1,0.2-0.2,0.3c-0.3,0.3-0.6,0.5-1.1,0.8c-0.4,0.3-0.9,0.6-1.4,0.8
			c-0.5,0.3-1,0.5-1.4,0.7s-0.9,0.3-1.3,0.3c-0.5,0-0.9-0.1-1.2-0.3c-0.4-0.2-0.7-0.4-0.9-0.7c-0.3-0.3-0.5-0.7-0.7-1
			c-0.2-0.4-0.3-0.8-0.3-1.2c0-0.4-0.1-0.9-0.1-1.3c0-0.4-0.1-0.9-0.1-1.3c0-1.1,0.1-2.4,0.3-3.8c0.2-1.5,0.5-2.9,0.9-4.5
			c0.3-1.5,0.7-3,1.1-4.4c0.4-1.4,0.8-2.7,1.2-3.7c-0.5,0.8-1.1,1.7-1.6,2.5c-0.5,0.8-1.1,1.6-1.6,2.4c-0.5,0.7-1,1.5-1.5,2.2
			c-0.5,0.7-1,1.5-1.6,2.2c-0.6,0.7-1.2,1.4-1.8,2s-1.3,1.2-2,1.7c0,0-0.1,0-0.2,0c-0.1,0-0.2,0-0.3-0.1c-0.1-0.1-0.2-0.2-0.2-0.3
			l0,0c0,0,0,0,0,0c0,0,0,0,0-0.1c-0.2-0.7-0.4-1.4-0.5-2.1c-0.1-0.7-0.2-1.4-0.2-2.1c0-0.7-0.1-1.4-0.1-2.1c0-0.7-0.1-1.4-0.1-2.1
			c-0.1-1.2-0.2-2.5-0.3-3.7c-0.1-1.2-0.2-2.5-0.3-3.8c-0.8,1.9-1.5,3.9-2.2,5.9c-0.7,2-1.4,3.9-2.1,5.9c-0.5,1.4-1.2,2.8-1.8,4.2
			c-0.7,1.4-1.5,2.6-2.4,3.8c-0.5,0.6-1,1.2-1.6,1.7c-0.6,0.5-1.2,1-1.9,1.4c-0.7,0.4-1.4,0.7-2.2,0.9c-0.8,0.2-1.5,0.3-2.3,0.3
			c-0.1,0-0.2-0.1-0.3-0.2c-0.1-0.1-0.1-0.2-0.1-0.3c0-0.3,0.1-0.4,0.4-0.5c0.5-0.1,0.9-0.2,1.4-0.3c0.4-0.1,0.9-0.2,1.3-0.4
			c1.1-0.5,2-1.1,2.8-2c0.8-0.8,1.5-1.8,2.2-2.8c0.6-1,1.2-2.1,1.7-3.2c0.5-1.1,0.9-2.2,1.3-3.2c0.3-0.9,0.7-1.8,1-2.8
			c0.3-0.9,0.6-1.9,0.9-2.8c0.3-0.9,0.6-1.9,1-2.8c0.4-0.9,0.8-1.8,1.3-2.7c-0.6,0.4-1.3,0.7-2,1c-0.7,0.3-1.3,0.7-2,1
			c-0.5,0.3-1,0.6-1.4,0.9c-0.5,0.3-0.9,0.7-1.4,1.1c-0.4,0.4-0.8,0.8-1.2,1.3c-0.4,0.5-0.6,1-0.8,1.5c-0.1,0.2-0.2,0.5-0.2,0.7
			c0,0.2-0.1,0.4-0.2,0.7c0,0.1-0.1,0.2-0.2,0.3c-0.1,0.1-0.2,0.1-0.3,0.1c-0.1,0-0.2,0-0.3-0.1c-0.1-0.1-0.2-0.2-0.2-0.3
			c0-0.8,0.1-1.6,0.4-2.4s0.7-1.4,1.2-2c0.5-0.6,1.1-1.2,1.7-1.7c0.6-0.5,1.3-1,1.9-1.4c1.1-0.7,2.2-1.3,3.3-1.9
			c1.2-0.6,2.3-1.1,3.5-1.5h0.1c0.2,0,0.4,0.1,0.5,0.3c0.1,0,0.1,0.1,0.1,0.2c0,0.1,0,0.2,0,0.2c0.4,1.5,0.7,3.1,0.9,4.7
			c0.2,1.6,0.4,3.1,0.6,4.7c0.1,1.1,0.2,2.3,0.3,3.4c0.1,1.1,0.1,2.2,0.1,3.4c0.9-1.1,1.8-2.3,2.6-3.4c0.9-1.1,1.7-2.3,2.5-3.4
			c0.9-1.3,1.8-2.5,2.6-3.8c0.9-1.2,1.8-2.5,2.7-3.7c0.3-0.4,0.6-0.8,1-1.3c0.3-0.4,0.7-0.8,1-1.2c0.1-0.1,0.2-0.1,0.3-0.1
			c0.1,0,0.3,0.1,0.4,0.2c0.2,0.1,0.2,0.3,0.2,0.4v0.1c-0.7,2.6-1.5,5.1-2.3,7.6c-0.8,2.5-1.6,5-2.2,7.6c-0.3,1.2-0.5,2.5-0.7,3.7
			c-0.2,1.2-0.3,2.5-0.3,3.7c0,0.3,0,0.7,0,1.1c0,0.4,0.1,0.9,0.2,1.3c0.1,0.4,0.3,0.7,0.5,1c0.2,0.3,0.6,0.4,1,0.4
			c0.4,0,0.9-0.1,1.4-0.3c0.5-0.2,1-0.5,1.5-0.7c0.5-0.3,0.9-0.5,1.2-0.7s0.5-0.3,0.6-0.3c0.1,0,0.3,0.1,0.4,0.2
			C412.7,282.7,412.8,282.8,412.8,282.9z"/>
		<path fill="#F76A8C" d="M427.8,267.2c0,0.1,0,0.2,0,0.2c-0.9,2.3-1.8,4.6-2.8,6.9c-1,2.2-1.9,4.5-2.8,6.9
			c-0.4,1.1-0.8,2.2-1.2,3.4c-0.3,1.1-0.7,2.3-1,3.4c-0.1,0.3-0.1,0.5-0.2,0.7c-0.1,0.2-0.2,0.5-0.3,0.7c-0.3,0.8-0.6,1.7-0.9,2.5
			c-0.3,0.8-0.6,1.6-1,2.4c-0.4,0.8-0.8,1.5-1.3,2.2c-0.5,0.7-1.1,1.3-1.7,1.8c-0.6,0.5-1.3,0.9-2.1,1.2c-0.8,0.3-1.6,0.5-2.5,0.5
			c-0.9,0-1.8-0.2-2.6-0.5c-0.8-0.3-1.6-0.8-2.3-1.3s-1.3-1.2-1.8-2c-0.5-0.8-1-1.6-1.4-2.5c0-0.1-0.1-0.2-0.1-0.2
			c0-0.2,0-0.3,0.2-0.4c0.1-0.1,0.3-0.1,0.4-0.1c0.1,0,0.2,0,0.2,0.1c0.1,0.1,0.1,0.1,0.2,0.2c0.2,0.3,0.3,0.5,0.4,0.8
			c0.1,0.3,0.3,0.6,0.5,0.8c0.3,0.5,0.7,0.9,1.2,1.4c0.4,0.4,0.9,0.8,1.5,1.2c0.5,0.3,1.1,0.6,1.7,0.8c0.6,0.2,1.2,0.3,1.8,0.3
			c0.9,0,1.8-0.2,2.6-0.7c1.1-0.7,2.1-1.6,2.9-2.9s1.4-2.6,2-4c0.5-1.4,1-2.9,1.4-4.3c0.4-1.5,0.8-2.9,1.2-4.1
			c-0.3,0.3-0.6,0.5-1,0.8s-0.8,0.6-1.2,0.8c-0.4,0.3-0.8,0.5-1.3,0.7c-0.4,0.2-0.8,0.3-1.2,0.3c-0.7,0-1.3-0.2-1.8-0.7
			c-0.5-0.4-0.9-1-1-1.8c-0.1-0.5-0.2-0.9-0.2-1.3c0-0.7,0-1.5,0.1-2.3c0.1-0.8,0.3-1.6,0.4-2.4c0.2-0.8,0.4-1.6,0.7-2.3
			c0.3-0.7,0.5-1.4,0.8-2c0.6-1.3,1.2-2.6,1.9-3.9c0.1-0.3,0.3-0.5,0.4-0.8c0.1-0.3,0.3-0.5,0.4-0.8c0.1-0.1,0.2-0.2,0.4-0.2
			c0.1,0,0.2,0.1,0.4,0.2c0.1,0.1,0.2,0.3,0.2,0.4l-0.1,0.5c-0.2,1-0.5,1.9-0.8,2.8c-0.3,0.9-0.7,1.8-1,2.7
			c-0.3,0.6-0.5,1.3-0.8,1.9c-0.3,0.7-0.5,1.4-0.7,2c-0.2,0.7-0.3,1.4-0.5,2.1s-0.1,1.4-0.1,2.1c0,0.2,0.1,0.4,0.1,0.7
			c0,0.2,0.1,0.4,0.2,0.6c0.1,0.2,0.2,0.4,0.3,0.5c0.1,0.1,0.3,0.2,0.6,0.2c0.4,0,0.8-0.1,1.4-0.4c0.5-0.3,1.1-0.6,1.6-0.9
			c0.5-0.4,1-0.7,1.5-1.1s0.9-0.7,1.2-1c0.6-1.7,1.2-3.3,1.9-4.8c0.7-1.6,1.4-3.1,2.2-4.6c0.3-0.6,0.6-1.2,1-1.8
			c0.3-0.6,0.7-1.2,1-1.8c0.1-0.2,0.2-0.2,0.4-0.2c0.2,0,0.3,0.1,0.4,0.2C427.7,266.9,427.8,267,427.8,267.2z"/>
		<path fill="#F76A8C" d="M448.5,281.1c0,0.1,0,0.2-0.1,0.3c-0.4,0.3-0.8,0.7-1.3,1.2c-0.5,0.4-1.1,0.8-1.7,1.2
			c-0.6,0.4-1.2,0.7-1.8,0.9c-0.6,0.3-1.2,0.4-1.7,0.4c-0.7,0-1.3-0.2-1.7-0.5c-0.4-0.4-0.7-0.8-0.9-1.4c-0.2-0.5-0.4-1.1-0.4-1.8
			c-0.1-0.6-0.1-1.2-0.1-1.8c0-1.3,0.1-2.5,0.4-3.8c0.3-1.2,0.5-2.5,0.8-3.7c0.6-2.4,1.3-4.8,2.1-7c0.8-2.3,1.8-4.5,3.1-6.7
			c0.2-0.4,0.5-0.8,0.7-1.2c0.2-0.4,0.5-0.8,0.8-1.2c0.1-0.1,0.2-0.2,0.4-0.2c0.1,0,0.3,0,0.4,0.1c0.1,0.1,0.2,0.2,0.2,0.4
			c0,0.1,0,0.1,0,0.2c-1,2.7-2.1,5.3-3.2,7.9c-1.1,2.6-2,5.3-2.7,8.1c-0.3,1.2-0.6,2.5-0.9,3.8c-0.3,1.3-0.4,2.6-0.4,3.9
			c0,0.3,0,0.7,0,1.1c0,0.4,0.1,0.8,0.2,1.1c0.1,0.3,0.3,0.6,0.5,0.9c0.2,0.2,0.6,0.4,1,0.4c0.5,0,1.1-0.2,1.7-0.5
			c0.6-0.3,1.2-0.7,1.8-1.1c0.6-0.4,1.1-0.8,1.5-1.1c0.4-0.3,0.7-0.5,0.8-0.5c0.1,0,0.3,0.1,0.4,0.2
			C448.5,280.9,448.5,281,448.5,281.1z"/>
		<path fill="#F76A8C" d="M461.9,271c0,0.9-0.1,1.8-0.3,2.9s-0.5,2.1-0.9,3.1s-0.9,2-1.4,3c-0.6,1-1.2,1.8-1.9,2.6
			c-0.7,0.8-1.5,1.4-2.4,1.8c-0.9,0.4-1.8,0.7-2.8,0.7c-0.8,0-1.4-0.2-2-0.6c-0.5-0.4-1-0.9-1.4-1.5c-0.4-0.6-0.7-1.3-0.8-2
			c-0.2-0.7-0.3-1.4-0.3-2c0-0.8,0.1-1.5,0.3-2.2c0.6-2.1,1.7-4,3.1-5.6c1.4-1.7,3.2-2.9,5.2-3.7c0,0,0.1,0,0.2,0
			c0.2,0,0.3,0.1,0.4,0.2c0.1,0.1,0.1,0.2,0.1,0.4c0,0.2-0.1,0.3-0.3,0.4c-0.3,0.2-0.6,0.4-1,0.5c-0.3,0.2-0.6,0.4-1,0.6
			c-1.3,0.9-2.3,2.1-3.2,3.4c-0.9,1.4-1.6,2.8-2,4.3c-0.2,0.5-0.2,1-0.2,1.6c0,0.5,0.1,1,0.2,1.5c0.1,0.5,0.3,1.1,0.6,1.5
			c0.3,0.5,0.6,0.9,1,1.2c0.4,0.3,0.9,0.5,1.5,0.5c0.4,0,0.7-0.1,1-0.2c0.3-0.1,0.6-0.3,0.9-0.5c0.9-0.6,1.6-1.4,2.3-2.4
			c0.7-1,1.3-2,1.8-3.2c0.5-1.1,0.8-2.3,1.1-3.5c0.3-1.2,0.4-2.3,0.4-3.4v-0.4c0-0.6-0.2-1.1-0.6-1.5c-0.4-0.4-0.8-0.7-1.3-1
			c-0.2-0.1-0.3-0.1-0.5-0.2c-0.1,0-0.3-0.1-0.4-0.2c-0.2-0.1-0.3-0.3-0.3-0.5c0-0.2,0-0.3,0.1-0.4c0.1-0.1,0.2-0.2,0.4-0.1h0
			c0.5,0,1,0.2,1.5,0.3c0.5,0.2,0.9,0.4,1.3,0.8c0.4,0.3,0.7,0.7,1,1.1c0.3,0.4,0.4,0.9,0.5,1.5c0,0.2,0.1,0.5,0.1,0.7
			S461.9,270.7,461.9,271z"/>
		<path fill="#F76A8C" d="M480.6,261.5c0,1-0.2,1.9-0.6,2.9c-0.4,1-0.9,2-1.5,2.9c-0.6,1-1.2,1.9-2,2.7s-1.4,1.6-2,2.3
			c-1,1.1-2,2.1-3,3.1c-1,1-2,2.1-2.9,3.2c-0.7,0.8-1.4,1.6-2,2.4c-0.6,0.8-1.3,1.7-1.9,2.5c-0.2,0.3-0.4,0.6-0.6,1
			c-0.2,0.3-0.4,0.7-0.6,1c-0.1,0.1-0.2,0.2-0.3,0.2c-0.1,0-0.2-0.1-0.4-0.2c-0.2-0.1-0.3-0.2-0.3-0.3c0-0.2,0-0.4,0.1-0.6
			c0-0.2,0.1-0.4,0.1-0.6c0.2-1.2,0.5-2.4,0.9-3.6c0.4-1.2,0.7-2.4,0.9-3.6c0.3-1.1,0.5-2.2,0.7-3.4s0.4-2.3,0.6-3.4
			c0-0.4,0.1-0.7,0.1-1.1c0-0.4,0.1-0.8,0.1-1.2c0-0.2,0-0.3,0-0.5c0-0.2,0-0.3,0.1-0.5c0-0.1,0.1-0.2,0.2-0.3
			c0.1-0.1,0.2-0.1,0.3-0.1s0.2,0,0.3,0.1c0.1,0.1,0.2,0.2,0.2,0.3c0,0.3,0.1,0.6,0.1,0.9c0,0.3,0,0.6,0,0.9c0,1.8-0.1,3.5-0.4,5.2
			s-0.6,3.4-1,5.1c0.5-0.6,0.9-1.2,1.5-1.8c0.5-0.6,1-1.1,1.6-1.7c0.5-0.5,1.1-1.2,1.9-1.9c0.7-0.7,1.4-1.4,2.2-2.3
			c0.8-0.8,1.5-1.6,2.3-2.5c0.7-0.9,1.4-1.7,2-2.6c0.6-0.9,1.1-1.8,1.4-2.6c0.4-0.9,0.5-1.7,0.5-2.5c0-0.9-0.3-1.8-0.8-2.5
			c-0.4-0.5-0.9-1-1.4-1.3c-0.6-0.3-1.2-0.6-1.8-0.9c-0.1,0-0.3-0.1-0.4-0.1c-0.2,0-0.3-0.1-0.4-0.2c-0.2-0.1-0.3-0.3-0.3-0.4
			c0-0.1,0.1-0.2,0.2-0.4c0.1-0.1,0.2-0.2,0.4-0.2l0.1,0c0.8,0.2,1.5,0.5,2.3,0.8c0.7,0.3,1.4,0.8,1.9,1.3c0.5,0.5,1,1.1,1.3,1.8
			C480.4,259.8,480.6,260.6,480.6,261.5z"/>
		<path fill="#F76A8C" d="M488.6,269c0,0.6-0.1,1.1-0.4,1.7c-0.3,0.6-0.6,1.1-1,1.6c-0.4,0.5-0.9,1-1.4,1.4c-0.5,0.4-1,0.8-1.4,1.1
			c-0.7,0.5-1.4,0.9-2.1,1.3c-0.7,0.4-1.5,0.6-2.4,0.6c-0.2,0-0.4,0-0.6-0.1s-0.3-0.2-0.3-0.4c0-0.3,0.1-0.5,0.4-0.6
			c0.1,0,0.1,0,0.2,0c0.1,0,0.2,0,0.3,0c0.3,0,0.5-0.1,0.7-0.2c0.2-0.1,0.5-0.2,0.7-0.4c0.4-0.3,0.9-0.6,1.5-1.1
			c0.6-0.5,1.2-1,1.8-1.5c0.6-0.6,1.1-1.1,1.5-1.7s0.6-1.1,0.6-1.6c0-0.3-0.2-0.5-0.5-0.5c-0.1,0-0.3,0-0.4,0.1
			c-0.1,0-0.3,0.1-0.4,0.1c-1.1,0.4-2.1,0.9-3,1.7c-0.9,0.7-1.7,1.6-2.4,2.6c-0.7,1-1.2,2-1.6,3.2c-0.4,1.1-0.6,2.2-0.6,3.4
			c0,0.4,0,0.8,0.1,1.3c0.1,0.5,0.2,0.9,0.3,1.3c0.2,0.4,0.4,0.8,0.7,1s0.7,0.4,1.2,0.4c0.2,0,0.4,0,0.5-0.1
			c0.2-0.1,0.3-0.1,0.5-0.2c0.6-0.3,1.2-0.8,1.7-1.4c0.5-0.6,1-1.2,1.4-1.8c0.1-0.1,0.2-0.3,0.3-0.4c0.1-0.2,0.2-0.3,0.3-0.5
			c0.1-0.1,0.2-0.2,0.3-0.2c0.1,0,0.3,0,0.4,0.1s0.2,0.2,0.2,0.4c0,0,0,0.1-0.1,0.2c-0.3,0.5-0.6,1.1-1,1.7
			c-0.4,0.6-0.9,1.2-1.4,1.7c-0.5,0.5-1,1-1.6,1.3s-1.2,0.5-1.8,0.5c-0.7,0-1.3-0.2-1.8-0.6c-0.5-0.4-0.8-0.9-1.1-1.5
			c-0.3-0.6-0.5-1.2-0.6-1.9c-0.1-0.7-0.2-1.3-0.2-1.8c0-1.7,0.4-3.4,1.1-5s1.7-3,3-4.2c0.4-0.4,0.8-0.7,1.3-1.1
			c0.5-0.4,1-0.7,1.5-1c0.5-0.3,1.1-0.6,1.7-0.8c0.6-0.2,1.1-0.3,1.6-0.3c0.7,0,1.2,0.2,1.6,0.7C488.4,267.8,488.6,268.4,488.6,269z
			"/>
		<path fill="#F76A8C" d="M517.5,256.1c0,0.3-0.1,0.4-0.4,0.5c-0.4,0.2-0.8,0.3-1.1,0.4c-0.3,0.1-0.7,0.2-1.1,0.4
			c-0.9,0.5-1.7,1-2.5,1.7c-0.7,0.7-1.4,1.4-2,2.2c-0.6,0.8-1.1,1.7-1.6,2.5c-0.5,0.9-0.9,1.8-1.3,2.7l0,0.1
			c0.5-0.1,0.9-0.1,1.4-0.2c0.4-0.1,0.9-0.1,1.4-0.1c0.2,0,0.5,0,0.9,0.1c0.4,0,0.7,0.1,0.9,0.2c0.1,0,0.2,0.1,0.2,0.3
			c0.1,0.1,0.1,0.3,0.1,0.3c0,0.1,0,0.1-0.1,0.2c0,0.1-0.1,0.1-0.2,0.2c-0.8,0.4-1.7,0.6-2.6,0.7c-1,0.1-1.9,0.2-2.8,0.3
			c-0.8,2-1.5,4-2.2,6.1s-1.4,4.1-2.1,6.1c-0.5,1.4-0.9,2.9-1.3,4.4c-0.4,1.5-0.9,2.9-1.3,4.3c-0.5,1.4-1,2.8-1.6,4.2
			c-0.6,1.4-1.4,2.7-2.2,4c-0.4,0.6-0.9,1.1-1.4,1.6s-1.1,1-1.7,1.4c-0.6,0.4-1.3,0.7-1.9,0.9c-0.7,0.2-1.4,0.3-2.1,0.3
			c-0.9,0-1.7-0.2-2.6-0.5c-0.9-0.3-1.7-0.7-2.4-1.2c-0.8-0.5-1.5-1.1-2.1-1.8s-1.2-1.4-1.6-2.1c0-0.1-0.1-0.2-0.1-0.3
			c0-0.1,0.1-0.3,0.2-0.3s0.2-0.1,0.4-0.1c0.2,0,0.3,0.1,0.4,0.2c0.2,0.3,0.4,0.5,0.5,0.7c0.2,0.2,0.3,0.4,0.5,0.7
			c0.8,0.8,1.7,1.5,2.6,2.1s2.1,1,3.2,1.2c0.1,0,0.3,0,0.4,0.1s0.3,0,0.4,0c0.9,0,1.7-0.2,2.5-0.6c0.8-0.4,1.5-0.9,2.1-1.5
			c0.6-0.6,1.2-1.4,1.7-2.2c0.5-0.8,1-1.7,1.4-2.5c0.4-0.9,0.8-1.7,1.1-2.6s0.6-1.6,0.8-2.4c0.5-1.4,0.9-2.9,1.3-4.3
			c0.4-1.4,0.8-2.9,1.3-4.3c0.6-1.9,1.3-3.8,1.9-5.7s1.3-3.8,2-5.7c-0.8,0.1-1.5,0.1-2.3,0.2s-1.5,0.1-2.3,0.1
			c-0.1,0-0.2-0.1-0.3-0.2c-0.1-0.1-0.1-0.3-0.1-0.4c0-0.2,0.1-0.4,0.3-0.4c0.3-0.1,0.6-0.1,0.8-0.2c0.3,0,0.6-0.1,0.8-0.1
			c0.6-0.1,1.2-0.2,1.8-0.3c0.6-0.1,1.2-0.2,1.9-0.3c0.1-0.2,0.1-0.4,0.2-0.6c0.1-0.2,0.2-0.4,0.3-0.6c0.5-1.2,1.1-2.4,1.8-3.6
			c0.7-1.2,1.5-2.2,2.4-3.2c0.9-1,1.9-1.7,3.1-2.4c1.1-0.6,2.4-1,3.8-1.2h0.1c0.1,0,0.3,0.1,0.4,0.2
			C517.5,255.9,517.5,256,517.5,256.1z"/>
		<path fill="#F76A8C" d="M522.9,271c0,0.9-0.1,1.8-0.3,2.9s-0.5,2.1-0.9,3.1s-0.9,2-1.4,3c-0.6,1-1.2,1.8-1.9,2.6
			c-0.7,0.8-1.5,1.4-2.4,1.8c-0.9,0.4-1.8,0.7-2.8,0.7c-0.8,0-1.4-0.2-2-0.6c-0.5-0.4-1-0.9-1.4-1.5c-0.4-0.6-0.7-1.3-0.8-2
			c-0.2-0.7-0.3-1.4-0.3-2c0-0.8,0.1-1.5,0.3-2.2c0.6-2.1,1.7-4,3.1-5.6c1.4-1.7,3.2-2.9,5.2-3.7c0,0,0.1,0,0.2,0
			c0.2,0,0.3,0.1,0.4,0.2c0.1,0.1,0.1,0.2,0.1,0.4c0,0.2-0.1,0.3-0.3,0.4c-0.3,0.2-0.6,0.4-1,0.5c-0.3,0.2-0.6,0.4-1,0.6
			c-1.3,0.9-2.3,2.1-3.2,3.4c-0.9,1.4-1.6,2.8-2,4.3c-0.2,0.5-0.2,1-0.2,1.6c0,0.5,0.1,1,0.2,1.5c0.1,0.5,0.3,1.1,0.6,1.5
			c0.3,0.5,0.6,0.9,1,1.2c0.4,0.3,0.9,0.5,1.5,0.5c0.4,0,0.7-0.1,1-0.2c0.3-0.1,0.6-0.3,0.9-0.5c0.9-0.6,1.6-1.4,2.3-2.4
			c0.7-1,1.3-2,1.8-3.2c0.5-1.1,0.8-2.3,1.1-3.5c0.3-1.2,0.4-2.3,0.4-3.4v-0.4c0-0.6-0.2-1.1-0.6-1.5c-0.4-0.4-0.8-0.7-1.3-1
			c-0.2-0.1-0.3-0.1-0.5-0.2c-0.1,0-0.3-0.1-0.4-0.2c-0.2-0.1-0.3-0.3-0.3-0.5c0-0.2,0-0.3,0.1-0.4c0.1-0.1,0.2-0.2,0.4-0.1h0
			c0.5,0,1,0.2,1.5,0.3c0.5,0.2,0.9,0.4,1.3,0.8c0.4,0.3,0.7,0.7,1,1.1c0.3,0.4,0.4,0.9,0.5,1.5c0,0.2,0.1,0.5,0.1,0.7
			S522.9,270.7,522.9,271z"/>
		<path fill="#F76A8C" d="M537.4,269.6c0,0.2,0,0.4,0,0.5c0,0.2-0.1,0.3-0.1,0.5c0,0.2-0.2,0.3-0.4,0.3c-0.1,0-0.2,0-0.4-0.1
			s-0.3-0.2-0.3-0.3l0-0.3c0-0.2,0-0.4-0.1-0.6c0-0.2-0.1-0.5-0.2-0.7c-0.1-0.2-0.2-0.4-0.3-0.5c-0.1-0.1-0.3-0.2-0.6-0.2
			c-0.5,0-1.1,0.2-1.8,0.5c-0.6,0.3-1.1,0.7-1.6,1c-0.2,0.1-0.4,0.3-0.8,0.6c-0.3,0.3-0.7,0.6-1,0.9c-0.3,0.3-0.7,0.6-0.9,0.9
			s-0.5,0.5-0.6,0.7c-0.1,0.1-0.2,0.3-0.3,0.5c-0.1,0.2-0.2,0.5-0.3,0.8c-0.1,0.3-0.2,0.5-0.3,0.8c-0.1,0.3-0.2,0.4-0.3,0.6
			c-0.5,1.1-0.9,2.2-1.3,3.3c-0.4,1.1-0.8,2.2-1.2,3.3c-0.2,0.5-0.3,1.1-0.5,1.6c-0.1,0.6-0.3,1.1-0.5,1.6c-0.1,0.2-0.2,0.3-0.3,0.3
			c-0.1,0-0.2-0.1-0.4-0.2c-0.2-0.1-0.3-0.2-0.3-0.3c0-0.3,0-0.5,0.1-0.9c0.1-0.3,0.1-0.6,0.2-0.9c0.3-1.5,0.7-3,1.1-4.4
			c0.4-1.4,0.9-2.9,1.5-4.3c0.2-0.5,0.5-1.2,0.7-2c0.3-0.8,0.6-1.5,0.9-2.3c0.3-0.8,0.7-1.5,1-2.2c0.4-0.7,0.7-1.3,1.1-1.7
			c0.1-0.1,0.2-0.1,0.3-0.1c0.1,0,0.2,0.1,0.4,0.2c0.2,0.1,0.3,0.2,0.3,0.3c0,0.1,0,0.2-0.1,0.4c0,0.2-0.1,0.4-0.1,0.6
			s-0.1,0.4-0.2,0.5c-0.1,0.2-0.1,0.3-0.1,0.4c0.7-0.5,1.5-1,2.3-1.5s1.7-0.7,2.6-0.7c0.4,0,0.8,0.1,1.1,0.3
			c0.3,0.2,0.5,0.4,0.8,0.7c0.2,0.3,0.4,0.6,0.4,0.9C537.4,268.9,537.4,269.2,537.4,269.6z"/>
		<path fill="#F76A8C" d="M562.5,267.2c0,0.1,0,0.2,0,0.2c-0.9,2.3-1.8,4.6-2.8,6.9c-1,2.2-1.9,4.5-2.8,6.9
			c-0.4,1.1-0.8,2.2-1.2,3.4c-0.3,1.1-0.7,2.3-1,3.4c-0.1,0.3-0.1,0.5-0.2,0.7c-0.1,0.2-0.2,0.5-0.3,0.7c-0.3,0.8-0.6,1.7-0.9,2.5
			c-0.3,0.8-0.6,1.6-1,2.4c-0.4,0.8-0.8,1.5-1.3,2.2c-0.5,0.7-1.1,1.3-1.7,1.8c-0.6,0.5-1.3,0.9-2.1,1.2c-0.8,0.3-1.6,0.5-2.5,0.5
			c-0.9,0-1.8-0.2-2.6-0.5c-0.8-0.3-1.6-0.8-2.3-1.3s-1.3-1.2-1.8-2c-0.5-0.8-1-1.6-1.4-2.5c0-0.1-0.1-0.2-0.1-0.2
			c0-0.2,0-0.3,0.2-0.4c0.1-0.1,0.3-0.1,0.4-0.1c0.1,0,0.2,0,0.2,0.1c0.1,0.1,0.1,0.1,0.2,0.2c0.2,0.3,0.3,0.5,0.4,0.8
			c0.1,0.3,0.3,0.6,0.5,0.8c0.3,0.5,0.7,0.9,1.2,1.4c0.4,0.4,0.9,0.8,1.5,1.2c0.5,0.3,1.1,0.6,1.7,0.8c0.6,0.2,1.2,0.3,1.8,0.3
			c0.9,0,1.8-0.2,2.6-0.7c1.1-0.7,2.1-1.6,2.9-2.9s1.4-2.6,2-4c0.5-1.4,1-2.9,1.4-4.3c0.4-1.5,0.8-2.9,1.2-4.1
			c-0.3,0.3-0.6,0.5-1,0.8s-0.8,0.6-1.2,0.8c-0.4,0.3-0.8,0.5-1.3,0.7c-0.4,0.2-0.8,0.3-1.2,0.3c-0.7,0-1.3-0.2-1.8-0.7
			c-0.5-0.4-0.9-1-1-1.8c-0.1-0.5-0.2-0.9-0.2-1.3c0-0.7,0-1.5,0.1-2.3c0.1-0.8,0.3-1.6,0.4-2.4c0.2-0.8,0.4-1.6,0.7-2.3
			c0.3-0.7,0.5-1.4,0.8-2c0.6-1.3,1.2-2.6,1.9-3.9c0.1-0.3,0.3-0.5,0.4-0.8c0.1-0.3,0.3-0.5,0.4-0.8c0.1-0.1,0.2-0.2,0.4-0.2
			c0.1,0,0.2,0.1,0.4,0.2c0.1,0.1,0.2,0.3,0.2,0.4l-0.1,0.5c-0.2,1-0.5,1.9-0.8,2.8c-0.3,0.9-0.7,1.8-1,2.7
			c-0.3,0.6-0.5,1.3-0.8,1.9c-0.3,0.7-0.5,1.4-0.7,2c-0.2,0.7-0.3,1.4-0.5,2.1s-0.1,1.4-0.1,2.1c0,0.2,0.1,0.4,0.1,0.7
			c0,0.2,0.1,0.4,0.2,0.6c0.1,0.2,0.2,0.4,0.3,0.5c0.1,0.1,0.3,0.2,0.6,0.2c0.4,0,0.8-0.1,1.4-0.4c0.5-0.3,1.1-0.6,1.6-0.9
			c0.5-0.4,1-0.7,1.5-1.1s0.9-0.7,1.2-1c0.6-1.7,1.2-3.3,1.9-4.8c0.7-1.6,1.4-3.1,2.2-4.6c0.3-0.6,0.6-1.2,1-1.8
			c0.3-0.6,0.7-1.2,1-1.8c0.1-0.2,0.2-0.2,0.4-0.2c0.2,0,0.3,0.1,0.4,0.2C562.4,266.9,562.5,267,562.5,267.2z"/>
		<path fill="#F76A8C" d="M575.9,271c0,0.9-0.1,1.8-0.3,2.9s-0.5,2.1-0.9,3.1s-0.9,2-1.4,3c-0.6,1-1.2,1.8-1.9,2.6
			c-0.7,0.8-1.5,1.4-2.4,1.8c-0.9,0.4-1.8,0.7-2.8,0.7c-0.8,0-1.4-0.2-2-0.6c-0.5-0.4-1-0.9-1.4-1.5c-0.4-0.6-0.7-1.3-0.8-2
			c-0.2-0.7-0.3-1.4-0.3-2c0-0.8,0.1-1.5,0.3-2.2c0.6-2.1,1.7-4,3.1-5.6c1.4-1.7,3.2-2.9,5.2-3.7c0,0,0.1,0,0.2,0
			c0.2,0,0.3,0.1,0.4,0.2c0.1,0.1,0.1,0.2,0.1,0.4c0,0.2-0.1,0.3-0.3,0.4c-0.3,0.2-0.6,0.4-1,0.5c-0.3,0.2-0.6,0.4-1,0.6
			c-1.3,0.9-2.3,2.1-3.2,3.4c-0.9,1.4-1.6,2.8-2,4.3c-0.2,0.5-0.2,1-0.2,1.6c0,0.5,0.1,1,0.2,1.5c0.1,0.5,0.3,1.1,0.6,1.5
			c0.3,0.5,0.6,0.9,1,1.2c0.4,0.3,0.9,0.5,1.5,0.5c0.4,0,0.7-0.1,1-0.2c0.3-0.1,0.6-0.3,0.9-0.5c0.9-0.6,1.6-1.4,2.3-2.4
			c0.7-1,1.3-2,1.8-3.2c0.5-1.1,0.8-2.3,1.1-3.5c0.3-1.2,0.4-2.3,0.4-3.4v-0.4c0-0.6-0.2-1.1-0.6-1.5c-0.4-0.4-0.8-0.7-1.3-1
			c-0.2-0.1-0.3-0.1-0.5-0.2c-0.1,0-0.3-0.1-0.4-0.2c-0.2-0.1-0.3-0.3-0.3-0.5c0-0.2,0-0.3,0.1-0.4c0.1-0.1,0.2-0.2,0.4-0.1h0
			c0.5,0,1,0.2,1.5,0.3c0.5,0.2,0.9,0.4,1.3,0.8c0.4,0.3,0.7,0.7,1,1.1c0.3,0.4,0.4,0.9,0.5,1.5c0,0.2,0.1,0.5,0.1,0.7
			S575.9,270.7,575.9,271z"/>
		<path fill="#F76A8C" d="M594.1,280c0,0.1,0,0.2-0.1,0.3c-0.5,0.5-0.9,1-1.3,1.5s-0.9,1-1.3,1.4s-1,0.8-1.5,1.1
			c-0.6,0.3-1.2,0.6-1.9,0.7c-1.1-0.5-1.6-1.3-1.6-2.4c0-0.3,0-0.5,0.1-0.8c0-0.3,0.1-0.5,0-0.8c-0.3,0.3-0.7,0.7-1.2,1.2
			s-1,0.8-1.5,1.2c-0.5,0.4-1.1,0.7-1.6,1c-0.5,0.3-1.1,0.4-1.5,0.4c-0.6,0-1.2-0.1-1.6-0.4c-0.4-0.3-0.7-0.6-1-1s-0.4-0.9-0.5-1.4
			c-0.1-0.5-0.1-1.1-0.1-1.6c0-0.5,0-1.1,0.1-1.6c0.1-1.1,0.3-2.2,0.6-3.2c0.3-1,0.6-2,1-3c0.3-0.7,0.6-1.4,0.9-2.1
			c0.3-0.7,0.6-1.4,1-2.1c0.1-0.2,0.2-0.5,0.3-0.8c0.1-0.3,0.2-0.5,0.4-0.7c0.1-0.2,0.3-0.2,0.4-0.2c0.1,0,0.2,0.1,0.4,0.2
			c0.1,0.1,0.2,0.2,0.2,0.3c0,0.2,0,0.4-0.1,0.7c-0.1,0.3-0.1,0.6-0.2,0.9c-0.1,0.3-0.2,0.6-0.2,0.9c-0.1,0.3-0.2,0.5-0.2,0.7
			c-0.3,0.8-0.5,1.6-0.9,2.5c-0.3,0.8-0.6,1.6-0.9,2.5c-0.3,0.8-0.5,1.7-0.7,2.5c-0.2,0.8-0.3,1.7-0.3,2.6c0,0.3,0,0.5,0,0.9
			c0,0.3,0.1,0.7,0.2,1c0.1,0.3,0.2,0.6,0.4,0.8c0.2,0.2,0.5,0.3,0.8,0.3c0.5,0,1-0.2,1.6-0.5s1.2-0.7,1.8-1.1
			c0.6-0.4,1.1-0.9,1.7-1.3c0.5-0.5,1-0.8,1.3-1.1c0.2-1,0.5-2.1,0.8-3.3c0.4-1.2,0.8-2.5,1.3-3.7s1-2.4,1.6-3.5
			c0.6-1.1,1.2-2,1.9-2.8c0.1-0.1,0.2-0.2,0.3-0.2c0.1,0,0.3,0.1,0.4,0.2c0.1,0.1,0.2,0.3,0.2,0.4c0,0,0,0,0,0.1
			c-0.4,1.2-1,2.5-1.6,3.9c-0.6,1.4-1.2,2.8-1.7,4.3c-0.6,1.5-1,2.9-1.4,4.3c-0.4,1.4-0.6,2.8-0.6,4.1c0,0.1,0,0.2,0,0.3
			c0,0.1,0.1,0.2,0.2,0.2c0.5-0.1,1.1-0.4,1.7-0.8c0.6-0.4,1.1-0.9,1.6-1.4c0.5-0.5,1-0.9,1.4-1.3c0.4-0.4,0.6-0.6,0.8-0.6
			c0.1,0,0.3,0.1,0.4,0.2C594,279.7,594.1,279.8,594.1,280z"/>
		<path fill="#F76A8C" d="M382.3,303.1c0,0,0,0.1,0,0.1c0,0,0,0,0,0.1c-0.7,1.6-1.4,3.1-2.2,4.7s-1.4,3.1-2,4.8c0.3,0,0.5,0,0.7,0
			c0.2,0,0.5,0,0.7,0c0.1,0,0.2,0,0.4,0c0.1,0,0.3,0,0.4,0c0.1,0,0.2,0.1,0.3,0.2c0.1,0.1,0.1,0.2,0.1,0.4c0,0.2-0.1,0.4-0.3,0.4
			c-0.2,0-0.4,0.1-0.6,0.2c-0.3,0.1-0.5,0.1-0.8,0.2c-0.3,0-0.6,0.1-0.8,0.1c-0.3,0-0.5,0.1-0.7,0.1c-0.2,0.6-0.4,1.3-0.6,2
			c-0.2,0.7-0.3,1.5-0.5,2.2c-0.1,0.8-0.3,1.5-0.3,2.3c-0.1,0.7-0.1,1.4-0.1,2c0,0.2,0,0.4,0,0.7c0,0.3,0,0.7,0.1,1
			c0.1,0.3,0.1,0.6,0.3,0.9c0.1,0.3,0.3,0.4,0.5,0.4c0.3,0,0.7-0.2,1.1-0.5c0.4-0.3,0.8-0.7,1.2-1.1c0.4-0.4,0.8-0.8,1.1-1.3
			c0.4-0.4,0.6-0.8,0.9-1c0.1-0.1,0.2-0.1,0.3-0.1c0.1,0,0.3,0.1,0.4,0.2c0.1,0.1,0.2,0.2,0.2,0.4c0,0.1,0,0.1-0.1,0.2
			c-0.3,0.4-0.6,0.8-1,1.4c-0.4,0.5-0.8,1.1-1.3,1.5c-0.5,0.5-1,0.9-1.5,1.3s-1,0.5-1.5,0.5c-0.5,0-1-0.2-1.3-0.6
			c-0.3-0.4-0.6-0.8-0.7-1.3s-0.3-1.1-0.3-1.6c-0.1-0.6-0.1-1-0.1-1.4c0-0.6,0-1.2,0.1-1.9c0.1-0.7,0.2-1.4,0.3-2.1
			c0.1-0.7,0.3-1.4,0.4-2.1c0.2-0.7,0.3-1.3,0.4-1.8c-0.2,0-0.4,0-0.5,0s-0.3,0-0.5,0c-0.5,0-1,0-1.5,0c-0.5,0-1-0.1-1.5-0.2
			c-0.5-0.1-1-0.2-1.4-0.4c-0.5-0.2-0.9-0.5-1.2-0.8c-0.1-0.1-0.1-0.2-0.1-0.3c0,0,0.1-0.2,0.2-0.4c0.1-0.2,0.2-0.3,0.3-0.3
			c0.8,0,1.7,0.1,2.5,0.3c0.8,0.2,1.7,0.3,2.5,0.3c0.3,0,0.6,0,0.8,0c0.3,0,0.6,0,0.9,0h0.1c0.3-0.8,0.6-1.6,0.9-2.5
			c0.4-0.9,0.8-1.8,1.2-2.7c0.5-0.9,0.9-1.8,1.5-2.6s1-1.6,1.6-2.2c0.1-0.1,0.3-0.1,0.3-0.1c0.1,0,0.3,0.1,0.4,0.2
			S382.3,302.9,382.3,303.1z"/>
		<path fill="#F76A8C" d="M396.1,311.9c0,0.2,0,0.4,0,0.5c0,0.2-0.1,0.3-0.1,0.5c0,0.2-0.2,0.3-0.4,0.3c-0.1,0-0.2,0-0.4-0.1
			s-0.3-0.2-0.3-0.3l0-0.3c0-0.2,0-0.4-0.1-0.6c0-0.2-0.1-0.5-0.2-0.7c-0.1-0.2-0.2-0.4-0.3-0.5c-0.1-0.1-0.3-0.2-0.6-0.2
			c-0.5,0-1.1,0.2-1.8,0.5c-0.6,0.3-1.1,0.7-1.6,1c-0.2,0.1-0.4,0.3-0.8,0.6c-0.3,0.3-0.7,0.6-1,0.9c-0.3,0.3-0.7,0.6-0.9,0.9
			s-0.5,0.5-0.6,0.7c-0.1,0.1-0.2,0.3-0.3,0.5c-0.1,0.2-0.2,0.5-0.3,0.8c-0.1,0.3-0.2,0.5-0.3,0.8c-0.1,0.3-0.2,0.4-0.3,0.6
			c-0.5,1.1-0.9,2.2-1.3,3.3c-0.4,1.1-0.8,2.2-1.2,3.3c-0.2,0.5-0.3,1.1-0.5,1.6c-0.1,0.6-0.3,1.1-0.5,1.6c-0.1,0.2-0.2,0.3-0.3,0.3
			c-0.1,0-0.2-0.1-0.4-0.2c-0.2-0.1-0.3-0.2-0.3-0.3c0-0.3,0-0.5,0.1-0.9c0.1-0.3,0.1-0.6,0.2-0.9c0.3-1.5,0.7-3,1.1-4.4
			c0.4-1.4,0.9-2.9,1.5-4.3c0.2-0.5,0.5-1.2,0.7-2c0.3-0.8,0.6-1.5,0.9-2.3c0.3-0.8,0.7-1.5,1-2.2c0.4-0.7,0.7-1.3,1.1-1.7
			c0.1-0.1,0.2-0.1,0.3-0.1c0.1,0,0.2,0.1,0.4,0.2c0.2,0.1,0.3,0.2,0.3,0.3c0,0.1,0,0.2-0.1,0.4c0,0.2-0.1,0.4-0.1,0.6
			s-0.1,0.4-0.2,0.5c-0.1,0.2-0.1,0.3-0.1,0.4c0.7-0.5,1.5-1,2.3-1.5s1.7-0.7,2.6-0.7c0.4,0,0.8,0.1,1.1,0.3
			c0.3,0.2,0.5,0.4,0.8,0.7c0.2,0.3,0.4,0.6,0.4,0.9C396,311.1,396.1,311.5,396.1,311.9z"/>
		<path fill="#F76A8C" d="M410.2,320.2c-0.6,1.2-1.2,2.3-1.9,3.2c-0.6,1-1.5,1.9-2.5,2.8c-0.5,0.5-1.1,0.7-1.7,0.7
			c-0.3,0-0.7-0.1-1-0.3c-0.3-0.2-0.5-0.5-0.6-0.8c0-0.1-0.1-0.3-0.1-0.5c0-0.2,0-0.4,0-0.7c0-0.2,0-0.5,0-0.7c0-0.2,0-0.4,0-0.5
			c-0.8,1-1.7,1.8-2.8,2.5c-1.1,0.7-2.3,1-3.6,1c-0.1,0-0.2,0-0.3-0.1c-0.1,0-0.2-0.1-0.3-0.1c-0.5-0.3-0.9-0.7-1.2-1.2
			c-0.3-0.5-0.4-1.1-0.4-1.7c0-0.8,0.1-1.5,0.3-2.3c0.2-0.7,0.5-1.5,0.8-2.2c0.3-0.7,0.7-1.4,1.2-2c0.4-0.6,0.9-1.2,1.4-1.8
			c1.2-1.5,2.7-2.9,4.3-4c1.6-1.1,3.3-2,5.2-2.7c0,0,0.1,0,0.1,0c0.2,0,0.3,0.1,0.4,0.2c0.1,0.1,0.1,0.2,0.1,0.4
			c0,0.2-0.1,0.3-0.2,0.4c-0.4,0.2-0.8,0.4-1.2,0.6s-0.8,0.4-1.1,0.6c-2.5,1.5-4.7,3.3-6.4,5.6c-0.3,0.5-0.7,1-1.1,1.5
			c-0.4,0.6-0.7,1.2-1,1.8c-0.3,0.6-0.5,1.2-0.7,1.9c-0.2,0.6-0.3,1.3-0.3,1.9c0,0.1,0,0.2,0,0.4c0,0.2,0.1,0.3,0.1,0.5
			s0.1,0.3,0.2,0.4c0.1,0.1,0.2,0.2,0.4,0.2c0.7,0,1.3-0.2,1.9-0.5s1.2-0.8,1.8-1.3c0.5-0.5,1-1.1,1.5-1.7c0.4-0.6,0.8-1.2,1.1-1.7
			c0.5-1,1-1.9,1.4-2.9c0.4-1,0.8-2,1.2-2.9c0.2-0.4,0.3-0.9,0.6-1.4c0.2-0.6,0.4-1,0.6-1.4c0.1-0.2,0.2-0.2,0.4-0.2
			c0.2,0,0.3,0,0.4,0.1s0.2,0.2,0.2,0.4l0,0.1c-0.2,0.8-0.4,1.7-0.6,2.5c-0.2,0.8-0.5,1.7-0.8,2.5c-0.1,0.3-0.3,0.7-0.4,1.1
			c-0.2,0.4-0.3,0.7-0.4,1c0,0.2-0.1,0.3-0.1,0.5c0,0.2,0,0.3-0.1,0.5c-0.1,0.4-0.1,0.7-0.2,1.1c-0.1,0.4-0.2,0.7-0.3,1.1
			c-0.1,0.5-0.2,0.9-0.3,1.4c-0.1,0.5-0.1,0.9-0.1,1.4c0,0.1,0,0.2,0,0.3c0,0.1,0,0.2,0,0.3c0.2,0,0.3-0.1,0.6-0.2s0.4-0.3,0.7-0.5
			c0.2-0.2,0.4-0.4,0.6-0.6c0.2-0.2,0.3-0.4,0.5-0.5c0.7-0.7,1.3-1.5,2-2.4c0.2-0.2,0.3-0.4,0.4-0.6s0.3-0.4,0.4-0.6
			c0.1-0.1,0.2-0.2,0.3-0.2c0.2,0,0.3,0.1,0.4,0.2C410.1,319.9,410.2,320.1,410.2,320.2z"/>
		<path fill="#F76A8C" d="M426.8,323.3c0,0.1-0.1,0.2-0.2,0.3c-0.3,0.2-0.6,0.4-0.9,0.7c-0.3,0.3-0.7,0.5-1.1,0.7
			c-0.4,0.2-0.8,0.5-1.2,0.7c-0.4,0.2-0.7,0.4-1,0.5c-0.5,0.2-1,0.3-1.5,0.3c-0.7,0-1.2-0.2-1.5-0.7c-0.3-0.5-0.5-1-0.5-1.6
			c0-0.7,0.1-1.5,0.3-2.4s0.5-1.8,0.8-2.8c0.3-0.9,0.7-1.9,1-2.8c0.4-0.9,0.7-1.7,0.9-2.4c0.3-0.7,0.5-1.3,0.7-2
			c0.2-0.7,0.3-1.4,0.4-2.1c-0.4,0-1,0.3-1.7,0.7c-0.7,0.4-1.4,0.9-2.2,1.4c-0.8,0.5-1.5,1.1-2.2,1.6c-0.7,0.5-1.2,0.9-1.6,1.2
			l-1.2,2.5c-0.6,1.1-1.1,2.1-1.6,3.2c-0.5,1.1-1,2.1-1.4,3.2c-0.2,0.5-0.4,1.1-0.6,1.6c-0.2,0.5-0.4,1.1-0.6,1.6
			c-0.1,0.2-0.2,0.3-0.4,0.3c-0.1,0-0.2-0.1-0.4-0.2c-0.1-0.1-0.2-0.2-0.2-0.3c0,0,0-0.1,0.1-0.2c0-0.1,0.1-0.3,0.1-0.4
			c0-0.2,0.1-0.3,0.1-0.4s0.1-0.2,0.1-0.3c0.4-1.5,0.9-3,1.4-4.5s1.2-2.9,1.9-4.3c0.3-0.7,0.6-1.3,0.9-2c0.3-0.7,0.6-1.3,0.9-2
			c0.1-0.3,0.3-0.6,0.5-0.9c0.2-0.4,0.4-0.7,0.6-1.1s0.4-0.7,0.7-1.1s0.4-0.6,0.7-0.8c0.1-0.1,0.2-0.1,0.3-0.1
			c0.1,0,0.2,0.1,0.4,0.2c0.2,0.1,0.2,0.2,0.2,0.4c0,0.1,0,0.2-0.1,0.5c-0.1,0.3-0.2,0.5-0.3,0.8c-0.1,0.3-0.2,0.6-0.3,0.8
			c-0.1,0.3-0.2,0.4-0.2,0.5c0.4-0.4,0.8-0.8,1.4-1.2s1.1-0.8,1.6-1.2s1.2-0.7,1.8-0.9c0.6-0.2,1.2-0.4,1.8-0.4
			c0.3,0,0.6,0.1,0.9,0.4c0.3,0.3,0.5,0.6,0.5,0.9c0,0.2,0.1,0.4,0.1,0.5c0,0.4-0.1,0.9-0.2,1.4c-0.1,0.6-0.3,1-0.4,1.4
			c-0.2,0.7-0.6,1.5-1,2.6c-0.4,1.1-0.9,2.2-1.3,3.4c-0.4,1.1-0.8,2.2-1.1,3.3c-0.3,1.1-0.5,1.9-0.5,2.5c0,0.3,0,0.5,0.1,0.6
			c0,0.2,0.2,0.3,0.5,0.3c0.4,0,0.9-0.1,1.5-0.4c0.6-0.3,1.1-0.5,1.6-0.8c0.5-0.3,1-0.6,1.4-0.8c0.4-0.3,0.6-0.4,0.7-0.4
			c0.1,0,0.3,0.1,0.4,0.2S426.8,323.2,426.8,323.3z"/>
		<path fill="#F76A8C" d="M441.2,309.1c0,0.3-0.1,0.5-0.4,0.5c-0.1,0-0.2,0.1-0.3,0.1c-0.1,0-0.2,0-0.3,0c-0.3,0-0.5,0.1-0.8,0.1
			c-0.3,0-0.5,0.1-0.8,0.1c-1.2,0.3-2.4,0.7-3.6,1.2c-1.2,0.6-2.2,1.3-3.1,2.2c-0.3,0.3-0.5,0.6-0.6,0.9c-0.1,0.3-0.2,0.7-0.2,1
			c0,0.3,0.1,0.4,0.4,0.6s0.6,0.3,1,0.4c0.4,0.1,0.8,0.3,1.3,0.4s0.9,0.4,1.3,0.7c0.4,0.3,0.7,0.7,1,1.2s0.4,1.1,0.4,1.8
			c0,0.8-0.2,1.7-0.5,2.4c-0.3,0.8-0.8,1.5-1.3,2.1c-0.6,0.6-1.2,1.1-2,1.4c-0.8,0.4-1.6,0.5-2.4,0.5c-0.8,0-1.5-0.2-2.1-0.5
			c-0.6-0.3-1.1-0.8-1.5-1.3c-0.4-0.6-0.7-1.2-0.9-1.9c-0.2-0.7-0.3-1.4-0.3-2.1c0-0.1,0-0.3,0-0.5c0-0.2,0-0.4,0.1-0.6
			s0.1-0.4,0.2-0.5c0.1-0.2,0.2-0.2,0.4-0.2c0.1,0,0.2,0,0.4,0.1c0.1,0.1,0.2,0.2,0.2,0.3c0,0.5,0.1,1.1,0.2,1.8
			c0.1,0.6,0.3,1.2,0.6,1.8s0.6,1,1.1,1.4c0.5,0.4,1,0.6,1.7,0.6c0.6,0,1.2-0.1,1.7-0.4c0.5-0.3,1-0.6,1.5-1c0.4-0.4,0.8-0.9,1-1.5
			s0.4-1.1,0.4-1.7V320c0-0.4-0.1-0.7-0.4-1c-0.3-0.3-0.6-0.5-1-0.6c-0.4-0.2-0.8-0.3-1.3-0.5c-0.5-0.2-0.9-0.3-1.3-0.6
			c-0.4-0.2-0.7-0.5-1-0.8c-0.3-0.3-0.4-0.7-0.4-1.3c0-0.5,0.1-1.1,0.4-1.6s0.6-1,0.9-1.3c1.4-1.3,2.9-2.3,4.7-2.8
			c1.8-0.6,3.6-0.9,5.4-0.9c0.1,0,0.2,0.1,0.3,0.2C441.2,308.9,441.2,309,441.2,309.1z"/>
		<path fill="#F76A8C" d="M450,309.4c0,0.2-0.1,0.4-0.3,0.4c-0.4,0.2-0.8,0.4-1.2,0.5c-0.4,0.2-0.8,0.4-1.1,0.6
			c-1.5,0.9-2.9,2.1-4,3.6c-1.1,1.4-1.9,3-2.3,4.8c-0.2,0.9-0.3,1.8-0.3,2.7c0,0.3,0,0.7,0.1,1s0.1,0.8,0.3,1.1
			c0.1,0.4,0.3,0.7,0.5,1s0.5,0.5,0.8,0.7c0,0,0.1,0,0.1,0c0.1,0,0.1,0,0.1,0c0.6,0,1.1-0.2,1.6-0.5c0.5-0.3,0.9-0.7,1.3-1
			c0.6-0.6,1.2-1.3,1.8-2.1c0.1-0.2,0.2-0.3,0.3-0.5c0.1-0.2,0.2-0.3,0.3-0.4c0.1-0.1,0.2-0.2,0.3-0.2c0.1,0,0.3,0.1,0.4,0.2
			c0.1,0.1,0.2,0.2,0.2,0.4c0,0-0.1,0.2-0.2,0.3c-0.1,0.2-0.2,0.4-0.4,0.6s-0.3,0.4-0.4,0.6s-0.2,0.3-0.3,0.4c-0.3,0.5-0.7,1-1,1.4
			s-0.7,0.9-1.2,1.2c-0.4,0.3-0.9,0.6-1.4,0.8c-0.5,0.2-1.1,0.3-1.7,0.3c-0.1,0-0.2,0-0.3,0c-0.4-0.1-0.8-0.2-1.2-0.5
			c-0.3-0.3-0.6-0.6-0.9-1c-0.2-0.4-0.4-0.8-0.6-1.2c-0.1-0.4-0.2-0.8-0.3-1.2c0-0.3-0.1-0.5-0.1-0.8c0-0.3,0-0.6,0-0.9
			c0-1,0.1-1.9,0.3-2.8c0.2-1,0.6-2,1-3c0.4-1,1-1.9,1.6-2.8c0.6-0.8,1.4-1.6,2.2-2.3c0.8-0.7,1.7-1.2,2.8-1.6
			c0.3-0.1,0.7-0.3,1.2-0.4c0.4-0.1,0.8-0.2,1.2-0.2c0.1,0,0.2,0.1,0.3,0.2C449.9,309.2,450,309.3,450,309.4z"/>
		<path fill="#F76A8C" d="M462.9,311.3c0,0.6-0.1,1.1-0.4,1.7c-0.3,0.6-0.6,1.1-1,1.6c-0.4,0.5-0.9,1-1.4,1.4
			c-0.5,0.4-1,0.8-1.4,1.1c-0.7,0.5-1.4,0.9-2.1,1.3c-0.7,0.4-1.5,0.6-2.4,0.6c-0.2,0-0.4,0-0.6-0.1s-0.3-0.2-0.3-0.4
			c0-0.3,0.1-0.5,0.4-0.6c0.1,0,0.1,0,0.2,0c0.1,0,0.2,0,0.3,0c0.3,0,0.5-0.1,0.7-0.2c0.2-0.1,0.5-0.2,0.7-0.4
			c0.4-0.3,0.9-0.6,1.5-1.1c0.6-0.5,1.2-1,1.8-1.5c0.6-0.6,1.1-1.1,1.5-1.7s0.6-1.1,0.6-1.6c0-0.3-0.2-0.5-0.5-0.5
			c-0.1,0-0.3,0-0.4,0.1c-0.1,0-0.3,0.1-0.4,0.1c-1.1,0.4-2.1,0.9-3,1.7c-0.9,0.7-1.7,1.6-2.4,2.6c-0.7,1-1.2,2-1.6,3.2
			c-0.4,1.1-0.6,2.2-0.6,3.4c0,0.4,0,0.8,0.1,1.3c0.1,0.5,0.2,0.9,0.3,1.3c0.2,0.4,0.4,0.8,0.7,1s0.7,0.4,1.2,0.4
			c0.2,0,0.4,0,0.5-0.1c0.2-0.1,0.3-0.1,0.5-0.2c0.6-0.3,1.2-0.8,1.7-1.4c0.5-0.6,1-1.2,1.4-1.8c0.1-0.1,0.2-0.3,0.3-0.4
			c0.1-0.2,0.2-0.3,0.3-0.5c0.1-0.1,0.2-0.2,0.3-0.2c0.1,0,0.3,0,0.4,0.1s0.2,0.2,0.2,0.4c0,0,0,0.1-0.1,0.2c-0.3,0.5-0.6,1.1-1,1.7
			c-0.4,0.6-0.9,1.2-1.4,1.7c-0.5,0.5-1,1-1.6,1.3s-1.2,0.5-1.8,0.5c-0.7,0-1.3-0.2-1.8-0.6c-0.5-0.4-0.8-0.9-1.1-1.5
			c-0.3-0.6-0.5-1.2-0.6-1.9c-0.1-0.7-0.2-1.3-0.2-1.8c0-1.7,0.4-3.4,1.1-5s1.7-3,3-4.2c0.4-0.4,0.8-0.7,1.3-1.1
			c0.5-0.4,1-0.7,1.5-1c0.5-0.3,1.1-0.6,1.7-0.8c0.6-0.2,1.1-0.3,1.6-0.3c0.7,0,1.2,0.2,1.6,0.7C462.7,310,462.9,310.6,462.9,311.3z
			"/>
		<path fill="#F76A8C" d="M479,323.3c0,0.1-0.1,0.2-0.2,0.3c-0.3,0.2-0.6,0.4-0.9,0.7c-0.3,0.3-0.7,0.5-1.1,0.7
			c-0.4,0.2-0.8,0.5-1.2,0.7c-0.4,0.2-0.7,0.4-1,0.5c-0.5,0.2-1,0.3-1.5,0.3c-0.7,0-1.2-0.2-1.5-0.7c-0.3-0.5-0.5-1-0.5-1.6
			c0-0.7,0.1-1.5,0.3-2.4s0.5-1.8,0.8-2.8c0.3-0.9,0.7-1.9,1-2.8c0.4-0.9,0.7-1.7,0.9-2.4c0.3-0.7,0.5-1.3,0.7-2
			c0.2-0.7,0.3-1.4,0.4-2.1c-0.4,0-1,0.3-1.7,0.7c-0.7,0.4-1.4,0.9-2.2,1.4c-0.8,0.5-1.5,1.1-2.2,1.6c-0.7,0.5-1.2,0.9-1.6,1.2
			l-1.2,2.5c-0.6,1.1-1.1,2.1-1.6,3.2c-0.5,1.1-1,2.1-1.4,3.2c-0.2,0.5-0.4,1.1-0.6,1.6c-0.2,0.5-0.4,1.1-0.6,1.6
			c-0.1,0.2-0.2,0.3-0.4,0.3c-0.1,0-0.2-0.1-0.4-0.2c-0.1-0.1-0.2-0.2-0.2-0.3c0,0,0-0.1,0.1-0.2c0-0.1,0.1-0.3,0.1-0.4
			c0-0.2,0.1-0.3,0.1-0.4s0.1-0.2,0.1-0.3c0.4-1.5,0.9-3,1.4-4.5s1.2-2.9,1.9-4.3c0.3-0.7,0.6-1.3,0.9-2c0.3-0.7,0.6-1.3,0.9-2
			c0.1-0.3,0.3-0.6,0.5-0.9c0.2-0.4,0.4-0.7,0.6-1.1s0.4-0.7,0.7-1.1s0.4-0.6,0.7-0.8c0.1-0.1,0.2-0.1,0.3-0.1
			c0.1,0,0.2,0.1,0.4,0.2c0.2,0.1,0.2,0.2,0.2,0.4c0,0.1,0,0.2-0.1,0.5c-0.1,0.3-0.2,0.5-0.3,0.8c-0.1,0.3-0.2,0.6-0.3,0.8
			c-0.1,0.3-0.2,0.4-0.2,0.5c0.4-0.4,0.8-0.8,1.4-1.2s1.1-0.8,1.6-1.2s1.2-0.7,1.8-0.9c0.6-0.2,1.2-0.4,1.8-0.4
			c0.3,0,0.6,0.1,0.9,0.4c0.3,0.3,0.5,0.6,0.5,0.9c0,0.2,0.1,0.4,0.1,0.5c0,0.4-0.1,0.9-0.2,1.4c-0.1,0.6-0.3,1-0.4,1.4
			c-0.2,0.7-0.6,1.5-1,2.6c-0.4,1.1-0.9,2.2-1.3,3.4c-0.4,1.1-0.8,2.2-1.1,3.3c-0.3,1.1-0.5,1.9-0.5,2.5c0,0.3,0,0.5,0.1,0.6
			c0,0.2,0.2,0.3,0.5,0.3c0.4,0,0.9-0.1,1.5-0.4c0.6-0.3,1.1-0.5,1.6-0.8c0.5-0.3,1-0.6,1.4-0.8c0.4-0.3,0.6-0.4,0.7-0.4
			c0.1,0,0.3,0.1,0.4,0.2S479,323.2,479,323.3z"/>
		<path fill="#F76A8C" d="M496.3,298.9c0,0.1,0,0.1,0,0.2c-0.7,1.8-1.4,3.5-2.1,5.3c-0.7,1.8-1.3,3.5-1.9,5.4c0.2,0,0.3,0.1,0.6,0.2
			c0.2,0.1,0.3,0.2,0.3,0.4c0,0.2,0,0.3-0.1,0.4c-0.1,0.1-0.2,0.2-0.4,0.2c-0.1,0-0.2,0-0.3-0.1c-0.1,0-0.2-0.1-0.3-0.1
			c-0.3,1.1-0.7,2.2-1,3.4c-0.3,1.2-0.7,2.4-0.9,3.6c-0.3,1.2-0.5,2.4-0.7,3.6c-0.2,1.2-0.3,2.4-0.3,3.5c0,0.1,0,0.2,0,0.4
			c0,0.1,0,0.3,0,0.4c0,0.1,0.1,0.3,0.1,0.4c0.1,0.1,0.2,0.2,0.3,0.2c0.2,0,0.5-0.2,0.9-0.5c0.4-0.3,0.8-0.7,1.2-1.1
			c0.4-0.4,0.8-0.8,1.1-1.2c0.4-0.4,0.6-0.7,0.8-0.8c0.1-0.1,0.2-0.2,0.3-0.2c0.1,0,0.3,0.1,0.4,0.2c0.1,0.1,0.2,0.2,0.2,0.4
			c0,0.1,0,0.2-0.1,0.2c-0.5,0.7-1,1.4-1.5,2c-0.5,0.6-1.1,1.2-1.8,1.8c-0.5,0.4-1,0.6-1.5,0.6c-0.5,0-0.8-0.1-1.1-0.4
			c-0.3-0.3-0.4-0.6-0.6-0.9c-0.1-0.4-0.2-0.7-0.2-1.2c0-0.4-0.1-0.8-0.1-1.1c0-0.2,0-0.5,0-0.7c0-0.2,0-0.4,0.1-0.6
			c-0.3,0.4-0.7,0.9-1.1,1.5c-0.5,0.5-1,1-1.5,1.5c-0.5,0.5-1.1,0.9-1.7,1.2s-1.2,0.5-1.7,0.5c-0.6,0-1.1-0.1-1.5-0.4
			c-0.4-0.3-0.7-0.6-0.9-1s-0.3-0.9-0.4-1.4c-0.1-0.5-0.1-1-0.1-1.4c0-1,0.1-2,0.4-3c0.2-1,0.6-2,1-3c0.4-1,0.9-1.9,1.5-2.8
			c0.6-0.9,1.2-1.7,1.9-2.4c0.8-0.8,1.7-1.4,2.8-1.9c1.1-0.4,2.2-0.7,3.4-0.7c0.2,0,0.3,0,0.5,0c0.1,0,0.3,0,0.5,0
			c0.3-0.8,0.5-1.8,0.9-2.7c0.3-1,0.7-1.9,1.1-2.9c0.4-1,0.9-1.9,1.4-2.8s1-1.7,1.6-2.4c0.1-0.1,0.2-0.2,0.3-0.2
			c0.1,0,0.3,0.1,0.4,0.2C496.2,298.6,496.3,298.8,496.3,298.9z M490.1,310.5h-0.3c-1.4,0-2.5,0.3-3.6,0.9s-1.9,1.5-2.7,2.5
			c-0.8,1-1.4,2.1-1.9,3.4c-0.5,1.2-0.9,2.4-1.1,3.6c-0.1,0.6-0.2,1.2-0.2,1.8c0,0.2,0,0.4,0,0.7c0,0.3,0.1,0.6,0.1,0.9
			c0.1,0.3,0.2,0.5,0.3,0.8c0.1,0.2,0.4,0.3,0.6,0.3c0.4,0,0.9-0.2,1.5-0.7c0.6-0.4,1.2-1,1.9-1.6c0.6-0.6,1.2-1.2,1.8-1.8
			c0.6-0.6,1-1,1.3-1.3c0,0,0.1-0.1,0.1-0.1c0.1-1.6,0.4-3.2,0.8-4.8C489.3,313.6,489.7,312,490.1,310.5z"/>
		<path fill="#F76A8C" d="M509,309.1c0,0.3-0.1,0.5-0.4,0.5c-0.1,0-0.2,0.1-0.3,0.1c-0.1,0-0.2,0-0.3,0c-0.3,0-0.5,0.1-0.8,0.1
			c-0.3,0-0.5,0.1-0.8,0.1c-1.2,0.3-2.4,0.7-3.6,1.2c-1.2,0.6-2.2,1.3-3.1,2.2c-0.3,0.3-0.5,0.6-0.6,0.9c-0.1,0.3-0.2,0.7-0.2,1
			c0,0.3,0.1,0.4,0.4,0.6s0.6,0.3,1,0.4c0.4,0.1,0.8,0.3,1.3,0.4s0.9,0.4,1.3,0.7c0.4,0.3,0.7,0.7,1,1.2s0.4,1.1,0.4,1.8
			c0,0.8-0.2,1.7-0.5,2.4c-0.3,0.8-0.8,1.5-1.3,2.1c-0.6,0.6-1.2,1.1-2,1.4c-0.8,0.4-1.6,0.5-2.4,0.5c-0.8,0-1.5-0.2-2.1-0.5
			c-0.6-0.3-1.1-0.8-1.5-1.3c-0.4-0.6-0.7-1.2-0.9-1.9c-0.2-0.7-0.3-1.4-0.3-2.1c0-0.1,0-0.3,0-0.5c0-0.2,0-0.4,0.1-0.6
			s0.1-0.4,0.2-0.5c0.1-0.2,0.2-0.2,0.4-0.2c0.1,0,0.2,0,0.4,0.1c0.1,0.1,0.2,0.2,0.2,0.3c0,0.5,0.1,1.1,0.2,1.8
			c0.1,0.6,0.3,1.2,0.6,1.8s0.6,1,1.1,1.4c0.5,0.4,1,0.6,1.7,0.6c0.6,0,1.2-0.1,1.7-0.4c0.5-0.3,1-0.6,1.5-1c0.4-0.4,0.8-0.9,1-1.5
			s0.4-1.1,0.4-1.7V320c0-0.4-0.1-0.7-0.4-1c-0.3-0.3-0.6-0.5-1-0.6c-0.4-0.2-0.8-0.3-1.3-0.5c-0.5-0.2-0.9-0.3-1.3-0.6
			c-0.4-0.2-0.7-0.5-1-0.8c-0.3-0.3-0.4-0.7-0.4-1.3c0-0.5,0.1-1.1,0.4-1.6s0.6-1,0.9-1.3c1.4-1.3,2.9-2.3,4.7-2.8
			c1.8-0.6,3.6-0.9,5.4-0.9c0.1,0,0.2,0.1,0.3,0.2C509,308.9,509,309,509,309.1z"/>
		<path fill="#F76A8C" d="M531.3,313.2c0,0.9-0.1,1.8-0.3,2.9s-0.5,2.1-0.9,3.1s-0.9,2-1.4,3c-0.6,1-1.2,1.8-1.9,2.6
			c-0.7,0.8-1.5,1.4-2.4,1.8c-0.9,0.4-1.8,0.7-2.8,0.7c-0.8,0-1.4-0.2-2-0.6c-0.5-0.4-1-0.9-1.4-1.5c-0.4-0.6-0.7-1.3-0.8-2
			c-0.2-0.7-0.3-1.4-0.3-2c0-0.8,0.1-1.5,0.3-2.2c0.6-2.1,1.7-4,3.1-5.6c1.4-1.7,3.2-2.9,5.2-3.7c0,0,0.1,0,0.2,0
			c0.2,0,0.3,0.1,0.4,0.2c0.1,0.1,0.1,0.2,0.1,0.4c0,0.2-0.1,0.3-0.3,0.4c-0.3,0.2-0.6,0.4-1,0.5c-0.3,0.2-0.6,0.4-1,0.6
			c-1.3,0.9-2.3,2.1-3.2,3.4c-0.9,1.4-1.6,2.8-2,4.3c-0.2,0.5-0.2,1-0.2,1.6c0,0.5,0.1,1,0.2,1.5c0.1,0.5,0.3,1.1,0.6,1.5
			c0.3,0.5,0.6,0.9,1,1.2c0.4,0.3,0.9,0.5,1.5,0.5c0.4,0,0.7-0.1,1-0.2c0.3-0.1,0.6-0.3,0.9-0.5c0.9-0.6,1.6-1.4,2.3-2.4
			c0.7-1,1.3-2,1.8-3.2c0.5-1.1,0.8-2.3,1.1-3.5c0.3-1.2,0.4-2.3,0.4-3.4V312c0-0.6-0.2-1.1-0.6-1.5c-0.4-0.4-0.8-0.7-1.3-1
			c-0.2-0.1-0.3-0.1-0.5-0.2c-0.1,0-0.3-0.1-0.4-0.2c-0.2-0.1-0.3-0.3-0.3-0.5c0-0.2,0-0.3,0.1-0.4c0.1-0.1,0.2-0.2,0.4-0.1h0
			c0.5,0,1,0.2,1.5,0.3c0.5,0.2,0.9,0.4,1.3,0.8c0.4,0.3,0.7,0.7,1,1.1c0.3,0.4,0.4,0.9,0.5,1.5c0,0.2,0.1,0.5,0.1,0.7
			S531.3,313,531.3,313.2z"/>
		<path fill="#F76A8C" d="M548.7,323.3c0,0.1-0.1,0.2-0.2,0.3c-0.3,0.2-0.6,0.4-0.9,0.7c-0.3,0.3-0.7,0.5-1.1,0.7
			c-0.4,0.2-0.8,0.5-1.2,0.7c-0.4,0.2-0.7,0.4-1,0.5c-0.5,0.2-1,0.3-1.5,0.3c-0.7,0-1.2-0.2-1.5-0.7c-0.3-0.5-0.5-1-0.5-1.6
			c0-0.7,0.1-1.5,0.3-2.4s0.5-1.8,0.8-2.8c0.3-0.9,0.7-1.9,1-2.8c0.4-0.9,0.7-1.7,0.9-2.4c0.3-0.7,0.5-1.3,0.7-2
			c0.2-0.7,0.3-1.4,0.4-2.1c-0.4,0-1,0.3-1.7,0.7c-0.7,0.4-1.4,0.9-2.2,1.4c-0.8,0.5-1.5,1.1-2.2,1.6c-0.7,0.5-1.2,0.9-1.6,1.2
			l-1.2,2.5c-0.6,1.1-1.1,2.1-1.6,3.2c-0.5,1.1-1,2.1-1.4,3.2c-0.2,0.5-0.4,1.1-0.6,1.6c-0.2,0.5-0.4,1.1-0.6,1.6
			c-0.1,0.2-0.2,0.3-0.4,0.3c-0.1,0-0.2-0.1-0.4-0.2c-0.1-0.1-0.2-0.2-0.2-0.3c0,0,0-0.1,0.1-0.2c0-0.1,0.1-0.3,0.1-0.4
			c0-0.2,0.1-0.3,0.1-0.4s0.1-0.2,0.1-0.3c0.4-1.5,0.9-3,1.4-4.5s1.2-2.9,1.9-4.3c0.3-0.7,0.6-1.3,0.9-2c0.3-0.7,0.6-1.3,0.9-2
			c0.1-0.3,0.3-0.6,0.5-0.9c0.2-0.4,0.4-0.7,0.6-1.1s0.4-0.7,0.7-1.1s0.4-0.6,0.7-0.8c0.1-0.1,0.2-0.1,0.3-0.1
			c0.1,0,0.2,0.1,0.4,0.2c0.2,0.1,0.2,0.2,0.2,0.4c0,0.1,0,0.2-0.1,0.5c-0.1,0.3-0.2,0.5-0.3,0.8c-0.1,0.3-0.2,0.6-0.3,0.8
			c-0.1,0.3-0.2,0.4-0.2,0.5c0.4-0.4,0.8-0.8,1.4-1.2s1.1-0.8,1.6-1.2s1.2-0.7,1.8-0.9c0.6-0.2,1.2-0.4,1.8-0.4
			c0.3,0,0.6,0.1,0.9,0.4c0.3,0.3,0.5,0.6,0.5,0.9c0,0.2,0.1,0.4,0.1,0.5c0,0.4-0.1,0.9-0.2,1.4c-0.1,0.6-0.3,1-0.4,1.4
			c-0.2,0.7-0.6,1.5-1,2.6c-0.4,1.1-0.9,2.2-1.3,3.4c-0.4,1.1-0.8,2.2-1.1,3.3c-0.3,1.1-0.5,1.9-0.5,2.5c0,0.3,0,0.5,0.1,0.6
			c0,0.2,0.2,0.3,0.5,0.3c0.4,0,0.9-0.1,1.5-0.4c0.6-0.3,1.1-0.5,1.6-0.8c0.5-0.3,1-0.6,1.4-0.8c0.4-0.3,0.6-0.4,0.7-0.4
			c0.1,0,0.3,0.1,0.4,0.2S548.7,323.2,548.7,323.3z"/>
		<path fill="#F76A8C" d="M557.2,321.9c0,0.1,0,0.2-0.1,0.3c-0.4,0.5-0.9,1-1.3,1.6c-0.4,0.5-0.8,1-1.3,1.4
			c-0.4,0.4-0.9,0.8-1.5,1.1c-0.5,0.3-1.2,0.5-1.9,0.7c-0.6-0.3-1-0.6-1.3-1.1c-0.2-0.4-0.3-1-0.3-1.6V323c0-0.6,0.1-1.2,0.2-1.9
			s0.3-1.3,0.4-1.9c0.2-0.9,0.4-1.9,0.7-2.9c0.3-1,0.6-2.1,0.9-3.1c0.4-1,0.8-2,1.2-3c0.5-1,1-1.8,1.5-2.5c0.1-0.1,0.2-0.2,0.3-0.2
			c0.1,0,0.3,0.1,0.4,0.2c0.1,0.1,0.2,0.2,0.2,0.4v0.1c-0.4,1.2-0.8,2.5-1.3,3.8c-0.5,1.3-1,2.7-1.4,4.1s-0.8,2.8-1.1,4.1
			c-0.3,1.4-0.5,2.7-0.5,4c0,0.1,0,0.3,0,0.6c0,0.3,0.1,0.4,0.2,0.5c0.5-0.1,1-0.4,1.6-0.8c0.6-0.4,1.1-0.9,1.6-1.4
			c0.5-0.5,0.9-0.9,1.3-1.3s0.6-0.6,0.8-0.6c0.1,0,0.2,0.1,0.4,0.2C557.1,321.7,557.2,321.8,557.2,321.9z M557.4,300
			c0,0.1-0.1,0.3-0.2,0.5l0,0.1c0,0.1,0.1,0.2,0.1,0.3c-0.2,0.1-0.3,0.2-0.3,0.4c-0.1,0.1-0.2,0.2-0.5,0.2c-0.2,0-0.4-0.1-0.6-0.3
			c-0.2-0.2-0.3-0.4-0.3-0.6c0-0.4,0-0.8,0.1-1c0.1-0.3,0.4-0.4,0.9-0.4c0.2,0,0.4,0.1,0.6,0.3S557.4,299.8,557.4,300z"/>
		<path fill="#F76A8C" d="M571.7,313.2c0,0.9-0.1,1.8-0.3,2.9s-0.5,2.1-0.9,3.1s-0.9,2-1.4,3c-0.6,1-1.2,1.8-1.9,2.6
			c-0.7,0.8-1.5,1.4-2.4,1.8c-0.9,0.4-1.8,0.7-2.8,0.7c-0.8,0-1.4-0.2-2-0.6c-0.5-0.4-1-0.9-1.4-1.5c-0.4-0.6-0.7-1.3-0.8-2
			c-0.2-0.7-0.3-1.4-0.3-2c0-0.8,0.1-1.5,0.3-2.2c0.6-2.1,1.7-4,3.1-5.6c1.4-1.7,3.2-2.9,5.2-3.7c0,0,0.1,0,0.2,0
			c0.2,0,0.3,0.1,0.4,0.2c0.1,0.1,0.1,0.2,0.1,0.4c0,0.2-0.1,0.3-0.3,0.4c-0.3,0.2-0.6,0.4-1,0.5c-0.3,0.2-0.6,0.4-1,0.6
			c-1.3,0.9-2.3,2.1-3.2,3.4c-0.9,1.4-1.6,2.8-2,4.3c-0.2,0.5-0.2,1-0.2,1.6c0,0.5,0.1,1,0.2,1.5c0.1,0.5,0.3,1.1,0.6,1.5
			c0.3,0.5,0.6,0.9,1,1.2c0.4,0.3,0.9,0.5,1.5,0.5c0.4,0,0.7-0.1,1-0.2c0.3-0.1,0.6-0.3,0.9-0.5c0.9-0.6,1.6-1.4,2.3-2.4
			c0.7-1,1.3-2,1.8-3.2c0.5-1.1,0.8-2.3,1.1-3.5c0.3-1.2,0.4-2.3,0.4-3.4V312c0-0.6-0.2-1.1-0.6-1.5c-0.4-0.4-0.8-0.7-1.3-1
			c-0.2-0.1-0.3-0.1-0.5-0.2c-0.1,0-0.3-0.1-0.4-0.2c-0.2-0.1-0.3-0.3-0.3-0.5c0-0.2,0-0.3,0.1-0.4c0.1-0.1,0.2-0.2,0.4-0.1h0
			c0.5,0,1,0.2,1.5,0.3c0.5,0.2,0.9,0.4,1.3,0.8c0.4,0.3,0.7,0.7,1,1.1c0.3,0.4,0.4,0.9,0.5,1.5c0,0.2,0.1,0.5,0.1,0.7
			S571.7,313,571.7,313.2z"/>
		<path fill="#F76A8C" d="M589,323.3c0,0.1-0.1,0.2-0.2,0.3c-0.3,0.2-0.6,0.4-0.9,0.7c-0.3,0.3-0.7,0.5-1.1,0.7
			c-0.4,0.2-0.8,0.5-1.2,0.7c-0.4,0.2-0.7,0.4-1,0.5c-0.5,0.2-1,0.3-1.5,0.3c-0.7,0-1.2-0.2-1.5-0.7c-0.3-0.5-0.5-1-0.5-1.6
			c0-0.7,0.1-1.5,0.3-2.4s0.5-1.8,0.8-2.8c0.3-0.9,0.7-1.9,1-2.8c0.4-0.9,0.7-1.7,0.9-2.4c0.3-0.7,0.5-1.3,0.7-2
			c0.2-0.7,0.3-1.4,0.4-2.1c-0.4,0-1,0.3-1.7,0.7c-0.7,0.4-1.4,0.9-2.2,1.4c-0.8,0.5-1.5,1.1-2.2,1.6c-0.7,0.5-1.2,0.9-1.6,1.2
			l-1.2,2.5c-0.6,1.1-1.1,2.1-1.6,3.2c-0.5,1.1-1,2.1-1.4,3.2c-0.2,0.5-0.4,1.1-0.6,1.6c-0.2,0.5-0.4,1.1-0.6,1.6
			c-0.1,0.2-0.2,0.3-0.4,0.3c-0.1,0-0.2-0.1-0.4-0.2c-0.1-0.1-0.2-0.2-0.2-0.3c0,0,0-0.1,0.1-0.2c0-0.1,0.1-0.3,0.1-0.4
			c0-0.2,0.1-0.3,0.1-0.4s0.1-0.2,0.1-0.3c0.4-1.5,0.9-3,1.4-4.5s1.2-2.9,1.9-4.3c0.3-0.7,0.6-1.3,0.9-2c0.3-0.7,0.6-1.3,0.9-2
			c0.1-0.3,0.3-0.6,0.5-0.9c0.2-0.4,0.4-0.7,0.6-1.1s0.4-0.7,0.7-1.1s0.4-0.6,0.7-0.8c0.1-0.1,0.2-0.1,0.3-0.1
			c0.1,0,0.2,0.1,0.4,0.2c0.2,0.1,0.2,0.2,0.2,0.4c0,0.1,0,0.2-0.1,0.5c-0.1,0.3-0.2,0.5-0.3,0.8c-0.1,0.3-0.2,0.6-0.3,0.8
			c-0.1,0.3-0.2,0.4-0.2,0.5c0.4-0.4,0.8-0.8,1.4-1.2s1.1-0.8,1.6-1.2s1.2-0.7,1.8-0.9c0.6-0.2,1.2-0.4,1.8-0.4
			c0.3,0,0.6,0.1,0.9,0.4c0.3,0.3,0.5,0.6,0.5,0.9c0,0.2,0.1,0.4,0.1,0.5c0,0.4-0.1,0.9-0.2,1.4c-0.1,0.6-0.3,1-0.4,1.4
			c-0.2,0.7-0.6,1.5-1,2.6c-0.4,1.1-0.9,2.2-1.3,3.4c-0.4,1.1-0.8,2.2-1.1,3.3c-0.3,1.1-0.5,1.9-0.5,2.5c0,0.3,0,0.5,0.1,0.6
			c0,0.2,0.2,0.3,0.5,0.3c0.4,0,0.9-0.1,1.5-0.4c0.6-0.3,1.1-0.5,1.6-0.8c0.5-0.3,1-0.6,1.4-0.8c0.4-0.3,0.6-0.4,0.7-0.4
			c0.1,0,0.3,0.1,0.4,0.2S589,323.2,589,323.3z"/>
		<path fill="#F76A8C" d="M603.4,309.1c0,0.3-0.1,0.5-0.4,0.5c-0.1,0-0.2,0.1-0.3,0.1c-0.1,0-0.2,0-0.3,0c-0.3,0-0.5,0.1-0.8,0.1
			c-0.3,0-0.5,0.1-0.8,0.1c-1.2,0.3-2.4,0.7-3.6,1.2c-1.2,0.6-2.2,1.3-3.1,2.2c-0.3,0.3-0.5,0.6-0.6,0.9c-0.1,0.3-0.2,0.7-0.2,1
			c0,0.3,0.1,0.4,0.4,0.6s0.6,0.3,1,0.4c0.4,0.1,0.8,0.3,1.3,0.4s0.9,0.4,1.3,0.7c0.4,0.3,0.7,0.7,1,1.2s0.4,1.1,0.4,1.8
			c0,0.8-0.2,1.7-0.5,2.4c-0.3,0.8-0.8,1.5-1.3,2.1c-0.6,0.6-1.2,1.1-2,1.4c-0.8,0.4-1.6,0.5-2.4,0.5c-0.8,0-1.5-0.2-2.1-0.5
			c-0.6-0.3-1.1-0.8-1.5-1.3c-0.4-0.6-0.7-1.2-0.9-1.9c-0.2-0.7-0.3-1.4-0.3-2.1c0-0.1,0-0.3,0-0.5c0-0.2,0-0.4,0.1-0.6
			s0.1-0.4,0.2-0.5c0.1-0.2,0.2-0.2,0.4-0.2c0.1,0,0.2,0,0.4,0.1c0.1,0.1,0.2,0.2,0.2,0.3c0,0.5,0.1,1.1,0.2,1.8
			c0.1,0.6,0.3,1.2,0.6,1.8s0.6,1,1.1,1.4c0.5,0.4,1,0.6,1.7,0.6c0.6,0,1.2-0.1,1.7-0.4c0.5-0.3,1-0.6,1.5-1c0.4-0.4,0.8-0.9,1-1.5
			s0.4-1.1,0.4-1.7V320c0-0.4-0.1-0.7-0.4-1c-0.3-0.3-0.6-0.5-1-0.6c-0.4-0.2-0.8-0.3-1.3-0.5c-0.5-0.2-0.9-0.3-1.3-0.6
			c-0.4-0.2-0.7-0.5-1-0.8c-0.3-0.3-0.4-0.7-0.4-1.3c0-0.5,0.1-1.1,0.4-1.6s0.6-1,0.9-1.3c1.4-1.3,2.9-2.3,4.7-2.8
			c1.8-0.6,3.6-0.9,5.4-0.9c0.1,0,0.2,0.1,0.3,0.2C603.4,308.9,603.4,309,603.4,309.1z"/>
	</g>
</g>
</svg>
