<?xml version="1.0" encoding="utf-8"?>
<!-- Generator: Adobe Illustrator 18.1.1, SVG Export Plug-In . SVG Version: 6.00 Build 0)  -->
<!DOCTYPE svg PUBLIC "-//W3C//DTD SVG 1.1//EN" "http://www.w3.org/Graphics/SVG/1.1/DTD/svg11.dtd">
<svg version="1.1" id="Layer_1" xmlns="http://www.w3.org/2000/svg" xmlns:xlink="http://www.w3.org/1999/xlink" x="0px" y="0px"
	 viewBox="0 0 960 640" enable-background="new 0 0 960 640" xml:space="preserve">
<g>
	<path fill="#9ED8C0" d="M487.2,122.7c7.6-9,20.4-14.6,31.4-10.4c10.5,4,16.1,15.4,18.6,26.4s2.8,22.5,7.2,32.8
		c1.9,4.5,4.7,8.9,4.6,13.8c0,3-1.2,6-1.8,8.9c-2.4,11.4,2.7,22.8,5,34.2c2.7,13.3,1.5,27.3-3.4,39.9c-0.7,1.9-1.6,3.9-1.4,6
		c0.1,2,1.2,3.8,2.3,5.5c7.1,11.1,16.3,21,26.8,28.9c14.2,10.6,31.2,18.1,42,32c10.2,13.1,13.5,30.3,14.9,46.9
		c3.7,42.4-2.7,85.7-18.6,125.2c-1.8,4.4-3.8,8.9-7.5,11.9c-4.8,3.9-11.5,4.3-17.7,4.4c-47.9,1.2-95.9-2.5-143.1-11
		c-2.1-0.4-4.3-0.8-5.9-2.2c-1.7-1.4-2.5-3.7-3-5.8c-3.2-13.1-0.7-28.8-10.3-38.2c-5.7-5.6-14.1-7.1-21.8-9.6
		c-19-6.1-34.9-19.1-50.8-31.1c-8.7-6.6-17.7-13.1-27.9-17.3c-13.9-5.7-30.2-7.1-41.3-17.1c-11.8-10.6-14.5-29.2-8.5-43.9
		c6-14.7,19.3-25.6,34.1-31.4s31-6.8,46.9-6.2c-16.6-15.7-26.8-38.1-27.6-61c-0.1-3.6-0.1-7.3-1.6-10.5c-1.1-2.4-3-4.3-4.7-6.2
		c-14-15.2-24.8-33.2-31.5-52.7c-2.4-7-4.3-14.3-3.2-21.6c1.1-7.3,5.8-14.4,12.9-16.4c18.5-5.1,33.8,25.6,51.8,19
		c4.2-1.6,7.5-5,10.8-8c26.3-23.4,65.6-21.3,100.8-22.3c3.7-0.1,7.5-0.3,10.7-1.9C481.1,131.2,483.9,126.6,487.2,122.7z"/>
	<g>
		<path fill="#7C7C7C" d="M630.3,396.2c-0.1-7.7-0.5-15.7-3.3-22.9c-2.8-7.1-7.8-13.2-13.1-18.7c-25.6-27-58.7-46.3-83.3-74.3
			c-2.2-2.6-4.5-5.5-4.5-8.9c0-2.9,1.6-5.4,3.1-7.9c9.5-16.4,12.5-36.5,8.1-54.9c-1.2-5.2-3.1-10.2-5.4-15c2.2-2.4,4.6-5.2,4.3-8.5
			c-0.3-3.3-5.1-5.7-6.9-3c0.3-16.9-2.6-33.9-8.6-49.7c-2.5-6.6-7.5-14.2-14.5-13.2c-4.5,0.6-7.7,4.6-10.2,8.4
			c-5.5,8-10.6,16.3-15.4,24.7c-12.8-3.7-26.4-5.2-39.8-6.3c-21.7-1.7-35.2,1.5-54.8,11.3c-11,5.5-24.3,16.4-31.5,27.3
			c-13.4-6-26-13.5-37.6-22.4c-1.5-1.2-3.2-2.4-5.1-2.5c-3.2-0.1-5.4,3-6.6,6c-3.8,10-1.1,21.6,4.5,30.7
			c5.6,9.1,13.8,16.3,21.9,23.3c-3.4,0.7-4.1,5.7-1.9,8.4c1.8,2.2,4.6,3.2,7.5,3.7c-2.2,20.2,2.7,41.2,13.8,58.2
			c12.6,19.4,33,33.5,55.6,38.5c3,0.7,6.1,1.2,8.5,3.2c2.3,1.9,3.5,4.8,4.5,7.6c2,5.4,3.9,10.8,5.6,16.3
			c-1.9,14.8-7.3,29.2-15.9,41.4c-1.8,2.6-4.3,5.3-7.4,5.2c-1.4-0.1-2.7-0.7-3.9-1.3c-14.7-7.5-27.8-18-38.5-30.6
			c5.9-2.9,11.3-7.2,13.9-13.2c2.6-6,1.6-13.8-3.5-17.9c-3.1-2.5-7.2-3.3-11.2-3.5c-2.5-0.1-5.1,0.1-7.2,1.4
			c-2.1,1.3-3.5,4.1-2.5,6.4c1.1,2.6,4.6,3.5,5.9,6.1c1.7,3.2-1.5,7.4-5.1,7.7c-3.6,0.3-7-2-9.3-4.8c-1.6-1.9-2.8-4.7-1.5-6.8
			c1.7-2.7,6.1-1.9,8.6-3.9c2.1-1.7,2.1-5.2,0.5-7.4c-1.6-2.2-4.3-3.4-7-3.9c-6.2-1.2-13,0.7-17.4,5.2c-4.4,4.5-6.1,11.6-3.8,17.5
			c-6.2-1.3-12.7-1.5-19-0.7c-4.5,0.6-9.8,2.8-10.1,7.3c-0.3,4.6,5.1,7.4,9.7,7.5c4.6,0.1,9.3-1.2,13.6,0.4
			c-6,0.8-11.8,3.2-16.5,6.9c-2.6,2-5,5.2-3.8,8.2c1.3,3.1,5.6,3.5,8.9,3.1c5.7-0.8,11.4-2.4,16.6-5c-3.3,2-6.4,4.5-8.9,7.4
			c-0.9,1-1.7,2.2-1.9,3.5c-0.4,3.8,4.8,5.8,8.5,4.7s6.6-4,10.4-4.9c7.7-1.8,14.3,5.2,19.4,11.1c16.3,19,36.7,35.3,60.5,43.2
			c4.5,1.5,9.4,2.6,13.8,1c2.2-0.8,4-2.3,5.9-3.7c5.3-4.1,10.5-8.2,15.8-12.3c3.9,23,6.8,46.3,9.8,69.4c0.5,4.2,1.2,8.5,3.7,11.8
			c3.3,4.2,9.1,5.6,14.4,6.7c38.8,7.6,78.6,10,118.1,7.3c9.4-0.6,19.8-2.2,25.5-9.6c2.9-3.8,4.1-8.6,5.1-13.3
			C627.3,468,630.9,432.1,630.3,396.2z"/>
		<path fill="#CEAABC" d="M524.9,192.4c1.7-0.3,2.1-2.5,2.1-4.2c-0.2-13.6-4.2-26.8-8.1-39.8c-2.3-7.7-4.7-15.5-8.7-22.4
			c-9.7,18.9-12.5,41.2-7.7,61.8c0.9-1.8,1.8-3.7,2.8-5.5c0.4,2.1,1.3,4.1,2.7,5.7c0-1.1,1.4-1.6,2.4-1.4c1,0.2,1.9,0.9,2.9,1.2
			c0.8,0.2,1.7,0.1,2.5,0.1C519.2,187.9,522.7,189.6,524.9,192.4z"/>
		<path fill="#CEAABC" d="M316.5,203.3c-6.9-8.2-11.1-18.6-11.7-29.3c7.7,19.5,24.7,34.5,44.2,42.6c-3.4,0.7-5.8,4.5-4.9,7.9
			c-1.4-0.2-2.7,1.1-2.6,2.5c-5.5-5.1-11.1-10.2-16.6-15.3C321.9,208.9,319,206.2,316.5,203.3z"/>
		<path fill="#666666" d="M511.1,315.9c0.7-0.2,1.6-0.6,1.6-1.4c0-0.3-0.2-0.6-0.4-0.9c-0.7-0.9-1.4-1.8-2-2.7
			c1.7-0.3,3.5-0.7,4.9-1.6s2.6-2.7,2.2-4.4c-0.1-0.4-0.2-0.8-0.2-1.2c0.1-0.7,0.9-1.1,1.5-1.4c5.6-3,7.7-11.2,4.1-16.5
			c-10.7,13.3-22.7,25.6-35.7,36.8c2.2,1.7,4.6,3.1,7.2,4c0.4-1.9,0.5-3.8,0.3-5.6c2.8,0.6,5.8,0.9,8.7,0.7c0.1-1.5,0.1-3,0.2-4.4
			C506.1,317,508.7,316.6,511.1,315.9z"/>
		<path fill="#666666" d="M445.5,390.4c1.2-0.9,2.4-1.7,3.6-2.6c-0.8,6.2,0,12.7,2.4,18.5c1.7-0.9,3.3-1.7,5-2.6
			c-3.2,9.2-3.2,19.6,0.1,28.8c1.9-1.8,3.8-3.7,5.7-5.5c2.2,26.7,12.7,52.6,29.8,73.2c1.5,1.8,3.2,3.7,5.3,4.8
			c1.7,0.9,3.6,1.2,5.5,1.5c20.2,3.1,40.9,3.1,61.1,0c5.8-0.9,11.6-2,17.4-1.1c-1.2-25.1-8.4-49.8-20.9-71.6c2.2,0.3,4.3,0.7,6.5,1
			c-1.8-9-7.6-17.2-15.5-21.8c2.5,0.1,5-0.2,7.4-1.1c0-5.6-4.4-10.1-8.5-13.7c-8.1-7.1-16.8-13.5-26-19.1c2.7-0.3,5.4-0.7,8.1-1
			c-11.3-15.2-27.8-26.5-46.1-31.5c0.4-0.5,0.7-1,1.1-1.4c-10.3-4.5-22.9-3.2-32,3.4c-9.1,6.5-14.4,18-13.5,29.2
			c1.4-1.1,2.8-2.1,4.2-3.2C444.8,379.7,444.6,385.1,445.5,390.4z"/>
	</g>
	<g>
		<path fill="#494949" d="M425.6,285.6c0.7-0.8,1-1.8,1.1-2.8c4,1.7,7.7,4.1,11,6.9c1.1,1,2.3,2.1,3.9,2.2c2,0.1,3.6-1.8,4.4-3.6
			c0.8-1.9,1.1-4,2.4-5.6s3.9-2.4,5.3-0.9c0.4-3.2,5-5.1,4.3-8.2c-0.5-2.3-3.4-3-5.7-3.1c-11-0.4-22.2,2.4-31.7,8
			c-0.9,0.5-1.9,1.4-1.6,2.4c0.1,0.5,0.5,0.8,0.9,1.1C421.6,283.4,423.5,284.6,425.6,285.6z"/>
		<g>
			<path fill="#494949" d="M439.3,315c-0.6,0-1.1-0.4-1.2-1c-1.2-5.9-0.1-12.3,2.8-17.6l0.7-1.2l16.9,14c0.5,0.4,0.6,1.2,0.2,1.7
				c-0.4,0.5-1.2,0.6-1.7,0.2l-14.7-12.1c-2.2,4.5-2.9,9.8-1.9,14.7c0.1,0.6-0.3,1.3-0.9,1.4C439.4,315,439.3,315,439.3,315z"/>
		</g>
		<g>
			<path fill="#494949" d="M481.8,204.7C481.8,204.7,481.8,204.7,481.8,204.7c-6.1-0.2-12.3-0.5-18.3-2.1c-4.8-1.3-11.4-4-15.8-9.9
				c-0.4-0.5-0.3-1.3,0.2-1.7c0.5-0.4,1.3-0.3,1.7,0.2c4,5.3,10.1,7.8,14.5,9c5.8,1.5,11.9,1.8,17.8,2c0.7,0,1.2,0.6,1.1,1.2
				C483,204.2,482.4,204.7,481.8,204.7z"/>
		</g>
		<g>
			<path fill="#494949" d="M365.3,231.2c-0.5,0-0.9-0.3-1.1-0.7c-0.2-0.6,0-1.3,0.6-1.5c10.7-4.4,19.3-13.5,23.1-24.4
				c0,0,0-0.1,0-0.1c-0.3-0.1-0.5-0.4-0.7-0.7c-0.2-0.6,0.2-1.3,0.8-1.5c0.6-0.2,1.2,0,1.7,0.4c0.6,0.7,0.7,1.9,0.4,2.7
				c-4,11.5-13.1,21.2-24.4,25.9C365.6,231.1,365.4,231.2,365.3,231.2z"/>
		</g>
		<g>
			<path fill="#52B27E" d="M411.8,244.2c-3.1-3.2-6.3-6.5-9.4-9.7c-3.5-3.6-7.2-7.3-11.9-8.8c-6.8-2.2-14.5,0.9-19.2,6.2
				s-6.6,12.7-6.7,19.8c-1.3,0.3-2.7,0.6-3.6,1.5s-1.1,2.7,0.1,3.4c0.7,0.5,1.7,0.3,2.6,0.3c2.6,0.1,4.6,2.1,6.6,3.7
				c6.2,5.3,14.7,8.3,22.7,6.9c8.1-1.4,15.4-7.5,17.1-15.5C410.5,249.4,410.5,246.6,411.8,244.2z"/>
			<ellipse fill="#4E8268" cx="394.4" cy="240.7" rx="8.4" ry="9.5"/>
			
				<ellipse transform="matrix(0.9464 -0.3231 0.3231 0.9464 -60.0152 136.055)" opacity="0.4" fill="#FFFFFF" cx="379.8" cy="248.8" rx="8.2" ry="3.6"/>
		</g>
	</g>
	<g>
		<path fill="#52B27E" d="M449,235.8c1.6-4.2,3.1-8.4,4.7-12.7c1.7-4.7,3.6-9.6,7.4-12.9c5.3-4.7,13.6-5,20.1-2
			c6.4,3.1,11.1,9,14.1,15.4c1.3-0.3,2.7-0.6,3.9-0.1c1.2,0.5,2.1,2.1,1.3,3.2c-0.5,0.7-1.4,0.9-2.2,1.3c-2.3,1.1-3.4,3.7-4.5,6.1
			c-3.6,7.3-10.1,13.5-18.1,15.4c-7.9,2-17.1-0.7-21.9-7.3C452.2,240,451,237.5,449,235.8z"/>
		<ellipse fill="#4E8268" cx="466.4" cy="225" rx="8.4" ry="9.5"/>
		
			<ellipse transform="matrix(0.9464 -0.3231 0.3231 0.9464 -46.0415 167.8815)" opacity="0.4" fill="#FFFFFF" cx="482.7" cy="222.6" rx="8.2" ry="3.6"/>
	</g>
	<g>
		<path fill="#D6EADF" d="M537.5,322.6c1.5,0,2.9,0.1,4.2,0.4c1.8,0.3,2.6,1.1,2.6,2.2c0,0.4-0.1,0.7-0.3,0.8
			c-0.2,0.2-0.6,0.5-1.3,0.8c-0.6,0.3-1,0.9-1.2,2c-0.2,1-0.3,3-0.3,5.9c0,4.9,0.1,8,0.4,9.1c0.1,0.4,0.2,0.7,0.4,0.9
			c0.2,0.2,0.5,0.4,1,0.6c0.9,0.4,1.3,0.9,1.3,1.7c0,1-0.8,1.7-2.4,2.1c-1.7,0.4-3.8,0.6-6.2,0.6c-4.2,0-6.3-0.8-6.3-2.4
			c0-0.6,0.4-1.1,1.2-1.6c0.6-0.4,1-0.9,1.1-1.6c0.2-1.5,0.4-4.6,0.4-9.4c0-3.3-0.2-5.4-0.5-6.3c-0.2-0.5-0.6-1-1.3-1.4
			c-0.5-0.3-0.9-0.6-1.1-0.9c-0.2-0.2-0.3-0.5-0.3-0.9c0-0.6,0.3-1,0.8-1.3c0.5-0.3,1.5-0.6,2.8-0.9
			C534.2,322.8,535.8,322.6,537.5,322.6z"/>
		<path fill="#D6EADF" d="M550.5,322.5c1.4,0,2.5,0.5,3.4,1.6c0.8,0.9,1.2,2.1,1.2,3.4c0,1.5-0.4,3.1-1.2,4.7
			c-0.8,1.6-1.9,3.1-3.3,4.4c-0.8,0.7-1.5,1.1-2.2,1.1c-0.5,0-0.9-0.1-1.2-0.4c-0.4-0.3-0.6-0.5-0.6-0.9c0-0.2,0.1-0.4,0.4-0.7
			c0.8-0.9,1.4-1.6,1.7-2.1s0.5-1.1,0.5-1.7c0-0.4-0.2-0.8-0.7-1.1c-0.8-0.6-1.4-1.3-1.7-1.9c-0.3-0.6-0.5-1.3-0.5-2.1
			c0-1.3,0.4-2.3,1.2-3.2C548.2,323,549.3,322.5,550.5,322.5z"/>
		<path fill="#D6EADF" d="M566.8,330.3c0.7,0,1.1,0.5,1.1,1.6c0,0,0,0.1,0,0.3c0,0.2,0,0.4,0,0.5c0,0.7,0.2,1,0.6,1
			c0.2,0,0.6-0.3,1-0.8c0.7-0.8,1.6-1.4,2.6-1.9c1.1-0.5,2.1-0.7,3.2-0.7c2.2,0,3.6,0.8,4.5,2.4c0.3,0.6,0.6,0.9,0.8,0.9
			c0.1,0,0.5-0.3,1-0.8c1.7-1.6,3.6-2.5,5.7-2.5c1.7,0,3,0.5,4.1,1.4c1.1,1,1.7,2.4,1.7,4.3c0,0.4,0,1.1,0,2.1c0,0.3,0,1.3,0,3
			c0,1.1,0,1.8,0,2.3c0,0.3,0,0.5,0,0.6c0,0.8,0.3,1.5,0.8,2.2c0.3,0.4,0.5,0.6,0.6,0.7c0.1,0.1,0.1,0.3,0.1,0.5
			c0,1.6-1.9,2.5-5.8,2.5c-1.7,0-3.1-0.2-4.1-0.6s-1.6-1-1.6-1.6c0-0.3,0-0.5,0.1-0.6c0.1-0.1,0.3-0.5,0.7-1.1
			c0.4-0.5,0.6-2.3,0.6-5.3c0-1.7-0.1-3-0.4-3.6c-0.3-0.8-0.9-1.2-1.7-1.2c-0.4,0-0.8,0.1-1.1,0.4c-0.3,0.3-0.5,0.6-0.6,1
			c-0.1,0.5-0.2,1.7-0.2,3.7c0,2.2,0.1,3.5,0.2,3.9s0.4,1.1,1,1.9c0.1,0.2,0.2,0.4,0.2,0.7c0,1.5-2,2.3-6,2.3c-2.4,0-4-0.2-4.9-0.5
			c-0.7-0.3-1-0.8-1-1.5c0-0.3,0-0.5,0.1-0.7c0.1-0.1,0.4-0.4,0.9-0.9c0.3-0.3,0.5-0.5,0.6-0.8c0.1-0.2,0.1-0.7,0.2-1.3
			c0.1-1.4,0.1-2.8,0.1-4.3c0-2.5-0.6-3.8-1.9-3.8c-1,0-1.5,0.5-1.7,1.6c-0.2,1-0.2,2.5-0.2,4.4c0,1.4,0,2.3,0.1,2.8
			c0.1,0.4,0.2,0.9,0.5,1.4c0.3,0.6,0.5,1,0.5,1.4c0,0.8-0.6,1.4-1.8,1.7c-1.3,0.3-2.7,0.5-4.2,0.5c-2,0-3.4-0.2-4.4-0.5
			s-1.4-0.8-1.4-1.5c0-0.3,0.1-0.5,0.2-0.7c0.1-0.2,0.4-0.5,0.8-0.9c0.6-0.5,0.9-1.3,1-2.2c0.1-1.6,0.2-3.3,0.2-5
			c0-1.2-0.1-2.1-0.2-2.6c-0.1-0.5-0.4-0.9-0.8-1.2c-0.4-0.3-0.6-0.5-0.7-0.7c-0.1-0.2-0.2-0.4-0.2-0.6c0-0.9,0.7-1.5,2-2
			C562.7,330.9,565.2,330.3,566.8,330.3z"/>
		<path fill="#D6EADF" d="M448.3,377.8c0.8,0,1.3,0.1,1.5,0.2c0.2,0.1,0.3,0.5,0.3,1c0,0.5,0.2,0.7,0.5,0.7c0.1,0,0.6-0.2,1.3-0.7
			c0.6-0.4,1.3-0.7,2.1-0.9c0.9-0.3,1.6-0.4,2.3-0.4c1.6,0,3.1,0.6,4.4,1.7c1,0.9,1.7,2,2.3,3.3c0.6,1.4,0.9,2.8,0.9,4.3
			c0,3.2-1.1,5.9-3.3,8c-1.7,1.6-3.6,2.5-5.8,2.5c-1.1,0-2.2-0.3-3.4-0.8c-0.2-0.1-0.4-0.2-0.6-0.2c-0.4,0-0.6,0.4-0.6,1.2
			c0,1,0.3,1.8,1,2.2c0.6,0.4,1,0.7,1.1,0.9c0.1,0.1,0.2,0.4,0.2,0.7c0,0.8-0.4,1.4-1.3,1.8c-0.9,0.4-2.1,0.6-3.7,0.6
			c-2.8,0-5.2-0.6-7.3-1.7c-1.1-0.6-1.6-1.3-1.6-2.1c0-0.4,0.1-0.7,0.2-0.9c0.2-0.2,0.5-0.4,0.9-0.6c0.7-0.3,1.1-0.9,1.2-1.7
			c0.1-0.8,0.3-3.1,0.3-7c-0.1-3.2-0.2-4.9-0.3-5.3c-0.1-0.1-0.1-0.2-0.2-0.3s-0.4-0.1-1-0.2c-0.4-0.1-0.7-0.3-1-0.6
			s-0.4-0.7-0.4-1.1c0-0.5,0.2-1,0.5-1.4c0.4-0.4,0.9-0.8,1.8-1.1C444,378.5,446.5,377.8,448.3,377.8z M450.2,385.1l-0.3,5.3
			c0,0.2,0,0.4,0,0.6c0,0.4,0.2,0.7,0.5,1c0.3,0.2,0.8,0.4,1.4,0.4c1.8,0,2.7-1.5,2.7-4.4c0-1.9-0.4-3.2-1.1-4
			c-0.5-0.5-1-0.7-1.7-0.7C450.8,383.3,450.3,383.9,450.2,385.1z"/>
		<path fill="#D6EADF" d="M475.8,378.8v10.5c0,2.2,0.7,3.4,2.2,3.4c0.4,0,0.7-0.1,1.1-0.3c0.4-0.2,0.6-0.5,0.8-0.8
			c0.3-0.6,0.4-2,0.4-4.1c0-2.1-0.1-3.6-0.2-4.3c-0.1-0.3-0.1-0.6-0.3-0.7s-0.4-0.3-0.7-0.5c-0.7-0.4-1.1-0.9-1.1-1.5
			c0-0.8,0.6-1.4,1.9-1.7c2.4-0.6,4.8-0.9,7.1-0.9c1.3,0,2,0.7,2,2.1c0,0.1,0,0.4,0,0.9c0,0.6,0,1.4-0.1,2.3v8.5
			c0,0.4,0.4,0.8,1.1,1.2c0.6,0.3,0.9,0.8,0.9,1.4c0,1.2-1.4,2.1-4.1,2.7c-1.6,0.4-3.2,0.6-4.7,0.6c-0.6,0-1-0.1-1.3-0.2
			c-0.2-0.1-0.4-0.4-0.4-0.8c-0.1-0.8-0.3-1.2-0.7-1.2c-0.2,0-0.3,0-0.4,0.1c-0.1,0.1-0.5,0.3-1.2,0.8c-1.3,0.9-2.7,1.3-4.2,1.3
			c-2.5,0-4.2-0.7-5.2-2.1c-0.9-1.2-1.3-3.2-1.3-6c0-1.1,0-2,0-2.7c0-0.4,0-0.7,0-0.9c0-1.1-0.1-1.9-0.3-2.4s-0.6-0.9-1.1-1.2
			c-0.5-0.3-0.8-0.5-1-0.6s-0.2-0.4-0.2-0.6c0-1,0.7-1.6,2.2-2c2.5-0.6,5-0.8,7.6-0.8C475.4,377.8,475.8,378.1,475.8,378.8z"/>
		<path fill="#D6EADF" d="M501,377.8c0.7,0,1.1,0.1,1.2,0.3c0.1,0.2,0.3,0.8,0.4,1.9c0.1,0.6,0.3,0.9,0.6,0.9c0.3,0,0.5-0.2,0.7-0.6
			c1-1.6,2.4-2.4,4-2.4c1.2,0,2.1,0.4,2.9,1.1c0.4,0.4,0.7,0.9,0.9,1.4c0.2,0.6,0.3,1.2,0.3,1.7c0,0.6-0.1,1.2-0.4,1.9
			c-0.3,0.6-0.7,1.2-1.1,1.6c-0.8,0.8-1.8,1.2-3,1.2c-0.7,0-1.2-0.1-1.7-0.3c-0.4-0.2-1-0.7-1.7-1.4c-0.3-0.3-0.5-0.4-0.8-0.4
			c-0.4,0-0.6,0.2-0.7,0.6c-0.1,0.4-0.2,1.3-0.2,2.6c0,1.9,0.1,3.3,0.2,4c0.1,0.4,0.2,0.7,0.4,0.8c0.2,0.1,0.5,0.3,1,0.5
			c1.2,0.3,1.7,1,1.7,1.8c0,0.5-0.2,1-0.6,1.4c-0.4,0.4-0.9,0.7-1.5,0.8c-1.2,0.3-3.1,0.4-5.4,0.4c-2.3,0-4-0.2-5.2-0.6
			c-1.1-0.4-1.6-1-1.6-1.9c0-0.7,0.4-1.3,1.2-1.8c0.4-0.2,0.6-0.5,0.8-0.7c0.1-0.2,0.2-0.5,0.3-0.8c0.2-1.2,0.3-3.3,0.3-6.5
			c0-0.6-0.1-1-0.2-1.2s-0.4-0.5-0.8-0.6c-0.9-0.4-1.4-0.9-1.4-1.6c0-0.6,0.3-1.2,0.9-1.6c0.6-0.4,1.7-0.9,3.2-1.3
			C498,378.1,499.6,377.8,501,377.8z"/>
		<path fill="#D6EADF" d="M522.4,377.8c0.7,0,1.1,0.1,1.2,0.3c0.1,0.2,0.3,0.8,0.4,1.9c0.1,0.6,0.3,0.9,0.6,0.9
			c0.3,0,0.5-0.2,0.7-0.6c1-1.6,2.4-2.4,4-2.4c1.2,0,2.1,0.4,2.9,1.1c0.4,0.4,0.7,0.9,0.9,1.4c0.2,0.6,0.3,1.2,0.3,1.7
			c0,0.6-0.1,1.2-0.4,1.9c-0.3,0.6-0.7,1.2-1.1,1.6c-0.8,0.8-1.8,1.2-3,1.2c-0.7,0-1.2-0.1-1.7-0.3c-0.4-0.2-1-0.7-1.7-1.4
			c-0.3-0.3-0.5-0.4-0.8-0.4c-0.4,0-0.6,0.2-0.7,0.6c-0.1,0.4-0.2,1.3-0.2,2.6c0,1.9,0.1,3.3,0.2,4c0.1,0.4,0.2,0.7,0.4,0.8
			c0.2,0.1,0.5,0.3,1,0.5c1.2,0.3,1.7,1,1.7,1.8c0,0.5-0.2,1-0.6,1.4c-0.4,0.4-0.9,0.7-1.5,0.8c-1.2,0.3-3.1,0.4-5.4,0.4
			c-2.3,0-4-0.2-5.2-0.6c-1.1-0.4-1.6-1-1.6-1.9c0-0.7,0.4-1.3,1.2-1.8c0.4-0.2,0.6-0.5,0.8-0.7c0.1-0.2,0.2-0.5,0.3-0.8
			c0.2-1.2,0.3-3.3,0.3-6.5c0-0.6-0.1-1-0.2-1.2s-0.4-0.5-0.8-0.6c-0.9-0.4-1.4-0.9-1.4-1.6c0-0.6,0.3-1.2,0.9-1.6
			c0.6-0.4,1.7-0.9,3.2-1.3C519.3,378.1,521,377.8,522.4,377.8z"/>
		<path fill="#D6EADF" d="M545.5,379v11.2c0,0.9,0.1,1.5,0.2,2s0.5,0.8,1,1.1c0.4,0.3,0.7,0.5,0.8,0.7c0.1,0.2,0.2,0.5,0.2,0.8
			c0,1.7-2.1,2.5-6.3,2.5c-2.3,0-4.1-0.2-5.4-0.5c-0.5-0.1-0.8-0.4-1.1-0.7c-0.3-0.3-0.4-0.7-0.4-1.1c0-0.3,0.1-0.6,0.2-0.8
			c0.1-0.2,0.5-0.5,1.1-0.9c0.4-0.3,0.7-0.8,0.9-1.4s0.3-1.7,0.3-3c0-0.4,0-1.2-0.1-2.4c-0.1-1.2-0.1-1.8-0.1-2
			c-0.1-0.5-0.4-0.9-1.1-1.2c-0.8-0.3-1.2-0.9-1.2-1.5c0-0.8,0.5-1.4,1.6-1.8c1.4-0.6,3-1,4.6-1.4s2.9-0.6,3.8-0.6
			C545.2,377.8,545.5,378.2,545.5,379z M541.7,370.5c1.1,0,2,0.2,2.7,0.6c0.7,0.4,1,1,1,1.7c0,1-0.5,1.8-1.5,2.4
			c-1.6,0.9-3.5,1.4-5.7,1.4c-0.9,0-1.7-0.2-2.2-0.5c-0.7-0.5-1.1-1.1-1.1-1.9c0-1.1,0.8-2,2.4-2.6
			C538.8,370.9,540.3,370.5,541.7,370.5z"/>
		<path fill="#D6EADF" d="M566.7,388.3h-9.1c-0.4,0-0.6,0.2-0.6,0.5c0,0.8,0.5,1.6,1.4,2.4c0.9,0.7,1.9,1.1,2.9,1.1
			c0.6,0,1.3-0.1,2.1-0.4c0.8-0.2,1.4-0.5,1.9-0.9c0.4-0.3,0.8-0.5,1-0.5c0.3,0,0.7,0.2,1,0.6c0.3,0.4,0.5,0.8,0.5,1.3
			c0,0.9-0.6,1.8-1.7,2.7c-2,1.5-4.4,2.3-7.1,2.3c-2.7,0-5-0.8-6.8-2.4c-0.9-0.8-1.6-1.7-2.2-2.8c-0.8-1.5-1.1-3-1.1-4.6
			c0-2.2,0.7-4.1,2-5.8c1.1-1.5,2.6-2.6,4.3-3.3c1.3-0.6,2.7-0.8,4.3-0.8c2.4,0,4.5,0.7,6.2,2.1c0.9,0.7,1.6,1.5,2.1,2.5
			c0.6,1.1,0.9,2.1,0.9,3.2c0,0.8-0.2,1.5-0.5,2.1C567.7,388,567.3,388.3,566.7,388.3z M558.2,384.6h2c0.8,0,1.2-0.4,1.2-1.1
			c0-0.7-0.2-1.3-0.6-1.7c-0.4-0.4-0.9-0.7-1.6-0.7c-0.7,0-1.3,0.3-1.7,0.9c-0.4,0.5-0.6,1.1-0.6,1.6c0,0.4,0.1,0.7,0.3,0.8
			C557.4,384.6,557.7,384.6,558.2,384.6z"/>
		<path fill="#D6EADF" d="M592.5,372.1v17.6c0,1,0,1.6,0.1,1.9c0.1,0.3,0.3,0.6,0.7,0.8c0.5,0.3,0.8,0.6,0.9,0.8
			c0.2,0.2,0.2,0.5,0.2,0.9c0,1-1,1.8-3.1,2.4c-1.9,0.5-3.7,0.7-5.6,0.7c-0.4,0-0.7-0.1-0.8-0.2c-0.1-0.1-0.2-0.4-0.2-0.9
			c-0.1-0.7-0.3-1-0.7-1c-0.2,0-0.6,0.2-1,0.6c-1.3,1.1-2.8,1.6-4.4,1.6c-2,0-3.8-0.7-5.4-2.2c-0.9-0.9-1.7-1.9-2.3-3.1
			c-0.8-1.5-1.2-3-1.2-4.6c0-1.8,0.5-3.6,1.5-5.3c0.9-1.6,2.2-2.8,3.8-3.6c1.3-0.7,2.7-1,4-1c1.5,0,2.8,0.3,4,1
			c0.2,0.1,0.3,0.2,0.5,0.2c0.4,0,0.6-0.6,0.6-1.7c0-0.5-0.1-0.8-0.3-1.1c-0.2-0.3-0.6-0.5-1.2-0.6c-0.8-0.3-1.2-0.7-1.2-1.4
			c0-0.9,0.9-1.7,2.8-2.2c3.3-0.9,5.5-1.4,6.6-1.4C591.9,370.5,592.5,371,592.5,372.1z M582,381.8c-0.8,0-1.5,0.4-2,1.3
			c-0.7,1.2-1,2.7-1,4.7c0,1.8,0.3,3.1,0.9,4c0.5,0.6,1.1,1,1.8,1c0.8,0,1.4-0.5,1.8-1.5c0.4-1,0.6-2.5,0.6-4.7c0-2-0.2-3.3-0.7-4
			C583.1,382.1,582.6,381.8,582,381.8z"/>
		<path fill="#D6EADF" d="M406.7,425.1c2.2,0,4.1,0.6,5.7,1.7c0.8,0.6,1.4,1.3,1.7,2.1s0.5,1.9,0.5,3.2l0,2.9c0,2,0.1,3.3,0.4,3.9
			c0.1,0.3,0.3,0.5,0.4,0.5c0.1,0.1,0.4,0.1,0.8,0.2c0.4,0.1,0.6,0.3,0.6,0.8c0,0.6-0.2,1.3-0.7,1.9c-0.5,0.7-1.1,1.2-1.9,1.7
			c-1,0.6-2,0.8-3,0.8c-1.4,0-2.4-0.5-3.2-1.4c-0.3-0.3-0.5-0.5-0.8-0.5c-0.3,0-0.6,0.2-1,0.5c-1.3,0.9-2.8,1.4-4.4,1.4
			c-1.7,0-3.1-0.4-4.1-1.1c-0.7-0.5-1.2-1.1-1.6-1.9s-0.6-1.6-0.6-2.4c0-1.3,0.5-2.5,1.6-3.6c1.7-1.6,4.2-2.4,7.6-2.5
			c0.7,0,1.2-0.1,1.4-0.2c0.2-0.1,0.3-0.5,0.3-1c0-1.4-0.1-2.4-0.4-3c-0.3-0.6-0.7-0.9-1.4-0.9c-0.4,0-0.7,0.1-1,0.3
			c-0.3,0.2-0.7,0.7-1.1,1.3c-1.1,1.6-2.3,2.5-3.6,2.5c-0.6,0-1.1-0.2-1.5-0.6c-0.4-0.4-0.6-0.9-0.6-1.5c0-0.6,0.2-1.2,0.7-1.9
			s1.2-1.2,2-1.6C401.7,425.8,404.2,425.1,406.7,425.1z M405.4,436.3c-0.6,0-1.1,0.2-1.5,0.7c-0.4,0.5-0.6,1-0.6,1.7
			c0,0.6,0.1,1.1,0.4,1.5c0.3,0.4,0.7,0.6,1.2,0.6c1,0,1.5-0.9,1.5-2.6c0-0.7-0.1-1.2-0.2-1.4C406.1,436.5,405.8,436.3,405.4,436.3z
			"/>
		<path fill="#D6EADF" d="M428.6,419.2l-0.3,7.5c0,0.2,0,0.3,0,0.4c0,0.3,0.1,0.4,0.3,0.4c0.1,0,0.3-0.2,0.8-0.5
			c1.5-1.2,3.2-1.9,5-1.9c1.8,0,3.4,0.7,4.8,2c1.7,1.6,2.6,3.8,2.6,6.4c0,3.7-1.4,6.7-4.2,9c-2,1.6-4.4,2.4-7.1,2.4
			c-1.3,0-2.5-0.2-3.6-0.5s-2.3-0.9-3.5-1.7c-0.2-0.1-0.3-0.2-0.5-0.2c-0.1,0-0.5,0.1-1.2,0.4c-0.3,0.1-0.7,0.2-1.2,0.2
			c-0.8,0-1.2-0.3-1.2-0.8c0-0.2,0-0.4,0.1-0.6c0.3-0.8,0.4-1.9,0.5-3.1c0.1-1.2,0.1-3.2,0.1-5.9v-5.3c0-1.3-0.1-2.2-0.2-2.5
			c-0.1-0.3-0.4-0.6-0.9-0.8c-0.7-0.3-1.1-0.6-1.4-0.8c-0.3-0.3-0.4-0.6-0.4-1.1c0-0.9,0.9-1.7,2.8-2.5c1-0.4,2.3-0.8,3.8-1.1
			c1.5-0.3,2.8-0.5,3.9-0.5C428.3,418,428.6,418.4,428.6,419.2z M430.3,431c-0.7,0-1.2,0.2-1.5,0.7c-0.2,0.4-0.4,1.1-0.4,2.2
			c0,3,0.1,5.1,0.3,6.1c0.2,1,0.7,1.5,1.6,1.5c0.9,0,1.7-0.4,2.1-1.2c0.5-0.8,0.7-2,0.7-3.5c0-2.2-0.4-3.9-1.2-4.9
			C431.5,431.3,430.9,431,430.3,431z"/>
		<path fill="#D6EADF" d="M455.1,425.1c2.4,0,4.4,0.6,6.2,1.8c1.3,0.9,2.3,2,3.1,3.4c0.8,1.5,1.2,3,1.2,4.6c0,2.8-1.3,5.2-3.8,7.1
			c-2.4,1.9-5.2,2.8-8.4,2.8c-3.1,0-5.6-0.9-7.5-2.6c-1.9-1.7-2.8-3.9-2.8-6.6c0-3,1.1-5.5,3.4-7.5
			C448.8,426.2,451.7,425.1,455.1,425.1z M453.5,429.6c-0.6,0-1,0.2-1.4,0.6c-0.3,0.4-0.5,1-0.5,1.7c0,0.8,0.1,1.8,0.4,3.2
			c0.3,1.3,0.6,2.5,1,3.5c0.4,1.1,1,1.6,2,1.6c1.1,0,1.7-0.7,1.7-2.2c0-1.1-0.1-2.3-0.4-3.7c-0.3-1.4-0.6-2.5-1.1-3.4
			C454.9,430.1,454.3,429.6,453.5,429.6z"/>
		<path fill="#D6EADF" d="M477.5,426.3v10.5c0,2.2,0.7,3.4,2.2,3.4c0.4,0,0.7-0.1,1.1-0.3c0.4-0.2,0.6-0.5,0.8-0.8
			c0.3-0.6,0.4-2,0.4-4.1c0-2.1-0.1-3.6-0.2-4.3c-0.1-0.3-0.1-0.6-0.3-0.7s-0.4-0.3-0.7-0.5c-0.7-0.4-1.1-0.9-1.1-1.5
			c0-0.8,0.6-1.4,1.9-1.7c2.4-0.6,4.8-0.9,7.1-0.9c1.3,0,2,0.7,2,2.1c0,0.1,0,0.4,0,0.9c0,0.6,0,1.4-0.1,2.3v8.5
			c0,0.4,0.4,0.8,1.1,1.2c0.6,0.3,0.9,0.8,0.9,1.4c0,1.2-1.4,2.1-4.1,2.7c-1.6,0.4-3.2,0.6-4.7,0.6c-0.6,0-1-0.1-1.3-0.2
			c-0.2-0.1-0.4-0.4-0.4-0.8c-0.1-0.8-0.3-1.2-0.7-1.2c-0.2,0-0.3,0-0.4,0.1c-0.1,0.1-0.5,0.3-1.2,0.8c-1.3,0.9-2.7,1.3-4.2,1.3
			c-2.5,0-4.2-0.7-5.2-2.1c-0.9-1.2-1.3-3.2-1.3-6c0-1.1,0-2,0-2.7c0-0.4,0-0.7,0-0.9c0-1.1-0.1-1.9-0.3-2.4s-0.6-0.9-1.1-1.2
			c-0.5-0.3-0.8-0.5-1-0.6s-0.2-0.4-0.2-0.6c0-1,0.7-1.6,2.2-2c2.5-0.6,5-0.8,7.6-0.8C477.2,425.3,477.5,425.6,477.5,426.3z"/>
		<path fill="#D6EADF" d="M505.2,430.2v6.5c0,0.8,0.2,1.4,0.6,1.9c0.4,0.5,0.9,0.7,1.5,0.7c0.5,0,1.2-0.2,2-0.7
			c0.2-0.1,0.4-0.2,0.6-0.2c0.3,0,0.6,0.2,0.9,0.6c0.3,0.4,0.4,0.8,0.4,1.2c0,0.8-0.4,1.6-1.3,2.3c-1.8,1.6-4,2.3-6.6,2.3
			c-2.1,0-3.7-0.6-5-1.7c-1.2-1.2-1.9-2.7-1.9-4.6v-8.9c0-0.3,0-0.5-0.1-0.6c-0.1-0.1-0.3-0.1-0.6-0.1h-2c-0.4,0-0.6-0.1-0.7-0.2
			c-0.1-0.1-0.2-0.4-0.2-0.9v-0.9c0-0.4,0.2-0.7,0.4-0.9l8.9-5.6c0.2-0.1,0.5-0.2,0.8-0.2h1.6c0.3,0,0.5,0.1,0.6,0.2
			c0.1,0.1,0.2,0.4,0.2,0.9v2.6c0,0.4,0.1,0.6,0.2,0.8s0.4,0.2,0.8,0.2h3.6c0.5,0,0.8,0.1,0.9,0.3c0.1,0.2,0.2,0.5,0.2,1.1v1.1
			c0,0.6-0.1,1-0.3,1.3c-0.2,0.2-0.5,0.4-1,0.4h-3.5c-0.4,0-0.6,0.1-0.7,0.2C505.3,429.6,505.2,429.9,505.2,430.2z"/>
		<path fill="#D6EADF" d="M540.4,434.7l-2.6,7c-0.6,1.7-1.3,3.2-1.9,4.3s-1.4,2-2.2,2.8c-1.7,1.6-3.7,2.4-6,2.4
			c-1.9,0-3.5-0.5-4.6-1.5c-0.9-0.8-1.4-1.8-1.4-3c0-1,0.3-1.8,1-2.5c0.6-0.7,1.4-1,2.3-1c0.9,0,1.7,0.3,2.2,0.9
			c0.3,0.3,0.5,0.5,0.5,0.8s0.2,0.7,0.4,1.4c0.1,0.6,0.5,0.9,1,0.9c0.4,0,0.7-0.2,1-0.5c0.3-0.3,0.4-0.8,0.4-1.3c0-0.6-0.3-1.6-1-3
			l-4.7-9.9c-0.5-1-0.9-1.7-1.1-1.9c-0.2-0.3-0.8-0.6-1.6-0.9c-0.3-0.1-0.5-0.3-0.7-0.6c-0.2-0.3-0.3-0.6-0.3-0.9
			c0-1.1,1.1-1.9,3.4-2.3c1.5-0.3,3.3-0.4,5.2-0.4c1.4,0,2.4,0.1,3.2,0.4c1.1,0.4,1.6,1,1.6,1.9c0,0.3-0.1,0.7-0.4,1.1
			c-0.3,0.4-0.4,0.8-0.4,1.1c0,0.3,0.1,0.6,0.2,1s0.4,0.9,0.9,1.7c0.5,0.9,0.9,1.4,1.3,1.4c0.4,0,0.8-0.4,1.2-1.2
			c0.4-0.8,0.6-1.6,0.6-2.3c0-0.6-0.2-1.1-0.5-1.4c-0.5-0.6-0.7-1.1-0.7-1.5c0-0.7,0.4-1.2,1.3-1.6c0.9-0.4,2-0.6,3.5-0.6
			c2.7,0,4.1,0.7,4.1,2c0,0.5-0.1,0.9-0.4,1.1c-0.3,0.3-0.8,0.6-1.5,0.8c-0.6,0.2-1.1,0.6-1.5,1.2
			C541.8,431.3,541.1,432.7,540.4,434.7z"/>
		<path fill="#D6EADF" d="M556.9,425.1c2.4,0,4.4,0.6,6.2,1.8c1.3,0.9,2.3,2,3.1,3.4c0.8,1.5,1.2,3,1.2,4.6c0,2.8-1.3,5.2-3.8,7.1
			c-2.4,1.9-5.2,2.8-8.4,2.8c-3.1,0-5.6-0.9-7.5-2.6c-1.9-1.7-2.8-3.9-2.8-6.6c0-3,1.1-5.5,3.4-7.5
			C550.6,426.2,553.5,425.1,556.9,425.1z M555.4,429.6c-0.6,0-1,0.2-1.4,0.6c-0.3,0.4-0.5,1-0.5,1.7c0,0.8,0.1,1.8,0.4,3.2
			c0.3,1.3,0.6,2.5,1,3.5c0.4,1.1,1,1.6,2,1.6c1.1,0,1.7-0.7,1.7-2.2c0-1.1-0.1-2.3-0.4-3.7c-0.3-1.4-0.6-2.5-1.1-3.4
			C556.7,430.1,556.1,429.6,555.4,429.6z"/>
		<path fill="#D6EADF" d="M579.4,426.3v10.5c0,2.2,0.7,3.4,2.2,3.4c0.4,0,0.7-0.1,1.1-0.3c0.4-0.2,0.6-0.5,0.8-0.8
			c0.3-0.6,0.4-2,0.4-4.1c0-2.1-0.1-3.6-0.2-4.3c-0.1-0.3-0.1-0.6-0.3-0.7s-0.4-0.3-0.7-0.5c-0.7-0.4-1.1-0.9-1.1-1.5
			c0-0.8,0.6-1.4,1.9-1.7c2.4-0.6,4.8-0.9,7.1-0.9c1.3,0,2,0.7,2,2.1c0,0.1,0,0.4,0,0.9c0,0.6,0,1.4-0.1,2.3v8.5
			c0,0.4,0.4,0.8,1.1,1.2c0.6,0.3,0.9,0.8,0.9,1.4c0,1.2-1.4,2.1-4.1,2.7c-1.6,0.4-3.2,0.6-4.7,0.6c-0.6,0-1-0.1-1.3-0.2
			c-0.2-0.1-0.4-0.4-0.4-0.8c-0.1-0.8-0.3-1.2-0.7-1.2c-0.2,0-0.3,0-0.4,0.1c-0.1,0.1-0.5,0.3-1.2,0.8c-1.3,0.9-2.7,1.3-4.2,1.3
			c-2.5,0-4.2-0.7-5.2-2.1c-0.9-1.2-1.3-3.2-1.3-6c0-1.1,0-2,0-2.7c0-0.4,0-0.7,0-0.9c0-1.1-0.1-1.9-0.3-2.4s-0.6-0.9-1.1-1.2
			c-0.5-0.3-0.8-0.5-1-0.6s-0.2-0.4-0.2-0.6c0-1,0.7-1.6,2.2-2c2.5-0.6,5-0.8,7.6-0.8C579,425.3,579.4,425.6,579.4,426.3z"/>
	</g>
</g>
</svg>
