<?xml version="1.0" encoding="utf-8"?>
<!-- Generator: Adobe Illustrator 18.1.1, SVG Export Plug-In . SVG Version: 6.00 Build 0)  -->
<!DOCTYPE svg PUBLIC "-//W3C//DTD SVG 1.1//EN" "http://www.w3.org/Graphics/SVG/1.1/DTD/svg11.dtd">
<svg version="1.1" id="Layer_1" xmlns="http://www.w3.org/2000/svg" xmlns:xlink="http://www.w3.org/1999/xlink" x="0px" y="0px"
	 viewBox="0 0 960 640" enable-background="new 0 0 960 640" xml:space="preserve">
<g>
	<g>
		<path fill="#A88A71" d="M334.9,456.4c-7.9-21.8-16.1-43.3-17.3-66.6c-1.5,2-3,3.9-4.5,5.9c9.4-2.2,18.9-4,28.2-6.2
			c4.5-1.1,9-2.2,13.6-3.3c2.3-0.5,4.5-1.1,6.8-1.6c1.3-0.3,2.6-0.6,3.9-0.9c1.6-0.3,0.8-1.2-2.3-2.7c0-1.3,0-2.6,0-3.8
			c-0.2,1.5-5,3.1-6.4,3.7c-2.9,1.4-5.9,2.5-8.9,3.6c-6,2-12.2,3.3-18.5,4.1c-6.2,0.8-11.6,3.4-13.5,9.9c-1.7,5.8-0.8,12.6,1.1,18.3
			c2.9,8.9,15.9,5.3,14-3.8c-0.9-4.1-1.8-8.3-2.7-12.4c-1.9-9.1-15.8-5.2-13.9,3.8c0.9,4.1,1.7,8.3,2.6,12.4c4.7-1.3,9.3-2.6,14-3.8
			c-0.8-2.6-1.5-5.2-1.3-8c0.1-3.3,0.1-1.8,3.1-2.2c6.2-0.8,12.3-2,18.3-3.9c8.8-2.8,26.6-8,26.4-19.7c-0.2-14.9-19.3-8.2-27.3-6.1
			c-13.5,3.5-26.9,7.4-40.4,11.1c-2.4,0.6-4.7,3.3-4.5,5.9c2.1,24.5,9.6,50.3,27.9,67.7C333.9,458.1,335.3,457.4,334.9,456.4
			L334.9,456.4z"/>
	</g>
	
		<ellipse transform="matrix(0.8569 -0.5155 0.5155 0.8569 -145.0342 347.3767)" fill="#A88A71" cx="553.1" cy="434.9" rx="83.3" ry="72"/>
	
		<ellipse transform="matrix(-0.8569 -0.5155 0.5155 -0.8569 510.0981 1018.3431)" fill="#A88A71" cx="396.4" cy="438.4" rx="83.3" ry="72"/>
	<g>
		<g>
			<path fill="#D3B585" d="M426.6,507.8c-30.6,0-61.2-12.6-82.8-34.3c-7.7-7.7-12.2-14.7-14.2-22c-0.1-0.5,0.2-1.1,0.7-1.2
				c0.5-0.1,1.1,0.2,1.2,0.7c1.9,6.9,6.3,13.7,13.7,21.1c22.6,22.7,55.2,35.3,87.3,33.5c0.5,0,1,0.4,1.1,0.9c0,0.6-0.4,1-0.9,1.1
				C430.6,507.7,428.6,507.8,426.6,507.8z"/>
		</g>
		<g>
			<path fill="#D3B585" d="M399.4,476.6c-0.1,0-0.3,0-0.4,0c-11.8-2-23.2-5.8-33.9-11.3c-0.5-0.3-0.7-0.9-0.4-1.3
				c0.3-0.5,0.9-0.7,1.3-0.4c10.5,5.4,21.7,9.1,33.3,11.1c0.1,0,0.2,0,0.3,0c0-0.3,0.1-0.6,0.4-0.8c0.4-0.3,1.1-0.3,1.4,0.2
				c0.4,0.5,0.4,1.1,0.1,1.6C401.1,476.3,400.2,476.6,399.4,476.6z"/>
		</g>
		<g>
			<path fill="#D3B585" d="M405.7,436.3c-0.1,0-0.2,0-0.3-0.1c-19.2-6.6-39-11.9-59-15.6c-0.5-0.1-0.9-0.6-0.8-1.2
				c0.1-0.5,0.6-0.9,1.2-0.8c20.1,3.7,40,9,59.3,15.6c0.5,0.2,0.8,0.7,0.6,1.3C406.5,436,406.2,436.3,405.7,436.3z"/>
		</g>
		<g>
			<path fill="#D3B585" d="M401.5,407.8c-0.1,0-0.3,0-0.4-0.1c-7.8-3.5-16.5-5.2-25-4.9c-0.6,0-1-0.4-1-1c0-0.6,0.4-1,1-1
				c8.8-0.2,17.8,1.5,25.9,5.1c0.5,0.2,0.7,0.8,0.5,1.3C402.3,407.6,401.9,407.8,401.5,407.8z"/>
		</g>
		<g>
			<path fill="#D3B585" d="M349.8,390.1c-0.4,0-0.7-0.2-0.9-0.5c-0.3-0.5-0.1-1.1,0.4-1.3c17.4-8.9,37.4-11.5,56.5-7.5
				c0.5,0.1,0.9,0.6,0.8,1.2c-0.1,0.5-0.6,0.9-1.2,0.8c-18.6-4-38.2-1.4-55.1,7.3C350.1,390.1,349.9,390.1,349.8,390.1z"/>
		</g>
	</g>
	<g>
		<g>
			<path fill="#D3B585" d="M525.4,502.8c30.6,0,61.2-12.6,82.8-34.3c7.7-7.7,12.2-14.7,14.2-22c0.1-0.5-0.2-1.1-0.7-1.2
				c-0.5-0.1-1.1,0.2-1.2,0.7c-1.9,6.9-6.3,13.7-13.7,21.1c-22.6,22.7-55.2,35.3-87.3,33.5c-0.5,0-1,0.4-1.1,0.9
				c0,0.6,0.4,1,0.9,1.1C521.4,502.7,523.4,502.8,525.4,502.8z"/>
		</g>
		<g>
			<path fill="#D3B585" d="M552.6,471.7c0.1,0,0.3,0,0.4,0c11.8-2,23.2-5.8,33.9-11.3c0.5-0.3,0.7-0.9,0.4-1.3
				c-0.3-0.5-0.9-0.7-1.3-0.4c-10.5,5.4-21.7,9.1-33.3,11.1c-0.1,0-0.2,0-0.3,0c0-0.3-0.1-0.6-0.4-0.8c-0.4-0.3-1.1-0.3-1.4,0.2
				c-0.4,0.5-0.4,1.1-0.1,1.6C550.9,471.3,551.8,471.7,552.6,471.7z"/>
		</g>
		<g>
			<path fill="#D3B585" d="M546.3,431.3c0.1,0,0.2,0,0.3-0.1c19.2-6.6,39-11.9,59-15.6c0.5-0.1,0.9-0.6,0.8-1.2
				c-0.1-0.5-0.6-0.9-1.2-0.8c-20.1,3.7-40,9-59.3,15.6c-0.5,0.2-0.8,0.7-0.6,1.3C545.5,431.1,545.9,431.3,546.3,431.3z"/>
		</g>
		<g>
			<path fill="#D3B585" d="M550.5,402.9c0.1,0,0.3,0,0.4-0.1c7.8-3.5,16.5-5.2,25-4.9c0.6,0,1-0.4,1-1c0-0.6-0.4-1-1-1
				c-8.8-0.2-17.8,1.5-25.9,5.1c-0.5,0.2-0.7,0.8-0.5,1.3C549.7,402.6,550.1,402.9,550.5,402.9z"/>
		</g>
		<g>
			<path fill="#D3B585" d="M602.2,385.1c0.4,0,0.7-0.2,0.9-0.5c0.3-0.5,0.1-1.1-0.4-1.3c-17.4-8.9-37.4-11.5-56.5-7.5
				c-0.5,0.1-0.9,0.6-0.8,1.2c0.1,0.5,0.6,0.9,1.2,0.8c18.6-4,38.2-1.4,55.1,7.3C601.9,385.1,602.1,385.1,602.2,385.1z"/>
		</g>
	</g>
	<path fill="#DCE2E2" d="M396.4,185.4v296.8c0,17.3,35.1,31.3,78.3,31.3c43.3,0,78.3-14,78.3-31.3V185.4H396.4z"/>
	<path fill="#C9D2D3" d="M553.1,149.1c-0.2-10.1-35.4-17.7-78.6-17c-41.5,0.6-75.3,8.7-77.9,18.2h-0.2v1c0,0.1,0,0.1,0,0.2
		c0,0.1,0,0.1,0,0.2v29.9h156.7v-31.2h-0.2C553,149.9,553.1,149.5,553.1,149.1z"/>
	<g>
		<path fill="#A88A71" d="M573.4,368.8c18,6.5,37.7,8.1,56.2,12.9c-1.4-3.5-2.8-7-4.3-10.5c-4.9,8-4.6,17.1-5.8,26.1
			c-1.4,9.7-4.1,19.3-7.8,28.4c4.7,0.6,9.5,1.3,14.2,1.9c-0.6-7.6-0.8-15.1-0.3-22.7c0.4-6.5,2.1-13.1,2-19.7
			c0-5.7-1.8-11.7-6.8-15.1c-5.4-3.7-12.2-3.2-18.1-0.9c-8.6,3.4-5.4,16.7,3.9,14.1c2.7-0.7,5.9-2.8,6.4,0.3
			c0.7,3.8-0.5,8.1-0.9,11.8c-1.3,10.7-1.5,21.4-0.7,32.1c0.7,8.4,11.1,9.4,14.2,1.9c3.5-8.6,6.1-17.5,7.6-26.7
			c1.2-7.8,0.3-17.5,4.5-24.4c2.3-3.8,0.2-9.4-4.3-10.5c-19.1-4.5-40.6-9-60-4.2C570.8,364.5,571.2,368,573.4,368.8L573.4,368.8z"/>
	</g>
	<path fill="#604A32" d="M400.1,220.2v258.7c0,15.1,33.5,27.3,74.8,27.3c41.3,0,74.8-12.2,74.8-27.3V220.2H400.1z"/>
	<path fill="#F2F0E9" d="M550.3,354.6V223.8c-0.4,6.2-34,11.3-75.3,11.3c-41.5,0-75.2-5.1-75.4-11.3v130.9c0,0,0,0,0,0.1
		c0,6.3,33.7,11.4,75.4,11.4c41.6,0,75.4-5.1,75.4-11.4C550.3,354.7,550.3,354.6,550.3,354.6z"/>
	<rect x="401.9" y="259.5" fill="none" width="146" height="87"/>
	<text transform="matrix(1 0 0 1 407.7486 283.1463)"><tspan x="0" y="0" fill="#6D6764" font-family="'ChelseaHandwriting'" font-size="45">you spice </tspan><tspan x="20.7" y="30" fill="#6D6764" font-family="'ChelseaHandwriting'" font-size="45">up my </tspan><tspan x="45.7" y="60" fill="#6D6764" font-family="'ChelseaHandwriting'" font-size="45">life</tspan></text>
	<ellipse fill="#604A32" cx="474.7" cy="220.2" rx="74.6" ry="10"/>
	<path fill="#604A32" d="M538.9,213.6c3.9,0.7,8.6,2.1,9.3,6c-11.4,1.4-23,1.8-34.5,2.2c-19.3,0.6-38.6,1.3-57.9,1.9
		c-18.4,0.6-37.2,1.2-54.7-4.7c5.4-8.2,19.5-3.1,27-9.4c0.7-0.6,1.6-1.4,2.5-1.2c0.6,0.1,1.1,0.7,1.6,1.1c1.7,1.3,4.2,1.2,6.4,1
		c14.1-1.3,28.2-2,42.4-2c3.3,0,7.1,0.4,8.8,3.2c9.4-4.6,20.4-2.9,30.7-1.2C526.6,211.5,532.8,212.5,538.9,213.6z"/>
</g>
</svg>
