<?xml version="1.0" encoding="utf-8"?>
<!-- Generator: Adobe Illustrator 18.1.1, SVG Export Plug-In . SVG Version: 6.00 Build 0)  -->
<!DOCTYPE svg PUBLIC "-//W3C//DTD SVG 1.1//EN" "http://www.w3.org/Graphics/SVG/1.1/DTD/svg11.dtd">
<svg version="1.1" id="Layer_1" xmlns="http://www.w3.org/2000/svg" xmlns:xlink="http://www.w3.org/1999/xlink" x="0px" y="0px"
	 viewBox="0 0 960 640" enable-background="new 0 0 960 640" xml:space="preserve">
<g>
	<path fill="#157C64" d="M710.8,245.2c0-73.1-59.3-132.4-132.4-132.4c-37.8,0-71.9,15.9-96,41.3c-24.1-25.4-58.2-41.3-96-41.3
		c-73.1,0-132.4,59.3-132.4,132.4c0,39.3,17.1,74.5,44.2,98.8l-0.2,0.2l184.1,184.1l184.1-184.1C693.6,320,710.8,284.6,710.8,245.2z
		"/>
	<path fill="#DFEFE7" d="M696.1,249.2c0-68.6-55.6-124.2-124.2-124.2c-35.5,0-67.5,14.9-90.2,38.8C459,139.9,427,125,391.5,125
		c-68.6,0-124.2,55.6-124.2,124.2c0,36.8,16,69.9,41.5,92.7l-0.2,0.2L481.4,515l172.8-172.8C679.9,319.5,696.1,286.2,696.1,249.2z"
		/>
	<g>
		<defs>
			<path id="SVGID_28_" d="M481.4,515l172.8-172.8c25.7-22.8,41.9-56,41.9-93c0-68.6-55.6-124.2-124.2-124.2
				c-35.5,0-67.5,14.9-90.2,38.8"/>
		</defs>
		<clipPath id="SVGID_1_">
			<use xlink:href="#SVGID_28_"  overflow="visible"/>
		</clipPath>
		<g clip-path="url(#SVGID_1_)">
			<polygon fill="none" points="709.7,316.9 708.2,316.9 708.2,318.5 			"/>
			<polygon fill="none" points="708.3,243 708.2,243 708.2,243.1 			"/>
			<polygon fill="none" points="709.6,280 708.2,280 708.2,281.4 			"/>
			<polygon fill="none" points="710.7,169.1 708.2,169.1 708.2,171.5 			"/>
			<polygon fill="none" points="709,132.1 708.2,132.1 708.2,133 			"/>
			<polygon fill="none" points="708.9,95.2 708.2,95.2 708.2,95.9 			"/>
			<polygon fill="none" points="708.2,501.7 708.2,501.7 708.2,501.7 			"/>
			<polygon fill="none" points="709.1,464.8 708.2,464.8 708.2,465.6 			"/>
			<polygon fill="none" points="709.3,427.8 708.2,427.8 708.2,428.9 			"/>
			<polygon fill="none" points="708.9,353.9 708.2,353.9 708.2,354.6 			"/>
			<polygon fill="none" points="709,390.9 708.2,390.9 708.2,391.7 			"/>
			<polygon fill="none" points="480.3,280 481.9,280 481.9,278.5 			"/>
			<polygon fill="none" points="478.4,427.8 481.9,427.8 481.9,424.4 			"/>
			<polygon fill="none" points="479.1,464.8 481.9,464.8 481.9,462.1 			"/>
			<polygon fill="none" points="480.5,501.7 481.9,501.7 481.9,500.3 			"/>
			<polygon fill="none" points="481.7,206.1 481.9,206.1 481.9,205.9 			"/>
			<polygon fill="none" points="480.6,538.7 481.9,538.7 481.9,537.4 			"/>
			<polygon fill="none" points="481.5,243 481.9,243 481.9,242.7 			"/>
			<polygon fill="none" points="481.5,390.9 481.9,390.9 481.9,390.5 			"/>
			<polygon fill="none" points="479.7,316.9 481.9,316.9 481.9,314.9 			"/>
			<polygon fill="none" points="479.9,353.9 481.9,353.9 481.9,352 			"/>
			<polygon fill="#ADC9C2" points="632.8,206.1 632.8,206 632.7,206.1 			"/>
			<polygon fill="#C0C94F" points="595,206.1 595,242.5 632.7,206.1 			"/>
			<polygon fill="#CFD18B" points="595,242.5 595,243 632.8,243 632.8,206.1 632.7,206.1 			"/>
			<polygon fill="#ADC9C2" points="594.3,206.1 595,206.1 595,205.4 			"/>
			<polygon fill="#40A087" points="595,169.1 595,205.4 632.5,169.1 			"/>
			<polygon fill="#40A087" points="632.8,464.7 670.5,428.2 670.5,427.8 632.8,427.8 			"/>
			<polygon fill="#397C99" points="595,205.4 595,206.1 632.7,206.1 632.8,206 632.8,169.1 632.5,169.1 			"/>
			<polygon fill="#C0C94F" points="595,169 595,133.2 557.9,169.1 594.9,169.1 			"/>
			<polygon fill="#157C64" points="631.1,280 596.1,280 595,281 595,314.9 			"/>
			<polygon fill="#ADC9C2" points="594.5,243 595,243 595,242.5 			"/>
			<polygon fill="#157C64" points="632.5,169.1 632.8,168.9 632.8,132.5 595,169 595,169.1 			"/>
			<polygon fill="#CFD18B" points="595,280 596.1,280 632.8,244.5 632.8,243 595,243 			"/>
			<polygon fill="#397C99" points="595,316.9 595,352.6 631.9,316.9 			"/>
			<polygon fill="#157C64" points="595,352.6 595,353.9 632.8,353.9 632.8,316.9 631.9,316.9 			"/>
			<polygon fill="#ADC9C2" points="592.9,316.9 595,316.9 595,314.9 			"/>
			<polygon fill="#ADC9C2" points="632.8,316.9 632.8,316.1 631.9,316.9 			"/>
			<polygon fill="#6E7A16" points="595,281 557.9,316.9 592.9,316.9 595,314.9 			"/>
			<polygon fill="#6E7A16" points="594.9,169.1 557.9,169.1 557.3,169.7 557.3,205.5 			"/>
			<polygon fill="#ADC9C2" points="634.3,243 632.8,243 632.8,244.5 			"/>
			<polygon fill="#CFD18B" points="632.8,278.4 669.3,243 634.3,243 632.8,244.5 			"/>
			<polygon fill="#C0C94F" points="595,314.9 595,316.9 631.9,316.9 632.8,316.1 632.8,280 631.1,280 			"/>
			<polygon fill="#ADC9C2" points="632.8,280 632.8,278.4 631.1,280 			"/>
			<polygon fill="#157C64" points="596.1,280 631.1,280 632.8,278.4 632.8,244.5 			"/>
			<polygon fill="#ADC9C2" points="595,169.1 595,169 594.9,169.1 			"/>
			<polygon fill="#397C99" points="557.3,169.7 519.7,206.1 556.7,206.1 557.3,205.5 			"/>
			<polygon fill="#C0C94F" points="595,390.9 557.3,427.4 557.3,427.8 595,427.8 			"/>
			<polygon fill="#397C99" points="595,427.8 557.3,427.8 557.3,464.4 595,427.9 			"/>
			<polygon fill="#6E7A16" points="595,353.9 593.7,353.9 557.3,389.1 557.3,390.9 595,390.9 			"/>
			<polygon fill="#C0C94F" points="557.3,353.9 557.3,389.1 593.7,353.9 			"/>
			<polygon fill="#C0C94F" points="632.8,464.8 670.5,464.8 670.5,428.2 632.8,464.7 			"/>
			<polygon fill="#CFD18B" points="595,352.6 595,316.9 592.9,316.9 557.3,351.4 557.3,353.9 593.7,353.9 			"/>
			<polygon fill="#ADC9C2" points="632.6,464.8 632.8,464.8 632.8,464.7 			"/>
			<polygon fill="#ADC9C2" points="594.3,464.8 595,464.8 595,464.1 			"/>
			<polygon fill="#CFD18B" points="632.8,427.8 632.5,427.8 595,464.1 595,464.8 632.6,464.8 632.8,464.7 			"/>
			<polygon fill="#157C64" points="595,427.9 557.3,464.4 557.3,464.8 594.3,464.8 595,464.1 			"/>
			<polygon fill="#40A087" points="595,390.9 557.3,390.9 557.3,427.4 595,390.9 			"/>
			<polygon fill="#397C99" points="557.3,206.1 557.3,241.9 594.3,206.1 			"/>
			<polygon fill="#6E7A16" points="595,242.5 595,206.1 594.3,206.1 557.3,241.9 557.3,243 594.5,243 			"/>
			<polygon fill="#ADC9C2" points="556.7,206.1 557.3,206.1 557.3,205.5 			"/>
			<polygon fill="#ADC9C2" points="554.7,353.9 557.3,353.9 557.3,351.4 			"/>
			<polygon fill="#CFD18B" points="557.3,243 557.3,279 594.5,243 			"/>
			<polygon fill="#CFD18B" points="595,205.4 595,169.1 594.9,169.1 557.3,205.5 557.3,206.1 594.3,206.1 			"/>
			<polygon fill="#157C64" points="557.3,317.5 519.7,353.9 554.7,353.9 557.3,351.4 			"/>
			<polygon fill="#6E7A16" points="592.9,316.9 557.9,316.9 557.3,317.5 557.3,351.4 			"/>
			<polygon fill="#ADC9C2" points="557.3,316.9 557.3,317.5 557.9,316.9 			"/>
			<polygon fill="#397C99" points="595,281 595,280 557.3,280 557.3,316.9 557.9,316.9 			"/>
			<polygon fill="#40A087" points="595,243 594.5,243 557.3,279 557.3,280 595,280 			"/>
			<polygon fill="#ADC9C2" points="632.8,169.1 632.8,168.9 632.5,169.1 			"/>
			<polygon fill="#ADC9C2" points="670.7,132.1 670.5,132.1 670.5,132.4 			"/>
			<polygon fill="#C0C94F" points="632.8,96.7 596.1,132.1 632.8,132.1 			"/>
			<polygon fill="#6E7A16" points="670.5,96 633.1,132.1 670.5,132.1 			"/>
			<polygon fill="#ADC9C2" points="595,280 595,281 596.1,280 			"/>
			<polygon fill="#40A087" points="595,96.4 558.1,132.1 595,132.1 			"/>
			<polygon fill="#6E7A16" points="557.3,96.6 520.5,132.1 557.3,132.1 			"/>
			<polygon fill="#ADC9C2" points="670.9,169.1 670.5,169.1 670.5,169.5 			"/>
			<polygon fill="#ADC9C2" points="670.7,390.9 670.5,390.9 670.5,391.1 			"/>
			<polygon fill="#ADC9C2" points="670.8,427.8 670.5,427.8 670.5,428.2 			"/>
			<polygon fill="#ADC9C2" points="671.4,316.9 670.5,316.9 670.5,317.9 			"/>
			<polygon fill="#ADC9C2" points="671.5,353.9 670.5,353.9 670.5,354.9 			"/>
			<polygon fill="#ADC9C2" points="671.1,464.8 670.5,464.8 670.5,465.4 			"/>
			<polygon fill="#ADC9C2" points="517.3,427.8 519.6,427.8 519.6,425.6 			"/>
			<polygon fill="#ADC9C2" points="518.8,501.7 519.6,501.7 519.6,500.9 			"/>
			<polygon fill="#ADC9C2" points="518.7,464.8 519.6,464.8 519.6,463.8 			"/>
			<polygon fill="#CFD18B" points="557.3,537.7 594.5,501.7 557.3,501.7 			"/>
			<polygon fill="#397C99" points="519.6,537.1 556.1,501.7 519.6,501.7 			"/>
			<polygon fill="#40A087" points="482.5,132.1 519.6,132.1 519.6,96.2 			"/>
			<polygon fill="#ADC9C2" points="518.5,243 519.6,243 519.6,242 			"/>
			<polygon fill="#6E7A16" points="482.4,169.1 519.6,169.1 519.6,133.1 			"/>
			<polygon fill="#ADC9C2" points="517.9,280 519.6,280 519.6,278.4 			"/>
			<polygon fill="#ADC9C2" points="518.1,316.9 519.6,316.9 519.6,315.5 			"/>
			<polygon fill="#ADC9C2" points="516.5,390.9 519.6,390.9 519.6,387.9 			"/>
			<polygon fill="#ADC9C2" points="519.6,132.1 519.6,133.1 520.5,132.1 			"/>
			<polygon fill="#C0C94F" points="595,427.9 595,464.1 632.5,427.8 595.2,427.8 			"/>
			<polygon fill="#ADC9C2" points="595,427.8 595,427.9 595.2,427.8 			"/>
			<polygon fill="#ADC9C2" points="595,390.9 595,390.9 595,390.9 			"/>
			<polygon fill="#397C99" points="670.5,501.7 670.5,465.4 632.9,501.7 			"/>
			<polygon fill="#ADC9C2" points="632.8,427.8 632.8,427.6 632.5,427.8 			"/>
			<polygon fill="#ADC9C2" points="633.4,390.9 632.8,390.9 632.8,391.4 			"/>
			<polygon fill="#ADC9C2" points="593.7,353.9 595,353.9 595,352.6 			"/>
			<polygon fill="#157C64" points="595,390.9 595,390.9 632.8,354.4 632.8,353.9 595,353.9 			"/>
			<polygon fill="#6E7A16" points="632.5,427.8 632.8,427.6 632.8,391.4 595.2,427.8 			"/>
			<polygon fill="#397C99" points="632.8,390.9 632.8,354.4 595,390.9 			"/>
			<polygon fill="#397C99" points="595,390.9 595,427.8 595.2,427.8 632.8,391.4 632.8,390.9 595,390.9 			"/>
			<polygon fill="#ADC9C2" points="633.2,353.9 632.8,353.9 632.8,354.4 			"/>
			<polygon fill="#157C64" points="557.3,500.6 594.3,464.8 557.3,464.8 			"/>
			<polygon fill="#ADC9C2" points="557,464.8 557.3,464.8 557.3,464.4 			"/>
			<polygon fill="#CFD18B" points="632.8,501.7 632.9,501.7 670.5,465.4 670.5,464.8 632.8,464.8 			"/>
			<polygon fill="#CFD18B" points="595,501.2 632.6,464.8 595,464.8 			"/>
			<polygon fill="#ADC9C2" points="556.8,427.8 557.3,427.8 557.3,427.4 			"/>
			<polygon fill="#ADC9C2" points="556.3,280 557.3,280 557.3,279 			"/>
			<polygon fill="#157C64" points="519.9,169.1 557.3,169.1 557.3,132.9 			"/>
			<polygon fill="#ADC9C2" points="557.3,169.1 557.3,169.7 557.9,169.1 			"/>
			<polygon fill="#ADC9C2" points="555.5,390.9 557.3,390.9 557.3,389.1 			"/>
			<polygon fill="#ADC9C2" points="556.1,243 557.3,243 557.3,241.9 			"/>
			<polygon fill="#40A087" points="670.1,280 632.8,280 632.8,316.1 			"/>
			<polygon fill="#ADC9C2" points="670.5,501.7 670.5,502.1 670.9,501.7 			"/>
			<polygon fill="#397C99" points="519.6,132.1 520.5,132.1 557.3,96.6 557.3,95.2 520.7,95.2 519.6,96.2 			"/>
			<polygon fill="#397C99" points="557.3,132.1 558.1,132.1 595,96.4 595,95.2 558.7,95.2 557.3,96.6 			"/>
			<polygon fill="#CFD18B" points="519.6,169.4 481.9,205.9 481.9,206.1 519.6,206.1 			"/>
			<polygon fill="#ADC9C2" points="596.3,95.2 595,95.2 595,96.4 			"/>
			<polygon fill="#397C99" points="632.8,132.1 633.1,132.1 670.5,96 670.5,95.2 634.3,95.2 632.8,96.7 			"/>
			<polygon fill="#ADC9C2" points="634.3,95.2 632.8,95.2 632.8,96.7 			"/>
			<polygon fill="#6E7A16" points="595,132.1 596.1,132.1 632.8,96.7 632.8,95.2 596.3,95.2 595,96.4 			"/>
			<polygon fill="#ADC9C2" points="481.9,169.1 481.9,169.5 482.4,169.1 			"/>
			<polygon fill="#CFD18B" points="519.6,133.1 519.6,132.1 482.5,132.1 481.9,132.7 481.9,169.1 482.4,169.1 			"/>
			<polygon fill="#ADC9C2" points="520.7,95.2 519.6,95.2 519.6,96.2 			"/>
			<polygon fill="#40A087" points="519.6,169.1 482.4,169.1 481.9,169.5 481.9,205.9 519.6,169.4 			"/>
			<polygon fill="#ADC9C2" points="671.3,95.2 670.5,95.2 670.5,96 			"/>
			<polygon fill="#ADC9C2" points="481.9,132.1 481.9,132.7 482.5,132.1 			"/>
			<polygon fill="#C0C94F" points="519.6,96.2 519.6,95.2 481.9,95.2 481.9,132.1 482.5,132.1 			"/>
			<polygon fill="#ADC9C2" points="558.7,95.2 557.3,95.2 557.3,96.6 			"/>
			<polygon fill="#C0C94F" points="670.5,316.9 671.4,316.9 708.2,281.4 708.2,280 670.5,280 			"/>
			<polygon fill="#CFD18B" points="670.5,280 708.2,280 708.2,243.1 670.5,279.6 			"/>
			<polygon fill="#6E7A16" points="670.5,279.6 708.2,243.1 708.2,243 670.5,243 			"/>
			<polygon fill="#40A087" points="708.2,353.9 708.2,318.5 671.5,353.9 			"/>
			<polygon fill="#6E7A16" points="670.5,241.9 670.5,243 708.2,243 708.2,206.1 707.5,206.1 			"/>
			<polygon fill="#C0C94F" points="670.5,132.1 670.7,132.1 708.2,95.9 708.2,95.2 671.3,95.2 670.5,96 			"/>
			<polygon fill="#C0C94F" points="670.5,317.9 670.5,353.9 671.5,353.9 708.2,318.5 708.2,316.9 671.4,316.9 			"/>
			<polygon fill="#397C99" points="708.2,316.9 708.2,281.4 671.4,316.9 			"/>
			<polygon fill="#CFD18B" points="670.5,132.4 670.5,169.1 670.9,169.1 708.2,133 708.2,132.1 670.7,132.1 			"/>
			<polygon fill="#397C99" points="708.2,169.1 708.2,133 670.9,169.1 			"/>
			<polygon fill="#40A087" points="708.2,132.1 708.2,95.9 670.7,132.1 			"/>
			<polygon fill="#C0C94F" points="670.5,169.5 670.5,206.1 672.5,206.1 708.2,171.5 708.2,169.1 670.9,169.1 			"/>
			<polygon fill="#CFD18B" points="707.5,206.1 708.2,205.4 708.2,171.5 672.5,206.1 			"/>
			<polygon fill="#ADC9C2" points="708.2,206.1 708.2,205.4 707.5,206.1 			"/>
			<polygon fill="#157C64" points="632.8,501.9 595,538.4 595,538.7 632.7,538.7 632.8,538.6 			"/>
			<polygon fill="#157C64" points="481.9,464.8 481.9,500.3 518.7,464.8 			"/>
			<polygon fill="#157C64" points="557.3,501.7 556.1,501.7 519.6,537.1 519.6,538.7 556.3,538.7 557.3,537.7 			"/>
			<polygon fill="#ADC9C2" points="556.3,538.7 557.3,538.7 557.3,537.7 			"/>
			<polygon fill="#6E7A16" points="519.6,500.9 519.6,464.8 518.7,464.8 481.9,500.3 481.9,501.7 518.8,501.7 			"/>
			<polygon fill="#40A087" points="519.6,501.7 518.8,501.7 481.9,537.4 481.9,538.7 517.9,538.7 519.6,537.1 			"/>
			<polygon fill="#C0C94F" points="595,501.7 594.5,501.7 557.3,537.7 557.3,538.7 594.7,538.7 595,538.4 			"/>
			<polygon fill="#CFD18B" points="481.9,501.7 481.9,537.4 518.8,501.7 			"/>
			<polygon fill="#ADC9C2" points="517.9,538.7 519.6,538.7 519.6,537.1 			"/>
			<polygon fill="#ADC9C2" points="670,538.7 670.5,538.7 670.5,538.2 			"/>
			<polygon fill="#CFD18B" points="670.5,502.1 632.8,538.6 632.8,538.7 670,538.7 670.5,538.2 			"/>
			<polygon fill="#157C64" points="670.5,538.2 670.5,538.7 708.2,538.7 708.2,501.7 			"/>
			<polygon fill="#ADC9C2" points="594.7,538.7 595,538.7 595,538.4 			"/>
			<polygon fill="#6E7A16" points="670.5,354.9 670.5,390.9 670.7,390.9 708.2,354.6 708.2,353.9 671.5,353.9 			"/>
			<polygon fill="#ADC9C2" points="632.7,538.7 632.8,538.7 632.8,538.6 			"/>
			<polygon fill="#397C99" points="481.9,243 481.9,278.5 518.5,243 			"/>
			<polygon fill="#CFD18B" points="481.9,280 481.9,314.9 517.9,280 			"/>
			<polygon fill="#6E7A16" points="519.6,278.4 519.6,243 518.5,243 481.9,278.5 481.9,280 517.9,280 			"/>
			<polygon fill="#40A087" points="519.6,315.5 519.6,280 517.9,280 481.9,314.9 481.9,316.9 518.1,316.9 			"/>
			<polygon fill="#157C64" points="519.6,463.8 519.6,427.8 517.3,427.8 481.9,462.1 481.9,464.8 518.7,464.8 			"/>
			<polygon fill="#CFD18B" points="519.6,206.1 481.9,206.1 481.9,242.7 519.6,206.2 			"/>
			<polygon fill="#397C99" points="481.9,316.9 481.9,352 518.1,316.9 			"/>
			<polygon fill="#40A087" points="519.6,242 519.6,206.2 481.9,242.7 481.9,243 518.5,243 			"/>
			<polygon fill="#157C64" points="519.6,425.6 519.6,390.9 516.5,390.9 481.9,424.4 481.9,427.8 517.3,427.8 			"/>
			<polygon fill="#CFD18B" points="481.9,390.9 481.9,424.4 516.5,390.9 			"/>
			<polygon fill="#C0C94F" points="519.6,316.9 518.1,316.9 481.9,352 481.9,353.9 519.6,353.9 			"/>
			<polygon fill="#C0C94F" points="481.9,427.8 481.9,462.1 517.3,427.8 			"/>
			<polygon fill="#6E7A16" points="519.6,353.9 481.9,353.9 481.9,390.5 519.6,354 			"/>
			<polygon fill="#40A087" points="519.6,387.9 519.6,354 481.9,390.5 481.9,390.9 516.5,390.9 			"/>
			<polygon fill="#ADC9C2" points="670.5,243 670.5,241.9 669.3,243 			"/>
			<polygon fill="#CFD18B" points="557.3,169.1 557.9,169.1 595,133.2 595,132.1 558.1,132.1 557.3,132.9 			"/>
			<polygon fill="#ADC9C2" points="633.1,132.1 632.8,132.1 632.8,132.5 			"/>
			<polygon fill="#ADC9C2" points="596.1,132.1 595,132.1 595,133.2 			"/>
			<polygon fill="#CFD18B" points="595,169 632.8,132.5 632.8,132.1 596.1,132.1 595,133.2 			"/>
			<polygon fill="#6E7A16" points="632.8,206 670.5,169.5 670.5,169.1 632.8,169.1 			"/>
			<polygon fill="#157C64" points="632.8,168.9 670.5,132.4 670.5,132.1 633.1,132.1 632.8,132.5 			"/>
			<polygon fill="#CFD18B" points="632.8,169.1 670.5,169.1 670.5,132.4 632.8,168.9 			"/>
			<polygon fill="#C0C94F" points="557.3,132.9 557.3,132.1 520.5,132.1 519.6,133.1 519.6,169.1 519.9,169.1 			"/>
			<polygon fill="#ADC9C2" points="519.6,206.1 519.6,206.2 519.7,206.1 			"/>
			<polygon fill="#157C64" points="557.3,169.7 557.3,169.1 519.9,169.1 519.6,169.4 519.6,206.1 519.7,206.1 			"/>
			<polygon fill="#C0C94F" points="519.7,206.1 519.6,206.2 519.6,242 556.7,206.1 			"/>
			<polygon fill="#CFD18B" points="632.8,206.1 670.5,206.1 670.5,169.5 632.8,206 			"/>
			<polygon fill="#ADC9C2" points="519.6,169.1 519.6,169.4 519.9,169.1 			"/>
			<polygon fill="#ADC9C2" points="558.1,132.1 557.3,132.1 557.3,132.9 			"/>
			<polygon fill="#CFD18B" points="632.8,391.4 632.8,427.6 670.5,391.1 670.5,390.9 633.4,390.9 			"/>
			<polygon fill="#397C99" points="670.5,353.9 670.5,317.9 633.2,353.9 			"/>
			<polygon fill="#CFD18B" points="632.8,353.9 633.2,353.9 670.5,317.9 670.5,316.9 632.8,316.9 			"/>
			<polygon fill="#CFD18B" points="632.8,354.4 632.8,390.9 633.4,390.9 670.5,354.9 670.5,353.9 633.2,353.9 			"/>
			<polygon fill="#C0C94F" points="670.5,390.9 670.5,354.9 633.4,390.9 			"/>
			<polygon fill="#157C64" points="557.3,241.9 557.3,206.1 556.7,206.1 519.6,242 519.6,243 556.1,243 			"/>
			<polygon fill="#40A087" points="632.8,243 634.3,243 670.5,208 670.5,206.1 632.8,206.1 			"/>
			<polygon fill="#6E7A16" points="632.8,316.1 632.8,316.9 670.5,316.9 670.5,280 670.1,280 			"/>
			<polygon fill="#397C99" points="670.5,241.9 707.5,206.1 672.5,206.1 670.5,208 			"/>
			<polygon fill="#CFD18B" points="634.3,243 669.3,243 670.5,241.9 670.5,208 			"/>
			<polygon fill="#ADC9C2" points="672.5,206.1 670.5,206.1 670.5,208 			"/>
			<polygon fill="#ADC9C2" points="670.5,280 670.5,279.6 670.1,280 			"/>
			<polygon fill="#C0C94F" points="632.8,427.8 670.5,427.8 670.5,391.1 632.8,427.6 			"/>
			<polygon fill="#397C99" points="632.8,278.4 632.8,280 670.1,280 670.5,279.6 670.5,243 669.3,243 			"/>
			<polygon fill="#ADC9C2" points="519.6,353.9 519.6,354 519.7,353.9 			"/>
			<polygon fill="#397C99" points="595,501.7 595,538.4 632.8,501.9 632.8,501.7 			"/>
			<polygon fill="#6E7A16" points="670.5,502.1 670.5,538.2 708.2,501.7 708.2,501.7 670.9,501.7 			"/>
			<polygon fill="#C0C94F" points="632.9,501.7 632.8,501.9 632.8,538.6 670.5,502.1 670.5,501.7 			"/>
			<polygon fill="#157C64" points="519.6,243 519.6,278.4 556.1,243 			"/>
			<polygon fill="#40A087" points="595,464.8 594.3,464.8 557.3,500.6 557.3,501.7 594.5,501.7 595,501.2 			"/>
			<polygon fill="#6E7A16" points="632.8,464.8 632.6,464.8 595,501.2 595,501.7 632.8,501.7 			"/>
			<polygon fill="#ADC9C2" points="594.5,501.7 595,501.7 595,501.2 			"/>
			<polygon fill="#40A087" points="708.2,501.7 708.2,465.6 670.9,501.7 			"/>
			<polygon fill="#C0C94F" points="708.2,427.8 708.2,391.7 670.8,427.8 			"/>
			<polygon fill="#6E7A16" points="670.5,428.2 670.5,464.8 671.1,464.8 708.2,428.9 708.2,427.8 670.8,427.8 			"/>
			<polygon fill="#157C64" points="670.5,391.1 670.5,427.8 670.8,427.8 708.2,391.7 708.2,390.9 670.7,390.9 			"/>
			<polygon fill="#ADC9C2" points="556.1,501.7 557.3,501.7 557.3,500.6 			"/>
			<polygon fill="#157C64" points="708.2,464.8 708.2,428.9 671.1,464.8 			"/>
			<polygon fill="#157C64" points="670.5,465.4 670.5,501.7 670.9,501.7 708.2,465.6 708.2,464.8 671.1,464.8 			"/>
			<polygon fill="#ADC9C2" points="632.8,501.7 632.8,501.9 632.9,501.7 			"/>
			<polygon fill="#CFD18B" points="557.3,317.5 557.3,316.9 519.6,316.9 519.6,353.9 519.7,353.9 			"/>
			<polygon fill="#157C64" points="708.2,390.9 708.2,354.6 670.7,390.9 			"/>
			<polygon fill="#C0C94F" points="557.3,280 556.3,280 519.6,315.5 519.6,316.9 557.3,316.9 			"/>
			<polygon fill="#157C64" points="519.7,353.9 519.6,354 519.6,387.9 554.7,353.9 			"/>
			<polygon fill="#CFD18B" points="557.3,279 557.3,243 556.1,243 519.6,278.4 519.6,280 556.3,280 			"/>
			<polygon fill="#6E7A16" points="519.6,280 519.6,315.5 556.3,280 			"/>
			<polygon fill="#6E7A16" points="519.6,390.9 519.6,425.6 555.5,390.9 			"/>
			<polygon fill="#CFD18B" points="557.3,464.4 557.3,427.8 556.8,427.8 519.6,463.8 519.6,464.8 557,464.8 			"/>
			<polygon fill="#397C99" points="557.3,389.1 557.3,353.9 554.7,353.9 519.6,387.9 519.6,390.9 555.5,390.9 			"/>
			<polygon fill="#397C99" points="519.6,427.8 519.6,463.8 556.8,427.8 			"/>
			<polygon fill="#40A087" points="519.6,464.8 519.6,500.9 557,464.8 			"/>
			<polygon fill="#CFD18B" points="557.3,427.4 557.3,390.9 555.5,390.9 519.6,425.6 519.6,427.8 556.8,427.8 			"/>
			<polygon fill="#397C99" points="557.3,464.8 557,464.8 519.6,500.9 519.6,501.7 556.1,501.7 557.3,500.6 			"/>
		</g>
	</g>
	<g>
		<path fill="#157C64" d="M314,226.6c0-1.5,0.2-3.3,0.7-5.4c0.4-2.1,0.8-3.3,1.1-3.6c0.4-0.2,0.8-0.2,1.2-0.2c1.4,0,2.6,0.3,3.6,1
			c0.1,0,0.1,0.2,0.1,0.7c0,0.3,0,0.5,0,0.7c0.5,0.1,1.1,0.2,1.8,0.4c0.8,0.2,1.3,0.3,1.7,0.4c0.4,0.1,0.8,0.2,1.3,0.3
			c0.5,0.1,0.9,0.2,1.4,0.2c0.4,0,0.9,0.1,1.3,0.1c2.5,0,4.4-0.6,5.5-1.7c1.1-1.1,1.8-3.1,2.1-5.8c-3.2,2.5-6.4,3.7-9.6,3.7
			c-5.4,0-8.1-3.7-8.1-11.2c0-1.7,0.1-3.3,0.3-4.7c0,0-0.2,0-0.4,0c-0.5,0-1.2-0.1-2.1-0.2c-0.4-0.6-0.5-1.7-0.5-3.2
			c0-1.7,0.2-2.9,0.6-3.6c2.4-0.6,4.5-1,6.5-1c2.1,0,3.9,0.3,5.4,0.9c0.6,0.8,0.9,1.9,0.9,3.4c0,1.4-0.2,2.4-0.7,3.2
			c-0.3,0.2-0.7,0.3-1.1,0.3c-0.1,0-0.2,0-0.3,0c-0.1,0-0.1-0.1-0.2-0.1s-0.1-0.1-0.2-0.1c-0.2,0.9-0.2,1.9-0.2,3
			c0,1.8,0.4,3.1,1.1,4.1c0.7,1,1.6,1.4,2.7,1.4c1.3,0,2.4-0.5,3.4-1.6c1-1.1,1.5-2.6,1.5-4.4c0-0.8-0.1-1.6-0.3-2.5
			c-0.4,0.2-0.9,0.3-1.4,0.3c-0.6,0-0.9-0.1-1-0.2c-0.5-0.2-0.7-1.1-0.7-2.7c0-1.6,0.2-2.6,0.7-2.9c1.5-1,4.1-1.5,8-1.5
			c3.4,0,5.6,0.4,6.5,1c0.1,0.4,0.1,1,0.1,1.8c0,1.7-0.2,2.8-0.5,3.2c-0.2,0.3-0.6,0.4-1.3,0.4c-0.4,0-0.9-0.2-1.6-0.5
			c0,0.7,0.1,1.8,0.2,3.2c0.1,1.5,0.2,2.9,0.3,4.3c0.1,1.4,0.1,2.7,0.1,3.9c0,3.2-0.3,5.9-1,8.3c-0.7,2.3-1.6,4.1-2.8,5.5
			c-1.2,1.3-2.5,2.3-3.9,2.9c-1.4,0.6-2.9,0.9-4.6,0.9c-1.7,0-3,0-4-0.1c-1,0-2.2-0.2-3.7-0.5c-1.5-0.3-2.9-0.8-4.1-1.4
			c-0.3,1-0.5,1.6-0.5,1.6c-0.2,0.2-0.9,0.2-2,0.2c-1.9,0-2.9-0.1-3-0.4C314,227.7,314,227.2,314,226.6z"/>
		<path fill="#157C64" d="M348.1,207.5c0-2.2,0.6-4.4,1.7-6.6s2.8-4,5-5.4c2.2-1.5,4.5-2.2,7.1-2.2c3.1,0,5.4,1.1,6.9,3.2
			c1.5,2.1,2.2,4.8,2.2,8c0,4.2-1.1,7.4-3.4,9.6c-2.3,2.2-5.3,3.3-8.9,3.3c-3.4,0-6.1-0.9-7.9-2.8
			C349,212.6,348.1,210.3,348.1,207.5z M357,206.2c0,0.9,0.3,1.7,0.9,2.4c0.6,0.7,1.3,1,2.3,1c1.2,0,2.4-0.5,3.4-1.6
			s1.6-2.3,1.6-3.7c0-1-0.3-1.9-0.9-2.5c-0.6-0.7-1.4-1-2.4-1c-1.3,0-2.5,0.6-3.5,1.8C357.5,203.7,357,205,357,206.2z"/>
		<path fill="#157C64" d="M372.9,198.6c0-2.1,0.2-3.4,0.5-3.9c2.3-0.6,4.4-1,6.3-1c2.1,0,4,0.3,5.5,0.9c0.2,0.2,0.4,0.7,0.7,1.6
			c0.2,0.9,0.4,1.7,0.4,2.4c0,1-0.3,1.9-0.8,2.6c-0.3,0.2-0.8,0.3-1.3,0.3c-0.2,0-0.3,0-0.3,0s-0.1-0.1-0.2-0.1
			c-0.1,0-0.2-0.1-0.3-0.1c-0.2,0.9-0.3,1.8-0.3,2.5c0,1.8,0.4,3.1,1.3,4.1c0.9,1,1.9,1.4,3.2,1.4c1.2,0,2.3-0.5,3.2-1.6
			c0.9-1.1,1.4-2.6,1.4-4.4c0-0.8-0.1-1.6-0.2-2.4c-0.4,0.2-0.8,0.4-1.4,0.4c-0.3,0-0.6-0.1-0.7-0.3c-0.4-0.2-0.7-1.1-0.7-2.8
			c0-1.6,0.2-2.5,0.7-2.8c2.1-1,4.6-1.6,7.5-1.6c3.3,0,5.3,0.4,5.9,1.3c0.3,0.5,0.5,1.2,0.5,2.1c0,1.7-0.4,2.9-1.3,3.4
			c-0.4,0.3-0.8,0.4-1.2,0.4c-0.2,0-0.4,0-0.7-0.1c0,0.9,0,2.3,0.1,4.3s0.1,3.5,0.1,4.5c0.9-0.1,1.5-0.1,1.7-0.1c0.3,0,0.6,0,0.8,0
			c0.1,0.1,0.2,0.4,0.2,1c0,0.8-0.1,1.9-0.4,3.1c-0.3,1.2-0.6,2-0.8,2.3c-0.3,0.2-1.1,0.4-2.3,0.6c-1.2,0.2-2.4,0.3-3.6,0.3
			c-1.4,0-2.5-0.2-3.2-0.6c-0.3-0.2-0.4-0.6-0.4-1.2c0-0.1,0.1-0.6,0.2-1.6c-3.3,2.5-6.3,3.7-9.1,3.7c-2.4,0-4.4-0.9-5.8-2.6
			c-1.5-1.7-2.2-4.3-2.2-7.9c0-0.6,0.1-2.3,0.3-5.1c0,0.1-0.1,0.1-0.4,0.1c-0.4,0-1.1-0.1-2.2-0.2
			C373,201.3,372.9,200.3,372.9,198.6z"/>
		<path fill="#157C64" d="M406.9,198.4c0.1-4.4,0.7-7.9,1.8-10.6c1.5-0.8,3-1.2,4.4-1.2c0.6,0,1.4,0.1,2.4,0.4
			c-0.6,3.4-2.3,6.8-5,10.1c-1.1,1-2.1,1.4-2.8,1.4C407.3,198.4,407.1,198.4,406.9,198.4z"/>
		<path fill="#157C64" d="M417.5,196.6c0-1.5,0.1-2.3,0.2-2.6c1.2-0.6,3.5-0.8,6.9-0.8c1.3,0,2.2,0.1,2.9,0.3c0.6,0.2,1.3,0.5,1.8,1
			c0,0.5,0,1.3,0,2.4l0.1-0.4c0.1-0.2,0.3-0.5,0.6-0.9c0.3-0.4,0.6-0.7,0.9-1.1s0.9-0.7,1.6-0.9c0.7-0.2,1.4-0.4,2.3-0.4
			c2.3,0,4.3,1,5.9,3c-0.6,2.9-2.3,4.9-5.1,6.1c-1.1-0.8-2.1-1.2-3.1-1.2c-1.2,0-2.2,0.6-2.8,1.8c-0.7,1.2-1,2.7-1,4.5
			c0,0.6,0,1.3,0.1,2c0.2,0,0.7,0.1,1.6,0.3l0.5,0.1c0.4,0.3,0.6,1.2,0.6,2.4c0,0.9-0.1,1.8-0.4,2.8c-0.2,0.9-0.5,1.6-0.9,2
			c-0.6,0.1-2.2,0.2-4.9,0.2c-1.6,0-3.2-0.2-4.8-0.5c-1.6-0.3-2.6-0.6-2.7-0.9c-0.1-0.4-0.1-1.2-0.1-2.6c0-2.4,0.1-3.7,0.4-3.9
			c1.3-0.3,2.1-0.4,2.5-0.4c0.5,0,0.8,0,1.2,0.1c-0.5-0.4-0.8-2.6-0.8-6.7c0-1.4,0-2.2,0.1-2.3c-0.4,0.1-0.7,0.1-1,0.1
			c-1.1,0-1.9-0.3-2.3-0.8C417.6,198.9,417.5,198.1,417.5,196.6z"/>
		<path fill="#157C64" d="M440.6,206.5c0-1.4,0.3-2.9,0.9-4.4c0.6-1.5,1.4-2.9,2.5-4.3s2.6-2.4,4.4-3.3s3.9-1.3,6.2-1.3
			c2.5,0,4.5,0.5,6,1.5s2.1,2.5,2.1,4.4c0,2.6-1.2,4.7-3.6,6.3c-2.4,1.6-5,2.4-8,2.4c-0.8,0-1.6-0.1-2.4-0.2
			c0.1,2.2,1.9,3.3,5.6,3.3c0.6,0,1.2,0,1.7-0.1c0-0.2,0-0.5,0.1-0.8c1.3-1.1,2.8-1.6,4.4-1.6c0.3,0,0.5,0,0.7,0
			c2,1.1,3.3,2.9,3.7,5.4c0,0.2-0.1,0.5-0.3,0.8c-0.2,0.3-0.4,0.5-0.6,0.7c-0.2,0.2-0.5,0.4-0.9,0.7s-0.7,0.4-0.9,0.6
			c-0.2,0.1-0.6,0.3-1,0.5c-0.4,0.2-0.7,0.4-0.8,0.4c-0.2,0-0.3,0-0.5-0.1c-0.1,0-0.2-0.1-0.3-0.2c-0.1-0.1-0.2-0.2-0.2-0.2
			c0,0-0.1-0.2-0.2-0.3c-0.1-0.2-0.2-0.3-0.2-0.3c-1.7,0.7-3.5,1-5.3,1c-4.1,0-7.3-1.1-9.6-3.2C441.8,212.1,440.6,209.5,440.6,206.5
			z M449.6,201.7c0,1,0.7,1.5,2.2,1.5c1.1,0,2.2-0.3,3.2-0.8s1.5-1.2,1.5-1.9c0-0.5-0.2-1.1-0.5-1.6c-0.4-0.6-0.9-0.9-1.7-0.9
			c-1,0-2,0.4-3.1,1.1C450.1,200,449.6,200.8,449.6,201.7z"/>
		<path fill="#157C64" d="M385.4,268.7c0-1.9,0.4-3.1,1.2-3.6c0.4-0.3,0.8-0.4,1.2-0.4c0.2,0,0.4,0,0.7,0.1c0-0.9,0-2.3-0.1-4.3
			c-0.1-2-0.1-3.4-0.1-4.4c-0.1,0-0.3,0-0.6,0.1c-0.2,0.1-0.4,0.1-0.6,0.1c-0.1,0-0.3,0-0.6-0.1c-0.2-0.1-0.4-0.1-0.6-0.1
			c-0.1-0.1-0.2-0.4-0.2-1c0-0.8,0.1-1.9,0.4-3.1c0.2-1.2,0.5-2,0.7-2.3c0.3-0.2,1.1-0.4,2.2-0.6c1.1-0.2,2.2-0.3,3.4-0.3
			c1.5,0,2.7,0.2,3.7,0.6c0.2,0.2,0.3,0.6,0.3,1.2c0,0.1-0.1,0.6-0.2,1.6c3.2-2.5,6.2-3.7,9-3.7c2.9,0,5.2,1.2,6.6,3.6
			c3.6-2.4,6.8-3.6,9.7-3.6c2.3,0,4.2,0.9,5.7,2.6c1.5,1.7,2.2,4.3,2.2,7.8c0,0.5-0.1,2.1-0.3,5c0-0.1,0.1-0.1,0.4-0.1
			c0.4,0,1.2,0.1,2.2,0.2c0.3,0.3,0.4,1.3,0.4,3c0,2.1-0.2,3.5-0.5,4c-2.3,0.6-4.4,0.9-6.3,0.9c-2.1,0-4-0.3-5.5-0.8
			c-0.2-0.2-0.4-0.7-0.7-1.7c-0.2-0.9-0.4-1.8-0.4-2.4c0-1,0.3-1.9,0.8-2.7c0.3-0.2,0.8-0.3,1.3-0.3c0.2,0,0.3,0,0.3,0
			s0.1,0.1,0.2,0.1c0.1,0,0.2,0.1,0.3,0.1c0.2-0.9,0.3-1.7,0.3-2.5c0-1.8-0.4-3.1-1.2-4s-1.8-1.4-3-1.4c-0.9,0-1.7,0.3-2.5,0.8
			c-0.8,0.5-1.4,1.3-1.8,2.2c-0.1,2.2-0.2,3.7-0.3,4.5c0-0.1,0.1-0.1,0.4-0.1c0.4,0,1.1,0.1,2.2,0.2c0.3,0.3,0.4,1.3,0.4,3
			c0,2.1-0.2,3.5-0.5,4c-2.3,0.6-4.4,0.9-6.3,0.9c-2.1,0-4-0.3-5.5-0.8c-0.2-0.2-0.4-0.7-0.7-1.7c-0.2-0.9-0.4-1.8-0.4-2.4
			c0-1,0.3-1.9,0.8-2.7c0.3-0.2,0.8-0.3,1.3-0.3c0.2,0,0.3,0,0.3,0c0.1,0,0.1,0.1,0.2,0.1c0.1,0,0.2,0.1,0.3,0.1
			c0.1-0.7,0.2-1.3,0.2-1.8c0-2.1-0.4-3.6-1.2-4.6c-0.8-1-1.8-1.5-3.1-1.5c-1.2,0-2.3,0.5-3.3,1.6c-0.9,1.1-1.4,2.5-1.4,4.4
			c0,0.8,0.1,1.6,0.3,2.5c0.4-0.2,0.8-0.3,1.4-0.3c0.5,0,0.9,0.1,1,0.2c0.3,0,0.5,0.6,0.5,1.9c0,0.3-0.2,1.6-0.5,3.8
			c-2.2,1-5,1.5-8.3,1.5c-2.9,0-4.7-0.4-5.5-1.3C385.6,270.2,385.4,269.6,385.4,268.7z"/>
		<path fill="#157C64" d="M431.7,281.8c0-1.5,0.2-3.3,0.7-5.4c0.4-2.1,0.8-3.3,1.1-3.6c0.4-0.2,0.8-0.2,1.2-0.2c1.4,0,2.6,0.3,3.6,1
			c0.1,0,0.1,0.2,0.1,0.7c0,0.3,0,0.5,0,0.7c0.5,0.1,1.1,0.2,1.8,0.4c0.8,0.2,1.3,0.3,1.7,0.4c0.4,0.1,0.8,0.2,1.3,0.3
			c0.5,0.1,0.9,0.2,1.4,0.2c0.4,0,0.9,0.1,1.3,0.1c2.5,0,4.4-0.6,5.5-1.7c1.1-1.1,1.8-3.1,2.1-5.8c-3.2,2.5-6.4,3.7-9.6,3.7
			c-5.4,0-8.1-3.7-8.1-11.2c0-1.7,0.1-3.3,0.3-4.7c0,0-0.2,0-0.4,0c-0.5,0-1.2-0.1-2.1-0.2c-0.4-0.6-0.5-1.7-0.5-3.2
			c0-1.7,0.2-2.9,0.6-3.6c2.4-0.6,4.5-1,6.5-1c2.1,0,3.9,0.3,5.4,0.9c0.6,0.8,0.9,1.9,0.9,3.4c0,1.4-0.2,2.4-0.7,3.2
			c-0.3,0.2-0.7,0.3-1.1,0.3c-0.1,0-0.2,0-0.3,0c-0.1,0-0.1-0.1-0.2-0.1s-0.1-0.1-0.2-0.1c-0.2,0.9-0.2,1.9-0.2,3
			c0,1.8,0.4,3.1,1.1,4.1c0.7,1,1.6,1.4,2.7,1.4c1.3,0,2.4-0.5,3.4-1.6c1-1.1,1.5-2.6,1.5-4.4c0-0.8-0.1-1.6-0.3-2.5
			c-0.4,0.2-0.9,0.3-1.4,0.3c-0.6,0-0.9-0.1-1-0.2c-0.5-0.2-0.7-1.1-0.7-2.7c0-1.6,0.2-2.6,0.7-2.9c1.5-1,4.1-1.5,8-1.5
			c3.4,0,5.6,0.4,6.5,1c0.1,0.4,0.1,1,0.1,1.8c0,1.7-0.2,2.8-0.5,3.2c-0.2,0.3-0.6,0.4-1.3,0.4c-0.4,0-0.9-0.2-1.6-0.5
			c0,0.7,0.1,1.8,0.2,3.2c0.1,1.5,0.2,2.9,0.3,4.3c0.1,1.4,0.1,2.7,0.1,3.9c0,3.2-0.3,5.9-1,8.3c-0.7,2.3-1.6,4.1-2.8,5.5
			c-1.2,1.3-2.5,2.3-3.9,2.9c-1.4,0.6-2.9,0.9-4.6,0.9c-1.7,0-3,0-4-0.1c-1,0-2.2-0.2-3.7-0.5c-1.5-0.3-2.9-0.8-4.1-1.4
			c-0.3,1-0.5,1.6-0.5,1.6c-0.2,0.2-0.9,0.2-2,0.2c-1.9,0-2.9-0.1-3-0.4C431.7,282.9,431.7,282.4,431.7,281.8z"/>
		<path fill="#157C64" d="M320.2,295.7c0-1.4,0.1-2.3,0.2-2.6l0.4-0.2c0.2-0.1,0.9-0.3,1.9-0.4c1-0.2,2.3-0.3,3.8-0.3
			c3.5,0,5.8,0.5,6.8,1.4c0.2,0.3,0.2,2,0.2,5c0,1.3,0,2.5-0.1,3.7c0,1.1-0.1,1.8-0.1,1.8c1.3-0.4,2.6-0.6,4-0.6
			c3.2,0,5.7,1.2,7.6,3.7c1.9,2.4,2.8,5.2,2.8,8.4c0,1.8-0.3,3.5-0.9,5.3c-0.6,1.8-1.6,3.3-3,4.6c-1.3,1.3-2.9,2-4.6,2
			c-1,0-2.2-0.4-3.7-1.1s-2.5-1.2-3-1.4c0,0,0,0.2,0,0.4c0,0.5-0.1,1-0.2,1.6c-0.6,0.1-2.4,0.2-5.3,0.2c-1.4,0-2.7-0.1-3.8-0.4
			c-1.1-0.3-1.8-0.6-2-0.9c-0.1-0.4-0.1-1.2-0.1-2.5c0-2.3,0.1-3.6,0.4-3.8c0.9-0.2,1.9-0.3,2.8-0.3c0.5,0,0.7,0,0.8,0
			c-0.3-1.8-0.5-5.4-0.5-11c0-1.5,0-3.3,0.1-5.3c0.1-2,0.1-3.3,0.1-3.8c-0.3,0.1-0.7,0.1-1,0.1c-0.6,0-1.3-0.1-2.1-0.2
			c-0.8-0.2-1.3-0.4-1.5-0.6C320.3,298.1,320.2,297.2,320.2,295.7z M332.7,314c0,1.5,0.5,2.8,1.6,3.9s2.2,1.7,3.5,1.7
			c0.9,0,1.7-0.4,2.3-1.1s0.9-1.6,0.9-2.6c0-1.3-0.5-2.6-1.4-3.9c-1-1.2-2.1-1.9-3.5-1.9c-1,0-1.8,0.4-2.4,1.1
			C333,312,332.7,312.9,332.7,314z"/>
		<path fill="#157C64" d="M349,316.9c0-1.4,0.3-2.9,0.9-4.4c0.6-1.5,1.4-2.9,2.5-4.3s2.6-2.4,4.4-3.3s3.9-1.3,6.2-1.3
			c2.5,0,4.5,0.5,6,1.5s2.1,2.5,2.1,4.4c0,2.6-1.2,4.7-3.6,6.3c-2.4,1.6-5,2.4-8,2.4c-0.8,0-1.6-0.1-2.4-0.2
			c0.1,2.2,1.9,3.3,5.6,3.3c0.6,0,1.2,0,1.7-0.1c0-0.2,0-0.5,0.1-0.8c1.3-1.1,2.8-1.6,4.4-1.6c0.3,0,0.5,0,0.7,0
			c2,1.1,3.3,2.9,3.7,5.4c0,0.2-0.1,0.5-0.3,0.8c-0.2,0.3-0.4,0.5-0.6,0.7c-0.2,0.2-0.5,0.4-0.9,0.7s-0.7,0.4-0.9,0.6
			c-0.2,0.1-0.6,0.3-1,0.5c-0.4,0.2-0.7,0.4-0.8,0.4c-0.2,0-0.3,0-0.5-0.1c-0.1,0-0.2-0.1-0.3-0.2c-0.1-0.1-0.2-0.2-0.2-0.2
			c0,0-0.1-0.2-0.2-0.3c-0.1-0.2-0.2-0.3-0.2-0.3c-1.7,0.7-3.5,1-5.3,1c-4.1,0-7.3-1.1-9.6-3.2C350.1,322.5,349,319.9,349,316.9z
			 M358,312.1c0,1,0.7,1.5,2.2,1.5c1.1,0,2.2-0.3,3.2-0.8s1.5-1.2,1.5-1.9c0-0.5-0.2-1.1-0.5-1.6c-0.4-0.6-0.9-0.9-1.7-0.9
			c-1,0-2,0.4-3.1,1.1C358.5,310.4,358,311.2,358,312.1z"/>
		<path fill="#157C64" d="M373.7,305.1c0-0.6,0.1-1,0.2-1.2c0.9-0.1,1.5-0.2,1.9-0.2c0.1,0,0.3,0,0.5,0s0.4,0,0.5,0h0.2v-8.6
			c2.4-0.2,3.8-0.3,4.3-0.3c1.1,0,2.5,0.1,4.2,0.3l0,8.7c2.7,0.1,4.3,0.3,4.9,0.6c0.4,0.5,0.7,2,0.7,4.3c0,0.6-0.1,1-0.2,1.2
			c-0.9,0.1-1.6,0.2-2.1,0.2h-0.4c-0.2,0-0.6,0-1.2,0c-0.6,0-1.2,0-2,0c0,0.2,0,1.3,0,3.3c0,2.1,0,3.2,0,3.4c0,1.3,0.2,2.3,0.8,2.8
			c0.5,0.5,1.3,0.8,2.3,0.8c0.3,0,0.6,0,0.6-0.1c0.1-0.1,0.1-0.3,0.2-0.6c0-0.2,0.4-0.4,1.2-0.6l3.1-0.7c0.3,0.9,0.5,1.9,0.5,3.1
			c0,2.3-0.2,3.8-0.6,4.3c-0.1,0.1-0.4,0.2-0.7,0.4c-0.4,0.2-0.6,0.3-0.7,0.4c-0.1,0-0.3,0.1-0.7,0.3c-0.3,0.1-0.6,0.2-0.8,0.3
			c-0.2,0-0.6,0.1-1,0.2c-0.4,0.1-0.9,0.1-1.4,0.1s-1.1,0-1.8,0c-1.3,0-2.4-0.1-3.2-0.2c-0.8-0.1-1.6-0.4-2.4-0.9s-1.4-1-1.8-1.8
			c-0.4-0.8-0.8-1.8-1.1-3.2c-0.3-1.3-0.5-2.9-0.5-4.8c0-1.9,0-4.1,0-6.8c-1.3-0.2-2.3-0.4-2.7-0.6
			C373.9,308.9,373.7,307.5,373.7,305.1z"/>
		<path fill="#157C64" d="M394.4,305.1c0-0.6,0.1-1,0.2-1.2c0.9-0.1,1.5-0.2,1.9-0.2c0.1,0,0.3,0,0.5,0s0.4,0,0.5,0h0.2v-8.6
			c2.4-0.2,3.8-0.3,4.3-0.3c1.1,0,2.5,0.1,4.2,0.3l0,8.7c2.7,0.1,4.3,0.3,4.9,0.6c0.4,0.5,0.7,2,0.7,4.3c0,0.6-0.1,1-0.2,1.2
			c-0.9,0.1-1.6,0.2-2.1,0.2h-0.4c-0.2,0-0.6,0-1.2,0c-0.6,0-1.2,0-2,0c0,0.2,0,1.3,0,3.3c0,2.1,0,3.2,0,3.4c0,1.3,0.2,2.3,0.8,2.8
			c0.5,0.5,1.3,0.8,2.3,0.8c0.3,0,0.6,0,0.6-0.1c0.1-0.1,0.1-0.3,0.2-0.6c0-0.2,0.4-0.4,1.2-0.6l3.1-0.7c0.3,0.9,0.5,1.9,0.5,3.1
			c0,2.3-0.2,3.8-0.6,4.3c-0.1,0.1-0.4,0.2-0.7,0.4c-0.4,0.2-0.6,0.3-0.7,0.4c-0.1,0-0.3,0.1-0.7,0.3c-0.3,0.1-0.6,0.2-0.8,0.3
			c-0.2,0-0.6,0.1-1,0.2c-0.4,0.1-0.9,0.1-1.4,0.1s-1.1,0-1.8,0c-1.3,0-2.4-0.1-3.2-0.2c-0.8-0.1-1.6-0.4-2.4-0.9s-1.4-1-1.8-1.8
			c-0.4-0.8-0.8-1.8-1.1-3.2c-0.3-1.3-0.5-2.9-0.5-4.8c0-1.9,0-4.1,0-6.8c-1.3-0.2-2.3-0.4-2.7-0.6
			C394.6,308.9,394.4,307.5,394.4,305.1z"/>
		<path fill="#157C64" d="M415.9,316.9c0-1.4,0.3-2.9,0.9-4.4c0.6-1.5,1.4-2.9,2.5-4.3s2.6-2.4,4.4-3.3s3.9-1.3,6.2-1.3
			c2.5,0,4.5,0.5,6,1.5s2.1,2.5,2.1,4.4c0,2.6-1.2,4.7-3.6,6.3c-2.4,1.6-5,2.4-8,2.4c-0.8,0-1.6-0.1-2.4-0.2
			c0.1,2.2,1.9,3.3,5.6,3.3c0.6,0,1.2,0,1.7-0.1c0-0.2,0-0.5,0.1-0.8c1.3-1.1,2.8-1.6,4.4-1.6c0.3,0,0.5,0,0.7,0
			c2,1.1,3.3,2.9,3.7,5.4c0,0.2-0.1,0.5-0.3,0.8c-0.2,0.3-0.4,0.5-0.6,0.7c-0.2,0.2-0.5,0.4-0.9,0.7s-0.7,0.4-0.9,0.6
			c-0.2,0.1-0.6,0.3-1,0.5c-0.4,0.2-0.7,0.4-0.8,0.4c-0.2,0-0.3,0-0.5-0.1c-0.1,0-0.2-0.1-0.3-0.2c-0.1-0.1-0.2-0.2-0.2-0.2
			c0,0-0.1-0.2-0.2-0.3c-0.1-0.2-0.2-0.3-0.2-0.3c-1.7,0.7-3.5,1-5.3,1c-4.1,0-7.3-1.1-9.6-3.2C417.1,322.5,415.9,319.9,415.9,316.9
			z M424.9,312.1c0,1,0.7,1.5,2.2,1.5c1.1,0,2.2-0.3,3.2-0.8s1.5-1.2,1.5-1.9c0-0.5-0.2-1.1-0.5-1.6c-0.4-0.6-0.9-0.9-1.7-0.9
			c-1,0-2,0.4-3.1,1.1C425.4,310.4,424.9,311.2,424.9,312.1z"/>
		<path fill="#157C64" d="M442,307c0-1.5,0.1-2.3,0.2-2.6c1.2-0.6,3.5-0.8,6.9-0.8c1.3,0,2.2,0.1,2.9,0.3c0.6,0.2,1.3,0.5,1.8,1
			c0,0.5,0,1.3,0,2.4l0.1-0.4c0.1-0.2,0.3-0.5,0.6-0.9c0.3-0.4,0.6-0.7,0.9-1.1s0.9-0.7,1.6-0.9c0.7-0.2,1.4-0.4,2.3-0.4
			c2.3,0,4.3,1,5.9,3c-0.6,2.9-2.3,4.9-5.1,6.1c-1.1-0.8-2.1-1.2-3.1-1.2c-1.2,0-2.2,0.6-2.8,1.8c-0.7,1.2-1,2.7-1,4.5
			c0,0.6,0,1.3,0.1,2c0.2,0,0.7,0.1,1.6,0.3l0.5,0.1c0.4,0.3,0.6,1.2,0.6,2.4c0,0.9-0.1,1.8-0.4,2.8c-0.2,0.9-0.5,1.6-0.9,2
			c-0.6,0.1-2.2,0.2-4.9,0.2c-1.6,0-3.2-0.2-4.8-0.5c-1.6-0.3-2.6-0.6-2.7-0.9c-0.1-0.4-0.1-1.2-0.1-2.6c0-2.4,0.1-3.7,0.4-3.9
			c1.3-0.3,2.1-0.4,2.5-0.4c0.5,0,0.8,0,1.2,0.1c-0.5-0.4-0.8-2.6-0.8-6.7c0-1.4,0-2.2,0.1-2.3c-0.4,0.1-0.7,0.1-1,0.1
			c-1.1,0-1.9-0.3-2.3-0.8C442.1,309.3,442,308.5,442,307z"/>
		<path fill="#157C64" d="M369.4,352.7c0-2.3,0.4-3.7,1.3-4.1c1-0.6,2.9-0.9,5.6-0.9c1.4,0,3,0.2,4.8,0.6c0.7,1,1,3.7,1,8
			c0,3.2-0.2,5.2-0.5,6.2c3.3-2.5,6.3-3.7,9.1-3.7c2.4,0,4.4,0.9,5.8,2.6c1.5,1.7,2.2,4.4,2.2,7.9c0,0.6-0.1,2.3-0.3,5.1
			c0-0.1,0.1-0.1,0.4-0.1c0.5,0,1.2,0.1,2.2,0.2c0.3,0.3,0.4,1.3,0.4,3c0,2.1-0.2,3.5-0.5,4c-2.3,0.5-4.4,0.7-6.3,0.7
			c-2.1,0-4-0.2-5.5-0.6c-0.2-0.2-0.4-0.7-0.7-1.7c-0.2-0.9-0.4-1.8-0.4-2.5c0-1,0.3-1.9,0.8-2.7c0.3-0.2,0.8-0.3,1.3-0.3
			c0.2,0,0.3,0,0.3,0s0.1,0.1,0.2,0.1c0.1,0,0.2,0.1,0.3,0.1c0.2-0.9,0.3-1.8,0.3-2.6c0-1.8-0.4-3.2-1.3-4.1c-0.9-1-1.9-1.4-3.1-1.4
			c-1.3,0-2.4,0.6-3.3,1.7s-1.4,2.6-1.4,4.5c0,0.8,0.1,1.6,0.2,2.5c0.3-0.3,0.8-0.4,1.3-0.4c0.5,0,0.8,0.1,0.9,0.3
			c0.3,0,0.4,0.6,0.4,1.9c0,0.3-0.1,1.6-0.4,3.8c-2.2,0.9-4.8,1.4-7.8,1.4c-3.4,0-5.4-0.4-6-1.3c-0.3-0.4-0.4-0.9-0.4-1.5
			c0-2.2,0.4-3.5,1.2-4c0.4-0.3,0.9-0.4,1.7-0.4c0.2,0,0.4,0,0.7,0.1c-0.3-2.1-0.5-6.3-0.5-12.5c0-4.1,0.1-6.7,0.3-7.8
			c-0.5,0.2-1.2,0.2-2.2,0.2c-0.7,0-1.3-0.1-1.9-0.2C369.5,354.7,369.4,353.9,369.4,352.7z"/>
		<path fill="#157C64" d="M403.3,372.6c0-2.2,0.3-4.3,1-6.3c0.7-2,1.7-3.8,3.2-5.2c1.5-1.4,3.2-2.2,5.3-2.2c0.8,0,1.6,0.1,2.2,0.4
			c0.7,0.2,1.2,0.5,1.6,0.9c0.4,0.4,0.7,0.7,0.9,1.1c0.2,0.4,0.4,0.7,0.5,0.9l0.2,0.4c0-1,0-1.8,0-2.4c1-0.9,2.8-1.3,5.5-1.3
			c0.9,0,1.7,0,2.5,0.1c0.7,0.1,1.3,0.1,1.6,0.2s0.7,0.2,0.9,0.3c0.2,0.1,0.4,0.2,0.4,0.2l0.1,0c0.1,0.3,0.2,1.1,0.2,2.6
			c0,1.5-0.1,2.4-0.2,2.6c-0.4,0.6-1.2,0.8-2.3,0.8c-0.3,0-0.6,0-1-0.1c0.1,0.2,0.1,0.9,0.1,2.2c0,3.9-0.1,6-0.4,6.4
			c0.2-0.1,0.5-0.1,0.8-0.1c0.4,0,1.2,0.2,2.5,0.6c0.2,0.2,0.4,1.6,0.4,4.1c0,1.3,0,2.2-0.1,2.5c-0.2,0.3-0.9,0.7-2,1
			c-1.2,0.3-2.4,0.5-3.7,0.5c-3.7,0-5.8-0.1-6.2-0.2c-0.2-0.6-0.3-1.1-0.3-1.5c0-0.2,0-0.4,0.1-0.5c-0.5,0.2-1.4,0.6-3,1.4
			c-1.5,0.8-2.7,1.2-3.4,1.2c-2.4,0-4.1-1-5.4-3.1C403.9,378,403.3,375.5,403.3,372.6z M409.4,371.7c0,1.1,0.3,2,0.9,2.7
			c0.6,0.8,1.3,1.1,2.3,1.1c1.3,0,2.4-0.6,3.5-1.7c1.1-1.1,1.6-2.5,1.6-3.9c0-1-0.3-1.9-0.9-2.5c-0.6-0.7-1.4-1-2.4-1
			c-0.9,0-1.8,0.3-2.6,0.9c-0.8,0.6-1.4,1.4-1.8,2.4C409.6,370.3,409.4,371,409.4,371.7z"/>
		<path fill="#157C64" d="M431.8,378.4c0-1.5,0.1-2.3,0.3-2.5c0.3-0.2,0.8-0.3,1.6-0.4c0.6-0.1,0.9-0.1,1.1-0.1
			c-0.3-1.8-0.5-4.8-0.5-9c0-4.9,0.2-9.3,0.5-13.1c-0.9,0-1.6-0.1-2.1-0.2c-0.1-0.6-0.1-1.1-0.1-1.5c0-1.3,0.3-2.5,1-3.5
			c1.3-0.3,3.1-0.5,5.3-0.5c1.7,0,3,0.2,3.8,0.5c0.3,2.8,0.5,5.9,0.5,9.1c0,2.3-0.1,5.5-0.3,9.7c-0.2,4.2-0.3,7.1-0.4,8.6
			c0.2,0,0.5,0,0.8,0c0.8,0,1.6,0.2,2.2,0.5c0.1,0.1,0.1,0.4,0.1,0.8c0,0.6-0.1,1.6-0.4,2.8c-0.3,1.2-0.5,2-0.7,2.3
			c-0.5,0.3-2.2,0.4-5,0.4c-4.3,0-6.8-0.4-7.5-1.2C431.9,380.9,431.8,380,431.8,378.4z"/>
		<path fill="#157C64" d="M447.7,364.4c0-2.3,0.1-3.8,0.4-4.3c0.5-0.2,1.5-0.4,2.9-0.6c0-2,0-3.5,0.1-4.6s0.2-2.2,0.4-3.2
			c0.2-1.1,0.5-1.8,0.8-2.2c0.3-0.4,0.9-0.8,1.6-1.2c0.7-0.4,1.5-0.6,2.4-0.7s2-0.1,3.5-0.1c2,0,3.5,0.1,4.4,0.3c1,0.2,1.9,0.5,3,1
			c0.4,0.5,0.6,2,0.6,4.3c0,1.2-0.2,2.2-0.5,3.1l-4.2-1l0.3-1c-0.2,0-0.5,0-0.9,0c-2.3,0-3.5,1.2-3.5,3.6c0,0.2,0,0.5,0,0.9
			c0,0.4,0,0.7,0,0.8h1.8c0.5,0,0.9,0,1.1,0s0.3,0,0.3,0c0.5,0,1.2,0.1,2.1,0.2c0.1,0.1,0.2,0.5,0.2,1.1c0,2.3-0.2,3.8-0.6,4.3
			c-0.5,0.3-2,0.6-4.5,0.6v9.6c0.4-0.2,0.8-0.3,1.4-0.3c0.6,0,0.9,0.1,1,0.2c0.3,0,0.5,0.6,0.5,1.8c0,0.3-0.2,1.5-0.5,3.8
			c-1.3,0.6-2.4,1-3.4,1.2c-1,0.2-2.4,0.3-4,0.3c-3.6,0-5.7-0.4-6.3-1.3c-0.3-0.4-0.4-1.1-0.4-2.2c0-1.8,0.4-2.9,1.3-3.3
			c0.4-0.3,0.9-0.4,1.4-0.4c0.1,0,0.4,0,0.7,0.1c-0.1-6.1-0.1-9.2-0.1-9.5c0,0-0.1,0-0.2,0c-0.1,0-0.3,0-0.5,0h-0.6
			c-0.4,0-1.1-0.1-2-0.2C447.7,365.5,447.7,365.1,447.7,364.4z"/>
	</g>
</g>
</svg>
